M48
; DRILL file {KiCad 7.0.10-7.0.10~ubuntu22.04.1} date Fri 23 Feb 2024 07:53:56 PM CST
; FORMAT={-:-/ absolute / metric / decimal}
; #@! TF.CreationDate,2024-02-23T19:53:56-06:00
; #@! TF.GenerationSoftware,Kicad,Pcbnew,7.0.10-7.0.10~ubuntu22.04.1
; #@! TF.FileFunction,Plated,1,4,PTH
FMAT,2
METRIC
; #@! TA.AperFunction,Plated,PTH,ViaDrill
T1C0.400
; #@! TA.AperFunction,Plated,PTH,ComponentDrill
T2C0.508
; #@! TA.AperFunction,Plated,PTH,ComponentDrill
T3C0.800
; #@! TA.AperFunction,Plated,PTH,ComponentDrill
T4C1.400
%
G90
G05
T1
X77.978Y-106.807
X80.264Y-99.568
X81.407Y-124.587
X82.042Y-112.649
X82.169Y-105.283
X83.82Y-115.951
X83.82Y-118.745
X86.106Y-109.363
X86.614Y-116.459
X86.614Y-118.11
X88.392Y-129.667
X89.154Y-77.724
X89.535Y-134.747
X89.662Y-112.649
X89.662Y-114.173
X89.662Y-120.269
X89.662Y-121.793
X90.043Y-116.968
X90.043Y-118.237
X90.424Y-113.411
X90.424Y-114.935
X90.424Y-121.031
X90.845Y-99.618
X91.186Y-91.313
X91.186Y-112.649
X91.186Y-114.173
X91.186Y-120.269
X91.186Y-121.793
X91.948Y-113.411
X91.948Y-114.935
X91.948Y-121.031
X92.71Y-112.649
X92.71Y-114.173
X92.71Y-117.221
X92.71Y-120.269
X92.71Y-121.793
X93.472Y-113.411
X93.472Y-116.459
X93.472Y-121.031
X94.234Y-112.649
X94.234Y-114.173
X94.234Y-115.697
X94.234Y-117.221
X94.234Y-118.745
X94.234Y-120.269
X94.234Y-121.793
X94.996Y-111.887
X94.996Y-113.411
X94.996Y-116.459
X94.996Y-117.983
X94.996Y-121.031
X95.758Y-101.981
X95.758Y-103.505
X95.758Y-105.029
X95.758Y-106.553
X95.758Y-108.078
X95.758Y-109.602
X95.758Y-111.125
X95.758Y-112.649
X95.758Y-114.173
X95.758Y-115.697
X95.758Y-117.221
X95.758Y-118.745
X95.758Y-120.269
X95.758Y-121.793
X96.52Y-101.219
X96.52Y-102.743
X96.52Y-104.267
X96.52Y-105.791
X96.52Y-107.316
X96.52Y-108.84
X96.52Y-110.364
X96.52Y-111.887
X96.52Y-113.411
X96.52Y-116.459
X96.52Y-117.983
X96.52Y-121.031
X97.282Y-100.457
X97.282Y-101.981
X97.282Y-103.505
X97.282Y-105.029
X97.282Y-106.553
X97.282Y-108.078
X97.282Y-109.602
X97.282Y-111.125
X97.282Y-112.649
X97.282Y-115.697
X97.282Y-117.221
X97.282Y-118.745
X97.282Y-120.269
X97.282Y-121.793
X98.044Y-131.826
X98.044Y-99.695
X98.044Y-101.219
X98.044Y-102.743
X98.044Y-114.935
X98.044Y-116.459
X98.044Y-117.983
X98.044Y-121.031
X98.806Y-74.549
X98.806Y-76.073
X98.806Y-77.597
X98.806Y-79.121
X98.806Y-80.645
X98.806Y-82.169
X98.806Y-83.694
X98.806Y-85.218
X98.806Y-86.742
X98.806Y-88.266
X98.806Y-89.789
X98.806Y-91.313
X98.806Y-92.837
X98.806Y-94.361
X98.806Y-95.885
X98.806Y-97.409
X98.806Y-98.933
X98.806Y-100.457
X98.806Y-101.981
X98.806Y-105.029
X98.806Y-106.553
X98.806Y-108.078
X98.806Y-109.602
X98.806Y-111.125
X98.806Y-112.649
X98.806Y-114.173
X98.806Y-115.697
X98.806Y-117.221
X98.806Y-118.745
X98.806Y-120.269
X98.806Y-121.793
X99.569Y-73.787
X99.569Y-75.311
X99.569Y-76.835
X99.569Y-78.359
X99.569Y-79.883
X99.569Y-81.407
X99.569Y-82.931
X99.569Y-84.456
X99.569Y-85.98
X99.569Y-87.504
X99.569Y-89.027
X99.569Y-90.551
X99.569Y-92.075
X99.569Y-93.599
X99.569Y-95.123
X99.569Y-96.647
X99.569Y-98.171
X99.569Y-99.695
X99.569Y-101.219
X99.569Y-104.267
X99.569Y-105.791
X99.569Y-107.316
X99.569Y-108.84
X99.569Y-110.364
X99.569Y-111.887
X99.569Y-113.411
X99.569Y-114.935
X99.569Y-116.459
X99.569Y-117.983
X99.569Y-121.031
X100.331Y-73.025
X100.331Y-74.549
X100.331Y-76.073
X100.331Y-77.597
X100.331Y-79.121
X100.331Y-80.645
X100.331Y-82.169
X100.331Y-83.694
X100.331Y-85.218
X100.331Y-86.742
X100.331Y-88.266
X100.331Y-89.789
X100.331Y-91.313
X100.331Y-92.837
X100.331Y-94.361
X100.331Y-95.885
X100.331Y-97.409
X100.331Y-98.933
X100.331Y-100.457
X100.331Y-103.505
X100.331Y-105.029
X100.331Y-106.553
X100.331Y-108.078
X100.331Y-109.602
X100.331Y-111.125
X100.331Y-112.649
X100.331Y-114.173
X100.331Y-115.697
X100.331Y-117.221
X100.331Y-120.269
X100.331Y-121.793
X101.092Y-107.315
X101.093Y-73.787
X101.093Y-75.311
X101.093Y-102.743
X101.093Y-104.267
X101.093Y-105.791
X101.093Y-119.507
X101.093Y-121.031
X101.855Y-66.929
X101.855Y-68.453
X101.855Y-69.977
X101.855Y-71.501
X101.855Y-73.025
X101.855Y-74.549
X101.855Y-77.597
X101.855Y-79.121
X101.855Y-80.645
X101.855Y-82.169
X101.855Y-83.694
X101.855Y-85.218
X101.855Y-86.742
X101.855Y-88.266
X101.855Y-89.789
X101.855Y-91.313
X101.855Y-92.837
X101.855Y-94.361
X101.855Y-95.885
X101.855Y-97.409
X101.855Y-98.933
X101.855Y-100.457
X101.855Y-101.981
X101.855Y-103.505
X101.855Y-105.029
X101.855Y-106.553
X101.855Y-109.602
X101.855Y-111.125
X101.855Y-112.649
X101.855Y-114.173
X101.855Y-115.697
X101.855Y-117.221
X101.855Y-118.745
X101.855Y-120.269
X101.855Y-121.793
X101.855Y-123.317
X101.855Y-124.841
X101.855Y-126.365
X101.855Y-127.889
X101.855Y-129.413
X101.855Y-130.938
X101.855Y-132.462
X102.617Y-67.691
X102.617Y-69.215
X102.617Y-70.739
X102.617Y-72.263
X102.617Y-73.787
X102.617Y-76.835
X102.617Y-78.359
X102.617Y-79.883
X102.617Y-81.407
X102.617Y-82.931
X102.617Y-84.456
X102.617Y-85.98
X102.617Y-87.504
X102.617Y-89.027
X102.617Y-90.551
X102.617Y-92.075
X102.617Y-93.599
X102.617Y-95.123
X102.617Y-96.647
X102.617Y-98.171
X102.617Y-99.695
X102.617Y-101.219
X102.617Y-102.743
X102.617Y-104.267
X102.617Y-105.791
X102.617Y-108.84
X102.617Y-110.364
X102.617Y-111.887
X102.617Y-113.411
X102.617Y-114.935
X102.617Y-116.459
X102.617Y-117.983
X102.617Y-119.507
X102.617Y-121.031
X102.617Y-122.555
X102.617Y-124.079
X102.617Y-125.603
X102.617Y-127.127
X102.617Y-128.651
X102.617Y-130.175
X102.617Y-131.7
X103.378Y-66.929
X103.378Y-68.453
X103.378Y-69.977
X103.378Y-71.501
X103.378Y-73.025
X103.378Y-74.549
X103.378Y-76.073
X103.378Y-77.597
X103.378Y-79.121
X103.378Y-80.645
X103.378Y-82.169
X103.378Y-83.694
X103.378Y-85.218
X103.378Y-86.742
X103.378Y-88.266
X103.378Y-89.789
X103.378Y-91.313
X103.378Y-92.837
X103.378Y-94.361
X103.378Y-95.885
X103.378Y-97.409
X103.378Y-98.933
X103.378Y-100.457
X103.378Y-101.981
X103.378Y-103.505
X103.378Y-105.029
X103.378Y-106.553
X103.378Y-108.078
X103.378Y-109.602
X103.378Y-111.125
X103.378Y-112.649
X103.378Y-114.173
X103.378Y-115.697
X103.378Y-117.221
X103.378Y-118.745
X103.378Y-120.269
X103.378Y-121.793
X103.378Y-123.317
X103.378Y-124.841
X103.378Y-126.365
X103.378Y-127.889
X103.378Y-129.413
X103.378Y-130.938
X103.378Y-132.462
X104.14Y-67.691
X104.14Y-99.695
X104.14Y-131.7
X104.902Y-66.929
X104.902Y-68.453
X104.902Y-98.933
X104.902Y-100.457
X104.902Y-130.938
X104.902Y-132.462
X105.664Y-65.659
X105.664Y-99.695
X106.426Y-130.937
X106.426Y-132.461
X106.426Y-66.929
X106.426Y-68.453
X106.426Y-98.933
X106.426Y-100.457
X107.188Y-64.644
X107.188Y-99.695
X107.95Y-130.937
X107.95Y-132.461
X107.95Y-66.929
X107.95Y-68.453
X107.95Y-98.933
X107.95Y-100.457
X108.712Y-105.663
X108.712Y-73.66
X108.712Y-133.604
X108.712Y-67.691
X108.712Y-99.695
X109.474Y-130.937
X109.474Y-132.461
X109.474Y-66.929
X109.474Y-68.453
X109.474Y-98.933
X109.474Y-100.457
X110.236Y-131.699
X110.236Y-67.691
X110.236Y-99.695
X110.744Y-92.075
X110.998Y-130.937
X110.998Y-132.461
X110.998Y-66.929
X110.998Y-68.453
X110.998Y-98.933
X110.998Y-100.457
X111.378Y-113.918
X111.379Y-81.915
X111.76Y-131.699
X111.76Y-99.695
X112.013Y-102.87
X112.014Y-70.866
X112.522Y-130.937
X112.522Y-132.461
X112.522Y-66.929
X112.522Y-68.453
X112.522Y-98.933
X112.522Y-100.457
X113.284Y-112.014
X113.284Y-131.699
X113.284Y-67.691
X113.284Y-99.695
X114.046Y-130.937
X114.046Y-132.461
X114.046Y-66.929
X114.046Y-68.453
X114.046Y-98.933
X114.046Y-100.457
X114.173Y-109.474
X114.173Y-77.471
X114.808Y-131.699
X114.808Y-67.691
X114.808Y-99.695
X115.57Y-130.937
X115.57Y-132.461
X115.57Y-66.929
X115.57Y-68.453
X115.57Y-98.933
X115.57Y-100.457
X115.697Y-110.49
X115.697Y-78.486
X116.078Y-123.996
X116.332Y-131.699
X116.332Y-67.691
X116.332Y-99.695
X116.84Y-107.188
X116.84Y-108.458
X116.84Y-75.184
X116.84Y-76.454
X116.966Y-104.901
X117.094Y-130.937
X117.094Y-132.461
X117.094Y-66.929
X117.094Y-68.453
X117.094Y-98.933
X117.094Y-100.457
X117.856Y-131.699
X117.856Y-67.691
X117.856Y-99.695
X118.165Y-121.032
X118.166Y-89.029
X118.491Y-73.406
X118.618Y-130.937
X118.618Y-132.461
X118.618Y-66.929
X118.618Y-68.453
X118.618Y-98.933
X118.618Y-100.457
X119.38Y-131.699
X119.38Y-67.691
X119.38Y-99.695
X119.761Y-106.68
X119.888Y-107.823
X119.888Y-75.819
X120.142Y-130.937
X120.142Y-132.461
X120.142Y-66.929
X120.142Y-68.453
X120.142Y-98.933
X120.142Y-100.457
X120.904Y-131.699
X120.904Y-67.691
X120.904Y-99.695
X121.285Y-106.553
X121.666Y-130.937
X121.666Y-132.461
X121.666Y-66.929
X121.666Y-68.453
X121.666Y-98.933
X121.666Y-100.457
X122.301Y-80.264
X122.428Y-131.699
X122.428Y-67.691
X122.428Y-99.695
X123.19Y-130.937
X123.19Y-132.461
X123.191Y-66.929
X123.191Y-68.453
X123.191Y-98.933
X123.191Y-100.457
X123.317Y-81.788
X123.952Y-131.699
X123.953Y-67.691
X123.953Y-99.695
X124.714Y-130.937
X124.714Y-132.461
X124.715Y-66.929
X124.715Y-68.453
X124.715Y-98.933
X124.715Y-100.457
X124.769Y-115.317
X125.024Y-106.428
X125.095Y-80.137
X125.151Y-110.365
X125.222Y-73.533
X125.349Y-124.587
X125.349Y-92.583
X125.476Y-131.699
X125.476Y-67.691
X125.476Y-99.695
X125.983Y-116.331
X126.238Y-130.937
X126.238Y-132.461
X126.238Y-66.929
X126.238Y-68.453
X126.238Y-98.933
X126.238Y-100.457
X126.873Y-84.455
X127.0Y-131.699
X127.0Y-67.691
X127.0Y-99.695
X127.437Y-114.429
X127.438Y-82.425
X127.762Y-130.937
X127.762Y-132.461
X127.762Y-66.929
X127.762Y-68.453
X127.762Y-98.933
X127.762Y-100.457
X128.524Y-131.699
X128.524Y-67.691
X128.524Y-99.695
X129.286Y-130.937
X129.286Y-132.461
X129.286Y-66.929
X129.286Y-68.453
X129.286Y-98.933
X129.286Y-100.457
X130.048Y-131.699
X130.048Y-67.691
X130.048Y-99.695
X130.81Y-130.937
X130.81Y-132.461
X130.81Y-66.929
X130.81Y-68.453
X130.81Y-98.933
X130.81Y-100.457
X130.936Y-119.125
X130.937Y-87.122
X131.247Y-102.491
X131.248Y-70.487
X131.572Y-131.699
X131.572Y-67.691
X131.572Y-99.695
X132.334Y-130.937
X132.334Y-132.461
X132.334Y-66.929
X132.334Y-68.453
X132.334Y-98.933
X132.334Y-100.457
X133.096Y-131.699
X133.096Y-67.691
X133.096Y-99.695
X133.858Y-130.937
X133.858Y-132.461
X133.858Y-66.929
X133.858Y-68.453
X133.858Y-98.933
X133.858Y-100.457
X134.62Y-131.699
X134.62Y-67.691
X134.62Y-99.695
X135.311Y-114.556
X135.311Y-82.552
X135.382Y-130.937
X135.382Y-132.461
X135.382Y-66.929
X135.382Y-68.453
X135.382Y-98.933
X135.382Y-100.457
X136.144Y-131.699
X136.144Y-67.691
X136.144Y-99.695
X136.906Y-130.937
X136.906Y-132.461
X136.906Y-66.929
X136.906Y-68.453
X136.906Y-98.933
X136.906Y-100.457
X137.216Y-106.428
X137.216Y-74.424
X137.47Y-110.365
X137.47Y-121.16
X137.47Y-78.361
X137.47Y-89.156
X137.668Y-131.699
X137.668Y-67.691
X137.668Y-99.695
X138.43Y-130.937
X138.43Y-132.461
X138.43Y-66.929
X138.43Y-68.453
X138.43Y-98.933
X138.43Y-100.457
X139.192Y-131.699
X139.192Y-67.691
X139.192Y-99.695
X139.572Y-129.412
X139.573Y-97.409
X139.954Y-130.937
X139.954Y-132.461
X139.954Y-66.929
X139.954Y-68.453
X139.954Y-98.933
X139.954Y-100.457
X140.716Y-131.699
X140.716Y-67.691
X140.716Y-99.695
X141.478Y-130.937
X141.478Y-132.461
X141.478Y-66.929
X141.478Y-68.453
X141.478Y-98.933
X141.478Y-100.457
X141.859Y-106.045
X141.859Y-110.617
X141.859Y-112.903
X141.859Y-115.316
X141.859Y-74.041
X141.859Y-78.614
X141.859Y-80.9
X141.859Y-83.312
X142.24Y-131.699
X142.24Y-67.691
X142.24Y-99.695
X142.493Y-127.507
X142.494Y-95.504
X143.002Y-130.937
X143.002Y-132.461
X143.002Y-66.929
X143.002Y-68.453
X143.002Y-98.933
X143.002Y-100.457
X143.383Y-117.094
X143.383Y-85.09
X143.764Y-131.699
X143.764Y-67.691
X143.764Y-99.695
X144.017Y-125.349
X144.018Y-93.345
X144.526Y-130.937
X144.526Y-132.461
X144.526Y-66.929
X144.526Y-68.453
X144.526Y-98.933
X144.526Y-100.457
X145.288Y-131.699
X145.288Y-67.691
X145.288Y-99.695
X145.669Y-101.6
X145.669Y-69.596
X145.979Y-117.096
X145.98Y-85.093
X146.05Y-130.937
X146.05Y-132.461
X146.05Y-66.929
X146.05Y-68.453
X146.05Y-98.933
X146.05Y-100.457
X146.812Y-131.699
X146.812Y-67.691
X146.812Y-99.695
X147.574Y-130.937
X147.574Y-132.461
X147.575Y-66.929
X147.575Y-68.453
X147.575Y-98.933
X147.575Y-100.457
X148.336Y-101.6
X148.336Y-131.699
X148.337Y-67.691
X148.337Y-69.596
X148.337Y-99.695
X149.098Y-130.937
X149.098Y-132.461
X149.099Y-66.929
X149.099Y-68.453
X149.099Y-98.933
X149.099Y-100.457
X149.86Y-131.699
X149.861Y-67.691
X149.861Y-99.695
X150.622Y-130.937
X150.622Y-132.461
X150.623Y-66.929
X150.623Y-68.453
X150.623Y-98.933
X150.623Y-100.457
X150.75Y-101.6
X150.75Y-69.596
X151.384Y-131.699
X151.385Y-67.691
X151.385Y-99.695
X152.146Y-130.937
X152.146Y-132.461
X152.147Y-66.929
X152.147Y-68.453
X152.147Y-98.933
X152.147Y-100.457
X152.583Y-117.096
X152.583Y-85.093
X152.908Y-131.699
X152.909Y-67.691
X152.909Y-99.695
X153.289Y-101.6
X153.29Y-69.596
X153.67Y-130.937
X153.67Y-132.461
X153.671Y-66.929
X153.671Y-68.453
X153.671Y-98.933
X153.671Y-100.457
X154.432Y-131.699
X154.433Y-67.691
X154.433Y-99.695
X154.94Y-117.094
X154.94Y-85.09
X155.194Y-130.937
X155.194Y-132.461
X155.195Y-66.929
X155.195Y-68.453
X155.195Y-98.933
X155.195Y-100.457
X155.447Y-120.903
X155.448Y-88.9
X155.956Y-131.699
X155.957Y-67.691
X155.957Y-99.695
X156.718Y-130.937
X156.718Y-132.461
X156.719Y-66.929
X156.719Y-68.453
X156.719Y-98.933
X156.719Y-100.457
X157.48Y-131.699
X157.481Y-67.691
X157.481Y-99.695
X157.607Y-105.029
X157.607Y-107.569
X157.607Y-112.649
X157.607Y-115.062
X157.607Y-73.025
X157.607Y-75.566
X157.607Y-80.645
X157.607Y-83.058
X158.242Y-130.937
X158.242Y-132.461
X158.243Y-66.929
X158.243Y-68.453
X158.243Y-98.933
X158.243Y-100.457
X159.004Y-131.699
X159.004Y-67.691
X159.004Y-99.695
X159.766Y-130.937
X159.766Y-132.461
X159.766Y-66.929
X159.766Y-68.453
X159.766Y-98.933
X159.766Y-100.457
X160.528Y-131.699
X160.528Y-67.691
X160.528Y-99.695
X161.29Y-130.937
X161.29Y-132.461
X161.29Y-66.929
X161.29Y-68.453
X161.29Y-98.933
X161.29Y-100.457
X162.052Y-131.699
X162.052Y-67.691
X162.052Y-99.695
X162.814Y-130.937
X162.814Y-132.461
X162.814Y-66.929
X162.814Y-68.453
X162.814Y-98.933
X162.814Y-100.457
X163.576Y-123.825
X163.576Y-91.821
X163.576Y-114.935
X163.576Y-131.699
X163.576Y-67.691
X163.576Y-82.931
X163.576Y-99.695
X164.338Y-130.937
X164.338Y-132.461
X164.338Y-66.929
X164.338Y-68.453
X164.338Y-98.933
X164.338Y-100.457
X165.1Y-131.699
X165.1Y-67.691
X165.1Y-99.695
X165.734Y-124.078
X165.735Y-92.075
X165.862Y-130.937
X165.862Y-132.461
X165.862Y-66.929
X165.862Y-68.453
X165.862Y-98.933
X165.862Y-100.457
X166.624Y-131.699
X166.624Y-67.691
X166.624Y-99.695
X167.004Y-118.49
X167.004Y-126.491
X167.005Y-86.487
X167.005Y-94.488
X167.315Y-108.46
X167.315Y-114.81
X167.315Y-76.456
X167.315Y-82.806
X167.386Y-130.937
X167.386Y-132.461
X167.386Y-66.929
X167.386Y-68.453
X167.386Y-98.933
X167.386Y-100.457
X168.148Y-131.699
X168.148Y-67.691
X168.148Y-99.695
X168.91Y-130.937
X168.91Y-132.461
X168.91Y-66.929
X168.91Y-68.453
X168.91Y-98.933
X168.91Y-100.457
X169.672Y-131.699
X169.672Y-67.691
X169.672Y-99.695
X170.434Y-130.937
X170.434Y-132.461
X170.434Y-66.929
X170.434Y-68.453
X170.434Y-98.933
X170.434Y-100.457
X171.196Y-131.699
X171.196Y-67.691
X171.196Y-99.695
X171.958Y-130.937
X171.958Y-132.461
X171.958Y-66.929
X171.958Y-68.453
X171.958Y-98.933
X171.958Y-100.457
X172.72Y-131.699
X172.72Y-67.691
X172.72Y-99.695
X173.482Y-130.937
X173.482Y-132.461
X173.482Y-66.929
X173.482Y-68.453
X173.482Y-98.933
X173.482Y-100.457
X174.244Y-131.699
X174.244Y-67.691
X174.244Y-99.695
X174.751Y-129.286
X174.752Y-97.282
X175.006Y-130.937
X175.006Y-132.461
X175.006Y-66.929
X175.006Y-68.453
X175.006Y-98.933
X175.006Y-100.457
X175.189Y-122.176
X175.189Y-90.172
X175.57Y-107.571
X175.57Y-75.567
X175.768Y-131.699
X175.768Y-67.691
X175.768Y-99.695
X176.53Y-130.937
X176.53Y-132.461
X176.53Y-66.929
X176.53Y-68.453
X176.53Y-98.933
X176.53Y-100.457
X177.094Y-107.571
X177.094Y-75.567
X177.292Y-131.699
X177.292Y-67.691
X177.292Y-99.695
X178.054Y-130.937
X178.054Y-132.461
X178.054Y-66.929
X178.054Y-68.453
X178.054Y-98.933
X178.054Y-100.457
X178.816Y-131.699
X178.816Y-67.691
X178.816Y-99.695
X179.578Y-130.937
X179.578Y-132.461
X179.578Y-66.929
X179.578Y-68.453
X179.578Y-98.933
X179.578Y-100.457
X180.34Y-131.699
X180.34Y-67.691
X180.34Y-99.695
X181.102Y-130.937
X181.102Y-132.461
X181.102Y-66.929
X181.102Y-68.453
X181.102Y-98.933
X181.102Y-100.457
X181.864Y-131.699
X181.864Y-67.691
X181.864Y-99.695
X182.372Y-113.03
X182.372Y-115.189
X182.372Y-117.348
X182.373Y-81.026
X182.373Y-83.185
X182.373Y-85.344
X182.499Y-102.87
X182.499Y-105.283
X182.499Y-107.569
X182.499Y-70.867
X182.499Y-73.279
X182.499Y-75.566
X182.626Y-130.937
X182.626Y-132.461
X182.626Y-66.929
X182.626Y-68.453
X182.626Y-98.933
X182.626Y-100.457
X183.388Y-131.699
X183.388Y-67.691
X183.388Y-99.695
X183.515Y-118.872
X183.516Y-86.868
X183.641Y-125.983
X183.642Y-93.98
X184.15Y-130.937
X184.15Y-132.461
X184.15Y-66.929
X184.15Y-68.453
X184.15Y-98.933
X184.15Y-100.457
X184.785Y-102.87
X184.785Y-70.867
X184.912Y-131.699
X184.912Y-67.691
X184.912Y-99.695
X185.674Y-130.937
X185.674Y-132.461
X185.674Y-66.929
X185.674Y-68.453
X185.674Y-98.933
X185.674Y-100.457
X186.309Y-118.872
X186.309Y-86.868
X186.436Y-131.699
X186.436Y-67.691
X186.436Y-99.695
X187.198Y-130.937
X187.198Y-132.461
X187.198Y-66.929
X187.198Y-68.453
X187.198Y-98.933
X187.198Y-100.457
X187.325Y-102.87
X187.326Y-70.867
X187.96Y-131.699
X187.96Y-67.691
X187.96Y-99.695
X188.722Y-130.937
X188.722Y-132.461
X188.722Y-66.929
X188.722Y-68.453
X188.722Y-98.933
X188.722Y-100.457
X189.016Y-127.762
X189.016Y-95.758
X189.484Y-131.699
X189.484Y-67.691
X189.484Y-99.695
X189.865Y-102.87
X189.865Y-70.867
X190.246Y-130.937
X190.246Y-132.461
X190.246Y-66.929
X190.246Y-68.453
X190.246Y-98.933
X190.246Y-100.457
X191.008Y-131.699
X191.008Y-67.691
X191.008Y-99.695
X191.77Y-130.937
X191.77Y-132.461
X191.77Y-66.929
X191.77Y-68.453
X191.77Y-98.933
X191.77Y-100.457
X192.405Y-102.87
X192.405Y-70.867
X192.531Y-118.617
X192.532Y-86.614
X192.532Y-131.699
X192.532Y-67.691
X192.532Y-99.695
X193.294Y-130.937
X193.294Y-132.461
X193.294Y-66.929
X193.294Y-68.453
X193.294Y-98.933
X193.294Y-100.457
X194.056Y-131.699
X194.056Y-67.691
X194.056Y-99.695
X194.563Y-121.03
X194.564Y-89.026
X194.818Y-130.937
X194.818Y-132.461
X194.819Y-66.929
X194.819Y-68.453
X194.819Y-98.933
X194.819Y-100.457
X194.945Y-102.87
X194.945Y-70.867
X195.326Y-118.617
X195.326Y-86.614
X195.58Y-131.699
X195.581Y-67.691
X195.581Y-99.695
X196.342Y-130.937
X196.342Y-132.461
X196.343Y-66.929
X196.343Y-68.453
X196.343Y-98.933
X196.343Y-100.457
X196.889Y-129.285
X196.889Y-97.282
X197.104Y-102.87
X197.104Y-131.699
X197.105Y-67.691
X197.105Y-70.867
X197.105Y-99.695
X197.866Y-130.937
X197.866Y-132.461
X197.867Y-66.929
X197.867Y-68.453
X197.867Y-98.933
X197.867Y-100.457
X198.247Y-104.648
X198.247Y-106.68
X198.247Y-109.22
X198.247Y-114.553
X198.247Y-116.586
X198.248Y-72.644
X198.248Y-74.676
X198.248Y-77.216
X198.248Y-82.55
X198.248Y-84.582
X198.628Y-131.699
X198.629Y-67.691
X198.629Y-99.695
X199.39Y-130.937
X199.39Y-132.461
X199.391Y-66.929
X199.391Y-68.453
X199.391Y-98.933
X199.391Y-100.457
X200.152Y-131.699
X200.153Y-67.691
X200.153Y-99.695
X200.914Y-130.937
X200.914Y-132.461
X200.915Y-66.929
X200.915Y-68.453
X200.915Y-98.933
X200.915Y-100.457
X201.676Y-131.699
X201.677Y-67.691
X201.677Y-99.695
X202.438Y-130.937
X202.438Y-132.461
X202.439Y-66.929
X202.439Y-68.453
X202.439Y-98.933
X202.439Y-100.457
X203.2Y-131.699
X203.2Y-67.691
X203.2Y-99.695
X203.707Y-109.474
X203.708Y-77.47
X203.962Y-130.937
X203.962Y-132.461
X203.962Y-66.929
X203.962Y-68.453
X203.962Y-98.933
X203.962Y-100.457
X204.724Y-131.699
X204.724Y-67.691
X204.724Y-99.695
X205.486Y-130.937
X205.486Y-132.461
X205.486Y-66.929
X205.486Y-68.453
X205.486Y-98.933
X205.486Y-100.457
X206.248Y-131.699
X206.248Y-67.691
X206.248Y-99.695
X206.883Y-115.316
X207.01Y-83.312
X207.01Y-85.344
X207.01Y-117.348
X207.01Y-130.937
X207.01Y-132.461
X207.01Y-66.929
X207.01Y-68.453
X207.01Y-98.933
X207.01Y-100.457
X207.772Y-131.699
X207.772Y-67.691
X207.772Y-99.695
X208.534Y-130.937
X208.534Y-132.461
X208.534Y-66.929
X208.534Y-68.453
X208.534Y-98.933
X208.534Y-100.457
X209.296Y-131.699
X209.296Y-67.691
X209.296Y-99.695
X210.058Y-130.937
X210.058Y-132.461
X210.058Y-66.929
X210.058Y-68.453
X210.058Y-98.933
X210.058Y-100.457
X210.241Y-108.206
X210.242Y-76.203
X210.82Y-131.699
X210.82Y-67.691
X210.82Y-99.695
X211.582Y-130.937
X211.582Y-132.461
X211.582Y-66.929
X211.582Y-68.453
X211.582Y-98.933
X211.582Y-100.457
X212.344Y-67.691
X212.344Y-99.695
X212.344Y-131.7
X213.106Y-66.929
X213.106Y-68.453
X213.106Y-69.977
X213.106Y-71.501
X213.106Y-73.025
X213.106Y-74.549
X213.106Y-76.073
X213.106Y-77.597
X213.106Y-79.121
X213.106Y-80.645
X213.106Y-82.169
X213.106Y-83.694
X213.106Y-85.218
X213.106Y-86.742
X213.106Y-88.266
X213.106Y-89.789
X213.106Y-91.313
X213.106Y-92.837
X213.106Y-94.361
X213.106Y-95.885
X213.106Y-97.409
X213.106Y-98.933
X213.106Y-100.457
X213.106Y-101.981
X213.106Y-103.505
X213.106Y-105.029
X213.106Y-106.553
X213.106Y-108.078
X213.106Y-109.602
X213.106Y-111.125
X213.106Y-112.649
X213.106Y-114.173
X213.106Y-115.697
X213.106Y-117.221
X213.106Y-118.745
X213.106Y-120.269
X213.106Y-121.793
X213.106Y-123.317
X213.106Y-124.841
X213.106Y-126.365
X213.106Y-127.889
X213.106Y-129.413
X213.106Y-130.938
X213.106Y-132.462
X213.868Y-67.691
X213.868Y-69.215
X213.868Y-70.739
X213.868Y-72.263
X213.868Y-73.787
X213.868Y-75.311
X213.868Y-76.835
X213.868Y-78.359
X213.868Y-79.883
X213.868Y-81.407
X213.868Y-82.931
X213.868Y-84.456
X213.868Y-85.98
X213.868Y-87.504
X213.868Y-89.027
X213.868Y-90.551
X213.868Y-92.075
X213.868Y-93.599
X213.868Y-95.123
X213.868Y-96.647
X213.868Y-98.171
X213.868Y-99.695
X213.868Y-101.219
X213.868Y-102.743
X213.868Y-104.267
X213.868Y-105.791
X213.868Y-107.316
X213.868Y-108.84
X213.868Y-110.364
X213.868Y-111.887
X213.868Y-113.411
X213.868Y-114.935
X213.868Y-116.459
X213.868Y-117.983
X213.868Y-119.507
X213.868Y-121.031
X213.868Y-122.555
X213.868Y-124.079
X213.868Y-125.603
X213.868Y-127.127
X213.868Y-128.651
X213.868Y-130.175
X213.868Y-131.7
X214.63Y-66.929
X214.63Y-68.453
X214.63Y-69.977
X214.63Y-71.501
X214.63Y-73.025
X214.63Y-74.549
X214.63Y-76.073
X214.63Y-77.597
X214.63Y-79.121
X214.63Y-80.645
X214.63Y-82.169
X214.63Y-83.694
X214.63Y-85.218
X214.63Y-86.742
X214.63Y-88.266
X214.63Y-89.789
X214.63Y-91.313
X214.63Y-92.837
X214.63Y-94.361
X214.63Y-95.885
X214.63Y-97.409
X214.63Y-98.933
X214.63Y-100.457
X214.63Y-101.981
X214.63Y-103.505
X214.63Y-105.029
X214.63Y-106.553
X214.63Y-108.078
X214.63Y-109.602
X214.63Y-111.125
X214.63Y-112.649
X214.63Y-114.173
X214.63Y-115.697
X214.63Y-117.221
X214.63Y-118.745
X214.63Y-120.269
X214.63Y-121.793
X214.63Y-123.317
X214.63Y-124.841
X214.63Y-126.365
X214.63Y-127.889
X214.63Y-129.413
X214.63Y-130.938
X214.63Y-132.462
T2
X126.746Y-104.013
X126.746Y-112.903
X126.746Y-72.01
X126.746Y-80.9
X129.921Y-107.188
X129.921Y-109.728
X129.921Y-75.184
X129.921Y-77.724
X132.461Y-107.188
X132.461Y-109.728
X132.462Y-75.184
X132.462Y-77.724
X135.636Y-104.013
X135.636Y-112.903
X135.636Y-72.01
X135.636Y-80.9
X184.15Y-106.299
X184.15Y-113.919
X184.15Y-74.295
X184.15Y-81.915
X184.785Y-104.775
X184.785Y-116.967
X184.785Y-72.772
X184.785Y-84.963
X185.547Y-107.569
X185.547Y-112.649
X185.547Y-115.57
X185.547Y-75.566
X185.547Y-80.645
X185.547Y-83.566
X186.055Y-106.172
X186.055Y-74.168
X186.69Y-108.839
X186.69Y-111.379
X186.69Y-76.835
X186.69Y-79.376
X187.325Y-104.775
X187.325Y-114.427
X187.326Y-72.772
X187.326Y-82.423
X188.595Y-106.172
X188.595Y-74.168
X189.865Y-104.775
X189.865Y-114.427
X189.865Y-72.772
X189.865Y-82.423
X190.246Y-110.871
X190.246Y-78.867
X191.135Y-106.172
X191.135Y-115.57
X191.135Y-74.168
X191.135Y-83.566
X192.405Y-104.775
X192.405Y-116.967
X192.405Y-72.772
X192.405Y-84.963
X193.675Y-106.172
X193.675Y-115.57
X193.675Y-74.168
X193.675Y-83.566
X193.802Y-110.49
X193.802Y-113.03
X193.802Y-78.486
X193.802Y-81.026
X194.945Y-104.775
X194.945Y-106.68
X194.945Y-109.22
X194.945Y-114.3
X194.945Y-116.967
X194.945Y-72.772
X194.945Y-74.676
X194.945Y-77.216
X194.945Y-82.296
X194.945Y-84.963
X196.342Y-107.95
X196.342Y-115.57
X196.343Y-75.947
X196.343Y-83.566
T3
X108.965Y-127.38
X108.966Y-95.377
X111.505Y-127.38
X111.506Y-95.377
X114.045Y-127.38
X114.046Y-95.377
T4
X78.995Y-80.01
X78.995Y-85.09
X78.995Y-90.17
M30
