M48
METRIC,TZ
T1C0.400
T2C0.508
T3C0.800
T4C1.400
%
G90
G05
T1
X77979Y-106807
X80265Y-99568
X81408Y-124588
X82043Y-112649
X82169Y-105283
X83821Y-115951
X83821Y-118746
X86106Y-109363
X86615Y-116459
X86615Y-118110
X88392Y-129667
X89154Y-77724
X89535Y-134747
X89663Y-112649
X89663Y-114173
X89663Y-120269
X89663Y-121793
X90043Y-116968
X90043Y-118238
X90424Y-113411
X90424Y-114936
X90424Y-121032
X90845Y-99618
X91186Y-91313
X91187Y-112649
X91187Y-114173
X91187Y-120269
X91187Y-121793
X91948Y-113411
X91948Y-114936
X91948Y-121032
X92711Y-112649
X92711Y-114173
X92711Y-117222
X92711Y-120269
X92711Y-121793
X93473Y-113411
X93473Y-116459
X93473Y-121032
X94235Y-112649
X94235Y-114173
X94235Y-115698
X94235Y-117222
X94235Y-118746
X94235Y-120269
X94235Y-121793
X94996Y-111887
X94997Y-113411
X94997Y-116459
X94997Y-117984
X94997Y-121032
X95759Y-101982
X95759Y-103506
X95759Y-105030
X95759Y-106554
X95759Y-108078
X95759Y-109602
X95759Y-111126
X95759Y-112649
X95759Y-114173
X95759Y-115698
X95759Y-117222
X95759Y-118746
X95759Y-120269
X95759Y-121793
X96521Y-101219
X96521Y-102743
X96521Y-104268
X96521Y-105792
X96521Y-107316
X96521Y-108840
X96521Y-110364
X96521Y-111888
X96521Y-113411
X96521Y-116459
X96521Y-117984
X96521Y-121032
X97283Y-100458
X97283Y-101982
X97283Y-103506
X97283Y-105030
X97283Y-106554
X97283Y-108078
X97283Y-109602
X97283Y-111126
X97283Y-112649
X97283Y-115698
X97283Y-117222
X97283Y-118746
X97283Y-120269
X97283Y-121793
X98044Y-131826
X98044Y-99696
X98044Y-101219
X98044Y-102743
X98044Y-114936
X98044Y-116459
X98044Y-117984
X98044Y-121032
X98807Y-74549
X98807Y-76073
X98807Y-77597
X98807Y-79122
X98807Y-80646
X98807Y-82169
X98807Y-83693
X98807Y-85218
X98807Y-86742
X98807Y-88266
X98807Y-89789
X98807Y-91313
X98807Y-92837
X98807Y-94362
X98807Y-95886
X98807Y-97409
X98807Y-98933
X98807Y-100458
X98807Y-101982
X98807Y-105030
X98807Y-106554
X98807Y-108078
X98807Y-109602
X98807Y-111126
X98807Y-112649
X98807Y-114173
X98807Y-115698
X98807Y-117222
X98807Y-118746
X98807Y-120269
X98807Y-121793
X99568Y-73788
X99568Y-75312
X99568Y-76836
X99568Y-78360
X99568Y-79884
X99568Y-81408
X99568Y-82932
X99568Y-84456
X99568Y-85980
X99568Y-87504
X99568Y-89027
X99568Y-90551
X99568Y-92076
X99568Y-93599
X99568Y-95123
X99568Y-96648
X99568Y-98172
X99568Y-99696
X99568Y-101219
X99568Y-104268
X99568Y-105792
X99568Y-107316
X99568Y-108840
X99568Y-110364
X99568Y-111888
X99568Y-113411
X99568Y-114936
X99568Y-116459
X99568Y-117984
X99568Y-121032
X100331Y-73026
X100331Y-74549
X100331Y-76073
X100331Y-77597
X100331Y-79122
X100331Y-80646
X100331Y-82169
X100331Y-83693
X100331Y-85218
X100331Y-86742
X100331Y-88266
X100331Y-89789
X100331Y-91313
X100331Y-92837
X100331Y-94362
X100331Y-95886
X100331Y-97409
X100331Y-98933
X100331Y-100458
X100331Y-103506
X100331Y-105030
X100331Y-106554
X100331Y-108078
X100331Y-109602
X100331Y-111126
X100331Y-112649
X100331Y-114173
X100331Y-115698
X100331Y-117222
X100331Y-120269
X100331Y-121793
X101092Y-107315
X101093Y-73788
X101093Y-75312
X101093Y-102743
X101093Y-104268
X101093Y-105792
X101093Y-119507
X101093Y-121032
X101855Y-66929
X101855Y-68453
X101855Y-69977
X101855Y-71501
X101855Y-73026
X101855Y-74549
X101855Y-77597
X101855Y-79122
X101855Y-80646
X101855Y-82169
X101855Y-83693
X101855Y-85218
X101855Y-86742
X101855Y-88266
X101855Y-89789
X101855Y-91313
X101855Y-92837
X101855Y-94362
X101855Y-95886
X101855Y-97409
X101855Y-98933
X101855Y-100458
X101855Y-101982
X101855Y-103506
X101855Y-105030
X101855Y-106554
X101855Y-109602
X101855Y-111126
X101855Y-112649
X101855Y-114173
X101855Y-115698
X101855Y-117222
X101855Y-118746
X101855Y-120269
X101855Y-121793
X101855Y-123318
X101855Y-124842
X101855Y-126366
X101855Y-127890
X101855Y-129414
X101855Y-130938
X101855Y-132462
X102617Y-67692
X102617Y-69216
X102617Y-70740
X102617Y-72264
X102617Y-73788
X102617Y-76836
X102617Y-78360
X102617Y-79884
X102617Y-81408
X102617Y-82932
X102617Y-84456
X102617Y-85980
X102617Y-87504
X102617Y-89027
X102617Y-90551
X102617Y-92076
X102617Y-93599
X102617Y-95123
X102617Y-96648
X102617Y-98172
X102617Y-99696
X102617Y-101219
X102617Y-102743
X102617Y-104268
X102617Y-105792
X102617Y-108840
X102617Y-110364
X102617Y-111888
X102617Y-113411
X102617Y-114936
X102617Y-116459
X102617Y-117984
X102617Y-119507
X102617Y-121032
X102617Y-122556
X102617Y-124080
X102617Y-125603
X102617Y-127128
X102617Y-128651
X102617Y-130176
X102617Y-131700
X103378Y-66929
X103378Y-68453
X103378Y-69977
X103378Y-71501
X103378Y-73026
X103378Y-74549
X103378Y-76073
X103378Y-77597
X103378Y-79122
X103378Y-80646
X103378Y-82169
X103378Y-83693
X103378Y-85218
X103378Y-86742
X103378Y-88266
X103378Y-89789
X103378Y-91313
X103378Y-92837
X103378Y-94362
X103378Y-95886
X103378Y-97409
X103378Y-98933
X103378Y-100458
X103378Y-101982
X103378Y-103506
X103378Y-105030
X103378Y-106554
X103378Y-108078
X103378Y-109602
X103378Y-111126
X103378Y-112649
X103378Y-114173
X103378Y-115698
X103378Y-117222
X103378Y-118746
X103378Y-120269
X103378Y-121793
X103378Y-123318
X103378Y-124842
X103378Y-126366
X103378Y-127890
X103378Y-129414
X103378Y-130938
X103378Y-132462
X104141Y-67692
X104141Y-99696
X104141Y-131700
X104902Y-66929
X104902Y-68453
X104902Y-98933
X104902Y-100458
X104902Y-130938
X104902Y-132462
X105665Y-65659
X105665Y-99696
X106426Y-130937
X106426Y-132461
X106426Y-66929
X106426Y-68453
X106426Y-98933
X106426Y-100458
X107189Y-64644
X107189Y-99696
X107950Y-130937
X107950Y-132461
X107951Y-66929
X107951Y-68453
X107951Y-98933
X107951Y-100458
X108712Y-105664
X108712Y-73660
X108712Y-133604
X108713Y-67692
X108713Y-99696
X109474Y-130937
X109474Y-132461
X109474Y-66929
X109474Y-68453
X109474Y-98933
X109474Y-100458
X110236Y-131699
X110237Y-67692
X110237Y-99696
X110744Y-92075
X110998Y-130937
X110998Y-132461
X110998Y-66929
X110998Y-68453
X110998Y-98933
X110998Y-100458
X111378Y-113918
X111379Y-81915
X111760Y-131699
X111761Y-99696
X112014Y-102869
X112014Y-70866
X112522Y-130937
X112522Y-132461
X112523Y-66929
X112523Y-68453
X112523Y-98933
X112523Y-100458
X113284Y-112014
X113284Y-131699
X113285Y-67692
X113285Y-99696
X114046Y-130937
X114046Y-132461
X114047Y-66929
X114047Y-68453
X114047Y-98933
X114047Y-100458
X114173Y-109474
X114173Y-77471
X114808Y-131699
X114809Y-67692
X114809Y-99696
X115570Y-130937
X115570Y-132461
X115571Y-66929
X115571Y-68453
X115571Y-98933
X115571Y-100458
X115697Y-110490
X115698Y-78486
X116078Y-123996
X116332Y-131699
X116333Y-67692
X116333Y-99696
X116840Y-107188
X116840Y-108458
X116841Y-75185
X116841Y-76455
X116967Y-104901
X117094Y-130937
X117094Y-132461
X117094Y-66929
X117094Y-68453
X117094Y-98933
X117094Y-100458
X117856Y-131699
X117857Y-67692
X117857Y-99696
X118166Y-121033
X118166Y-89029
X118491Y-73406
X118618Y-130937
X118618Y-132461
X118618Y-66929
X118618Y-68453
X118618Y-98933
X118618Y-100458
X119380Y-131699
X119381Y-67692
X119381Y-99696
X119761Y-106680
X119888Y-107823
X119889Y-75819
X120142Y-130937
X120142Y-132461
X120143Y-66929
X120143Y-68453
X120143Y-98933
X120143Y-100458
X120904Y-131699
X120905Y-67692
X120905Y-99696
X121285Y-106553
X121666Y-130937
X121666Y-132461
X121667Y-66929
X121667Y-68453
X121667Y-98933
X121667Y-100458
X122301Y-80264
X122428Y-131699
X122429Y-67692
X122429Y-99696
X123190Y-130937
X123190Y-132461
X123191Y-66929
X123191Y-68453
X123191Y-98933
X123191Y-100458
X123317Y-81788
X123952Y-131699
X123953Y-67692
X123953Y-99696
X124714Y-130937
X124714Y-132461
X124715Y-66929
X124715Y-68453
X124715Y-98933
X124715Y-100458
X124769Y-115318
X125024Y-106428
X125095Y-80137
X125151Y-110365
X125222Y-73533
X125349Y-124587
X125349Y-92583
X125476Y-131699
X125476Y-67692
X125476Y-99696
X125984Y-116331
X126238Y-130937
X126238Y-132461
X126238Y-66929
X126238Y-68453
X126238Y-98933
X126238Y-100458
X126873Y-84455
X127000Y-131699
X127001Y-67692
X127001Y-99696
X127437Y-114429
X127438Y-82426
X127762Y-130937
X127762Y-132461
X127763Y-66929
X127763Y-68453
X127763Y-98933
X127763Y-100458
X128524Y-131699
X128524Y-67692
X128524Y-99696
X129286Y-130937
X129286Y-132461
X129286Y-66929
X129286Y-68453
X129286Y-98933
X129286Y-100458
X130048Y-131699
X130048Y-67692
X130048Y-99696
X130810Y-130937
X130810Y-132461
X130811Y-66929
X130811Y-68453
X130811Y-98933
X130811Y-100458
X130937Y-119126
X130937Y-87122
X131247Y-102491
X131248Y-70488
X131572Y-131699
X131573Y-67692
X131573Y-99696
X132334Y-130937
X132334Y-132461
X132334Y-66929
X132334Y-68453
X132334Y-98933
X132334Y-100458
X133096Y-131699
X133097Y-67692
X133097Y-99696
X133858Y-130937
X133858Y-132461
X133859Y-66929
X133859Y-68453
X133859Y-98933
X133859Y-100458
X134620Y-131699
X134621Y-67692
X134621Y-99696
X135311Y-114556
X135312Y-82553
X135382Y-130937
X135382Y-132461
X135382Y-66929
X135382Y-68453
X135382Y-98933
X135382Y-100458
X136144Y-131699
X136145Y-67692
X136145Y-99696
X136906Y-130937
X136906Y-132461
X136907Y-66929
X136907Y-68453
X136907Y-98933
X136907Y-100458
X137216Y-106428
X137217Y-74424
X137470Y-110365
X137470Y-121160
X137471Y-78361
X137471Y-89157
X137668Y-131699
X137669Y-67692
X137669Y-99696
X138430Y-130937
X138430Y-132461
X138431Y-66929
X138431Y-68453
X138431Y-98933
X138431Y-100458
X139192Y-131699
X139193Y-67692
X139193Y-99696
X139573Y-129413
X139573Y-97409
X139954Y-130937
X139954Y-132461
X139955Y-66929
X139955Y-68453
X139955Y-98933
X139955Y-100458
X140716Y-131699
X140717Y-67692
X140717Y-99696
X141478Y-130937
X141478Y-132461
X141479Y-66929
X141479Y-68453
X141479Y-98933
X141479Y-100458
X141859Y-106045
X141859Y-110617
X141859Y-112903
X141859Y-115316
X141860Y-74042
X141860Y-78614
X141860Y-80900
X141860Y-83313
X142240Y-131699
X142241Y-67692
X142241Y-99696
X142494Y-127507
X142494Y-95504
X143002Y-130937
X143002Y-132461
X143003Y-66929
X143003Y-68453
X143003Y-98933
X143003Y-100458
X143383Y-117094
X143384Y-85091
X143764Y-131699
X143765Y-67692
X143765Y-99696
X144017Y-125349
X144018Y-93345
X144526Y-130937
X144526Y-132461
X144526Y-66929
X144526Y-68453
X144526Y-98933
X144526Y-100458
X145288Y-131699
X145289Y-67692
X145289Y-99696
X145669Y-101600
X145670Y-69597
X145979Y-117096
X145980Y-85093
X146050Y-130937
X146050Y-132461
X146051Y-66929
X146051Y-68453
X146051Y-98933
X146051Y-100458
X146812Y-131699
X146813Y-67692
X146813Y-99696
X147574Y-130937
X147574Y-132461
X147575Y-66929
X147575Y-68453
X147575Y-98933
X147575Y-100458
X148336Y-101600
X148336Y-131699
X148337Y-67692
X148337Y-69597
X148337Y-99696
X149098Y-130937
X149098Y-132461
X149099Y-66929
X149099Y-68453
X149099Y-98933
X149099Y-100458
X149860Y-131699
X149861Y-67692
X149861Y-99696
X150622Y-130937
X150622Y-132461
X150623Y-66929
X150623Y-68453
X150623Y-98933
X150623Y-100458
X150750Y-101600
X150751Y-69597
X151384Y-131699
X151385Y-67692
X151385Y-99696
X152146Y-130937
X152146Y-132461
X152147Y-66929
X152147Y-68453
X152147Y-98933
X152147Y-100458
X152583Y-117096
X152584Y-85093
X152908Y-131699
X152909Y-67692
X152909Y-99696
X153289Y-101600
X153290Y-69597
X153670Y-130937
X153670Y-132461
X153671Y-66929
X153671Y-68453
X153671Y-98933
X153671Y-100458
X154432Y-131699
X154433Y-67692
X154433Y-99696
X154940Y-117094
X154940Y-85091
X155194Y-130937
X155194Y-132461
X155195Y-66929
X155195Y-68453
X155195Y-98933
X155195Y-100458
X155448Y-120903
X155448Y-88900
X155956Y-131699
X155957Y-67692
X155957Y-99696
X156718Y-130937
X156718Y-132461
X156719Y-66929
X156719Y-68453
X156719Y-98933
X156719Y-100458
X157480Y-131699
X157481Y-67692
X157481Y-99696
X157607Y-105029
X157607Y-107569
X157607Y-112649
X157607Y-115062
X157607Y-73026
X157607Y-75566
X157607Y-80646
X157607Y-83058
X158242Y-130937
X158242Y-132461
X158243Y-66929
X158243Y-68453
X158243Y-98933
X158243Y-100458
X159004Y-131699
X159005Y-67692
X159005Y-99696
X159766Y-130937
X159766Y-132461
X159766Y-66929
X159766Y-68453
X159766Y-98933
X159766Y-100458
X160528Y-131699
X160529Y-67692
X160529Y-99696
X161290Y-130937
X161290Y-132461
X161290Y-66929
X161290Y-68453
X161290Y-98933
X161290Y-100458
X162052Y-131699
X162052Y-67692
X162052Y-99696
X162814Y-130937
X162814Y-132461
X162814Y-66929
X162814Y-68453
X162814Y-98933
X162814Y-100458
X163576Y-123824
X163576Y-91821
X163576Y-114935
X163576Y-131699
X163576Y-67692
X163576Y-82932
X163576Y-99696
X164338Y-130937
X164338Y-132461
X164339Y-66929
X164339Y-68453
X164339Y-98933
X164339Y-100458
X165100Y-131699
X165101Y-67692
X165101Y-99696
X165735Y-124078
X165735Y-92075
X165862Y-130937
X165862Y-132461
X165862Y-66929
X165862Y-68453
X165862Y-98933
X165862Y-100458
X166624Y-131699
X166624Y-67692
X166624Y-99696
X167004Y-118491
X167004Y-126492
X167005Y-86487
X167005Y-94488
X167315Y-108460
X167315Y-114810
X167315Y-76457
X167315Y-82807
X167386Y-130937
X167386Y-132461
X167386Y-66929
X167386Y-68453
X167386Y-98933
X167386Y-100458
X168148Y-131699
X168149Y-67692
X168149Y-99696
X168910Y-130937
X168910Y-132461
X168911Y-66929
X168911Y-68453
X168911Y-98933
X168911Y-100458
X169672Y-131699
X169673Y-67692
X169673Y-99696
X170434Y-130937
X170434Y-132461
X170434Y-66929
X170434Y-68453
X170434Y-98933
X170434Y-100458
X171196Y-131699
X171196Y-67692
X171196Y-99696
X171958Y-130937
X171958Y-132461
X171959Y-66929
X171959Y-68453
X171959Y-98933
X171959Y-100458
X172720Y-131699
X172721Y-67692
X172721Y-99696
X173482Y-130937
X173482Y-132461
X173483Y-66929
X173483Y-68453
X173483Y-98933
X173483Y-100458
X174244Y-131699
X174245Y-67692
X174245Y-99696
X174751Y-129286
X174752Y-97283
X175006Y-130937
X175006Y-132461
X175006Y-66929
X175006Y-68453
X175006Y-98933
X175006Y-100458
X175189Y-122176
X175189Y-90173
X175570Y-107571
X175571Y-75568
X175768Y-131699
X175769Y-67692
X175769Y-99696
X176530Y-130937
X176530Y-132461
X176531Y-66929
X176531Y-68453
X176531Y-98933
X176531Y-100458
X177094Y-107571
X177094Y-75568
X177292Y-131699
X177293Y-67692
X177293Y-99696
X178054Y-130937
X178054Y-132461
X178054Y-66929
X178054Y-68453
X178054Y-98933
X178054Y-100458
X178816Y-131699
X178817Y-67692
X178817Y-99696
X179578Y-130937
X179578Y-132461
X179579Y-66929
X179579Y-68453
X179579Y-98933
X179579Y-100458
X180340Y-131699
X180341Y-67692
X180341Y-99696
X181102Y-130937
X181102Y-132461
X181103Y-66929
X181103Y-68453
X181103Y-98933
X181103Y-100458
X181864Y-131699
X181865Y-67692
X181865Y-99696
X182372Y-113030
X182372Y-115189
X182372Y-117348
X182373Y-81027
X182373Y-83186
X182373Y-85344
X182499Y-102870
X182499Y-105283
X182499Y-107569
X182499Y-70867
X182499Y-73280
X182499Y-75566
X182626Y-130937
X182626Y-132461
X182626Y-66929
X182626Y-68453
X182626Y-98933
X182626Y-100458
X183388Y-131699
X183389Y-67692
X183389Y-99696
X183515Y-118872
X183516Y-86868
X183641Y-125984
X183642Y-93980
X184150Y-130937
X184150Y-132461
X184151Y-66929
X184151Y-68453
X184151Y-98933
X184151Y-100458
X184785Y-102870
X184786Y-70867
X184912Y-131699
X184913Y-67692
X184913Y-99696
X185674Y-130937
X185674Y-132461
X185674Y-66929
X185674Y-68453
X185674Y-98933
X185674Y-100458
X186309Y-118872
X186309Y-86868
X186436Y-131699
X186437Y-67692
X186437Y-99696
X187198Y-130937
X187198Y-132461
X187199Y-66929
X187199Y-68453
X187199Y-98933
X187199Y-100458
X187325Y-102870
X187326Y-70867
X187960Y-131699
X187961Y-67692
X187961Y-99696
X188722Y-130937
X188722Y-132461
X188723Y-66929
X188723Y-68453
X188723Y-98933
X188723Y-100458
X189016Y-127762
X189016Y-95759
X189484Y-131699
X189485Y-67692
X189485Y-99696
X189865Y-102870
X189866Y-70867
X190246Y-130937
X190246Y-132461
X190246Y-66929
X190246Y-68453
X190246Y-98933
X190246Y-100458
X191008Y-131699
X191009Y-67692
X191009Y-99696
X191770Y-130937
X191770Y-132461
X191771Y-66929
X191771Y-68453
X191771Y-98933
X191771Y-100458
X192405Y-102870
X192406Y-70867
X192532Y-118618
X192532Y-86614
X192532Y-131699
X192533Y-67692
X192533Y-99696
X193294Y-130937
X193294Y-132461
X193295Y-66929
X193295Y-68453
X193295Y-98933
X193295Y-100458
X194056Y-131699
X194057Y-67692
X194057Y-99696
X194563Y-121030
X194564Y-89027
X194818Y-130937
X194818Y-132461
X194819Y-66929
X194819Y-68453
X194819Y-98933
X194819Y-100458
X194945Y-102870
X194946Y-70867
X195326Y-118618
X195326Y-86614
X195580Y-131699
X195581Y-67692
X195581Y-99696
X196342Y-130937
X196342Y-132461
X196343Y-66929
X196343Y-68453
X196343Y-98933
X196343Y-100458
X196889Y-129285
X196890Y-97282
X197104Y-102870
X197104Y-131699
X197105Y-67692
X197105Y-70867
X197105Y-99696
X197866Y-130937
X197866Y-132461
X197867Y-66929
X197867Y-68453
X197867Y-98933
X197867Y-100458
X198247Y-104648
X198247Y-106680
X198247Y-109220
X198247Y-114554
X198247Y-116586
X198248Y-72644
X198248Y-74676
X198248Y-77217
X198248Y-82550
X198248Y-84583
X198628Y-131699
X198629Y-67692
X198629Y-99696
X199390Y-130937
X199390Y-132461
X199391Y-66929
X199391Y-68453
X199391Y-98933
X199391Y-100458
X200152Y-131699
X200153Y-67692
X200153Y-99696
X200914Y-130937
X200914Y-132461
X200915Y-66929
X200915Y-68453
X200915Y-98933
X200915Y-100458
X201676Y-131699
X201677Y-67692
X201677Y-99696
X202438Y-130937
X202438Y-132461
X202439Y-66929
X202439Y-68453
X202439Y-98933
X202439Y-100458
X203200Y-131699
X203200Y-67692
X203200Y-99696
X203708Y-109474
X203708Y-77470
X203962Y-130937
X203962Y-132461
X203962Y-66929
X203962Y-68453
X203962Y-98933
X203962Y-100458
X204724Y-131699
X204724Y-67692
X204724Y-99696
X205486Y-130937
X205486Y-132461
X205486Y-66929
X205486Y-68453
X205486Y-98933
X205486Y-100458
X206248Y-131699
X206249Y-67692
X206249Y-99696
X206883Y-115316
X207010Y-83312
X207010Y-85344
X207010Y-117348
X207010Y-130937
X207010Y-132461
X207010Y-66929
X207010Y-68453
X207010Y-98933
X207010Y-100458
X207772Y-131699
X207773Y-67692
X207773Y-99696
X208534Y-130937
X208534Y-132461
X208534Y-66929
X208534Y-68453
X208534Y-98933
X208534Y-100458
X209296Y-131699
X209296Y-67692
X209296Y-99696
X210058Y-130937
X210058Y-132461
X210059Y-66929
X210059Y-68453
X210059Y-98933
X210059Y-100458
X210241Y-108206
X210242Y-76203
X210820Y-131699
X210821Y-67692
X210821Y-99696
X211582Y-130937
X211582Y-132461
X211583Y-66929
X211583Y-68453
X211583Y-98933
X211583Y-100458
X212344Y-67692
X212344Y-99696
X212344Y-131700
X213106Y-66929
X213106Y-68453
X213106Y-69977
X213106Y-71501
X213106Y-73026
X213106Y-74549
X213106Y-76073
X213106Y-77597
X213106Y-79122
X213106Y-80646
X213106Y-82169
X213106Y-83693
X213106Y-85218
X213106Y-86742
X213106Y-88266
X213106Y-89789
X213106Y-91313
X213106Y-92837
X213106Y-94362
X213106Y-95886
X213106Y-97409
X213106Y-98933
X213106Y-100458
X213106Y-101982
X213106Y-103506
X213106Y-105030
X213106Y-106554
X213106Y-108078
X213106Y-109602
X213106Y-111126
X213106Y-112649
X213106Y-114173
X213106Y-115698
X213106Y-117222
X213106Y-118746
X213106Y-120269
X213106Y-121793
X213106Y-123318
X213106Y-124842
X213106Y-126366
X213106Y-127890
X213106Y-129414
X213106Y-130938
X213106Y-132462
X213869Y-67692
X213869Y-69216
X213869Y-70740
X213869Y-72264
X213869Y-73788
X213869Y-75312
X213869Y-76836
X213869Y-78360
X213869Y-79884
X213869Y-81408
X213869Y-82932
X213869Y-84456
X213869Y-85980
X213869Y-87504
X213869Y-89027
X213869Y-90551
X213869Y-92076
X213869Y-93599
X213869Y-95123
X213869Y-96648
X213869Y-98172
X213869Y-99696
X213869Y-101219
X213869Y-102743
X213869Y-104268
X213869Y-105792
X213869Y-107316
X213869Y-108840
X213869Y-110364
X213869Y-111888
X213869Y-113411
X213869Y-114936
X213869Y-116459
X213869Y-117984
X213869Y-119507
X213869Y-121032
X213869Y-122556
X213869Y-124080
X213869Y-125603
X213869Y-127128
X213869Y-128651
X213869Y-130176
X213869Y-131700
X214631Y-66929
X214631Y-68453
X214631Y-69977
X214631Y-71501
X214631Y-73026
X214631Y-74549
X214631Y-76073
X214631Y-77597
X214631Y-79122
X214631Y-80646
X214631Y-82169
X214631Y-83693
X214631Y-85218
X214631Y-86742
X214631Y-88266
X214631Y-89789
X214631Y-91313
X214631Y-92837
X214631Y-94362
X214631Y-95886
X214631Y-97409
X214631Y-98933
X214631Y-100458
X214631Y-101982
X214631Y-103506
X214631Y-105030
X214631Y-106554
X214631Y-108078
X214631Y-109602
X214631Y-111126
X214631Y-112649
X214631Y-114173
X214631Y-115698
X214631Y-117222
X214631Y-118746
X214631Y-120269
X214631Y-121793
X214631Y-123318
X214631Y-124842
X214631Y-126366
X214631Y-127890
X214631Y-129414
X214631Y-130938
X214631Y-132462
T2
X126746Y-104013
X126746Y-112903
X126747Y-72010
X126747Y-80900
X129921Y-107188
X129921Y-109728
X129921Y-75185
X129921Y-77724
X132461Y-107188
X132461Y-109728
X132462Y-75185
X132462Y-77724
X135636Y-104013
X135636Y-112903
X135636Y-72010
X135636Y-80900
X184150Y-106299
X184150Y-113919
X184151Y-74296
X184151Y-81916
X184785Y-104775
X184785Y-116967
X184786Y-72772
X184786Y-84964
X185547Y-107569
X185547Y-112649
X185547Y-115570
X185548Y-75566
X185548Y-80646
X185548Y-83567
X186055Y-106172
X186056Y-74169
X186690Y-108839
X186690Y-111379
X186690Y-76836
X186690Y-79376
X187325Y-104775
X187325Y-114427
X187326Y-72772
X187326Y-82423
X188595Y-106172
X188596Y-74169
X189865Y-104775
X189865Y-114427
X189866Y-72772
X189866Y-82423
X190246Y-110871
X190246Y-78868
X191135Y-106172
X191135Y-115570
X191136Y-74169
X191136Y-83567
X192405Y-104775
X192405Y-116967
X192406Y-72772
X192406Y-84964
X193675Y-106172
X193675Y-115570
X193676Y-74169
X193676Y-83567
X193802Y-110490
X193802Y-113030
X193803Y-78486
X193803Y-81027
X194945Y-104775
X194945Y-106680
X194945Y-109220
X194945Y-114300
X194945Y-116967
X194946Y-72772
X194946Y-74676
X194946Y-77217
X194946Y-82297
X194946Y-84964
X196342Y-107950
X196342Y-115570
X196343Y-75947
X196343Y-83567
T3
X108966Y-127381
X108966Y-95377
X111506Y-127381
X111506Y-95377
X114046Y-127381
X114046Y-95377
T4
X78995Y-80011
X78995Y-85091
X78995Y-90171
M30
