M48
; DRILL file {KiCad 7.0.10-7.0.10~ubuntu22.04.1} date Wed 03 Jan 2024 03:26:16 PM CST
; FORMAT={-:-/ absolute / inch / decimal}
; #@! TF.CreationDate,2024-01-03T15:26:16-06:00
; #@! TF.GenerationSoftware,Kicad,Pcbnew,7.0.10-7.0.10~ubuntu22.04.1
; #@! TF.FileFunction,Plated,1,4,PTH
FMAT,2
INCH
; #@! TA.AperFunction,Plated,PTH,ViaDrill
T1C0.0157
; #@! TA.AperFunction,Plated,PTH,ComponentDrill
T2C0.0200
; #@! TA.AperFunction,Plated,PTH,ComponentDrill
T3C0.0315
; #@! TA.AperFunction,Plated,PTH,ComponentDrill
T4C0.0551
%
G90
G05
T1
X3.07Y-4.205
X3.205Y-4.905
X3.22Y-4.235
X3.23Y-4.435
X3.255Y-4.145
X3.3Y-4.565
X3.3Y-4.675
X3.41Y-4.585
X3.41Y-4.65
X3.415Y-2.785
X3.415Y-3.915
X3.425Y-5.185
X3.48Y-3.38
X3.53Y-4.435
X3.53Y-4.495
X3.53Y-4.735
X3.53Y-4.795
X3.545Y-4.605
X3.545Y-4.655
X3.56Y-4.465
X3.56Y-4.525
X3.56Y-4.765
X3.5609Y-5.295
X3.59Y-4.435
X3.59Y-4.495
X3.59Y-4.735
X3.59Y-4.795
X3.62Y-4.465
X3.62Y-4.525
X3.62Y-4.765
X3.635Y-3.53
X3.65Y-4.435
X3.65Y-4.495
X3.65Y-4.615
X3.65Y-4.735
X3.65Y-4.795
X3.665Y-3.99
X3.68Y-4.465
X3.68Y-4.585
X3.68Y-4.765
X3.71Y-4.435
X3.71Y-4.495
X3.71Y-4.555
X3.71Y-4.615
X3.71Y-4.675
X3.71Y-4.735
X3.71Y-4.795
X3.74Y-4.405
X3.74Y-4.465
X3.74Y-4.585
X3.74Y-4.645
X3.74Y-4.765
X3.77Y-4.015
X3.77Y-4.075
X3.77Y-4.135
X3.77Y-4.195
X3.77Y-4.255
X3.77Y-4.315
X3.77Y-4.375
X3.77Y-4.435
X3.77Y-4.495
X3.77Y-4.555
X3.77Y-4.615
X3.77Y-4.675
X3.77Y-4.735
X3.77Y-4.795
X3.8Y-3.985
X3.8Y-4.045
X3.8Y-4.105
X3.8Y-4.165
X3.8Y-4.225
X3.8Y-4.285
X3.8Y-4.345
X3.8Y-4.405
X3.8Y-4.465
X3.8Y-4.585
X3.8Y-4.645
X3.8Y-4.765
X3.83Y-3.955
X3.83Y-4.015
X3.83Y-4.075
X3.83Y-4.135
X3.83Y-4.195
X3.83Y-4.255
X3.83Y-4.315
X3.83Y-4.375
X3.83Y-4.435
X3.83Y-4.555
X3.83Y-4.615
X3.83Y-4.675
X3.83Y-4.735
X3.83Y-4.795
X3.83Y-5.175
X3.86Y-3.925
X3.86Y-3.985
X3.86Y-4.045
X3.86Y-4.525
X3.86Y-4.585
X3.86Y-4.645
X3.86Y-4.765
X3.89Y-2.935
X3.89Y-2.995
X3.89Y-3.055
X3.89Y-3.115
X3.89Y-3.175
X3.89Y-3.235
X3.89Y-3.295
X3.89Y-3.355
X3.89Y-3.415
X3.89Y-3.475
X3.89Y-3.535
X3.89Y-3.595
X3.89Y-3.655
X3.89Y-3.715
X3.89Y-3.775
X3.89Y-3.835
X3.89Y-3.895
X3.89Y-3.955
X3.89Y-4.015
X3.89Y-4.135
X3.89Y-4.195
X3.89Y-4.255
X3.89Y-4.315
X3.89Y-4.375
X3.89Y-4.435
X3.89Y-4.495
X3.89Y-4.555
X3.89Y-4.615
X3.89Y-4.675
X3.89Y-4.735
X3.89Y-4.795
X3.92Y-2.905
X3.92Y-2.965
X3.92Y-3.025
X3.92Y-3.085
X3.92Y-3.145
X3.92Y-3.205
X3.92Y-3.265
X3.92Y-3.325
X3.92Y-3.385
X3.92Y-3.445
X3.92Y-3.505
X3.92Y-3.565
X3.92Y-3.625
X3.92Y-3.685
X3.92Y-3.745
X3.92Y-3.805
X3.92Y-3.865
X3.92Y-3.925
X3.92Y-3.985
X3.92Y-4.105
X3.92Y-4.165
X3.92Y-4.225
X3.92Y-4.285
X3.92Y-4.345
X3.92Y-4.405
X3.92Y-4.465
X3.92Y-4.525
X3.92Y-4.585
X3.92Y-4.645
X3.92Y-4.765
X3.95Y-2.875
X3.95Y-2.935
X3.95Y-2.995
X3.95Y-3.055
X3.95Y-3.115
X3.95Y-3.175
X3.95Y-3.235
X3.95Y-3.295
X3.95Y-3.355
X3.95Y-3.415
X3.95Y-3.475
X3.95Y-3.535
X3.95Y-3.595
X3.95Y-3.655
X3.95Y-3.715
X3.95Y-3.775
X3.95Y-3.835
X3.95Y-3.895
X3.95Y-3.955
X3.95Y-4.075
X3.95Y-4.135
X3.95Y-4.195
X3.95Y-4.255
X3.95Y-4.315
X3.95Y-4.375
X3.95Y-4.435
X3.95Y-4.495
X3.95Y-4.555
X3.95Y-4.615
X3.95Y-4.735
X3.95Y-4.795
X3.98Y-2.905
X3.98Y-2.965
X3.98Y-4.045
X3.98Y-4.105
X3.98Y-4.165
X3.98Y-4.705
X3.98Y-4.765
X4.01Y-2.635
X4.01Y-2.695
X4.01Y-2.755
X4.01Y-2.815
X4.01Y-2.875
X4.01Y-2.935
X4.01Y-3.055
X4.01Y-3.115
X4.01Y-3.175
X4.01Y-3.235
X4.01Y-3.295
X4.01Y-3.355
X4.01Y-3.415
X4.01Y-3.475
X4.01Y-3.535
X4.01Y-3.595
X4.01Y-3.655
X4.01Y-3.715
X4.01Y-3.775
X4.01Y-3.835
X4.01Y-3.895
X4.01Y-3.955
X4.01Y-4.015
X4.01Y-4.075
X4.01Y-4.135
X4.01Y-4.195
X4.01Y-4.255
X4.01Y-4.315
X4.01Y-4.375
X4.01Y-4.435
X4.01Y-4.495
X4.01Y-4.555
X4.01Y-4.615
X4.01Y-4.675
X4.01Y-4.735
X4.01Y-4.795
X4.01Y-4.855
X4.01Y-4.915
X4.01Y-4.975
X4.01Y-5.035
X4.01Y-5.095
X4.01Y-5.155
X4.01Y-5.215
X4.04Y-2.665
X4.04Y-2.725
X4.04Y-2.785
X4.04Y-2.845
X4.04Y-2.905
X4.04Y-3.025
X4.04Y-3.085
X4.04Y-3.145
X4.04Y-3.205
X4.04Y-3.265
X4.04Y-3.325
X4.04Y-3.385
X4.04Y-3.445
X4.04Y-3.505
X4.04Y-3.565
X4.04Y-3.625
X4.04Y-3.685
X4.04Y-3.745
X4.04Y-3.805
X4.04Y-3.865
X4.04Y-3.925
X4.04Y-3.985
X4.04Y-4.045
X4.04Y-4.105
X4.04Y-4.165
X4.04Y-4.285
X4.04Y-4.345
X4.04Y-4.405
X4.04Y-4.465
X4.04Y-4.525
X4.04Y-4.585
X4.04Y-4.645
X4.04Y-4.705
X4.04Y-4.765
X4.04Y-4.825
X4.04Y-4.885
X4.04Y-4.945
X4.04Y-5.005
X4.04Y-5.065
X4.04Y-5.125
X4.04Y-5.185
X4.07Y-2.635
X4.07Y-2.695
X4.07Y-2.755
X4.07Y-2.815
X4.07Y-2.875
X4.07Y-2.935
X4.07Y-2.995
X4.07Y-3.055
X4.07Y-3.115
X4.07Y-3.175
X4.07Y-3.235
X4.07Y-3.295
X4.07Y-3.355
X4.07Y-3.415
X4.07Y-3.475
X4.07Y-3.535
X4.07Y-3.595
X4.07Y-3.655
X4.07Y-3.715
X4.07Y-3.775
X4.07Y-3.835
X4.07Y-3.895
X4.07Y-3.955
X4.07Y-4.015
X4.07Y-4.075
X4.07Y-4.135
X4.07Y-4.195
X4.07Y-4.255
X4.07Y-4.315
X4.07Y-4.375
X4.07Y-4.435
X4.07Y-4.495
X4.07Y-4.555
X4.07Y-4.615
X4.07Y-4.675
X4.07Y-4.735
X4.07Y-4.795
X4.07Y-4.855
X4.07Y-4.915
X4.07Y-4.975
X4.07Y-5.035
X4.07Y-5.095
X4.07Y-5.155
X4.07Y-5.215
X4.1Y-2.665
X4.1Y-3.925
X4.1Y-5.185
X4.13Y-2.635
X4.13Y-2.695
X4.13Y-3.895
X4.13Y-3.955
X4.13Y-5.155
X4.13Y-5.215
X4.1478Y-3.8202
X4.15Y-3.675
X4.16Y-2.585
X4.16Y-3.925
X4.17Y-5.0803
X4.19Y-2.635
X4.19Y-2.695
X4.19Y-3.895
X4.19Y-3.955
X4.19Y-5.155
X4.19Y-5.215
X4.2072Y-4.5601
X4.22Y-2.545
X4.22Y-3.925
X4.22Y-4.945
X4.25Y-2.635
X4.25Y-2.695
X4.25Y-3.895
X4.25Y-3.955
X4.25Y-5.155
X4.25Y-5.215
X4.26Y-3.245
X4.275Y-4.155
X4.275Y-2.895
X4.28Y-2.665
X4.28Y-3.925
X4.28Y-5.185
X4.31Y-2.635
X4.31Y-2.695
X4.31Y-3.895
X4.31Y-3.955
X4.31Y-5.155
X4.31Y-5.215
X4.33Y-4.02
X4.33Y-2.76
X4.34Y-2.665
X4.34Y-3.925
X4.34Y-5.185
X4.37Y-2.635
X4.37Y-2.695
X4.37Y-3.895
X4.37Y-3.955
X4.37Y-5.155
X4.37Y-5.215
X4.4Y-3.925
X4.43Y-2.635
X4.43Y-2.695
X4.43Y-3.895
X4.43Y-3.955
X4.43Y-5.155
X4.43Y-5.215
X4.4572Y-4.8451
X4.4572Y-3.5851
X4.46Y-2.665
X4.46Y-3.925
X4.46Y-5.185
X4.49Y-2.635
X4.49Y-2.695
X4.49Y-3.895
X4.49Y-3.955
X4.49Y-5.155
X4.49Y-5.215
X4.495Y-4.31
X4.495Y-3.05
X4.515Y-5.0854
X4.515Y-3.8254
X4.52Y-2.665
X4.52Y-3.925
X4.52Y-5.185
X4.5272Y-4.7851
X4.5272Y-3.5251
X4.55Y-2.635
X4.55Y-2.695
X4.55Y-3.895
X4.55Y-3.955
X4.55Y-5.155
X4.55Y-5.215
X4.555Y-4.35
X4.555Y-3.09
X4.57Y-4.42
X4.58Y-2.665
X4.58Y-3.925
X4.58Y-5.185
X4.5822Y-4.1401
X4.5822Y-2.8801
X4.585Y-4.02
X4.585Y-2.76
X4.6Y-2.96
X4.6Y-3.01
X4.6Y-4.22
X4.6Y-4.27
X4.61Y-2.635
X4.61Y-2.695
X4.61Y-3.895
X4.61Y-3.955
X4.61Y-5.155
X4.61Y-5.215
X4.64Y-2.665
X4.64Y-3.925
X4.64Y-5.185
X4.67Y-2.635
X4.67Y-2.695
X4.67Y-3.895
X4.67Y-3.955
X4.67Y-5.155
X4.67Y-5.215
X4.7Y-2.665
X4.7Y-3.925
X4.7Y-5.185
X4.7071Y-4.2111
X4.715Y-2.94
X4.72Y-4.25
X4.72Y-2.985
X4.73Y-2.635
X4.73Y-2.695
X4.73Y-3.895
X4.73Y-3.955
X4.73Y-5.155
X4.73Y-5.215
X4.76Y-2.665
X4.76Y-3.925
X4.76Y-5.185
X4.775Y-4.195
X4.775Y-2.935
X4.7872Y-4.5601
X4.7872Y-3.3001
X4.79Y-2.635
X4.79Y-2.695
X4.79Y-3.895
X4.79Y-3.955
X4.79Y-5.155
X4.79Y-5.215
X4.82Y-2.665
X4.82Y-3.925
X4.82Y-5.185
X4.85Y-2.635
X4.85Y-2.695
X4.85Y-3.895
X4.85Y-3.955
X4.85Y-5.155
X4.85Y-5.215
X4.88Y-2.665
X4.88Y-3.58
X4.88Y-3.925
X4.88Y-5.185
X4.8822Y-4.7551
X4.8822Y-3.4951
X4.91Y-2.635
X4.91Y-2.695
X4.91Y-3.895
X4.91Y-3.955
X4.91Y-5.155
X4.91Y-5.215
X4.9222Y-4.1901
X4.9222Y-2.9301
X4.9272Y-4.3451
X4.9272Y-3.0851
X4.94Y-2.665
X4.94Y-3.925
X4.94Y-5.185
X4.97Y-2.635
X4.97Y-2.695
X4.97Y-3.895
X4.97Y-3.955
X4.97Y-5.155
X4.97Y-5.215
X5.0Y-2.665
X5.0Y-3.925
X5.0Y-5.185
X5.0172Y-4.5051
X5.0172Y-3.2451
X5.03Y-2.635
X5.03Y-2.695
X5.03Y-3.895
X5.03Y-3.955
X5.03Y-5.155
X5.03Y-5.215
X5.06Y-2.665
X5.06Y-3.925
X5.06Y-5.185
X5.09Y-2.635
X5.09Y-2.695
X5.09Y-3.895
X5.09Y-3.955
X5.09Y-5.155
X5.09Y-5.215
X5.12Y-2.665
X5.12Y-3.925
X5.12Y-5.185
X5.15Y-2.635
X5.15Y-2.695
X5.15Y-3.895
X5.15Y-3.955
X5.15Y-5.155
X5.15Y-5.215
X5.1672Y-4.0351
X5.1672Y-2.7751
X5.18Y-2.665
X5.18Y-3.925
X5.18Y-5.185
X5.21Y-2.635
X5.21Y-2.695
X5.21Y-3.895
X5.21Y-3.955
X5.21Y-5.155
X5.21Y-5.215
X5.24Y-2.665
X5.24Y-3.925
X5.24Y-5.185
X5.27Y-2.635
X5.27Y-2.695
X5.27Y-3.895
X5.27Y-3.955
X5.27Y-5.155
X5.27Y-5.215
X5.3Y-2.665
X5.3Y-3.925
X5.3Y-5.185
X5.3272Y-4.5101
X5.3272Y-3.2501
X5.33Y-2.635
X5.33Y-2.695
X5.33Y-3.895
X5.33Y-3.955
X5.33Y-5.155
X5.33Y-5.215
X5.36Y-2.665
X5.36Y-3.925
X5.36Y-5.185
X5.39Y-2.635
X5.39Y-2.695
X5.39Y-3.895
X5.39Y-3.955
X5.39Y-5.155
X5.39Y-5.215
X5.4022Y-4.1901
X5.4022Y-2.9301
X5.4122Y-4.3451
X5.4122Y-4.7701
X5.4122Y-3.0851
X5.4122Y-3.5101
X5.42Y-2.665
X5.42Y-3.925
X5.42Y-5.185
X5.45Y-2.635
X5.45Y-2.695
X5.45Y-3.895
X5.45Y-3.955
X5.45Y-5.155
X5.45Y-5.215
X5.48Y-2.665
X5.48Y-3.925
X5.48Y-5.185
X5.51Y-2.635
X5.51Y-2.695
X5.51Y-3.895
X5.51Y-3.955
X5.51Y-5.155
X5.51Y-5.215
X5.54Y-2.665
X5.54Y-3.925
X5.54Y-5.185
X5.57Y-2.635
X5.57Y-2.695
X5.57Y-3.895
X5.57Y-3.955
X5.57Y-5.155
X5.57Y-5.215
X5.585Y-4.175
X5.585Y-4.355
X5.585Y-4.445
X5.585Y-4.54
X5.585Y-2.915
X5.585Y-3.095
X5.585Y-3.185
X5.585Y-3.28
X5.6Y-2.665
X5.6Y-3.925
X5.6Y-5.185
X5.63Y-2.635
X5.63Y-2.695
X5.63Y-3.895
X5.63Y-3.955
X5.63Y-5.155
X5.63Y-5.215
X5.645Y-4.61
X5.645Y-3.35
X5.6522Y-4.9501
X5.6522Y-3.6901
X5.66Y-2.665
X5.66Y-3.925
X5.66Y-5.185
X5.69Y-2.635
X5.69Y-2.695
X5.69Y-3.895
X5.69Y-3.955
X5.69Y-5.155
X5.69Y-5.215
X5.72Y-2.665
X5.72Y-3.925
X5.72Y-5.185
X5.735Y-4.0
X5.735Y-2.74
X5.7472Y-4.6101
X5.7472Y-3.3501
X5.75Y-2.635
X5.75Y-2.695
X5.75Y-3.895
X5.75Y-3.955
X5.75Y-5.155
X5.75Y-5.215
X5.78Y-2.665
X5.78Y-3.925
X5.78Y-5.185
X5.81Y-2.635
X5.81Y-2.695
X5.81Y-3.895
X5.81Y-3.955
X5.81Y-5.155
X5.81Y-5.215
X5.84Y-4.0
X5.84Y-2.665
X5.84Y-2.74
X5.84Y-3.925
X5.84Y-5.185
X5.87Y-2.635
X5.87Y-2.695
X5.87Y-3.895
X5.87Y-3.955
X5.87Y-5.155
X5.87Y-5.215
X5.9Y-2.665
X5.9Y-3.925
X5.9Y-5.185
X5.93Y-2.635
X5.93Y-2.695
X5.93Y-3.895
X5.93Y-3.955
X5.93Y-5.155
X5.93Y-5.215
X5.935Y-4.0
X5.9351Y-2.74
X5.95Y-5.095
X5.95Y-3.835
X5.96Y-2.665
X5.96Y-3.925
X5.96Y-5.185
X5.99Y-2.635
X5.99Y-2.695
X5.99Y-3.895
X5.99Y-3.955
X5.99Y-5.155
X5.99Y-5.215
X6.0072Y-4.6101
X6.0072Y-3.3501
X6.02Y-2.665
X6.02Y-3.925
X6.02Y-5.185
X6.0322Y-4.8001
X6.0322Y-3.5401
X6.035Y-4.0
X6.035Y-2.74
X6.05Y-2.635
X6.05Y-2.695
X6.05Y-3.895
X6.05Y-3.955
X6.05Y-5.155
X6.05Y-5.215
X6.08Y-2.665
X6.08Y-3.925
X6.08Y-5.185
X6.0822Y-4.9051
X6.0822Y-3.6451
X6.1Y-4.61
X6.1Y-3.35
X6.11Y-2.635
X6.11Y-2.695
X6.11Y-3.895
X6.11Y-3.955
X6.11Y-5.155
X6.11Y-5.215
X6.14Y-2.665
X6.14Y-3.925
X6.14Y-5.185
X6.17Y-2.635
X6.17Y-2.695
X6.17Y-3.895
X6.17Y-3.955
X6.17Y-5.155
X6.17Y-5.215
X6.2Y-2.665
X6.2Y-3.925
X6.2Y-5.185
X6.205Y-4.135
X6.205Y-4.235
X6.205Y-4.435
X6.205Y-4.53
X6.205Y-2.875
X6.205Y-2.975
X6.205Y-3.175
X6.205Y-3.27
X6.23Y-2.635
X6.23Y-2.695
X6.23Y-3.895
X6.23Y-3.955
X6.23Y-5.155
X6.23Y-5.215
X6.26Y-2.665
X6.26Y-3.925
X6.26Y-5.185
X6.29Y-2.635
X6.29Y-2.695
X6.29Y-3.895
X6.29Y-3.955
X6.29Y-5.155
X6.29Y-5.215
X6.32Y-2.665
X6.32Y-3.925
X6.32Y-5.185
X6.33Y-4.805
X6.33Y-3.545
X6.35Y-2.635
X6.35Y-2.695
X6.35Y-3.895
X6.35Y-3.955
X6.35Y-5.155
X6.35Y-5.215
X6.38Y-2.665
X6.38Y-3.925
X6.38Y-5.185
X6.41Y-2.635
X6.41Y-2.695
X6.41Y-3.895
X6.41Y-3.955
X6.41Y-5.155
X6.41Y-5.215
X6.44Y-4.525
X6.44Y-2.665
X6.44Y-3.265
X6.44Y-3.925
X6.44Y-5.185
X6.47Y-2.635
X6.47Y-2.695
X6.47Y-3.895
X6.47Y-3.955
X6.47Y-5.155
X6.47Y-5.215
X6.5Y-2.665
X6.5Y-3.925
X6.5Y-5.185
X6.53Y-2.635
X6.53Y-2.695
X6.53Y-3.895
X6.53Y-3.955
X6.53Y-5.155
X6.53Y-5.215
X6.56Y-2.665
X6.56Y-3.925
X6.56Y-5.185
X6.58Y-5.04
X6.58Y-3.78
X6.5872Y-4.2701
X6.5872Y-4.5201
X6.5872Y-3.0101
X6.5872Y-3.2601
X6.59Y-2.635
X6.59Y-2.695
X6.59Y-3.895
X6.59Y-3.955
X6.59Y-5.155
X6.59Y-5.215
X6.62Y-2.665
X6.62Y-3.925
X6.62Y-5.185
X6.64Y-4.68
X6.64Y-3.42
X6.65Y-2.635
X6.65Y-2.695
X6.65Y-3.895
X6.65Y-3.955
X6.65Y-5.155
X6.65Y-5.215
X6.68Y-2.665
X6.68Y-3.925
X6.68Y-5.185
X6.71Y-2.635
X6.71Y-2.695
X6.71Y-3.895
X6.71Y-3.955
X6.71Y-5.155
X6.71Y-5.215
X6.715Y-4.985
X6.715Y-3.725
X6.74Y-2.665
X6.74Y-3.925
X6.74Y-5.185
X6.77Y-2.635
X6.77Y-2.695
X6.77Y-3.895
X6.77Y-3.955
X6.77Y-5.155
X6.77Y-5.215
X6.8Y-2.665
X6.8Y-3.925
X6.8Y-5.185
X6.83Y-2.635
X6.83Y-2.695
X6.83Y-3.895
X6.83Y-3.955
X6.83Y-5.155
X6.83Y-5.215
X6.86Y-2.665
X6.86Y-3.925
X6.86Y-5.185
X6.89Y-2.635
X6.89Y-2.695
X6.89Y-3.895
X6.89Y-3.955
X6.89Y-5.155
X6.89Y-5.215
X6.8972Y-4.8101
X6.8972Y-3.5501
X6.9122Y-4.2351
X6.9122Y-2.9751
X6.92Y-2.665
X6.92Y-3.925
X6.92Y-5.185
X6.95Y-2.635
X6.95Y-2.695
X6.95Y-3.895
X6.95Y-3.955
X6.95Y-5.155
X6.95Y-5.215
X6.9722Y-4.2351
X6.9722Y-2.9751
X6.98Y-2.665
X6.98Y-3.925
X6.98Y-5.185
X7.01Y-2.635
X7.01Y-2.695
X7.01Y-3.895
X7.01Y-3.955
X7.01Y-5.155
X7.01Y-5.215
X7.04Y-2.665
X7.04Y-3.925
X7.04Y-5.185
X7.07Y-2.635
X7.07Y-2.695
X7.07Y-3.895
X7.07Y-3.955
X7.07Y-5.155
X7.07Y-5.215
X7.1Y-2.665
X7.1Y-3.925
X7.1Y-5.185
X7.13Y-2.635
X7.13Y-2.695
X7.13Y-3.895
X7.13Y-3.955
X7.13Y-5.155
X7.13Y-5.215
X7.16Y-2.665
X7.16Y-3.925
X7.16Y-5.185
X7.18Y-4.45
X7.18Y-4.535
X7.18Y-4.62
X7.18Y-3.19
X7.18Y-3.275
X7.18Y-3.36
X7.185Y-4.05
X7.185Y-4.145
X7.185Y-4.235
X7.185Y-2.79
X7.185Y-2.885
X7.185Y-2.975
X7.19Y-2.635
X7.19Y-2.695
X7.19Y-3.895
X7.19Y-3.955
X7.19Y-5.155
X7.19Y-5.215
X7.22Y-2.665
X7.22Y-3.925
X7.22Y-5.185
X7.2222Y-4.9501
X7.2222Y-3.6901
X7.225Y-4.68
X7.225Y-3.42
X7.25Y-2.635
X7.25Y-2.695
X7.25Y-3.895
X7.25Y-3.955
X7.25Y-5.155
X7.25Y-5.215
X7.275Y-4.05
X7.275Y-2.79
X7.28Y-2.665
X7.28Y-3.925
X7.28Y-5.185
X7.31Y-2.635
X7.31Y-2.695
X7.31Y-3.895
X7.31Y-3.955
X7.31Y-5.155
X7.31Y-5.215
X7.335Y-4.68
X7.335Y-3.42
X7.34Y-2.665
X7.34Y-3.925
X7.34Y-5.185
X7.37Y-5.03
X7.37Y-2.635
X7.37Y-2.695
X7.37Y-3.77
X7.37Y-3.895
X7.37Y-3.955
X7.37Y-5.155
X7.37Y-5.215
X7.375Y-4.05
X7.375Y-2.79
X7.4Y-2.665
X7.4Y-3.925
X7.4Y-5.185
X7.43Y-2.635
X7.43Y-2.695
X7.43Y-3.895
X7.43Y-3.955
X7.43Y-5.155
X7.43Y-5.215
X7.46Y-2.665
X7.46Y-3.925
X7.46Y-5.185
X7.475Y-4.05
X7.475Y-2.79
X7.49Y-2.635
X7.49Y-2.695
X7.49Y-3.895
X7.49Y-3.955
X7.49Y-5.155
X7.49Y-5.215
X7.51Y-4.68
X7.51Y-3.42
X7.5122Y-5.0901
X7.5122Y-3.8301
X7.52Y-2.665
X7.52Y-3.925
X7.52Y-5.185
X7.55Y-2.635
X7.55Y-2.695
X7.55Y-3.895
X7.55Y-3.955
X7.55Y-5.155
X7.55Y-5.215
X7.575Y-4.05
X7.575Y-2.79
X7.58Y-2.665
X7.58Y-3.925
X7.58Y-5.185
X7.5972Y-4.8051
X7.5972Y-3.5451
X7.61Y-2.635
X7.61Y-2.695
X7.61Y-3.895
X7.61Y-3.955
X7.61Y-5.155
X7.61Y-5.215
X7.625Y-4.68
X7.625Y-3.42
X7.64Y-2.665
X7.64Y-3.925
X7.64Y-5.185
X7.67Y-2.635
X7.67Y-2.695
X7.67Y-3.895
X7.67Y-3.955
X7.67Y-5.155
X7.67Y-5.215
X7.675Y-4.05
X7.675Y-2.79
X7.7Y-2.665
X7.7Y-3.925
X7.7Y-5.185
X7.73Y-2.635
X7.73Y-2.695
X7.73Y-3.895
X7.73Y-3.955
X7.73Y-5.155
X7.73Y-5.215
X7.76Y-4.05
X7.76Y-2.665
X7.76Y-2.79
X7.76Y-3.925
X7.76Y-5.185
X7.79Y-2.635
X7.79Y-2.695
X7.79Y-3.895
X7.79Y-3.955
X7.79Y-5.155
X7.79Y-5.215
X7.805Y-4.12
X7.805Y-4.2
X7.805Y-4.3
X7.805Y-4.49
X7.805Y-4.59
X7.805Y-2.86
X7.805Y-2.94
X7.805Y-3.04
X7.805Y-3.23
X7.805Y-3.33
X7.82Y-2.665
X7.82Y-3.925
X7.82Y-5.185
X7.85Y-2.635
X7.85Y-2.695
X7.85Y-3.895
X7.85Y-3.955
X7.85Y-5.155
X7.85Y-5.215
X7.88Y-2.665
X7.88Y-3.925
X7.88Y-5.185
X7.9022Y-4.2651
X7.9022Y-3.0051
X7.91Y-2.635
X7.91Y-2.695
X7.91Y-3.895
X7.91Y-3.955
X7.91Y-5.155
X7.91Y-5.215
X7.9222Y-4.6151
X7.9222Y-3.3551
X7.94Y-2.665
X7.94Y-3.925
X7.94Y-5.185
X7.97Y-2.635
X7.97Y-2.695
X7.97Y-3.895
X7.97Y-3.955
X7.97Y-5.155
X7.97Y-5.215
X8.0Y-2.665
X8.0Y-3.925
X8.0Y-5.185
X8.03Y-2.635
X8.03Y-2.695
X8.03Y-3.895
X8.03Y-3.955
X8.03Y-5.155
X8.03Y-5.215
X8.06Y-2.665
X8.06Y-3.925
X8.06Y-5.185
X8.09Y-2.635
X8.09Y-2.695
X8.09Y-3.895
X8.09Y-3.955
X8.09Y-5.155
X8.09Y-5.215
X8.12Y-2.665
X8.12Y-3.925
X8.12Y-5.185
X8.15Y-2.635
X8.15Y-2.695
X8.15Y-3.895
X8.15Y-3.955
X8.15Y-5.155
X8.15Y-5.215
X8.18Y-2.665
X8.18Y-3.925
X8.18Y-5.185
X8.2Y-4.49
X8.21Y-2.635
X8.21Y-2.695
X8.21Y-3.895
X8.21Y-3.955
X8.21Y-5.155
X8.21Y-5.215
X8.22Y-3.23
X8.24Y-2.665
X8.24Y-3.925
X8.24Y-5.185
X8.27Y-2.635
X8.27Y-2.695
X8.27Y-3.895
X8.27Y-3.955
X8.27Y-5.155
X8.27Y-5.215
X8.2772Y-4.2601
X8.2772Y-3.0001
X8.3Y-2.665
X8.3Y-3.925
X8.3Y-5.185
X8.33Y-2.635
X8.33Y-2.695
X8.33Y-3.895
X8.33Y-3.955
X8.33Y-5.155
X8.33Y-5.215
X8.36Y-2.665
X8.36Y-3.925
X8.36Y-5.185
X8.39Y-2.635
X8.39Y-2.695
X8.39Y-2.755
X8.39Y-2.815
X8.39Y-2.875
X8.39Y-2.935
X8.39Y-2.995
X8.39Y-3.055
X8.39Y-3.115
X8.39Y-3.175
X8.39Y-3.235
X8.39Y-3.295
X8.39Y-3.355
X8.39Y-3.415
X8.39Y-3.475
X8.39Y-3.535
X8.39Y-3.595
X8.39Y-3.655
X8.39Y-3.715
X8.39Y-3.775
X8.39Y-3.835
X8.39Y-3.895
X8.39Y-3.955
X8.39Y-4.015
X8.39Y-4.075
X8.39Y-4.135
X8.39Y-4.195
X8.39Y-4.255
X8.39Y-4.315
X8.39Y-4.375
X8.39Y-4.435
X8.39Y-4.495
X8.39Y-4.555
X8.39Y-4.615
X8.39Y-4.675
X8.39Y-4.735
X8.39Y-4.795
X8.39Y-4.855
X8.39Y-4.915
X8.39Y-4.975
X8.39Y-5.035
X8.39Y-5.095
X8.39Y-5.155
X8.39Y-5.215
X8.42Y-2.665
X8.42Y-2.725
X8.42Y-2.785
X8.42Y-2.845
X8.42Y-2.905
X8.42Y-2.965
X8.42Y-3.025
X8.42Y-3.085
X8.42Y-3.145
X8.42Y-3.205
X8.42Y-3.265
X8.42Y-3.325
X8.42Y-3.385
X8.42Y-3.445
X8.42Y-3.505
X8.42Y-3.565
X8.42Y-3.625
X8.42Y-3.685
X8.42Y-3.745
X8.42Y-3.805
X8.42Y-3.865
X8.42Y-3.925
X8.42Y-3.985
X8.42Y-4.045
X8.42Y-4.105
X8.42Y-4.165
X8.42Y-4.225
X8.42Y-4.285
X8.42Y-4.345
X8.42Y-4.405
X8.42Y-4.465
X8.42Y-4.525
X8.42Y-4.585
X8.42Y-4.645
X8.42Y-4.705
X8.42Y-4.765
X8.42Y-4.825
X8.42Y-4.885
X8.42Y-4.945
X8.42Y-5.005
X8.42Y-5.065
X8.42Y-5.125
X8.42Y-5.185
X8.45Y-2.635
X8.45Y-2.695
X8.45Y-2.755
X8.45Y-2.815
X8.45Y-2.875
X8.45Y-2.935
X8.45Y-2.995
X8.45Y-3.055
X8.45Y-3.115
X8.45Y-3.175
X8.45Y-3.235
X8.45Y-3.295
X8.45Y-3.355
X8.45Y-3.415
X8.45Y-3.475
X8.45Y-3.535
X8.45Y-3.595
X8.45Y-3.655
X8.45Y-3.715
X8.45Y-3.775
X8.45Y-3.835
X8.45Y-3.895
X8.45Y-3.955
X8.45Y-4.015
X8.45Y-4.075
X8.45Y-4.135
X8.45Y-4.195
X8.45Y-4.255
X8.45Y-4.315
X8.45Y-4.375
X8.45Y-4.435
X8.45Y-4.495
X8.45Y-4.555
X8.45Y-4.615
X8.45Y-4.675
X8.45Y-4.735
X8.45Y-4.795
X8.45Y-4.855
X8.45Y-4.915
X8.45Y-4.975
X8.45Y-5.035
X8.45Y-5.095
X8.45Y-5.155
X8.45Y-5.215
T2
X4.99Y-4.095
X4.99Y-4.445
X4.99Y-2.835
X4.99Y-3.185
X5.115Y-4.22
X5.115Y-4.32
X5.115Y-2.96
X5.115Y-3.06
X5.215Y-4.22
X5.215Y-4.32
X5.215Y-2.96
X5.215Y-3.06
X5.34Y-4.095
X5.34Y-4.445
X5.34Y-2.835
X5.34Y-3.185
X7.25Y-4.185
X7.25Y-4.485
X7.25Y-2.925
X7.25Y-3.225
X7.275Y-4.125
X7.275Y-4.605
X7.275Y-2.865
X7.275Y-3.345
X7.305Y-4.235
X7.305Y-4.435
X7.305Y-4.55
X7.305Y-2.975
X7.305Y-3.175
X7.305Y-3.29
X7.325Y-4.18
X7.325Y-2.92
X7.35Y-4.285
X7.35Y-4.385
X7.35Y-3.025
X7.35Y-3.125
X7.375Y-4.125
X7.375Y-4.505
X7.375Y-2.865
X7.375Y-3.245
X7.425Y-4.18
X7.425Y-2.92
X7.475Y-4.125
X7.475Y-4.505
X7.475Y-2.865
X7.475Y-3.245
X7.49Y-4.365
X7.49Y-3.105
X7.525Y-4.18
X7.525Y-4.55
X7.525Y-2.92
X7.525Y-3.29
X7.575Y-4.125
X7.575Y-4.605
X7.575Y-2.865
X7.575Y-3.345
X7.625Y-4.18
X7.625Y-4.55
X7.625Y-2.92
X7.625Y-3.29
X7.63Y-4.35
X7.63Y-4.45
X7.63Y-3.09
X7.63Y-3.19
X7.675Y-4.125
X7.675Y-4.2
X7.675Y-4.3
X7.675Y-4.5
X7.675Y-4.605
X7.675Y-2.865
X7.675Y-2.94
X7.675Y-3.04
X7.675Y-3.24
X7.675Y-3.345
X7.73Y-4.25
X7.73Y-4.55
X7.73Y-2.99
X7.73Y-3.29
T3
X6.215Y-4.975
X6.215Y-3.715
X6.315Y-5.075
X6.315Y-3.815
X6.415Y-4.975
X6.415Y-3.715
X8.095Y-4.61
X8.095Y-4.81
X8.095Y-3.35
X8.095Y-3.55
X8.195Y-4.71
X8.195Y-3.45
T4
X3.11Y-3.15
X3.11Y-3.35
X3.11Y-3.55
M30
