%TF.GenerationSoftware,KiCad,Pcbnew,7.0.10-7.0.10~ubuntu22.04.1*%
%TF.CreationDate,2024-02-25T13:06:28-06:00*%
%TF.ProjectId,aom_driver,616f6d5f-6472-4697-9665-722e6b696361,v1*%
%TF.SameCoordinates,Original*%
%TF.FileFunction,Copper,L3,Inr*%
%TF.FilePolarity,Positive*%
%FSLAX46Y46*%
G04 Gerber Fmt 4.6, Leading zero omitted, Abs format (unit mm)*
G04 Created by KiCad (PCBNEW 7.0.10-7.0.10~ubuntu22.04.1) date 2024-02-25 13:06:28*
%MOMM*%
%LPD*%
G01*
G04 APERTURE LIST*
G04 Aperture macros list*
%AMRoundRect*
0 Rectangle with rounded corners*
0 $1 Rounding radius*
0 $2 $3 $4 $5 $6 $7 $8 $9 X,Y pos of 4 corners*
0 Add a 4 corners polygon primitive as box body*
4,1,4,$2,$3,$4,$5,$6,$7,$8,$9,$2,$3,0*
0 Add four circle primitives for the rounded corners*
1,1,$1+$1,$2,$3*
1,1,$1+$1,$4,$5*
1,1,$1+$1,$6,$7*
1,1,$1+$1,$8,$9*
0 Add four rect primitives between the rounded corners*
20,1,$1+$1,$2,$3,$4,$5,0*
20,1,$1+$1,$4,$5,$6,$7,0*
20,1,$1+$1,$6,$7,$8,$9,0*
20,1,$1+$1,$8,$9,$2,$3,0*%
G04 Aperture macros list end*
%TA.AperFunction,ComponentPad*%
%ADD10C,1.440000*%
%TD*%
%TA.AperFunction,ComponentPad*%
%ADD11C,1.016000*%
%TD*%
%TA.AperFunction,ComponentPad*%
%ADD12RoundRect,0.249999X-1.550001X0.790001X-1.550001X-0.790001X1.550001X-0.790001X1.550001X0.790001X0*%
%TD*%
%TA.AperFunction,ComponentPad*%
%ADD13O,3.600000X2.080000*%
%TD*%
%TA.AperFunction,ViaPad*%
%ADD14C,0.800000*%
%TD*%
%TA.AperFunction,Conductor*%
%ADD15C,0.254000*%
%TD*%
G04 APERTURE END LIST*
D10*
%TO.N,Net-(U9-SET)*%
%TO.C,RV1*%
X114045500Y-127380500D03*
%TO.N,GND*%
X111505500Y-127380500D03*
X108965500Y-127380500D03*
%TD*%
D11*
%TO.N,GND*%
%TO.C,X2*%
X196342500Y-83566500D03*
X196342500Y-75946500D03*
X194945500Y-84963500D03*
X194945500Y-82296500D03*
X194945500Y-77216500D03*
X194945500Y-74676500D03*
X194945500Y-72771500D03*
X193802500Y-81026500D03*
X193802500Y-78486500D03*
X193675500Y-83566500D03*
X193675500Y-74168500D03*
X192405500Y-84963500D03*
X192405500Y-72771500D03*
X191135500Y-83566500D03*
X191135500Y-74168500D03*
X190246500Y-78867500D03*
X189865500Y-82423500D03*
X189865500Y-72771500D03*
X188595500Y-74168500D03*
X187325500Y-82423500D03*
X187325500Y-72771500D03*
X186690500Y-79375500D03*
X186690500Y-76835500D03*
X186055500Y-74168500D03*
X185547500Y-83566500D03*
X185547500Y-80645500D03*
X185547500Y-75565500D03*
X184785500Y-84963500D03*
X184785500Y-72771500D03*
X184150500Y-81915500D03*
X184150500Y-74295500D03*
%TD*%
%TO.N,GND*%
%TO.C,X1*%
X196342000Y-115570000D03*
X196342000Y-107950000D03*
X194945000Y-116967000D03*
X194945000Y-114300000D03*
X194945000Y-109220000D03*
X194945000Y-106680000D03*
X194945000Y-104775000D03*
X193802000Y-113030000D03*
X193802000Y-110490000D03*
X193675000Y-115570000D03*
X193675000Y-106172000D03*
X192405000Y-116967000D03*
X192405000Y-104775000D03*
X191135000Y-115570000D03*
X191135000Y-106172000D03*
X190246000Y-110871000D03*
X189865000Y-114427000D03*
X189865000Y-104775000D03*
X188595000Y-106172000D03*
X187325000Y-114427000D03*
X187325000Y-104775000D03*
X186690000Y-111379000D03*
X186690000Y-108839000D03*
X186055000Y-106172000D03*
X185547000Y-115570000D03*
X185547000Y-112649000D03*
X185547000Y-107569000D03*
X184785000Y-116967000D03*
X184785000Y-104775000D03*
X184150000Y-113919000D03*
X184150000Y-106299000D03*
%TD*%
D10*
%TO.N,Net-(U10-SET)*%
%TO.C,RV2*%
X114046000Y-95377000D03*
%TO.N,GND*%
X111506000Y-95377000D03*
X108966000Y-95377000D03*
%TD*%
D11*
%TO.N,GND*%
%TO.C,FL2*%
X135636500Y-80899500D03*
X135636500Y-72009500D03*
X132461500Y-77724500D03*
X132461500Y-75184500D03*
X129921500Y-77724500D03*
X129921500Y-75184500D03*
X126746500Y-80899500D03*
X126746500Y-72009500D03*
%TD*%
%TO.N,GND*%
%TO.C,FL1*%
X135636000Y-112903000D03*
X135636000Y-104013000D03*
X132461000Y-109728000D03*
X132461000Y-107188000D03*
X129921000Y-109728000D03*
X129921000Y-107188000D03*
X126746000Y-112903000D03*
X126746000Y-104013000D03*
%TD*%
D12*
%TO.N,VDD*%
%TO.C,J3*%
X78994500Y-80010500D03*
D13*
%TO.N,GND*%
X78994500Y-85090500D03*
%TO.N,VEE*%
X78994500Y-90170500D03*
%TD*%
D14*
%TO.N,VDD*%
X196889500Y-97282000D03*
X107188500Y-64643500D03*
X174752000Y-97282500D03*
X174751500Y-129286000D03*
X142493500Y-127507500D03*
X142494000Y-95504000D03*
X125348500Y-124586500D03*
X125349000Y-92583000D03*
X196889000Y-129285500D03*
X207010000Y-83312000D03*
X206883000Y-115315500D03*
X80264500Y-99568000D03*
%TO.N,GND*%
X98806500Y-91313500D03*
X171958000Y-130937000D03*
X98806500Y-77597500D03*
X195326000Y-86614000D03*
X201676000Y-131699000D03*
X101854500Y-101981500D03*
X213868500Y-131699500D03*
X157607500Y-73025500D03*
X141859500Y-83312500D03*
X172720500Y-99695500D03*
X100330500Y-95885500D03*
X214630500Y-71501500D03*
X120142000Y-132461000D03*
X140716500Y-67691500D03*
X213106500Y-118745500D03*
X100330500Y-82169500D03*
X107950500Y-100457500D03*
X141859000Y-115316000D03*
X157607500Y-80645500D03*
X101092500Y-105791500D03*
X120142500Y-68453500D03*
X184785000Y-102870000D03*
X147574000Y-130937000D03*
X141478500Y-68453500D03*
X108712500Y-99695500D03*
X177292000Y-131699000D03*
X91948500Y-121031500D03*
X162814000Y-130937000D03*
X162052500Y-99695500D03*
X102616500Y-93599500D03*
X187960500Y-67691500D03*
X139192500Y-67691500D03*
X207010500Y-68453500D03*
X155194000Y-130937000D03*
X191770500Y-100457500D03*
X135382500Y-66929500D03*
X139192500Y-99695500D03*
X103378500Y-89789500D03*
X101854500Y-82169500D03*
X99568500Y-98171500D03*
X152908000Y-131699000D03*
X184912500Y-99695500D03*
X107950500Y-68453500D03*
X133096500Y-99695500D03*
X197866000Y-130937000D03*
X112522500Y-66929500D03*
X149860500Y-99695500D03*
X191008000Y-131699000D03*
X213868500Y-127127500D03*
X101854500Y-88265500D03*
X145669000Y-101600000D03*
X126238500Y-98933500D03*
X138430500Y-66929500D03*
X141859000Y-112903000D03*
X139572500Y-129412500D03*
X101854500Y-114173500D03*
X182499000Y-102870000D03*
X156718500Y-100457500D03*
X98044500Y-101219500D03*
X214630500Y-68453500D03*
X213106500Y-86741500D03*
X214630500Y-114173500D03*
X181102500Y-66929500D03*
X99568500Y-108839500D03*
X102616500Y-105791500D03*
X197866500Y-66929500D03*
X97282500Y-101981500D03*
X106426000Y-132461000D03*
X182626000Y-132461000D03*
X102616500Y-116459500D03*
X100330500Y-111125500D03*
X109474000Y-130937000D03*
X126238500Y-68453500D03*
X194563000Y-121030000D03*
X92710500Y-121793500D03*
X214630500Y-132461500D03*
X95758500Y-114173500D03*
X115697000Y-110490000D03*
X129286000Y-132461000D03*
X213106500Y-66929500D03*
X170434500Y-66929500D03*
X212344500Y-131699500D03*
X168148500Y-99695500D03*
X123190500Y-98933500D03*
X101854500Y-100457500D03*
X213106500Y-80645500D03*
X144526500Y-100457500D03*
X179578500Y-100457500D03*
X177292500Y-67691500D03*
X182499500Y-75565500D03*
X103378500Y-92837500D03*
X98044500Y-114935500D03*
X168910000Y-130937000D03*
X97282500Y-121793500D03*
X213868500Y-96647500D03*
X106426500Y-100457500D03*
X97282500Y-117221500D03*
X118618500Y-66929500D03*
X194945500Y-70866500D03*
X187198000Y-132461000D03*
X91186500Y-121793500D03*
X121666500Y-66929500D03*
X98044500Y-116459500D03*
X101854500Y-103505500D03*
X205486000Y-132461000D03*
X111760000Y-131699000D03*
X203962000Y-130937000D03*
X183641500Y-125983500D03*
X101854500Y-89789500D03*
X184150000Y-130937000D03*
X161290500Y-100457500D03*
X115570000Y-132461000D03*
X100330500Y-97409500D03*
X213868500Y-108839500D03*
X198247500Y-77216500D03*
X209296500Y-67691500D03*
X210058500Y-98933500D03*
X214630500Y-85217500D03*
X154432000Y-131699000D03*
X101854500Y-105029500D03*
X152146000Y-132461000D03*
X109474500Y-100457500D03*
X153670500Y-66929500D03*
X99568500Y-96647500D03*
X103378500Y-121793500D03*
X98806500Y-88265500D03*
X149098500Y-98933500D03*
X136906500Y-68453500D03*
X203962500Y-98933500D03*
X89662500Y-114173500D03*
X179578500Y-66929500D03*
X124769500Y-115317500D03*
X114046500Y-98933500D03*
X178054500Y-68453500D03*
X198247000Y-106680000D03*
X96520500Y-104267500D03*
X110998000Y-132461000D03*
X155956000Y-131699000D03*
X164338500Y-68453500D03*
X120904500Y-99695500D03*
X210058500Y-100457500D03*
X213106500Y-68453500D03*
X130810500Y-98933500D03*
X158242500Y-66929500D03*
X196342000Y-132461000D03*
X104140500Y-67691500D03*
X189015500Y-127762000D03*
X149098500Y-66929500D03*
X183642000Y-93980000D03*
X103378500Y-100457500D03*
X128524000Y-131699000D03*
X143764500Y-67691500D03*
X176530500Y-68453500D03*
X161290000Y-132461000D03*
X102616500Y-87503500D03*
X106426500Y-66929500D03*
X174244500Y-67691500D03*
X213868500Y-102743500D03*
X137470000Y-121160000D03*
X214630500Y-115697500D03*
X207772000Y-131699000D03*
X213106500Y-77597500D03*
X131572500Y-67691500D03*
X89662500Y-120269500D03*
X152908500Y-67691500D03*
X168148000Y-131699000D03*
X99568500Y-79883500D03*
X127437500Y-82425500D03*
X118166000Y-89029000D03*
X191770500Y-98933500D03*
X92710500Y-114173500D03*
X181102000Y-130937000D03*
X210058500Y-68453500D03*
X141478500Y-100457500D03*
X115697500Y-78486500D03*
X213106500Y-127889500D03*
X97282500Y-120269500D03*
X99568500Y-89027500D03*
X101854500Y-80645500D03*
X102616500Y-131699500D03*
X185674500Y-98933500D03*
X187960500Y-99695500D03*
X126238000Y-132461000D03*
X168910500Y-98933500D03*
X214630500Y-77597500D03*
X186309000Y-118872000D03*
X98806500Y-89789500D03*
X123190500Y-100457500D03*
X155447500Y-120903500D03*
X118618500Y-98933500D03*
X197104500Y-70866500D03*
X186309500Y-86868500D03*
X136906000Y-132461000D03*
X213106500Y-123317500D03*
X161290500Y-66929500D03*
X178054500Y-66929500D03*
X167004500Y-126491500D03*
X127762500Y-98933500D03*
X127000500Y-99695500D03*
X145288500Y-99695500D03*
X117856000Y-131699000D03*
X214630500Y-86741500D03*
X108712500Y-67691500D03*
X99568500Y-110363500D03*
X103378500Y-83693500D03*
X100330500Y-92837500D03*
X95758500Y-109601500D03*
X205486500Y-68453500D03*
X95758500Y-118745500D03*
X137470000Y-110365000D03*
X213106500Y-98933500D03*
X159766500Y-66929500D03*
X90043500Y-118237500D03*
X164338500Y-66929500D03*
X95758500Y-120269500D03*
X175189500Y-90172500D03*
X175768500Y-67691500D03*
X144018000Y-93345000D03*
X124714000Y-132461000D03*
X147574500Y-100457500D03*
X182626500Y-68453500D03*
X117094500Y-98933500D03*
X102616500Y-111887500D03*
X213106500Y-69977500D03*
X171958000Y-132461000D03*
X133858500Y-100457500D03*
X207772500Y-67691500D03*
X103378500Y-97409500D03*
X213106500Y-100457500D03*
X175006500Y-100457500D03*
X192405500Y-70866500D03*
X214630500Y-95885500D03*
X99568500Y-116459500D03*
X102616500Y-92075500D03*
X210820000Y-131699000D03*
X195580500Y-99695500D03*
X213868500Y-92075500D03*
X139954500Y-100457500D03*
X213106500Y-115697500D03*
X101854500Y-77597500D03*
X137668000Y-131699000D03*
X92710500Y-120269500D03*
X175006000Y-132461000D03*
X208534500Y-100457500D03*
X165862500Y-98933500D03*
X131247500Y-70487500D03*
X127762500Y-100457500D03*
X104140500Y-131699500D03*
X100330500Y-89789500D03*
X134620500Y-99695500D03*
X104902500Y-66929500D03*
X86106000Y-109363000D03*
X103378500Y-115697500D03*
X114046500Y-66929500D03*
X187198500Y-68453500D03*
X155194500Y-68453500D03*
X101854500Y-112649500D03*
X184150000Y-132461000D03*
X103378500Y-101981500D03*
X159004500Y-67691500D03*
X162814500Y-98933500D03*
X197866500Y-68453500D03*
X122428500Y-67691500D03*
X110236000Y-131699000D03*
X113284000Y-131699000D03*
X123190000Y-132461000D03*
X100330500Y-100457500D03*
X213106500Y-79121500D03*
X167386500Y-68453500D03*
X166624500Y-99695500D03*
X99568500Y-121031500D03*
X191770000Y-132461000D03*
X160528500Y-99695500D03*
X94996000Y-111887000D03*
X197866000Y-132461000D03*
X124714500Y-66929500D03*
X88392000Y-129667000D03*
X98806500Y-105029500D03*
X159004500Y-99695500D03*
X213868500Y-111887500D03*
X196342500Y-68453500D03*
X213868500Y-93599500D03*
X213106500Y-114173500D03*
X103378500Y-105029500D03*
X206248500Y-99695500D03*
X139573000Y-97409000D03*
X98806500Y-83693500D03*
X213868500Y-95123500D03*
X117094500Y-100457500D03*
X91948500Y-114935500D03*
X139954500Y-66929500D03*
X107188500Y-99695500D03*
X144526500Y-98933500D03*
X81407500Y-124587500D03*
X170434500Y-100457500D03*
X182372000Y-117348000D03*
X155194500Y-98933500D03*
X207010000Y-117348000D03*
X95758500Y-108077500D03*
X183388500Y-99695500D03*
X186436500Y-99695500D03*
X101854500Y-118745500D03*
X190246000Y-130937000D03*
X101854500Y-97409500D03*
X109474500Y-66929500D03*
X182372500Y-85344500D03*
X116332500Y-67691500D03*
X103378500Y-118745500D03*
X207010000Y-132461000D03*
X202438500Y-98933500D03*
X100330500Y-117221500D03*
X147574500Y-98933500D03*
X111760500Y-99695500D03*
X213106500Y-121793500D03*
X184912500Y-67691500D03*
X103378500Y-88265500D03*
X149098500Y-68453500D03*
X102616500Y-130175500D03*
X90845000Y-99618000D03*
X99568500Y-95123500D03*
X120142500Y-98933500D03*
X126238500Y-100457500D03*
X129286500Y-68453500D03*
X104902500Y-68453500D03*
X115570500Y-100457500D03*
X101854500Y-109601500D03*
X193294500Y-100457500D03*
X146050500Y-98933500D03*
X175006500Y-66929500D03*
X100330500Y-86741500D03*
X140716000Y-131699000D03*
X212344500Y-99695500D03*
X112522000Y-130937000D03*
X142240500Y-99695500D03*
X117094500Y-68453500D03*
X111379000Y-81915000D03*
X187198500Y-66929500D03*
X213106500Y-108077500D03*
X155448000Y-88900000D03*
X103378500Y-123317500D03*
X105664500Y-99695500D03*
X200914500Y-98933500D03*
X93472500Y-113411500D03*
X143002500Y-98933500D03*
X193294500Y-68453500D03*
X205486500Y-98933500D03*
X184150500Y-66929500D03*
X166624500Y-67691500D03*
X101854500Y-106553500D03*
X98806500Y-97409500D03*
X90424500Y-121031500D03*
X207010000Y-85344000D03*
X117094500Y-66929500D03*
X173482500Y-98933500D03*
X98806500Y-85217500D03*
X165100500Y-99695500D03*
X98806500Y-101981500D03*
X213868500Y-114935500D03*
X156718000Y-130937000D03*
X123952500Y-67691500D03*
X103378500Y-117221500D03*
X161290500Y-68453500D03*
X186436500Y-67691500D03*
X214630500Y-109601500D03*
X98806500Y-115697500D03*
X214630500Y-127889500D03*
X211582500Y-68453500D03*
X198247000Y-104648000D03*
X138430500Y-100457500D03*
X192532500Y-67691500D03*
X214630500Y-91313500D03*
X117856500Y-67691500D03*
X203200000Y-131699000D03*
X98806500Y-118745500D03*
X114808500Y-99695500D03*
X96520500Y-113411500D03*
X99568500Y-73787500D03*
X101854500Y-85217500D03*
X182499500Y-73279500D03*
X115570500Y-68453500D03*
X141859500Y-74041500D03*
X141478500Y-66929500D03*
X164338500Y-100457500D03*
X205486500Y-100457500D03*
X210058500Y-66929500D03*
X123190500Y-66929500D03*
X192532500Y-99695500D03*
X185674500Y-100457500D03*
X118618500Y-68453500D03*
X175006500Y-98933500D03*
X159766500Y-98933500D03*
X99568500Y-87503500D03*
X110998000Y-130937000D03*
X180340000Y-131699000D03*
X155194000Y-132461000D03*
X99568500Y-90551500D03*
X125151000Y-110365000D03*
X101854500Y-126365500D03*
X213868500Y-110363500D03*
X213868500Y-81407500D03*
X110998500Y-100457500D03*
X157607000Y-107569000D03*
X141859000Y-106045000D03*
X128524500Y-67691500D03*
X148336500Y-69596500D03*
X100330500Y-103505500D03*
X102616500Y-102743500D03*
X94996500Y-113411500D03*
X213106500Y-129413500D03*
X99568500Y-114935500D03*
X118165500Y-121032500D03*
X96520500Y-107315500D03*
X168910500Y-68453500D03*
X155194500Y-66929500D03*
X99568500Y-101219500D03*
X187198500Y-100457500D03*
X169672500Y-67691500D03*
X137470500Y-89156500D03*
X213868500Y-113411500D03*
X131572500Y-99695500D03*
X156718500Y-98933500D03*
X202438500Y-68453500D03*
X133858500Y-68453500D03*
X181864500Y-99695500D03*
X141859000Y-110617000D03*
X213106500Y-109601500D03*
X98806500Y-114173500D03*
X95758500Y-105029500D03*
X103378500Y-86741500D03*
X132334500Y-68453500D03*
X153670500Y-68453500D03*
X148336500Y-67691500D03*
X195325500Y-118617500D03*
X129286000Y-130937000D03*
X101854500Y-129413500D03*
X167315500Y-76456500D03*
X199390500Y-66929500D03*
X101854500Y-132461500D03*
X213868500Y-116459500D03*
X207772500Y-99695500D03*
X120142000Y-130937000D03*
X106426000Y-130937000D03*
X122428000Y-131699000D03*
X139954000Y-132461000D03*
X154432500Y-99695500D03*
X204724500Y-99695500D03*
X213106500Y-106553500D03*
X139954500Y-68453500D03*
X142240000Y-131699000D03*
X126873000Y-84455000D03*
X141859500Y-80899500D03*
X124714000Y-130937000D03*
X172720500Y-67691500D03*
X184912000Y-131699000D03*
X191770500Y-66929500D03*
X116966500Y-104901500D03*
X101092000Y-107315000D03*
X94234500Y-118745500D03*
X127762000Y-130937000D03*
X99568500Y-84455500D03*
X214630500Y-101981500D03*
X190246000Y-132461000D03*
X103378500Y-112649500D03*
X146050500Y-66929500D03*
X167386000Y-130937000D03*
X119380000Y-131699000D03*
X101854500Y-92837500D03*
X161290500Y-98933500D03*
X212344500Y-67691500D03*
X162814500Y-66929500D03*
X214630500Y-121793500D03*
X213106500Y-126365500D03*
X197866500Y-100457500D03*
X102616500Y-78359500D03*
X145288500Y-67691500D03*
X116840000Y-107188000D03*
X110236500Y-67691500D03*
X102616500Y-82931500D03*
X214630500Y-76073500D03*
X136906500Y-98933500D03*
X182372000Y-113030000D03*
X214630500Y-106553500D03*
X214630500Y-105029500D03*
X103378500Y-132461500D03*
X121666500Y-98933500D03*
X107950500Y-66929500D03*
X183388000Y-131699000D03*
X176530000Y-132461000D03*
X112522500Y-98933500D03*
X143383500Y-85090500D03*
X167315500Y-82806500D03*
X175189000Y-122176000D03*
X102616500Y-76835500D03*
X96520500Y-108839500D03*
X98806500Y-106553500D03*
X164338500Y-98933500D03*
X102616500Y-99695500D03*
X200152500Y-99695500D03*
X200914500Y-100457500D03*
X103378500Y-106553500D03*
X165862000Y-130937000D03*
X170434500Y-68453500D03*
X103378500Y-69977500D03*
X103378500Y-71501500D03*
X103378500Y-73025500D03*
X175768500Y-99695500D03*
X210820500Y-99695500D03*
X157607000Y-115062000D03*
X174244500Y-99695500D03*
X154432500Y-67691500D03*
X123952000Y-131699000D03*
X100330500Y-98933500D03*
X179578000Y-132461000D03*
X202438000Y-130937000D03*
X95758500Y-115697500D03*
X200914500Y-68453500D03*
X183515000Y-118872000D03*
X97282500Y-106553500D03*
X157480500Y-99695500D03*
X148336500Y-99695500D03*
X190246500Y-98933500D03*
X170434000Y-132461000D03*
X102616500Y-124079500D03*
X99568500Y-111887500D03*
X95758500Y-106553500D03*
X193294000Y-130937000D03*
X213868500Y-67691500D03*
X213106500Y-124841500D03*
X140716500Y-99695500D03*
X102616500Y-121031500D03*
X213868500Y-125603500D03*
X91186500Y-114173500D03*
X213106500Y-132461500D03*
X130048500Y-99695500D03*
X203200500Y-67691500D03*
X173482500Y-68453500D03*
X124714500Y-68453500D03*
X136144500Y-67691500D03*
X131247000Y-102491000D03*
X194818000Y-130937000D03*
X214630500Y-129413500D03*
X213106500Y-71501500D03*
X208534500Y-66929500D03*
X165862500Y-66929500D03*
X98806500Y-98933500D03*
X149098500Y-100457500D03*
X209296500Y-99695500D03*
X125024000Y-106428000D03*
X183515500Y-86868500D03*
X95758500Y-112649500D03*
X213868500Y-84455500D03*
X138430000Y-130937000D03*
X189484500Y-67691500D03*
X98806500Y-92837500D03*
X131572000Y-131699000D03*
X135382500Y-68453500D03*
X210241000Y-108206000D03*
X177292500Y-99695500D03*
X120142500Y-100457500D03*
X207010500Y-100457500D03*
X157607500Y-75565500D03*
X182499500Y-70866500D03*
X213106500Y-74549500D03*
X100330500Y-76073500D03*
X213106500Y-95885500D03*
X214630500Y-124841500D03*
X147574500Y-66929500D03*
X181102500Y-98933500D03*
X91186500Y-112649500D03*
X189865000Y-102870000D03*
X103378500Y-120269500D03*
X213106500Y-105029500D03*
X196342000Y-130937000D03*
X165100000Y-131699000D03*
X139954500Y-98933500D03*
X213106500Y-92837500D03*
X101854500Y-120269500D03*
X143383000Y-117094000D03*
X109474000Y-132461000D03*
X177094500Y-75567500D03*
X199390500Y-100457500D03*
X99568500Y-113411500D03*
X130048000Y-131699000D03*
X101854500Y-111125500D03*
X101854500Y-69977500D03*
X188722000Y-132461000D03*
X170434000Y-130937000D03*
X107950500Y-98933500D03*
X95758500Y-103505500D03*
X101854500Y-95885500D03*
X171196500Y-67691500D03*
X106426500Y-98933500D03*
X133096500Y-67691500D03*
X135382000Y-130937000D03*
X199390000Y-132461000D03*
X214630500Y-69977500D03*
X199390000Y-130937000D03*
X182626000Y-130937000D03*
X133096000Y-131699000D03*
X187960000Y-131699000D03*
X201676500Y-67691500D03*
X106426500Y-68453500D03*
X150622500Y-98933500D03*
X163576500Y-99695500D03*
X171196500Y-99695500D03*
X175570000Y-107571000D03*
X137668500Y-67691500D03*
X100330500Y-105029500D03*
X156718000Y-132461000D03*
X102616500Y-84455500D03*
X152146500Y-98933500D03*
X185674500Y-66929500D03*
X98806500Y-95885500D03*
X103378500Y-85217500D03*
X101854500Y-130937500D03*
X201676500Y-99695500D03*
X102616500Y-122555500D03*
X102616500Y-95123500D03*
X114173500Y-77470500D03*
X103378500Y-66929500D03*
X167386500Y-66929500D03*
X99568500Y-82931500D03*
X199390500Y-68453500D03*
X102616500Y-101219500D03*
X103378500Y-77597500D03*
X173482000Y-132461000D03*
X136906000Y-130937000D03*
X122301000Y-80264000D03*
X99568500Y-92075500D03*
X165862500Y-100457500D03*
X114046500Y-100457500D03*
X194818500Y-68453500D03*
X165100500Y-67691500D03*
X103378500Y-109601500D03*
X136906500Y-66929500D03*
X98044500Y-117983500D03*
X125095000Y-80137000D03*
X205486000Y-130937000D03*
X188722500Y-98933500D03*
X213106500Y-88265500D03*
X196342500Y-100457500D03*
X180340500Y-99695500D03*
X100330500Y-121793500D03*
X213106500Y-103505500D03*
X207010000Y-130937000D03*
X98044500Y-121031500D03*
X178816500Y-99695500D03*
X171958500Y-68453500D03*
X142240500Y-67691500D03*
X173482000Y-130937000D03*
X116332000Y-131699000D03*
X99568500Y-117983500D03*
X129286500Y-66929500D03*
X143764000Y-131699000D03*
X214630500Y-120269500D03*
X103378500Y-68453500D03*
X179578500Y-98933500D03*
X192532000Y-131699000D03*
X181864000Y-131699000D03*
X185674500Y-68453500D03*
X94996500Y-121031500D03*
X213868500Y-130175500D03*
X151384500Y-67691500D03*
X213106500Y-91313500D03*
X120142500Y-66929500D03*
X96520500Y-116459500D03*
X189865500Y-70866500D03*
X155194500Y-100457500D03*
X213106500Y-85217500D03*
X213868500Y-90551500D03*
X169672000Y-131699000D03*
X94234500Y-120269500D03*
X157480000Y-131699000D03*
X121666000Y-132461000D03*
X200914000Y-132461000D03*
X207010500Y-66929500D03*
X135311500Y-82552500D03*
X167386500Y-100457500D03*
X213106500Y-82169500D03*
X178054000Y-132461000D03*
X99568500Y-99695500D03*
X202438500Y-66929500D03*
X153670000Y-132461000D03*
X179578000Y-130937000D03*
X138430500Y-98933500D03*
X163576000Y-114935000D03*
X121666500Y-100457500D03*
X136144000Y-131699000D03*
X143002000Y-132461000D03*
X214630500Y-108077500D03*
X162052000Y-131699000D03*
X163575500Y-123824500D03*
X149860000Y-131699000D03*
X110998500Y-66929500D03*
X101854500Y-127889500D03*
X188722500Y-68453500D03*
X133858500Y-66929500D03*
X214630500Y-117221500D03*
X102616500Y-125603500D03*
X95758500Y-117221500D03*
X208534500Y-98933500D03*
X210820500Y-67691500D03*
X214630500Y-103505500D03*
X150622500Y-68453500D03*
X104902500Y-130937500D03*
X100330500Y-73025500D03*
X184150500Y-68453500D03*
X146812500Y-99695500D03*
X99568500Y-78359500D03*
X167315000Y-108460000D03*
X145288000Y-131699000D03*
X213868500Y-98171500D03*
X96520500Y-111887500D03*
X103378500Y-79121500D03*
X156718500Y-66929500D03*
X153289000Y-101600000D03*
X213868500Y-73787500D03*
X177094000Y-107571000D03*
X116840500Y-75184500D03*
X90424500Y-114935500D03*
X97282500Y-105029500D03*
X98044500Y-99695500D03*
X203962500Y-68453500D03*
X214630500Y-112649500D03*
X168910000Y-132461000D03*
X127762500Y-68453500D03*
X102616500Y-67691500D03*
X207010500Y-98933500D03*
X191770500Y-68453500D03*
X103378500Y-108077500D03*
X97282500Y-111125500D03*
X101854500Y-79121500D03*
X203962500Y-66929500D03*
X133858000Y-132461000D03*
X147574000Y-132461000D03*
X102616500Y-73787500D03*
X193294500Y-98933500D03*
X185674000Y-132461000D03*
X175570500Y-75567500D03*
X150622500Y-100457500D03*
X114046500Y-68453500D03*
X157480500Y-67691500D03*
X195580000Y-131699000D03*
X113284500Y-67691500D03*
X127000500Y-67691500D03*
X97282500Y-103505500D03*
X112522500Y-100457500D03*
X101854500Y-86741500D03*
X137216000Y-106428000D03*
X101854500Y-66929500D03*
X204724000Y-131699000D03*
X148336000Y-131699000D03*
X99568500Y-105791500D03*
X213868500Y-104267500D03*
X178816500Y-67691500D03*
X182499000Y-107569000D03*
X107950000Y-132461000D03*
X152583500Y-85092500D03*
X101854500Y-91313500D03*
X132334500Y-98933500D03*
X102616500Y-108839500D03*
X109474500Y-68453500D03*
X183388500Y-67691500D03*
X175768000Y-131699000D03*
X214630500Y-74549500D03*
X192531500Y-118617500D03*
X101854500Y-83693500D03*
X112522500Y-68453500D03*
X213868500Y-69215500D03*
X162814500Y-68453500D03*
X102616500Y-128651500D03*
X159004000Y-131699000D03*
X198247500Y-82550000D03*
X126238000Y-130937000D03*
X197104000Y-102870000D03*
X125983500Y-116331500D03*
X102616500Y-113411500D03*
X166624000Y-131699000D03*
X213868500Y-101219500D03*
X92710500Y-117221500D03*
X99568500Y-93599500D03*
X208534000Y-130937000D03*
X204724500Y-67691500D03*
X182372000Y-115189000D03*
X179578500Y-68453500D03*
X130810500Y-66929500D03*
X213868500Y-107315500D03*
X211582500Y-98933500D03*
X213106500Y-83693500D03*
X98806500Y-109601500D03*
X181864500Y-67691500D03*
X122428500Y-99695500D03*
X167005000Y-94488000D03*
X95758500Y-121793500D03*
X86614500Y-116459500D03*
X180340500Y-67691500D03*
X96520500Y-105791500D03*
X134620500Y-67691500D03*
X101092500Y-119507500D03*
X208534000Y-132461000D03*
X98806500Y-121793500D03*
X103378500Y-91313500D03*
X111378500Y-113918500D03*
X98806500Y-111125500D03*
X129286500Y-98933500D03*
X98044000Y-131826000D03*
X141478000Y-132461000D03*
X119761000Y-106680000D03*
X144526000Y-132461000D03*
X145669500Y-69596500D03*
X184785500Y-70866500D03*
X146050500Y-100457500D03*
X96520500Y-102743500D03*
X191770000Y-130937000D03*
X130048500Y-67691500D03*
X136144500Y-99695500D03*
X213868500Y-85979500D03*
X132334500Y-100457500D03*
X213106500Y-97409500D03*
X213868500Y-70739500D03*
X162814000Y-132461000D03*
X100330500Y-120269500D03*
X130810500Y-68453500D03*
X203708000Y-77470000D03*
X149098000Y-132461000D03*
X194818500Y-100457500D03*
X144526500Y-66929500D03*
X144017500Y-125348500D03*
X153670500Y-100457500D03*
X146812500Y-67691500D03*
X95758500Y-101981500D03*
X184150500Y-100457500D03*
X103378500Y-114173500D03*
X101854500Y-68453500D03*
X196342500Y-66929500D03*
X152146500Y-100457500D03*
X100330500Y-83693500D03*
X104902500Y-132461500D03*
X165862500Y-68453500D03*
X214630500Y-82169500D03*
X213868500Y-76835500D03*
X116840000Y-108458000D03*
X187325000Y-102870000D03*
X103378500Y-127889500D03*
X165862000Y-132461000D03*
X91186000Y-91313000D03*
X101854500Y-124841500D03*
X153289500Y-69596500D03*
X123190500Y-68453500D03*
X103378500Y-74549500D03*
X203962000Y-132461000D03*
X213106500Y-117221500D03*
X143002000Y-130937000D03*
X118618000Y-132461000D03*
X121666500Y-68453500D03*
X133858500Y-98933500D03*
X194056500Y-99695500D03*
X214630500Y-88265500D03*
X159766000Y-132461000D03*
X125222000Y-73533000D03*
X188722500Y-100457500D03*
X101854500Y-71501500D03*
X98806500Y-112649500D03*
X161290000Y-130937000D03*
X114808500Y-67691500D03*
X164338000Y-130937000D03*
X198247000Y-114553500D03*
X213106500Y-89789500D03*
X175006500Y-68453500D03*
X96520500Y-110363500D03*
X213868500Y-119507500D03*
X102616500Y-72263500D03*
X162052500Y-67691500D03*
X89154000Y-77724000D03*
X213106500Y-120269500D03*
X181102500Y-100457500D03*
X164338000Y-132461000D03*
X102616500Y-90551500D03*
X139192000Y-131699000D03*
X213106500Y-112649500D03*
X198247500Y-74676500D03*
X145979500Y-85092500D03*
X200914500Y-66929500D03*
X213868500Y-105791500D03*
X195580500Y-67691500D03*
X141478000Y-130937000D03*
X137470500Y-78361500D03*
X197104500Y-67691500D03*
X130810500Y-100457500D03*
X210241500Y-76202500D03*
X96520500Y-117983500D03*
X163576000Y-91821000D03*
X211582500Y-100457500D03*
X128524500Y-99695500D03*
X170434500Y-98933500D03*
X99568500Y-81407500D03*
X127762500Y-66929500D03*
X152908500Y-99695500D03*
X103378500Y-111125500D03*
X144526500Y-68453500D03*
X102616500Y-117983500D03*
X144526000Y-130937000D03*
X139954000Y-130937000D03*
X196342500Y-98933500D03*
X102616500Y-85979500D03*
X199390500Y-98933500D03*
X90043500Y-116967500D03*
X146050000Y-132461000D03*
X214630500Y-100457500D03*
X115570500Y-98933500D03*
X98806500Y-94361500D03*
X213868500Y-89027500D03*
X214630500Y-94361500D03*
X143002500Y-68453500D03*
X98806500Y-76073500D03*
X110998500Y-98933500D03*
X102616500Y-96647500D03*
X211582000Y-130937000D03*
X194818500Y-66929500D03*
X126238500Y-66929500D03*
X86614500Y-118110500D03*
X102616500Y-69215500D03*
X149098000Y-130937000D03*
X187198000Y-130937000D03*
X213868500Y-82931500D03*
X189016000Y-95758500D03*
X213868500Y-87503500D03*
X154940000Y-117094000D03*
X102616500Y-104267500D03*
X119380500Y-67691500D03*
X96520500Y-101219500D03*
X214630500Y-118745500D03*
X213868500Y-117983500D03*
X129286500Y-100457500D03*
X100330500Y-91313500D03*
X103378500Y-124841500D03*
X130810000Y-130937000D03*
X103378500Y-130937500D03*
X110236500Y-99695500D03*
X102616500Y-81407500D03*
X175006000Y-130937000D03*
X132334000Y-130937000D03*
X213868500Y-75311500D03*
X198247500Y-72644500D03*
X92710500Y-112649500D03*
X94234500Y-121793500D03*
X138430000Y-132461000D03*
X188722000Y-130937000D03*
X176530000Y-130937000D03*
X152146500Y-66929500D03*
X171958500Y-98933500D03*
X214630500Y-98933500D03*
X152146500Y-68453500D03*
X192532000Y-86614000D03*
X91948500Y-113411500D03*
X178054500Y-98933500D03*
X214630500Y-89789500D03*
X103378500Y-129413500D03*
X97282500Y-109601500D03*
X127762000Y-132461000D03*
X214630500Y-66929500D03*
X101092500Y-73787500D03*
X213106500Y-76073500D03*
X197104500Y-99695500D03*
X119380500Y-99695500D03*
X162814500Y-100457500D03*
X135311000Y-114556000D03*
X98806500Y-82169500D03*
X112014000Y-70866000D03*
X109474500Y-98933500D03*
X178054000Y-130937000D03*
X194056000Y-131699000D03*
X193294000Y-132461000D03*
X182626500Y-100457500D03*
X101854500Y-123317500D03*
X184150500Y-98933500D03*
X151384000Y-131699000D03*
X102616500Y-127127500D03*
X160528500Y-67691500D03*
X104902500Y-98933500D03*
X90424500Y-113411500D03*
X118491000Y-73406000D03*
X203707500Y-109473500D03*
X193294500Y-66929500D03*
X91186500Y-120269500D03*
X176530500Y-100457500D03*
X103378500Y-80645500D03*
X100330500Y-114173500D03*
X191008500Y-99695500D03*
X138430500Y-68453500D03*
X114173000Y-109474000D03*
X209296000Y-131699000D03*
X100330500Y-112649500D03*
X97282500Y-100457500D03*
X98806500Y-74549500D03*
X214630500Y-97409500D03*
X103378500Y-98933500D03*
X156718500Y-68453500D03*
X167315000Y-114810000D03*
X101092500Y-104267500D03*
X134620000Y-131699000D03*
X101854500Y-117221500D03*
X214630500Y-92837500D03*
X206248000Y-131699000D03*
X159766500Y-68453500D03*
X182626500Y-66929500D03*
X198628500Y-67691500D03*
X211582000Y-132461000D03*
X103378500Y-76073500D03*
X114046000Y-132461000D03*
X146812000Y-131699000D03*
X121285000Y-106553000D03*
X145979000Y-117096000D03*
X200152500Y-67691500D03*
X94234500Y-115697500D03*
X152146000Y-130937000D03*
X116332500Y-99695500D03*
X121666000Y-130937000D03*
X102616500Y-110363500D03*
X132334000Y-132461000D03*
X102616500Y-98171500D03*
X100330500Y-74549500D03*
X124714500Y-100457500D03*
X98044500Y-102743500D03*
X213868500Y-128651500D03*
X125476500Y-99695500D03*
X198628500Y-99695500D03*
X100330500Y-80645500D03*
X101092500Y-75311500D03*
X97282500Y-108077500D03*
X168910500Y-66929500D03*
X98806500Y-86741500D03*
X172720000Y-131699000D03*
X213868500Y-78359500D03*
X213868500Y-122555500D03*
X190246500Y-100457500D03*
X176530500Y-66929500D03*
X99568500Y-104267500D03*
X117094000Y-132461000D03*
X152583000Y-117096000D03*
X118618500Y-100457500D03*
X123952500Y-99695500D03*
X214630500Y-130937500D03*
X101092500Y-121031500D03*
X176530500Y-98933500D03*
X94234500Y-117221500D03*
X182372500Y-83185500D03*
X189484000Y-131699000D03*
X154940500Y-85090500D03*
X120904500Y-67691500D03*
X214630500Y-83693500D03*
X191008500Y-67691500D03*
X171196000Y-131699000D03*
X89662500Y-112649500D03*
X205486500Y-66929500D03*
X163576000Y-131699000D03*
X94234500Y-114173500D03*
X98806500Y-108077500D03*
X178054500Y-100457500D03*
X158242000Y-132461000D03*
X149860500Y-67691500D03*
X124714500Y-98933500D03*
X99568500Y-75311500D03*
X167386500Y-98933500D03*
X160528000Y-131699000D03*
X97282500Y-115697500D03*
X203962500Y-100457500D03*
X137216500Y-74424500D03*
X158242000Y-130937000D03*
X99568500Y-107315500D03*
X112013500Y-102869500D03*
X102616500Y-70739500D03*
X158242500Y-100457500D03*
X200914000Y-130937000D03*
X210058000Y-130937000D03*
X103378500Y-103505500D03*
X127000000Y-131699000D03*
X103378500Y-82169500D03*
X202438500Y-100457500D03*
X100330500Y-79121500D03*
X194818500Y-98933500D03*
X192405000Y-102870000D03*
X103378500Y-95885500D03*
X190246500Y-66929500D03*
X173482500Y-100457500D03*
X101092500Y-102743500D03*
X182499000Y-105283000D03*
X198247500Y-84582500D03*
X102616500Y-79883500D03*
X151384500Y-99695500D03*
X174244000Y-131699000D03*
X213106500Y-111125500D03*
X167386000Y-132461000D03*
X123317000Y-81788000D03*
X187198500Y-98933500D03*
X100330500Y-109601500D03*
X150622500Y-66929500D03*
X103378500Y-94361500D03*
X158242500Y-68453500D03*
X98806500Y-120269500D03*
X163576500Y-82931500D03*
X188722500Y-66929500D03*
X213868500Y-99695500D03*
X133858000Y-130937000D03*
X213868500Y-72263500D03*
X115570500Y-66929500D03*
X101854500Y-74549500D03*
X194056500Y-67691500D03*
X100330500Y-88265500D03*
X148336000Y-101600000D03*
X113284500Y-99695500D03*
X214630500Y-123317500D03*
X104140500Y-99695500D03*
X94996500Y-116459500D03*
X125476500Y-67691500D03*
X141859500Y-78613500D03*
X101854500Y-94361500D03*
X118618000Y-130937000D03*
X143002500Y-100457500D03*
X93472500Y-116459500D03*
X98806500Y-79121500D03*
X137668500Y-99695500D03*
X102616500Y-114935500D03*
X150622000Y-132461000D03*
X213106500Y-130937500D03*
X214630500Y-80645500D03*
X93472500Y-121031500D03*
X100330500Y-77597500D03*
X187325500Y-70866500D03*
X95758500Y-111125500D03*
X141478500Y-98933500D03*
X116840500Y-76454500D03*
X157607000Y-112649000D03*
X159766500Y-100457500D03*
X213868500Y-124079500D03*
X214630500Y-79121500D03*
X146050500Y-68453500D03*
X98806500Y-100457500D03*
X194563500Y-89026500D03*
X147574500Y-68453500D03*
X181102000Y-132461000D03*
X171958500Y-100457500D03*
X182626500Y-98933500D03*
X214630500Y-73025500D03*
X102616500Y-119507500D03*
X104902500Y-100457500D03*
X186436000Y-131699000D03*
X178816000Y-131699000D03*
X198247000Y-109220000D03*
X103378500Y-126365500D03*
X112522000Y-132461000D03*
X197104000Y-131699000D03*
X127437000Y-114429000D03*
X153670000Y-130937000D03*
X97282500Y-118745500D03*
X123190000Y-130937000D03*
X146050000Y-130937000D03*
X208534500Y-68453500D03*
X132334500Y-66929500D03*
X97282500Y-112649500D03*
X114808000Y-131699000D03*
X182372500Y-81026500D03*
X110998500Y-68453500D03*
X125476000Y-131699000D03*
X213868500Y-121031500D03*
X100330500Y-94361500D03*
X203200500Y-99695500D03*
X100330500Y-115697500D03*
X114046000Y-130937000D03*
X169672500Y-99695500D03*
X117094000Y-130937000D03*
X159766000Y-130937000D03*
X143764500Y-99695500D03*
X171958500Y-66929500D03*
X198628000Y-131699000D03*
X157607500Y-83058500D03*
X185674000Y-130937000D03*
X99568500Y-85979500D03*
X173482500Y-66929500D03*
X190246500Y-68453500D03*
X98806500Y-80645500D03*
X181102500Y-68453500D03*
X213106500Y-73025500D03*
X100330500Y-85217500D03*
X101854500Y-98933500D03*
X135382500Y-98933500D03*
X100330500Y-108077500D03*
X136906500Y-100457500D03*
X163576500Y-67691500D03*
X200152000Y-131699000D03*
X189484500Y-99695500D03*
X115570000Y-130937000D03*
X211582500Y-66929500D03*
X198247000Y-116586000D03*
X101854500Y-73025500D03*
X101854500Y-115697500D03*
X213106500Y-94361500D03*
X213868500Y-79883500D03*
X158242500Y-98933500D03*
X155956500Y-99695500D03*
X194945000Y-102870000D03*
X143002500Y-66929500D03*
X168910500Y-100457500D03*
X155956500Y-67691500D03*
X89662500Y-121793500D03*
X117856500Y-99695500D03*
X214630500Y-126365500D03*
X100330500Y-106553500D03*
X130810000Y-132461000D03*
X107950000Y-130937000D03*
X213106500Y-101981500D03*
X150622000Y-130937000D03*
X99568500Y-76835500D03*
X153670500Y-98933500D03*
X101854500Y-121793500D03*
X194818000Y-132461000D03*
X210058000Y-132461000D03*
X135382500Y-100457500D03*
X98806500Y-117221500D03*
X120904000Y-131699000D03*
X168148500Y-67691500D03*
X197866500Y-98933500D03*
X214630500Y-111125500D03*
X157607000Y-105029000D03*
X94234500Y-112649500D03*
X202438000Y-132461000D03*
X102616500Y-89027500D03*
X135382000Y-132461000D03*
X96520500Y-121031500D03*
X206248500Y-67691500D03*
%TO.N,VEE*%
X105664500Y-65659500D03*
X110744000Y-92075000D03*
X89535000Y-134747000D03*
X116078000Y-123996400D03*
%TO.N,/+5V_SW*%
X83820500Y-115951500D03*
X83820500Y-118745500D03*
%TO.N,Net-(J2-In)*%
X108712000Y-133604000D03*
X77978500Y-106807500D03*
X113284000Y-112014000D03*
X82042500Y-112649500D03*
X119888000Y-107823000D03*
X82169000Y-105283500D03*
X119888500Y-75819500D03*
X94996500Y-117983500D03*
%TO.N,/+5V_CH2*%
X130937000Y-87122000D03*
X108712000Y-73660000D03*
%TO.N,/+5V_CH1*%
X130936500Y-119125500D03*
X108711500Y-105663500D03*
%TO.N,/VVA_TUNE_CH2*%
X167005000Y-86487000D03*
X150750500Y-69596500D03*
%TO.N,/VVA_TUNE_CH1*%
X150750000Y-101600000D03*
X167004500Y-118490500D03*
%TO.N,Net-(U9-SET)*%
X165734500Y-124078500D03*
%TO.N,Net-(U10-SET)*%
X165735000Y-92075000D03*
%TD*%
D15*
%TO.N,/VVA_TUNE_CH2*%
X150750500Y-69596500D02*
X150749500Y-69597500D01*
%TO.N,/VVA_TUNE_CH1*%
X150750000Y-101600000D02*
X150749000Y-101601000D01*
%TD*%
%TA.AperFunction,Conductor*%
%TO.N,GND*%
G36*
X228856149Y-61896072D02*
G01*
X229267779Y-61914043D01*
X229274299Y-61914613D01*
X229681223Y-61968186D01*
X229687649Y-61969320D01*
X230088326Y-62058148D01*
X230094646Y-62059842D01*
X230486054Y-62183253D01*
X230492219Y-62185496D01*
X230623841Y-62240015D01*
X230871382Y-62342550D01*
X230877310Y-62345315D01*
X231241338Y-62534816D01*
X231247019Y-62538096D01*
X231593140Y-62758599D01*
X231598514Y-62762362D01*
X231924101Y-63012195D01*
X231929126Y-63016412D01*
X232099765Y-63172773D01*
X232231702Y-63293670D01*
X232236335Y-63298303D01*
X232513587Y-63600873D01*
X232517804Y-63605898D01*
X232767637Y-63931485D01*
X232771400Y-63936859D01*
X232991903Y-64282980D01*
X232995183Y-64288661D01*
X233184680Y-64652680D01*
X233187453Y-64658626D01*
X233344503Y-65037780D01*
X233346746Y-65043945D01*
X233470157Y-65435353D01*
X233471855Y-65441690D01*
X233560676Y-65842333D01*
X233561816Y-65848793D01*
X233615385Y-66255692D01*
X233615956Y-66262228D01*
X233633928Y-66673850D01*
X233634000Y-66677130D01*
X233634000Y-132713869D01*
X233633928Y-132717149D01*
X233615956Y-133128771D01*
X233615385Y-133135307D01*
X233561816Y-133542206D01*
X233560676Y-133548666D01*
X233471855Y-133949309D01*
X233470157Y-133955646D01*
X233346746Y-134347054D01*
X233344503Y-134353219D01*
X233187453Y-134732373D01*
X233184680Y-134738319D01*
X232995183Y-135102338D01*
X232991903Y-135108019D01*
X232771400Y-135454140D01*
X232767637Y-135459514D01*
X232517804Y-135785101D01*
X232513587Y-135790126D01*
X232236335Y-136092696D01*
X232231696Y-136097335D01*
X231929126Y-136374587D01*
X231924101Y-136378804D01*
X231598514Y-136628637D01*
X231593140Y-136632400D01*
X231247019Y-136852903D01*
X231241338Y-136856183D01*
X230877319Y-137045680D01*
X230871373Y-137048453D01*
X230492219Y-137205503D01*
X230486054Y-137207746D01*
X230094646Y-137331157D01*
X230088309Y-137332855D01*
X229687666Y-137421676D01*
X229681206Y-137422816D01*
X229274307Y-137476385D01*
X229267771Y-137476956D01*
X228856149Y-137494928D01*
X228852869Y-137495000D01*
X73916131Y-137495000D01*
X73912851Y-137494928D01*
X73501228Y-137476956D01*
X73494692Y-137476385D01*
X73087793Y-137422816D01*
X73081333Y-137421676D01*
X72680690Y-137332855D01*
X72674353Y-137331157D01*
X72282945Y-137207746D01*
X72276780Y-137205503D01*
X71897626Y-137048453D01*
X71891680Y-137045680D01*
X71527661Y-136856183D01*
X71521980Y-136852903D01*
X71175859Y-136632400D01*
X71170485Y-136628637D01*
X70844898Y-136378804D01*
X70839873Y-136374587D01*
X70644853Y-136195886D01*
X70537297Y-136097329D01*
X70532670Y-136092702D01*
X70305380Y-135844657D01*
X70255412Y-135790126D01*
X70251195Y-135785101D01*
X70001362Y-135459514D01*
X69997599Y-135454140D01*
X69777096Y-135108019D01*
X69773816Y-135102338D01*
X69733993Y-135025839D01*
X69588839Y-134747000D01*
X88977329Y-134747000D01*
X88996331Y-134891336D01*
X89052043Y-135025836D01*
X89052044Y-135025838D01*
X89052045Y-135025839D01*
X89140666Y-135141333D01*
X89256160Y-135229954D01*
X89256164Y-135229957D01*
X89390664Y-135285669D01*
X89535000Y-135304671D01*
X89679336Y-135285669D01*
X89813836Y-135229957D01*
X89929333Y-135141333D01*
X90017957Y-135025836D01*
X90073669Y-134891336D01*
X90092671Y-134747000D01*
X90073669Y-134602664D01*
X90017957Y-134468165D01*
X89929757Y-134353219D01*
X89929333Y-134352666D01*
X89813839Y-134264045D01*
X89813838Y-134264044D01*
X89813836Y-134264043D01*
X89726891Y-134228029D01*
X89679337Y-134208331D01*
X89535000Y-134189329D01*
X89390662Y-134208331D01*
X89256163Y-134264044D01*
X89256162Y-134264044D01*
X89140666Y-134352666D01*
X89052044Y-134468162D01*
X89052044Y-134468163D01*
X88996331Y-134602662D01*
X88979255Y-134732373D01*
X88977329Y-134747000D01*
X69588839Y-134747000D01*
X69584315Y-134738310D01*
X69581550Y-134732382D01*
X69424496Y-134353219D01*
X69422253Y-134347054D01*
X69298842Y-133955646D01*
X69297148Y-133949326D01*
X69220591Y-133604000D01*
X108154329Y-133604000D01*
X108173331Y-133748336D01*
X108229043Y-133882836D01*
X108229044Y-133882838D01*
X108229045Y-133882839D01*
X108317666Y-133998333D01*
X108433160Y-134086954D01*
X108433164Y-134086957D01*
X108567664Y-134142669D01*
X108712000Y-134161671D01*
X108856336Y-134142669D01*
X108990836Y-134086957D01*
X109106333Y-133998333D01*
X109194957Y-133882836D01*
X109250669Y-133748336D01*
X109269671Y-133604000D01*
X109250669Y-133459664D01*
X109194957Y-133325165D01*
X109194955Y-133325162D01*
X109106333Y-133209666D01*
X108990839Y-133121045D01*
X108990838Y-133121044D01*
X108990836Y-133121043D01*
X108903891Y-133085029D01*
X108856337Y-133065331D01*
X108712000Y-133046329D01*
X108567662Y-133065331D01*
X108433163Y-133121044D01*
X108433162Y-133121044D01*
X108317666Y-133209666D01*
X108229044Y-133325162D01*
X108229044Y-133325163D01*
X108229043Y-133325164D01*
X108229043Y-133325165D01*
X108222070Y-133342000D01*
X108173331Y-133459662D01*
X108173331Y-133459664D01*
X108154329Y-133604000D01*
X69220591Y-133604000D01*
X69208320Y-133548649D01*
X69207186Y-133542223D01*
X69153613Y-133135299D01*
X69153043Y-133128771D01*
X69150273Y-133065331D01*
X69135072Y-132717149D01*
X69135000Y-132713869D01*
X69135000Y-130860282D01*
X73284287Y-130860282D01*
X73294183Y-131168851D01*
X73294185Y-131168870D01*
X73343460Y-131473655D01*
X73431305Y-131769634D01*
X73431307Y-131769641D01*
X73556282Y-132051962D01*
X73716332Y-132315980D01*
X73716338Y-132315988D01*
X73908837Y-132557376D01*
X74130622Y-132772163D01*
X74378051Y-132956824D01*
X74378069Y-132956836D01*
X74647073Y-133108336D01*
X74647075Y-133108336D01*
X74647079Y-133108339D01*
X74801512Y-133170862D01*
X74933260Y-133224201D01*
X74933261Y-133224201D01*
X74933263Y-133224202D01*
X75231913Y-133302518D01*
X75538126Y-133342000D01*
X75538128Y-133342000D01*
X75769592Y-133342000D01*
X75769599Y-133342000D01*
X75809149Y-133339460D01*
X76000604Y-133327169D01*
X76000607Y-133327168D01*
X76000614Y-133327168D01*
X76303668Y-133268149D01*
X76596687Y-133170860D01*
X76874859Y-133036899D01*
X77133617Y-132868466D01*
X77368712Y-132668327D01*
X77576284Y-132439768D01*
X77752924Y-132186541D01*
X77895731Y-131912805D01*
X78002362Y-131623055D01*
X78071065Y-131322048D01*
X78100712Y-131014727D01*
X78095759Y-130860282D01*
X224668287Y-130860282D01*
X224678183Y-131168851D01*
X224678185Y-131168870D01*
X224727460Y-131473655D01*
X224815305Y-131769634D01*
X224815307Y-131769641D01*
X224940282Y-132051962D01*
X225100332Y-132315980D01*
X225100338Y-132315988D01*
X225292837Y-132557376D01*
X225514622Y-132772163D01*
X225762051Y-132956824D01*
X225762069Y-132956836D01*
X226031073Y-133108336D01*
X226031075Y-133108336D01*
X226031079Y-133108339D01*
X226185512Y-133170862D01*
X226317260Y-133224201D01*
X226317261Y-133224201D01*
X226317263Y-133224202D01*
X226615913Y-133302518D01*
X226922126Y-133342000D01*
X226922128Y-133342000D01*
X227153592Y-133342000D01*
X227153599Y-133342000D01*
X227193149Y-133339460D01*
X227384604Y-133327169D01*
X227384607Y-133327168D01*
X227384614Y-133327168D01*
X227687668Y-133268149D01*
X227980687Y-133170860D01*
X228258859Y-133036899D01*
X228517617Y-132868466D01*
X228752712Y-132668327D01*
X228960284Y-132439768D01*
X229136924Y-132186541D01*
X229279731Y-131912805D01*
X229386362Y-131623055D01*
X229455065Y-131322048D01*
X229484712Y-131014727D01*
X229474816Y-130706137D01*
X229425540Y-130401347D01*
X229337693Y-130105360D01*
X229212717Y-129823037D01*
X229052664Y-129559014D01*
X228949648Y-129429836D01*
X228860162Y-129317623D01*
X228638377Y-129102836D01*
X228390948Y-128918175D01*
X228390930Y-128918163D01*
X228121926Y-128766663D01*
X227835739Y-128650798D01*
X227668153Y-128606852D01*
X227537087Y-128572482D01*
X227230874Y-128533000D01*
X226999401Y-128533000D01*
X226999396Y-128533000D01*
X226999370Y-128533001D01*
X226768395Y-128547830D01*
X226768384Y-128547832D01*
X226465336Y-128606850D01*
X226465327Y-128606852D01*
X226172321Y-128704137D01*
X226172310Y-128704141D01*
X225894145Y-128838098D01*
X225894136Y-128838103D01*
X225635385Y-129006531D01*
X225400287Y-129206673D01*
X225192719Y-129435228D01*
X225192714Y-129435234D01*
X225016077Y-129688456D01*
X225016073Y-129688463D01*
X224873271Y-129962189D01*
X224766638Y-130251943D01*
X224697935Y-130552952D01*
X224668287Y-130860282D01*
X78095759Y-130860282D01*
X78090816Y-130706137D01*
X78041540Y-130401347D01*
X77953693Y-130105360D01*
X77828717Y-129823037D01*
X77668664Y-129559014D01*
X77565648Y-129429836D01*
X77476162Y-129317623D01*
X77443509Y-129286000D01*
X174193829Y-129286000D01*
X174212831Y-129430337D01*
X174232529Y-129477891D01*
X174268543Y-129564836D01*
X174268544Y-129564838D01*
X174268545Y-129564839D01*
X174357166Y-129680333D01*
X174472008Y-129768454D01*
X174472664Y-129768957D01*
X174607164Y-129824669D01*
X174751500Y-129843671D01*
X174895836Y-129824669D01*
X175030336Y-129768957D01*
X175145833Y-129680333D01*
X175234457Y-129564836D01*
X175290169Y-129430336D01*
X175309171Y-129286000D01*
X175309105Y-129285500D01*
X196331329Y-129285500D01*
X196350331Y-129429837D01*
X196352564Y-129435228D01*
X196406043Y-129564336D01*
X196406044Y-129564338D01*
X196406045Y-129564339D01*
X196494666Y-129679833D01*
X196610160Y-129768454D01*
X196610164Y-129768457D01*
X196744664Y-129824169D01*
X196889000Y-129843171D01*
X197033336Y-129824169D01*
X197167836Y-129768457D01*
X197283333Y-129679833D01*
X197371957Y-129564336D01*
X197427669Y-129429836D01*
X197446671Y-129285500D01*
X197427669Y-129141164D01*
X197371957Y-129006665D01*
X197371955Y-129006662D01*
X197283333Y-128891166D01*
X197167839Y-128802545D01*
X197167838Y-128802544D01*
X197167836Y-128802543D01*
X197080891Y-128766529D01*
X197033337Y-128746831D01*
X196889000Y-128727829D01*
X196744662Y-128746831D01*
X196610163Y-128802544D01*
X196610162Y-128802544D01*
X196494666Y-128891166D01*
X196406044Y-129006662D01*
X196406044Y-129006663D01*
X196350331Y-129141162D01*
X196331329Y-129285500D01*
X175309105Y-129285500D01*
X175290169Y-129141664D01*
X175234457Y-129007165D01*
X175234455Y-129007162D01*
X175145833Y-128891666D01*
X175030339Y-128803045D01*
X175030338Y-128803044D01*
X175030336Y-128803043D01*
X174942503Y-128766661D01*
X174895837Y-128747331D01*
X174751500Y-128728329D01*
X174607162Y-128747331D01*
X174495738Y-128793485D01*
X174473868Y-128802545D01*
X174472663Y-128803044D01*
X174472662Y-128803044D01*
X174357166Y-128891666D01*
X174268544Y-129007162D01*
X174268544Y-129007163D01*
X174212831Y-129141662D01*
X174193829Y-129286000D01*
X77443509Y-129286000D01*
X77254377Y-129102836D01*
X77006948Y-128918175D01*
X77006930Y-128918163D01*
X76737926Y-128766663D01*
X76451739Y-128650798D01*
X76284153Y-128606852D01*
X76153087Y-128572482D01*
X75846874Y-128533000D01*
X75615401Y-128533000D01*
X75615396Y-128533000D01*
X75615370Y-128533001D01*
X75384395Y-128547830D01*
X75384384Y-128547832D01*
X75081336Y-128606850D01*
X75081327Y-128606852D01*
X74788321Y-128704137D01*
X74788310Y-128704141D01*
X74510145Y-128838098D01*
X74510136Y-128838103D01*
X74251385Y-129006531D01*
X74016287Y-129206673D01*
X73808719Y-129435228D01*
X73808714Y-129435234D01*
X73632077Y-129688456D01*
X73632073Y-129688463D01*
X73489271Y-129962189D01*
X73382638Y-130251943D01*
X73313935Y-130552952D01*
X73284287Y-130860282D01*
X69135000Y-130860282D01*
X69135000Y-127380500D01*
X113167792Y-127380500D01*
X113186972Y-127562987D01*
X113243671Y-127737491D01*
X113243674Y-127737498D01*
X113335416Y-127896400D01*
X113335417Y-127896402D01*
X113458200Y-128032766D01*
X113606642Y-128140615D01*
X113606645Y-128140616D01*
X113606646Y-128140617D01*
X113774273Y-128215250D01*
X113953755Y-128253400D01*
X113953757Y-128253400D01*
X114137243Y-128253400D01*
X114137245Y-128253400D01*
X114316727Y-128215250D01*
X114484354Y-128140617D01*
X114588197Y-128065171D01*
X114632799Y-128032766D01*
X114632801Y-128032764D01*
X114755581Y-127896404D01*
X114847326Y-127737496D01*
X114904028Y-127562986D01*
X114909860Y-127507500D01*
X141935829Y-127507500D01*
X141954831Y-127651836D01*
X142010543Y-127786336D01*
X142010544Y-127786338D01*
X142010545Y-127786339D01*
X142099166Y-127901833D01*
X142214660Y-127990454D01*
X142214664Y-127990457D01*
X142349164Y-128046169D01*
X142493500Y-128065171D01*
X142637836Y-128046169D01*
X142772336Y-127990457D01*
X142887833Y-127901833D01*
X142976457Y-127786336D01*
X143032169Y-127651836D01*
X143051171Y-127507500D01*
X143032169Y-127363164D01*
X142976457Y-127228665D01*
X142952938Y-127198014D01*
X142887833Y-127113166D01*
X142772339Y-127024545D01*
X142772338Y-127024544D01*
X142772336Y-127024543D01*
X142685391Y-126988529D01*
X142637837Y-126968831D01*
X142493500Y-126949829D01*
X142349162Y-126968831D01*
X142237738Y-127014985D01*
X142217174Y-127023504D01*
X142214663Y-127024544D01*
X142214662Y-127024544D01*
X142099166Y-127113166D01*
X142010544Y-127228662D01*
X142010544Y-127228663D01*
X141954831Y-127363162D01*
X141935829Y-127507500D01*
X114909860Y-127507500D01*
X114923208Y-127380500D01*
X114904028Y-127198014D01*
X114885127Y-127139844D01*
X114847328Y-127023508D01*
X114847325Y-127023501D01*
X114755583Y-126864599D01*
X114755582Y-126864597D01*
X114632799Y-126728233D01*
X114484357Y-126620384D01*
X114316728Y-126545750D01*
X114256899Y-126533033D01*
X114137245Y-126507600D01*
X113953755Y-126507600D01*
X113864014Y-126526675D01*
X113774271Y-126545750D01*
X113606642Y-126620384D01*
X113458200Y-126728233D01*
X113335417Y-126864597D01*
X113335416Y-126864599D01*
X113243674Y-127023501D01*
X113243671Y-127023508D01*
X113186972Y-127198012D01*
X113167792Y-127380500D01*
X69135000Y-127380500D01*
X69135000Y-124586500D01*
X124790829Y-124586500D01*
X124809831Y-124730836D01*
X124865543Y-124865336D01*
X124865544Y-124865338D01*
X124865545Y-124865339D01*
X124954166Y-124980833D01*
X125069660Y-125069454D01*
X125069664Y-125069457D01*
X125204164Y-125125169D01*
X125348500Y-125144171D01*
X125492836Y-125125169D01*
X125627336Y-125069457D01*
X125742833Y-124980833D01*
X125831457Y-124865336D01*
X125887169Y-124730836D01*
X125906171Y-124586500D01*
X125887169Y-124442164D01*
X125831457Y-124307665D01*
X125766367Y-124222837D01*
X125742833Y-124192166D01*
X125627339Y-124103545D01*
X125627338Y-124103544D01*
X125627336Y-124103543D01*
X125566877Y-124078500D01*
X165176829Y-124078500D01*
X165195831Y-124222836D01*
X165251543Y-124357336D01*
X165251544Y-124357338D01*
X165251545Y-124357339D01*
X165340166Y-124472833D01*
X165446037Y-124554070D01*
X165455664Y-124561457D01*
X165590164Y-124617169D01*
X165734500Y-124636171D01*
X165878836Y-124617169D01*
X166013336Y-124561457D01*
X166128833Y-124472833D01*
X166217457Y-124357336D01*
X166273169Y-124222836D01*
X166292171Y-124078500D01*
X166273169Y-123934164D01*
X166217457Y-123799665D01*
X166217455Y-123799662D01*
X166128833Y-123684166D01*
X166013339Y-123595545D01*
X166013338Y-123595544D01*
X166013336Y-123595543D01*
X165926391Y-123559529D01*
X165878837Y-123539831D01*
X165734500Y-123520829D01*
X165590162Y-123539831D01*
X165455663Y-123595544D01*
X165455662Y-123595544D01*
X165340166Y-123684166D01*
X165251544Y-123799662D01*
X165251544Y-123799663D01*
X165195831Y-123934162D01*
X165183368Y-124028829D01*
X165176829Y-124078500D01*
X125566877Y-124078500D01*
X125540391Y-124067529D01*
X125492837Y-124047831D01*
X125348500Y-124028829D01*
X125204162Y-124047831D01*
X125069663Y-124103544D01*
X125069662Y-124103544D01*
X124954166Y-124192166D01*
X124865544Y-124307662D01*
X124865544Y-124307663D01*
X124809831Y-124442162D01*
X124809831Y-124442164D01*
X124790829Y-124586500D01*
X69135000Y-124586500D01*
X69135000Y-123996400D01*
X115520329Y-123996400D01*
X115531137Y-124078500D01*
X115539331Y-124140736D01*
X115595043Y-124275236D01*
X115595044Y-124275238D01*
X115595045Y-124275239D01*
X115683666Y-124390733D01*
X115750693Y-124442164D01*
X115799164Y-124479357D01*
X115933664Y-124535069D01*
X116078000Y-124554071D01*
X116222336Y-124535069D01*
X116356836Y-124479357D01*
X116472333Y-124390733D01*
X116560957Y-124275236D01*
X116616669Y-124140736D01*
X116635671Y-123996400D01*
X116616669Y-123852064D01*
X116560957Y-123717565D01*
X116535330Y-123684167D01*
X116472333Y-123602066D01*
X116356839Y-123513445D01*
X116356838Y-123513444D01*
X116356836Y-123513443D01*
X116269891Y-123477429D01*
X116222337Y-123457731D01*
X116078000Y-123438729D01*
X115933662Y-123457731D01*
X115799163Y-123513444D01*
X115799162Y-123513444D01*
X115683666Y-123602066D01*
X115595044Y-123717562D01*
X115595044Y-123717563D01*
X115539331Y-123852062D01*
X115520329Y-123996400D01*
X69135000Y-123996400D01*
X69135000Y-118745500D01*
X83262829Y-118745500D01*
X83281831Y-118889836D01*
X83337543Y-119024336D01*
X83337544Y-119024338D01*
X83337545Y-119024339D01*
X83426166Y-119139833D01*
X83541660Y-119228454D01*
X83541664Y-119228457D01*
X83676164Y-119284169D01*
X83820500Y-119303171D01*
X83964836Y-119284169D01*
X84099336Y-119228457D01*
X84214833Y-119139833D01*
X84225831Y-119125500D01*
X130378829Y-119125500D01*
X130397831Y-119269837D01*
X130403768Y-119284169D01*
X130453543Y-119404336D01*
X130453544Y-119404338D01*
X130453545Y-119404339D01*
X130542166Y-119519833D01*
X130657660Y-119608454D01*
X130657664Y-119608457D01*
X130792164Y-119664169D01*
X130936500Y-119683171D01*
X131080836Y-119664169D01*
X131215336Y-119608457D01*
X131330833Y-119519833D01*
X131419457Y-119404336D01*
X131475169Y-119269836D01*
X131494171Y-119125500D01*
X131475169Y-118981164D01*
X131419457Y-118846665D01*
X131419455Y-118846662D01*
X131330833Y-118731166D01*
X131215339Y-118642545D01*
X131215338Y-118642544D01*
X131215336Y-118642543D01*
X131115434Y-118601162D01*
X131080837Y-118586831D01*
X130936500Y-118567829D01*
X130792162Y-118586831D01*
X130657663Y-118642544D01*
X130657662Y-118642544D01*
X130542166Y-118731166D01*
X130453544Y-118846662D01*
X130453544Y-118846663D01*
X130397831Y-118981162D01*
X130378829Y-119125500D01*
X84225831Y-119125500D01*
X84303457Y-119024336D01*
X84359169Y-118889836D01*
X84378171Y-118745500D01*
X84359169Y-118601164D01*
X84303457Y-118466665D01*
X84303455Y-118466662D01*
X84214833Y-118351166D01*
X84099339Y-118262545D01*
X84099338Y-118262544D01*
X84099336Y-118262543D01*
X84012391Y-118226529D01*
X83964837Y-118206831D01*
X83820500Y-118187829D01*
X83676162Y-118206831D01*
X83564738Y-118252985D01*
X83542158Y-118262339D01*
X83541663Y-118262544D01*
X83541662Y-118262544D01*
X83426166Y-118351166D01*
X83337544Y-118466662D01*
X83337544Y-118466663D01*
X83281831Y-118601162D01*
X83281831Y-118601164D01*
X83262829Y-118745500D01*
X69135000Y-118745500D01*
X69135000Y-117983500D01*
X94438829Y-117983500D01*
X94457831Y-118127836D01*
X94513543Y-118262336D01*
X94513544Y-118262338D01*
X94513545Y-118262339D01*
X94602166Y-118377833D01*
X94717660Y-118466454D01*
X94717664Y-118466457D01*
X94852164Y-118522169D01*
X94996500Y-118541171D01*
X95140836Y-118522169D01*
X95217291Y-118490500D01*
X166446829Y-118490500D01*
X166465831Y-118634837D01*
X166469024Y-118642545D01*
X166521543Y-118769336D01*
X166521544Y-118769338D01*
X166521545Y-118769339D01*
X166610166Y-118884833D01*
X166725660Y-118973454D01*
X166725664Y-118973457D01*
X166860164Y-119029169D01*
X167004500Y-119048171D01*
X167148836Y-119029169D01*
X167283336Y-118973457D01*
X167398833Y-118884833D01*
X167487457Y-118769336D01*
X167543169Y-118634836D01*
X167562171Y-118490500D01*
X167543169Y-118346164D01*
X167487457Y-118211665D01*
X167483748Y-118206831D01*
X167398833Y-118096166D01*
X167283339Y-118007545D01*
X167283338Y-118007544D01*
X167283336Y-118007543D01*
X167196391Y-117971529D01*
X167148837Y-117951831D01*
X167004500Y-117932829D01*
X166860162Y-117951831D01*
X166725663Y-118007544D01*
X166725662Y-118007544D01*
X166610166Y-118096166D01*
X166521544Y-118211662D01*
X166521544Y-118211663D01*
X166465831Y-118346162D01*
X166446829Y-118490500D01*
X95217291Y-118490500D01*
X95275336Y-118466457D01*
X95390833Y-118377833D01*
X95479457Y-118262336D01*
X95535169Y-118127836D01*
X95554171Y-117983500D01*
X95535169Y-117839164D01*
X95479457Y-117704665D01*
X95479455Y-117704662D01*
X95390833Y-117589166D01*
X95275339Y-117500545D01*
X95275338Y-117500544D01*
X95275336Y-117500543D01*
X95188391Y-117464529D01*
X95140837Y-117444831D01*
X94996500Y-117425829D01*
X94852162Y-117444831D01*
X94717663Y-117500544D01*
X94717662Y-117500544D01*
X94602166Y-117589166D01*
X94513544Y-117704662D01*
X94513544Y-117704663D01*
X94457831Y-117839162D01*
X94457831Y-117839164D01*
X94438829Y-117983500D01*
X69135000Y-117983500D01*
X69135000Y-115951500D01*
X83262829Y-115951500D01*
X83281831Y-116095836D01*
X83337543Y-116230336D01*
X83337544Y-116230338D01*
X83337545Y-116230339D01*
X83426166Y-116345833D01*
X83541660Y-116434454D01*
X83541664Y-116434457D01*
X83676164Y-116490169D01*
X83820500Y-116509171D01*
X83964836Y-116490169D01*
X84099336Y-116434457D01*
X84214833Y-116345833D01*
X84303457Y-116230336D01*
X84359169Y-116095836D01*
X84378171Y-115951500D01*
X84359169Y-115807164D01*
X84303457Y-115672665D01*
X84243354Y-115594336D01*
X84214833Y-115557166D01*
X84099339Y-115468545D01*
X84099338Y-115468544D01*
X84099336Y-115468543D01*
X84012391Y-115432529D01*
X83964837Y-115412831D01*
X83820500Y-115393829D01*
X83676162Y-115412831D01*
X83541663Y-115468544D01*
X83541662Y-115468544D01*
X83426166Y-115557166D01*
X83337544Y-115672662D01*
X83337544Y-115672663D01*
X83281831Y-115807162D01*
X83281831Y-115807164D01*
X83262829Y-115951500D01*
X69135000Y-115951500D01*
X69135000Y-115315500D01*
X206325329Y-115315500D01*
X206344331Y-115459837D01*
X206347938Y-115468544D01*
X206400043Y-115594336D01*
X206400044Y-115594338D01*
X206400045Y-115594339D01*
X206488666Y-115709833D01*
X206604160Y-115798454D01*
X206604164Y-115798457D01*
X206738664Y-115854169D01*
X206883000Y-115873171D01*
X207027336Y-115854169D01*
X207161836Y-115798457D01*
X207277333Y-115709833D01*
X207365957Y-115594336D01*
X207421669Y-115459836D01*
X207440671Y-115315500D01*
X207421669Y-115171164D01*
X207365957Y-115036665D01*
X207365955Y-115036662D01*
X207277333Y-114921166D01*
X207161839Y-114832545D01*
X207161838Y-114832544D01*
X207161836Y-114832543D01*
X207074891Y-114796529D01*
X207027337Y-114776831D01*
X206883000Y-114757829D01*
X206738662Y-114776831D01*
X206604163Y-114832544D01*
X206604162Y-114832544D01*
X206488666Y-114921166D01*
X206400044Y-115036662D01*
X206400044Y-115036663D01*
X206344331Y-115171162D01*
X206325329Y-115315500D01*
X69135000Y-115315500D01*
X69135000Y-112649500D01*
X81484829Y-112649500D01*
X81503831Y-112793836D01*
X81559543Y-112928336D01*
X81559544Y-112928338D01*
X81559545Y-112928339D01*
X81648166Y-113043833D01*
X81763660Y-113132454D01*
X81763664Y-113132457D01*
X81898164Y-113188169D01*
X82042500Y-113207171D01*
X82186836Y-113188169D01*
X82321336Y-113132457D01*
X82436833Y-113043833D01*
X82525457Y-112928336D01*
X82581169Y-112793836D01*
X82600171Y-112649500D01*
X82581169Y-112505164D01*
X82525457Y-112370665D01*
X82465740Y-112292839D01*
X82436833Y-112255166D01*
X82321339Y-112166545D01*
X82321338Y-112166544D01*
X82321336Y-112166543D01*
X82234391Y-112130529D01*
X82186837Y-112110831D01*
X82042500Y-112091829D01*
X81898162Y-112110831D01*
X81763663Y-112166544D01*
X81763662Y-112166544D01*
X81648166Y-112255166D01*
X81559544Y-112370662D01*
X81559544Y-112370663D01*
X81503831Y-112505162D01*
X81503831Y-112505164D01*
X81484829Y-112649500D01*
X69135000Y-112649500D01*
X69135000Y-112014000D01*
X112726329Y-112014000D01*
X112745331Y-112158336D01*
X112801043Y-112292836D01*
X112801044Y-112292838D01*
X112801045Y-112292839D01*
X112889666Y-112408333D01*
X113005160Y-112496954D01*
X113005164Y-112496957D01*
X113139664Y-112552669D01*
X113284000Y-112571671D01*
X113428336Y-112552669D01*
X113562836Y-112496957D01*
X113678333Y-112408333D01*
X113766957Y-112292836D01*
X113822669Y-112158336D01*
X113841671Y-112014000D01*
X113822669Y-111869664D01*
X113766957Y-111735165D01*
X113766955Y-111735162D01*
X113678333Y-111619666D01*
X113562839Y-111531045D01*
X113562838Y-111531044D01*
X113562836Y-111531043D01*
X113475891Y-111495029D01*
X113428337Y-111475331D01*
X113284000Y-111456329D01*
X113139662Y-111475331D01*
X113005163Y-111531044D01*
X113005162Y-111531044D01*
X112889666Y-111619666D01*
X112801044Y-111735162D01*
X112801044Y-111735163D01*
X112745331Y-111869662D01*
X112745331Y-111869664D01*
X112726329Y-112014000D01*
X69135000Y-112014000D01*
X69135000Y-107823000D01*
X119330329Y-107823000D01*
X119349331Y-107967336D01*
X119405043Y-108101836D01*
X119405044Y-108101838D01*
X119405045Y-108101839D01*
X119493666Y-108217333D01*
X119609160Y-108305954D01*
X119609164Y-108305957D01*
X119743664Y-108361669D01*
X119888000Y-108380671D01*
X120032336Y-108361669D01*
X120166836Y-108305957D01*
X120282333Y-108217333D01*
X120370957Y-108101836D01*
X120426669Y-107967336D01*
X120445671Y-107823000D01*
X120426669Y-107678664D01*
X120370957Y-107544165D01*
X120370955Y-107544162D01*
X120282333Y-107428666D01*
X120166839Y-107340045D01*
X120166838Y-107340044D01*
X120166836Y-107340043D01*
X120079891Y-107304029D01*
X120032337Y-107284331D01*
X119888000Y-107265329D01*
X119743662Y-107284331D01*
X119609163Y-107340044D01*
X119609162Y-107340044D01*
X119493666Y-107428666D01*
X119405044Y-107544162D01*
X119405044Y-107544163D01*
X119349331Y-107678662D01*
X119349331Y-107678664D01*
X119330329Y-107823000D01*
X69135000Y-107823000D01*
X69135000Y-106807500D01*
X77420829Y-106807500D01*
X77439831Y-106951836D01*
X77495543Y-107086336D01*
X77495544Y-107086338D01*
X77495545Y-107086339D01*
X77584166Y-107201833D01*
X77691680Y-107284331D01*
X77699664Y-107290457D01*
X77834164Y-107346169D01*
X77978500Y-107365171D01*
X78122836Y-107346169D01*
X78257336Y-107290457D01*
X78372833Y-107201833D01*
X78461457Y-107086336D01*
X78517169Y-106951836D01*
X78536171Y-106807500D01*
X78517169Y-106663164D01*
X78461457Y-106528665D01*
X78461455Y-106528662D01*
X78372833Y-106413166D01*
X78257339Y-106324545D01*
X78257338Y-106324544D01*
X78257336Y-106324543D01*
X78170391Y-106288529D01*
X78122837Y-106268831D01*
X77978500Y-106249829D01*
X77834162Y-106268831D01*
X77699663Y-106324544D01*
X77699662Y-106324544D01*
X77584166Y-106413166D01*
X77495544Y-106528662D01*
X77495544Y-106528663D01*
X77439831Y-106663162D01*
X77439831Y-106663164D01*
X77420829Y-106807500D01*
X69135000Y-106807500D01*
X69135000Y-105283500D01*
X81611329Y-105283500D01*
X81630331Y-105427836D01*
X81686043Y-105562336D01*
X81686044Y-105562338D01*
X81686045Y-105562339D01*
X81774666Y-105677833D01*
X81890160Y-105766454D01*
X81890164Y-105766457D01*
X82024664Y-105822169D01*
X82169000Y-105841171D01*
X82313336Y-105822169D01*
X82447836Y-105766457D01*
X82563333Y-105677833D01*
X82574331Y-105663500D01*
X108153829Y-105663500D01*
X108172831Y-105807837D01*
X108178768Y-105822169D01*
X108228543Y-105942336D01*
X108228544Y-105942338D01*
X108228545Y-105942339D01*
X108317166Y-106057833D01*
X108432660Y-106146454D01*
X108432664Y-106146457D01*
X108567164Y-106202169D01*
X108711500Y-106221171D01*
X108855836Y-106202169D01*
X108990336Y-106146457D01*
X109105833Y-106057833D01*
X109194457Y-105942336D01*
X109250169Y-105807836D01*
X109269171Y-105663500D01*
X109250169Y-105519164D01*
X109194457Y-105384665D01*
X109194455Y-105384662D01*
X109105833Y-105269166D01*
X108990339Y-105180545D01*
X108990338Y-105180544D01*
X108990336Y-105180543D01*
X108890434Y-105139162D01*
X108855837Y-105124831D01*
X108711500Y-105105829D01*
X108567162Y-105124831D01*
X108432663Y-105180544D01*
X108432662Y-105180544D01*
X108317166Y-105269166D01*
X108228544Y-105384662D01*
X108228544Y-105384663D01*
X108172831Y-105519162D01*
X108153829Y-105663500D01*
X82574331Y-105663500D01*
X82651957Y-105562336D01*
X82707669Y-105427836D01*
X82726671Y-105283500D01*
X82707669Y-105139164D01*
X82651957Y-105004665D01*
X82651955Y-105004662D01*
X82563333Y-104889166D01*
X82447839Y-104800545D01*
X82447838Y-104800544D01*
X82447836Y-104800543D01*
X82360891Y-104764529D01*
X82313337Y-104744831D01*
X82169000Y-104725829D01*
X82024662Y-104744831D01*
X81890163Y-104800544D01*
X81890162Y-104800544D01*
X81774666Y-104889166D01*
X81686044Y-105004662D01*
X81686044Y-105004663D01*
X81630331Y-105139162D01*
X81630331Y-105139164D01*
X81611329Y-105283500D01*
X69135000Y-105283500D01*
X69135000Y-101600000D01*
X150192329Y-101600000D01*
X150211331Y-101744336D01*
X150267043Y-101878836D01*
X150267044Y-101878838D01*
X150267045Y-101878839D01*
X150355666Y-101994333D01*
X150471160Y-102082954D01*
X150471164Y-102082957D01*
X150605664Y-102138669D01*
X150750000Y-102157671D01*
X150894336Y-102138669D01*
X151028836Y-102082957D01*
X151144333Y-101994333D01*
X151232957Y-101878836D01*
X151288669Y-101744336D01*
X151307671Y-101600000D01*
X151288669Y-101455664D01*
X151232957Y-101321165D01*
X151232955Y-101321162D01*
X151144333Y-101205666D01*
X151028839Y-101117045D01*
X151028838Y-101117044D01*
X151028836Y-101117043D01*
X150941891Y-101081029D01*
X150894337Y-101061331D01*
X150750000Y-101042329D01*
X150605662Y-101061331D01*
X150471163Y-101117044D01*
X150471162Y-101117044D01*
X150355666Y-101205666D01*
X150267044Y-101321162D01*
X150267044Y-101321163D01*
X150211331Y-101455662D01*
X150211331Y-101455664D01*
X150192329Y-101600000D01*
X69135000Y-101600000D01*
X69135000Y-99568000D01*
X79706829Y-99568000D01*
X79725831Y-99712336D01*
X79781543Y-99846836D01*
X79781544Y-99846838D01*
X79781545Y-99846839D01*
X79870166Y-99962333D01*
X79985660Y-100050954D01*
X79985664Y-100050957D01*
X80120164Y-100106669D01*
X80264500Y-100125671D01*
X80408836Y-100106669D01*
X80543336Y-100050957D01*
X80658833Y-99962333D01*
X80747457Y-99846836D01*
X80803169Y-99712336D01*
X80822171Y-99568000D01*
X80803169Y-99423664D01*
X80747457Y-99289165D01*
X80747455Y-99289162D01*
X80658833Y-99173666D01*
X80543339Y-99085045D01*
X80543338Y-99085044D01*
X80543336Y-99085043D01*
X80456391Y-99049029D01*
X80408837Y-99029331D01*
X80264500Y-99010329D01*
X80120162Y-99029331D01*
X79985663Y-99085044D01*
X79985662Y-99085044D01*
X79870166Y-99173666D01*
X79781544Y-99289162D01*
X79781544Y-99289163D01*
X79725831Y-99423662D01*
X79725831Y-99423664D01*
X79706829Y-99568000D01*
X69135000Y-99568000D01*
X69135000Y-97282500D01*
X174194329Y-97282500D01*
X174213331Y-97426836D01*
X174269043Y-97561336D01*
X174269044Y-97561338D01*
X174269045Y-97561339D01*
X174357666Y-97676833D01*
X174472508Y-97764954D01*
X174473164Y-97765457D01*
X174607664Y-97821169D01*
X174752000Y-97840171D01*
X174896336Y-97821169D01*
X175030836Y-97765457D01*
X175146333Y-97676833D01*
X175234957Y-97561336D01*
X175290669Y-97426836D01*
X175309671Y-97282500D01*
X175309605Y-97282000D01*
X196331829Y-97282000D01*
X196350831Y-97426337D01*
X196370529Y-97473891D01*
X196406543Y-97560836D01*
X196406544Y-97560838D01*
X196406545Y-97560839D01*
X196495166Y-97676333D01*
X196610660Y-97764954D01*
X196610664Y-97764957D01*
X196745164Y-97820669D01*
X196889500Y-97839671D01*
X197033836Y-97820669D01*
X197168336Y-97764957D01*
X197283833Y-97676333D01*
X197372457Y-97560836D01*
X197428169Y-97426336D01*
X197447171Y-97282000D01*
X197428169Y-97137664D01*
X197372457Y-97003165D01*
X197284217Y-96888167D01*
X197283833Y-96887666D01*
X197168339Y-96799045D01*
X197168338Y-96799044D01*
X197168336Y-96799043D01*
X197081391Y-96763029D01*
X197033837Y-96743331D01*
X196889500Y-96724329D01*
X196745162Y-96743331D01*
X196610663Y-96799044D01*
X196610662Y-96799044D01*
X196495166Y-96887666D01*
X196406544Y-97003162D01*
X196406544Y-97003163D01*
X196350831Y-97137662D01*
X196331829Y-97282000D01*
X175309605Y-97282000D01*
X175290669Y-97138164D01*
X175234957Y-97003665D01*
X175234955Y-97003662D01*
X175146333Y-96888166D01*
X175030839Y-96799545D01*
X175030838Y-96799544D01*
X175030836Y-96799543D01*
X174943891Y-96763529D01*
X174896337Y-96743831D01*
X174752000Y-96724829D01*
X174607662Y-96743831D01*
X174496238Y-96789985D01*
X174474368Y-96799045D01*
X174473163Y-96799544D01*
X174473162Y-96799544D01*
X174357666Y-96888166D01*
X174269044Y-97003662D01*
X174269044Y-97003663D01*
X174213331Y-97138162D01*
X174213331Y-97138164D01*
X174194329Y-97282500D01*
X69135000Y-97282500D01*
X69135000Y-95377000D01*
X113168292Y-95377000D01*
X113187472Y-95559487D01*
X113244171Y-95733991D01*
X113244174Y-95733998D01*
X113335916Y-95892900D01*
X113335917Y-95892902D01*
X113458700Y-96029266D01*
X113607142Y-96137115D01*
X113607145Y-96137116D01*
X113607146Y-96137117D01*
X113774773Y-96211750D01*
X113954255Y-96249900D01*
X113954257Y-96249900D01*
X114137743Y-96249900D01*
X114137745Y-96249900D01*
X114317227Y-96211750D01*
X114484854Y-96137117D01*
X114588697Y-96061671D01*
X114633299Y-96029266D01*
X114633301Y-96029264D01*
X114756081Y-95892904D01*
X114847826Y-95733996D01*
X114904528Y-95559486D01*
X114910360Y-95504000D01*
X141936329Y-95504000D01*
X141955331Y-95648336D01*
X142011043Y-95782836D01*
X142011044Y-95782838D01*
X142011045Y-95782839D01*
X142099666Y-95898333D01*
X142215160Y-95986954D01*
X142215164Y-95986957D01*
X142349664Y-96042669D01*
X142494000Y-96061671D01*
X142638336Y-96042669D01*
X142772836Y-95986957D01*
X142888333Y-95898333D01*
X142976957Y-95782836D01*
X143032669Y-95648336D01*
X143051671Y-95504000D01*
X143032669Y-95359664D01*
X142976957Y-95225165D01*
X142953438Y-95194514D01*
X142888333Y-95109666D01*
X142772839Y-95021045D01*
X142772838Y-95021044D01*
X142772836Y-95021043D01*
X142685891Y-94985029D01*
X142638337Y-94965331D01*
X142494000Y-94946329D01*
X142349662Y-94965331D01*
X142238238Y-95011485D01*
X142217674Y-95020004D01*
X142215163Y-95021044D01*
X142215162Y-95021044D01*
X142099666Y-95109666D01*
X142011044Y-95225162D01*
X142011044Y-95225163D01*
X141955331Y-95359662D01*
X141936329Y-95504000D01*
X114910360Y-95504000D01*
X114923708Y-95377000D01*
X114904528Y-95194514D01*
X114885627Y-95136344D01*
X114847828Y-95020008D01*
X114847825Y-95020001D01*
X114756083Y-94861099D01*
X114756082Y-94861097D01*
X114633299Y-94724733D01*
X114484857Y-94616884D01*
X114317228Y-94542250D01*
X114257399Y-94529533D01*
X114137745Y-94504100D01*
X113954255Y-94504100D01*
X113864514Y-94523175D01*
X113774771Y-94542250D01*
X113607142Y-94616884D01*
X113458700Y-94724733D01*
X113335917Y-94861097D01*
X113335916Y-94861099D01*
X113244174Y-95020001D01*
X113244171Y-95020008D01*
X113187472Y-95194512D01*
X113168292Y-95377000D01*
X69135000Y-95377000D01*
X69135000Y-92075000D01*
X110186329Y-92075000D01*
X110205331Y-92219336D01*
X110261043Y-92353836D01*
X110261044Y-92353838D01*
X110261045Y-92353839D01*
X110349666Y-92469333D01*
X110465160Y-92557954D01*
X110465164Y-92557957D01*
X110599664Y-92613669D01*
X110744000Y-92632671D01*
X110888336Y-92613669D01*
X110962377Y-92583000D01*
X124791329Y-92583000D01*
X124810331Y-92727336D01*
X124866043Y-92861836D01*
X124866044Y-92861838D01*
X124866045Y-92861839D01*
X124954666Y-92977333D01*
X125070160Y-93065954D01*
X125070164Y-93065957D01*
X125204664Y-93121669D01*
X125349000Y-93140671D01*
X125493336Y-93121669D01*
X125627836Y-93065957D01*
X125743333Y-92977333D01*
X125831957Y-92861836D01*
X125887669Y-92727336D01*
X125906671Y-92583000D01*
X125887669Y-92438664D01*
X125831957Y-92304165D01*
X125766867Y-92219337D01*
X125743333Y-92188666D01*
X125627839Y-92100045D01*
X125627838Y-92100044D01*
X125627836Y-92100043D01*
X125567377Y-92075000D01*
X165177329Y-92075000D01*
X165196331Y-92219336D01*
X165252043Y-92353836D01*
X165252044Y-92353838D01*
X165252045Y-92353839D01*
X165340666Y-92469333D01*
X165456160Y-92557954D01*
X165456164Y-92557957D01*
X165590664Y-92613669D01*
X165735000Y-92632671D01*
X165879336Y-92613669D01*
X166013836Y-92557957D01*
X166129333Y-92469333D01*
X166217957Y-92353836D01*
X166273669Y-92219336D01*
X166292671Y-92075000D01*
X166273669Y-91930664D01*
X166217957Y-91796165D01*
X166217955Y-91796162D01*
X166129333Y-91680666D01*
X166013839Y-91592045D01*
X166013838Y-91592044D01*
X166013836Y-91592043D01*
X165926891Y-91556029D01*
X165879337Y-91536331D01*
X165735000Y-91517329D01*
X165590662Y-91536331D01*
X165456163Y-91592044D01*
X165456162Y-91592044D01*
X165340666Y-91680666D01*
X165252044Y-91796162D01*
X165252044Y-91796163D01*
X165196331Y-91930662D01*
X165196331Y-91930664D01*
X165177329Y-92075000D01*
X125567377Y-92075000D01*
X125540891Y-92064029D01*
X125493337Y-92044331D01*
X125349000Y-92025329D01*
X125204662Y-92044331D01*
X125070163Y-92100044D01*
X125070162Y-92100044D01*
X124954666Y-92188666D01*
X124866044Y-92304162D01*
X124866044Y-92304163D01*
X124810331Y-92438662D01*
X124810331Y-92438664D01*
X124791329Y-92583000D01*
X110962377Y-92583000D01*
X111022836Y-92557957D01*
X111138333Y-92469333D01*
X111226957Y-92353836D01*
X111282669Y-92219336D01*
X111301671Y-92075000D01*
X111282669Y-91930664D01*
X111226957Y-91796165D01*
X111226955Y-91796162D01*
X111138333Y-91680666D01*
X111022839Y-91592045D01*
X111022838Y-91592044D01*
X111022836Y-91592043D01*
X110935891Y-91556029D01*
X110888337Y-91536331D01*
X110744000Y-91517329D01*
X110599662Y-91536331D01*
X110465163Y-91592044D01*
X110465162Y-91592044D01*
X110349666Y-91680666D01*
X110261044Y-91796162D01*
X110261044Y-91796163D01*
X110205331Y-91930662D01*
X110205331Y-91930664D01*
X110186329Y-92075000D01*
X69135000Y-92075000D01*
X69135000Y-90281039D01*
X77041600Y-90281039D01*
X77075451Y-90462132D01*
X77082222Y-90498352D01*
X77162087Y-90704503D01*
X77278464Y-90892458D01*
X77278464Y-90892459D01*
X77278465Y-90892460D01*
X77278467Y-90892463D01*
X77427405Y-91055841D01*
X77427409Y-91055844D01*
X77427410Y-91055845D01*
X77603831Y-91189071D01*
X77801727Y-91287611D01*
X77801730Y-91287613D01*
X78014362Y-91348112D01*
X78014363Y-91348112D01*
X78014366Y-91348113D01*
X78095392Y-91355621D01*
X78179336Y-91363400D01*
X78179342Y-91363400D01*
X79809664Y-91363400D01*
X79887044Y-91356229D01*
X79974634Y-91348113D01*
X79974638Y-91348112D01*
X80187269Y-91287613D01*
X80187271Y-91287612D01*
X80385172Y-91189069D01*
X80561595Y-91055841D01*
X80710533Y-90892463D01*
X80826915Y-90704499D01*
X80906778Y-90498351D01*
X80947400Y-90281039D01*
X80947400Y-90059961D01*
X80906778Y-89842649D01*
X80826915Y-89636501D01*
X80710533Y-89448537D01*
X80561595Y-89285159D01*
X80561590Y-89285155D01*
X80561589Y-89285154D01*
X80385168Y-89151928D01*
X80187272Y-89053388D01*
X80187269Y-89053386D01*
X79974637Y-88992887D01*
X79974638Y-88992887D01*
X79809664Y-88977600D01*
X79809658Y-88977600D01*
X78179342Y-88977600D01*
X78179336Y-88977600D01*
X78014361Y-88992887D01*
X77801730Y-89053386D01*
X77801727Y-89053388D01*
X77603831Y-89151928D01*
X77427410Y-89285154D01*
X77278464Y-89448540D01*
X77278464Y-89448541D01*
X77162087Y-89636496D01*
X77082222Y-89842647D01*
X77082222Y-89842649D01*
X77041600Y-90059961D01*
X77041600Y-90281039D01*
X69135000Y-90281039D01*
X69135000Y-87122000D01*
X130379329Y-87122000D01*
X130398331Y-87266336D01*
X130454043Y-87400836D01*
X130454044Y-87400838D01*
X130454045Y-87400839D01*
X130542666Y-87516333D01*
X130658160Y-87604954D01*
X130658164Y-87604957D01*
X130792664Y-87660669D01*
X130937000Y-87679671D01*
X131081336Y-87660669D01*
X131215836Y-87604957D01*
X131331333Y-87516333D01*
X131419957Y-87400836D01*
X131475669Y-87266336D01*
X131494671Y-87122000D01*
X131475669Y-86977664D01*
X131419957Y-86843165D01*
X131419955Y-86843162D01*
X131331333Y-86727666D01*
X131215839Y-86639045D01*
X131215838Y-86639044D01*
X131215836Y-86639043D01*
X131128891Y-86603029D01*
X131081337Y-86583331D01*
X130937000Y-86564329D01*
X130792662Y-86583331D01*
X130658163Y-86639044D01*
X130658162Y-86639044D01*
X130542666Y-86727666D01*
X130454044Y-86843162D01*
X130454044Y-86843163D01*
X130398331Y-86977662D01*
X130389509Y-87044671D01*
X130379329Y-87122000D01*
X69135000Y-87122000D01*
X69135000Y-86487000D01*
X166447329Y-86487000D01*
X166466331Y-86631337D01*
X166469524Y-86639045D01*
X166522043Y-86765836D01*
X166522044Y-86765838D01*
X166522045Y-86765839D01*
X166610666Y-86881333D01*
X166726160Y-86969954D01*
X166726164Y-86969957D01*
X166860664Y-87025669D01*
X167005000Y-87044671D01*
X167149336Y-87025669D01*
X167283836Y-86969957D01*
X167399333Y-86881333D01*
X167487957Y-86765836D01*
X167543669Y-86631336D01*
X167562671Y-86487000D01*
X167543669Y-86342664D01*
X167487957Y-86208165D01*
X167487955Y-86208162D01*
X167399333Y-86092666D01*
X167283839Y-86004045D01*
X167283838Y-86004044D01*
X167283836Y-86004043D01*
X167196891Y-85968029D01*
X167149337Y-85948331D01*
X167005000Y-85929329D01*
X166860662Y-85948331D01*
X166726163Y-86004044D01*
X166726162Y-86004044D01*
X166610666Y-86092666D01*
X166522044Y-86208162D01*
X166522044Y-86208163D01*
X166466331Y-86342662D01*
X166447329Y-86487000D01*
X69135000Y-86487000D01*
X69135000Y-83312000D01*
X206452329Y-83312000D01*
X206471331Y-83456336D01*
X206527043Y-83590836D01*
X206527044Y-83590838D01*
X206527045Y-83590839D01*
X206615666Y-83706333D01*
X206731160Y-83794954D01*
X206731164Y-83794957D01*
X206865664Y-83850669D01*
X207010000Y-83869671D01*
X207154336Y-83850669D01*
X207288836Y-83794957D01*
X207404333Y-83706333D01*
X207492957Y-83590836D01*
X207548669Y-83456336D01*
X207567671Y-83312000D01*
X207548669Y-83167664D01*
X207492957Y-83033165D01*
X207492955Y-83033162D01*
X207404333Y-82917666D01*
X207288839Y-82829045D01*
X207288838Y-82829044D01*
X207288836Y-82829043D01*
X207201891Y-82793029D01*
X207154337Y-82773331D01*
X207010000Y-82754329D01*
X206865662Y-82773331D01*
X206731163Y-82829044D01*
X206731162Y-82829044D01*
X206615666Y-82917666D01*
X206527044Y-83033162D01*
X206527044Y-83033163D01*
X206471331Y-83167662D01*
X206471331Y-83167664D01*
X206452329Y-83312000D01*
X69135000Y-83312000D01*
X69135000Y-80832202D01*
X77041600Y-80832202D01*
X77041601Y-80832214D01*
X77056541Y-80926553D01*
X77114485Y-81040273D01*
X77204726Y-81130514D01*
X77204728Y-81130515D01*
X77204729Y-81130516D01*
X77318442Y-81188456D01*
X77318444Y-81188457D01*
X77412791Y-81203400D01*
X80576208Y-81203399D01*
X80584385Y-81202103D01*
X80670553Y-81188458D01*
X80670554Y-81188457D01*
X80670556Y-81188457D01*
X80784271Y-81130516D01*
X80874516Y-81040271D01*
X80932457Y-80926556D01*
X80947400Y-80832209D01*
X80947399Y-79188792D01*
X80947398Y-79188785D01*
X80932458Y-79094446D01*
X80874514Y-78980726D01*
X80784273Y-78890485D01*
X80670556Y-78832543D01*
X80670558Y-78832543D01*
X80623382Y-78825071D01*
X80576209Y-78817600D01*
X80576207Y-78817600D01*
X77412797Y-78817600D01*
X77412785Y-78817601D01*
X77318446Y-78832541D01*
X77204726Y-78890485D01*
X77114485Y-78980726D01*
X77056543Y-79094442D01*
X77041600Y-79188788D01*
X77041600Y-80832202D01*
X69135000Y-80832202D01*
X69135000Y-75819500D01*
X119330829Y-75819500D01*
X119349831Y-75963836D01*
X119405543Y-76098336D01*
X119405544Y-76098338D01*
X119405545Y-76098339D01*
X119494166Y-76213833D01*
X119609660Y-76302454D01*
X119609664Y-76302457D01*
X119744164Y-76358169D01*
X119888500Y-76377171D01*
X120032836Y-76358169D01*
X120167336Y-76302457D01*
X120282833Y-76213833D01*
X120371457Y-76098336D01*
X120427169Y-75963836D01*
X120446171Y-75819500D01*
X120427169Y-75675164D01*
X120371457Y-75540665D01*
X120371455Y-75540662D01*
X120282833Y-75425166D01*
X120167339Y-75336545D01*
X120167338Y-75336544D01*
X120167336Y-75336543D01*
X120080391Y-75300529D01*
X120032837Y-75280831D01*
X119888500Y-75261829D01*
X119744162Y-75280831D01*
X119609663Y-75336544D01*
X119609662Y-75336544D01*
X119494166Y-75425166D01*
X119405544Y-75540662D01*
X119405544Y-75540663D01*
X119349831Y-75675162D01*
X119349831Y-75675164D01*
X119330829Y-75819500D01*
X69135000Y-75819500D01*
X69135000Y-73660000D01*
X108154329Y-73660000D01*
X108173331Y-73804336D01*
X108229043Y-73938836D01*
X108229044Y-73938838D01*
X108229045Y-73938839D01*
X108317666Y-74054333D01*
X108433160Y-74142954D01*
X108433164Y-74142957D01*
X108567664Y-74198669D01*
X108712000Y-74217671D01*
X108856336Y-74198669D01*
X108990836Y-74142957D01*
X109106333Y-74054333D01*
X109194957Y-73938836D01*
X109250669Y-73804336D01*
X109269671Y-73660000D01*
X109250669Y-73515664D01*
X109194957Y-73381165D01*
X109194955Y-73381162D01*
X109106333Y-73265666D01*
X108990839Y-73177045D01*
X108990838Y-73177044D01*
X108990836Y-73177043D01*
X108903891Y-73141029D01*
X108856337Y-73121331D01*
X108712000Y-73102329D01*
X108567662Y-73121331D01*
X108433163Y-73177044D01*
X108433162Y-73177044D01*
X108317666Y-73265666D01*
X108229044Y-73381162D01*
X108229044Y-73381163D01*
X108173331Y-73515662D01*
X108173331Y-73515664D01*
X108154329Y-73660000D01*
X69135000Y-73660000D01*
X69135000Y-68376282D01*
X73284287Y-68376282D01*
X73294183Y-68684851D01*
X73294185Y-68684870D01*
X73343460Y-68989655D01*
X73431305Y-69285634D01*
X73431307Y-69285641D01*
X73556282Y-69567962D01*
X73716332Y-69831980D01*
X73716336Y-69831986D01*
X73750909Y-69875339D01*
X73908837Y-70073376D01*
X74130622Y-70288163D01*
X74378051Y-70472824D01*
X74378069Y-70472836D01*
X74647073Y-70624336D01*
X74647075Y-70624336D01*
X74647079Y-70624339D01*
X74801512Y-70686862D01*
X74933260Y-70740201D01*
X74933261Y-70740201D01*
X74933263Y-70740202D01*
X75231913Y-70818518D01*
X75538126Y-70858000D01*
X75538128Y-70858000D01*
X75769592Y-70858000D01*
X75769599Y-70858000D01*
X75809149Y-70855460D01*
X76000604Y-70843169D01*
X76000607Y-70843168D01*
X76000614Y-70843168D01*
X76303668Y-70784149D01*
X76596687Y-70686860D01*
X76874859Y-70552899D01*
X77133617Y-70384466D01*
X77368712Y-70184327D01*
X77576284Y-69955768D01*
X77752924Y-69702541D01*
X77808245Y-69596500D01*
X150192829Y-69596500D01*
X150211831Y-69740836D01*
X150267543Y-69875336D01*
X150267544Y-69875338D01*
X150267545Y-69875339D01*
X150356166Y-69990833D01*
X150463738Y-70073375D01*
X150471664Y-70079457D01*
X150606164Y-70135169D01*
X150750500Y-70154171D01*
X150894836Y-70135169D01*
X151029336Y-70079457D01*
X151144833Y-69990833D01*
X151233457Y-69875336D01*
X151289169Y-69740836D01*
X151308171Y-69596500D01*
X151289169Y-69452164D01*
X151233457Y-69317665D01*
X151233455Y-69317662D01*
X151144833Y-69202166D01*
X151029339Y-69113545D01*
X151029338Y-69113544D01*
X151029336Y-69113543D01*
X150942391Y-69077529D01*
X150894837Y-69057831D01*
X150750500Y-69038829D01*
X150606162Y-69057831D01*
X150471663Y-69113544D01*
X150471662Y-69113544D01*
X150356166Y-69202166D01*
X150267544Y-69317662D01*
X150267544Y-69317663D01*
X150211831Y-69452162D01*
X150211831Y-69452164D01*
X150192829Y-69596500D01*
X77808245Y-69596500D01*
X77895731Y-69428805D01*
X78002362Y-69139055D01*
X78071065Y-68838048D01*
X78100712Y-68530727D01*
X78095759Y-68376282D01*
X224668287Y-68376282D01*
X224678183Y-68684851D01*
X224678185Y-68684870D01*
X224727460Y-68989655D01*
X224815305Y-69285634D01*
X224815307Y-69285641D01*
X224940282Y-69567962D01*
X225100332Y-69831980D01*
X225100336Y-69831986D01*
X225134909Y-69875339D01*
X225292837Y-70073376D01*
X225514622Y-70288163D01*
X225762051Y-70472824D01*
X225762069Y-70472836D01*
X226031073Y-70624336D01*
X226031075Y-70624336D01*
X226031079Y-70624339D01*
X226185512Y-70686862D01*
X226317260Y-70740201D01*
X226317261Y-70740201D01*
X226317263Y-70740202D01*
X226615913Y-70818518D01*
X226922126Y-70858000D01*
X226922128Y-70858000D01*
X227153592Y-70858000D01*
X227153599Y-70858000D01*
X227193149Y-70855460D01*
X227384604Y-70843169D01*
X227384607Y-70843168D01*
X227384614Y-70843168D01*
X227687668Y-70784149D01*
X227980687Y-70686860D01*
X228258859Y-70552899D01*
X228517617Y-70384466D01*
X228752712Y-70184327D01*
X228960284Y-69955768D01*
X229136924Y-69702541D01*
X229279731Y-69428805D01*
X229386362Y-69139055D01*
X229455065Y-68838048D01*
X229484712Y-68530727D01*
X229474816Y-68222137D01*
X229425540Y-67917347D01*
X229337693Y-67621360D01*
X229212717Y-67339037D01*
X229052664Y-67075014D01*
X228953948Y-66951228D01*
X228860162Y-66833623D01*
X228638377Y-66618836D01*
X228390948Y-66434175D01*
X228390930Y-66434163D01*
X228121926Y-66282663D01*
X227835739Y-66166798D01*
X227668153Y-66122852D01*
X227537087Y-66088482D01*
X227230874Y-66049000D01*
X226999401Y-66049000D01*
X226999396Y-66049000D01*
X226999370Y-66049001D01*
X226768395Y-66063830D01*
X226768384Y-66063832D01*
X226465336Y-66122850D01*
X226465327Y-66122852D01*
X226172321Y-66220137D01*
X226172310Y-66220141D01*
X225894145Y-66354098D01*
X225894136Y-66354103D01*
X225635385Y-66522531D01*
X225400287Y-66722673D01*
X225192719Y-66951228D01*
X225192714Y-66951234D01*
X225016077Y-67204456D01*
X225016073Y-67204463D01*
X224873271Y-67478189D01*
X224766638Y-67767943D01*
X224697935Y-68068952D01*
X224668287Y-68376282D01*
X78095759Y-68376282D01*
X78090816Y-68222137D01*
X78041540Y-67917347D01*
X77953693Y-67621360D01*
X77828717Y-67339037D01*
X77668664Y-67075014D01*
X77569948Y-66951228D01*
X77476162Y-66833623D01*
X77254377Y-66618836D01*
X77006948Y-66434175D01*
X77006930Y-66434163D01*
X76737926Y-66282663D01*
X76451739Y-66166798D01*
X76284153Y-66122852D01*
X76153087Y-66088482D01*
X75846874Y-66049000D01*
X75615401Y-66049000D01*
X75615396Y-66049000D01*
X75615370Y-66049001D01*
X75384395Y-66063830D01*
X75384384Y-66063832D01*
X75081336Y-66122850D01*
X75081327Y-66122852D01*
X74788321Y-66220137D01*
X74788310Y-66220141D01*
X74510145Y-66354098D01*
X74510136Y-66354103D01*
X74251385Y-66522531D01*
X74016287Y-66722673D01*
X73808719Y-66951228D01*
X73808714Y-66951234D01*
X73632077Y-67204456D01*
X73632073Y-67204463D01*
X73489271Y-67478189D01*
X73382638Y-67767943D01*
X73313935Y-68068952D01*
X73284287Y-68376282D01*
X69135000Y-68376282D01*
X69135000Y-66677130D01*
X69135072Y-66673850D01*
X69136216Y-66647656D01*
X69153043Y-66262218D01*
X69153614Y-66255692D01*
X69207186Y-65848772D01*
X69208319Y-65842354D01*
X69248857Y-65659500D01*
X105106829Y-65659500D01*
X105125831Y-65803836D01*
X105181543Y-65938336D01*
X105181544Y-65938338D01*
X105181545Y-65938339D01*
X105270166Y-66053833D01*
X105360113Y-66122851D01*
X105385664Y-66142457D01*
X105520164Y-66198169D01*
X105664500Y-66217171D01*
X105808836Y-66198169D01*
X105943336Y-66142457D01*
X106058833Y-66053833D01*
X106147457Y-65938336D01*
X106203169Y-65803836D01*
X106222171Y-65659500D01*
X106203169Y-65515164D01*
X106147457Y-65380665D01*
X106147455Y-65380662D01*
X106058833Y-65265166D01*
X105943339Y-65176545D01*
X105943338Y-65176544D01*
X105943336Y-65176543D01*
X105852545Y-65138936D01*
X105808837Y-65120831D01*
X105664500Y-65101829D01*
X105520162Y-65120831D01*
X105385663Y-65176544D01*
X105385662Y-65176544D01*
X105270166Y-65265166D01*
X105181544Y-65380662D01*
X105181544Y-65380663D01*
X105125831Y-65515162D01*
X105125831Y-65515164D01*
X105106829Y-65659500D01*
X69248857Y-65659500D01*
X69297149Y-65441667D01*
X69298842Y-65435353D01*
X69422253Y-65043945D01*
X69424496Y-65037780D01*
X69472313Y-64922339D01*
X69581554Y-64658608D01*
X69584310Y-64652698D01*
X69589098Y-64643500D01*
X106630829Y-64643500D01*
X106649831Y-64787836D01*
X106705543Y-64922336D01*
X106705544Y-64922338D01*
X106705545Y-64922339D01*
X106794166Y-65037833D01*
X106877568Y-65101829D01*
X106909664Y-65126457D01*
X107044164Y-65182169D01*
X107188500Y-65201171D01*
X107332836Y-65182169D01*
X107467336Y-65126457D01*
X107582833Y-65037833D01*
X107671457Y-64922336D01*
X107727169Y-64787836D01*
X107746171Y-64643500D01*
X107727169Y-64499164D01*
X107671457Y-64364665D01*
X107613138Y-64288661D01*
X107582833Y-64249166D01*
X107467339Y-64160545D01*
X107467338Y-64160544D01*
X107467336Y-64160543D01*
X107380391Y-64124529D01*
X107332837Y-64104831D01*
X107188500Y-64085829D01*
X107044162Y-64104831D01*
X106909663Y-64160544D01*
X106909662Y-64160544D01*
X106794166Y-64249166D01*
X106705544Y-64364662D01*
X106705544Y-64364663D01*
X106649831Y-64499162D01*
X106649831Y-64499164D01*
X106630829Y-64643500D01*
X69589098Y-64643500D01*
X69773822Y-64288649D01*
X69777089Y-64282991D01*
X69997605Y-63936849D01*
X70001355Y-63931494D01*
X70251197Y-63605895D01*
X70255412Y-63600873D01*
X70532681Y-63298285D01*
X70537285Y-63293681D01*
X70839875Y-63016410D01*
X70844898Y-63012195D01*
X71170494Y-62762355D01*
X71175849Y-62758605D01*
X71521991Y-62538089D01*
X71527649Y-62534822D01*
X71891698Y-62345310D01*
X71897608Y-62342554D01*
X72276782Y-62185494D01*
X72282945Y-62183253D01*
X72674353Y-62059842D01*
X72680667Y-62058149D01*
X73081354Y-61969319D01*
X73087772Y-61968186D01*
X73494702Y-61914613D01*
X73501218Y-61914043D01*
X73912851Y-61896072D01*
X73916131Y-61896000D01*
X73962095Y-61896000D01*
X228806905Y-61896000D01*
X228852869Y-61896000D01*
X228856149Y-61896072D01*
G37*
%TD.AperFunction*%
%TD*%
M02*
