%TF.GenerationSoftware,KiCad,Pcbnew,7.0.10-7.0.10~ubuntu22.04.1*%
%TF.CreationDate,2024-01-03T15:26:10-06:00*%
%TF.ProjectId,aom_driver,616f6d5f-6472-4697-9665-722e6b696361,v1*%
%TF.SameCoordinates,Original*%
%TF.FileFunction,Copper,L3,Inr*%
%TF.FilePolarity,Positive*%
%FSLAX46Y46*%
G04 Gerber Fmt 4.6, Leading zero omitted, Abs format (unit mm)*
G04 Created by KiCad (PCBNEW 7.0.10-7.0.10~ubuntu22.04.1) date 2024-01-03 15:26:10*
%MOMM*%
%LPD*%
G01*
G04 APERTURE LIST*
G04 Aperture macros list*
%AMRoundRect*
0 Rectangle with rounded corners*
0 $1 Rounding radius*
0 $2 $3 $4 $5 $6 $7 $8 $9 X,Y pos of 4 corners*
0 Add a 4 corners polygon primitive as box body*
4,1,4,$2,$3,$4,$5,$6,$7,$8,$9,$2,$3,0*
0 Add four circle primitives for the rounded corners*
1,1,$1+$1,$2,$3*
1,1,$1+$1,$4,$5*
1,1,$1+$1,$6,$7*
1,1,$1+$1,$8,$9*
0 Add four rect primitives between the rounded corners*
20,1,$1+$1,$2,$3,$4,$5,0*
20,1,$1+$1,$4,$5,$6,$7,0*
20,1,$1+$1,$6,$7,$8,$9,0*
20,1,$1+$1,$8,$9,$2,$3,0*%
G04 Aperture macros list end*
%TA.AperFunction,ComponentPad*%
%ADD10C,1.440000*%
%TD*%
%TA.AperFunction,ComponentPad*%
%ADD11C,1.016000*%
%TD*%
%TA.AperFunction,ComponentPad*%
%ADD12RoundRect,0.249999X-1.550001X0.790001X-1.550001X-0.790001X1.550001X-0.790001X1.550001X0.790001X0*%
%TD*%
%TA.AperFunction,ComponentPad*%
%ADD13O,3.600000X2.080000*%
%TD*%
%TA.AperFunction,ViaPad*%
%ADD14C,0.800000*%
%TD*%
%TA.AperFunction,Conductor*%
%ADD15C,0.254000*%
%TD*%
G04 APERTURE END LIST*
D10*
%TO.N,Net-(U17-SET)*%
%TO.C,RV4*%
X162941000Y-126365000D03*
%TO.N,GND*%
X160401000Y-128905000D03*
X157861000Y-126365000D03*
%TD*%
%TO.N,Net-(U5-SET)*%
%TO.C,RV1*%
X205613500Y-85090500D03*
%TO.N,GND*%
X208153500Y-87630500D03*
X205613500Y-90170500D03*
%TD*%
D11*
%TO.N,GND*%
%TO.C,X1*%
X196342500Y-83566500D03*
X196342500Y-75946500D03*
X194945500Y-84963500D03*
X194945500Y-82296500D03*
X194945500Y-77216500D03*
X194945500Y-74676500D03*
X194945500Y-72771500D03*
X193802500Y-81026500D03*
X193802500Y-78486500D03*
X193675500Y-83566500D03*
X193675500Y-74168500D03*
X192405500Y-84963500D03*
X192405500Y-72771500D03*
X191135500Y-83566500D03*
X191135500Y-74168500D03*
X190246500Y-78867500D03*
X189865500Y-82423500D03*
X189865500Y-72771500D03*
X188595500Y-74168500D03*
X187325500Y-82423500D03*
X187325500Y-72771500D03*
X186690500Y-79375500D03*
X186690500Y-76835500D03*
X186055500Y-74168500D03*
X185547500Y-83566500D03*
X185547500Y-80645500D03*
X185547500Y-75565500D03*
X184785500Y-84963500D03*
X184785500Y-72771500D03*
X184150500Y-81915500D03*
X184150500Y-74295500D03*
%TD*%
%TO.N,GND*%
%TO.C,X2*%
X196342000Y-115570000D03*
X196342000Y-107950000D03*
X194945000Y-116967000D03*
X194945000Y-114300000D03*
X194945000Y-109220000D03*
X194945000Y-106680000D03*
X194945000Y-104775000D03*
X193802000Y-113030000D03*
X193802000Y-110490000D03*
X193675000Y-115570000D03*
X193675000Y-106172000D03*
X192405000Y-116967000D03*
X192405000Y-104775000D03*
X191135000Y-115570000D03*
X191135000Y-106172000D03*
X190246000Y-110871000D03*
X189865000Y-114427000D03*
X189865000Y-104775000D03*
X188595000Y-106172000D03*
X187325000Y-114427000D03*
X187325000Y-104775000D03*
X186690000Y-111379000D03*
X186690000Y-108839000D03*
X186055000Y-106172000D03*
X185547000Y-115570000D03*
X185547000Y-112649000D03*
X185547000Y-107569000D03*
X184785000Y-116967000D03*
X184785000Y-104775000D03*
X184150000Y-113919000D03*
X184150000Y-106299000D03*
%TD*%
D10*
%TO.N,Net-(U14-SET)*%
%TO.C,RV3*%
X205613000Y-117094000D03*
%TO.N,GND*%
X208153000Y-119634000D03*
X205613000Y-122174000D03*
%TD*%
%TO.N,Net-(U8-SET)*%
%TO.C,RV2*%
X162941500Y-94361500D03*
%TO.N,GND*%
X160401500Y-96901500D03*
X157861500Y-94361500D03*
%TD*%
D11*
%TO.N,GND*%
%TO.C,FL1*%
X135636500Y-80899500D03*
X135636500Y-72009500D03*
X132461500Y-77724500D03*
X132461500Y-75184500D03*
X129921500Y-77724500D03*
X129921500Y-75184500D03*
X126746500Y-80899500D03*
X126746500Y-72009500D03*
%TD*%
%TO.N,GND*%
%TO.C,FL2*%
X135636000Y-112903000D03*
X135636000Y-104013000D03*
X132461000Y-109728000D03*
X132461000Y-107188000D03*
X129921000Y-109728000D03*
X129921000Y-107188000D03*
X126746000Y-112903000D03*
X126746000Y-104013000D03*
%TD*%
D12*
%TO.N,VDD*%
%TO.C,J3*%
X78994500Y-80010500D03*
D13*
%TO.N,GND*%
X78994500Y-85090500D03*
%TO.N,VEE*%
X78994500Y-90170500D03*
%TD*%
D14*
%TO.N,VDD*%
X105918500Y-129039000D03*
X107188500Y-64643500D03*
X105354500Y-97033500D03*
X88392500Y-85852500D03*
X92329500Y-89662500D03*
%TO.N,GND*%
X201224000Y-117223000D03*
X98806500Y-91313500D03*
X106426500Y-132461500D03*
X129286500Y-130937500D03*
X98806500Y-77597500D03*
X193675500Y-86868500D03*
X169672500Y-131699500D03*
X135311000Y-114556000D03*
X101854500Y-101981500D03*
X213868500Y-131699500D03*
X157607500Y-73025500D03*
X141859500Y-83312500D03*
X172720500Y-99695500D03*
X100330500Y-95885500D03*
X214630500Y-71501500D03*
X140716500Y-67691500D03*
X213106500Y-118745500D03*
X100330500Y-82169500D03*
X107950500Y-100457500D03*
X157607500Y-80645500D03*
X101092500Y-105791500D03*
X120142500Y-68453500D03*
X143383000Y-117094000D03*
X141478500Y-68453500D03*
X110998500Y-132461500D03*
X108712500Y-99695500D03*
X116840500Y-107188500D03*
X91948500Y-121031500D03*
X191770500Y-132461500D03*
X162052500Y-99695500D03*
X130810500Y-132461500D03*
X102616500Y-93599500D03*
X187960500Y-67691500D03*
X139192500Y-67691500D03*
X207010500Y-68453500D03*
X181102500Y-132461500D03*
X182499000Y-107569000D03*
X191770500Y-100457500D03*
X135382500Y-66929500D03*
X139192500Y-99695500D03*
X103378500Y-89789500D03*
X101854500Y-82169500D03*
X99568500Y-98171500D03*
X184912500Y-99695500D03*
X107950500Y-68453500D03*
X133096500Y-99695500D03*
X112522500Y-66929500D03*
X149860500Y-99695500D03*
X213868500Y-127127500D03*
X116840500Y-108458500D03*
X101854500Y-88265500D03*
X143764500Y-131699500D03*
X154432500Y-131699500D03*
X114173000Y-109474000D03*
X126238500Y-98933500D03*
X138430500Y-66929500D03*
X101854500Y-114173500D03*
X207772500Y-131699500D03*
X197104000Y-102870000D03*
X156718500Y-100457500D03*
X98044500Y-101219500D03*
X214630500Y-68453500D03*
X213106500Y-86741500D03*
X214630500Y-114173500D03*
X181102500Y-66929500D03*
X99568500Y-108839500D03*
X102616500Y-105791500D03*
X197866500Y-66929500D03*
X97282500Y-101981500D03*
X170434500Y-132461500D03*
X159004500Y-131699500D03*
X102616500Y-116459500D03*
X100330500Y-111125500D03*
X126238500Y-68453500D03*
X196342500Y-132461500D03*
X127762500Y-130937500D03*
X115570500Y-132461500D03*
X92710500Y-121793500D03*
X207010500Y-130937500D03*
X159766500Y-132461500D03*
X157607000Y-115062000D03*
X214630500Y-132461500D03*
X95758500Y-114173500D03*
X148336500Y-131699500D03*
X193294500Y-132461500D03*
X213106500Y-66929500D03*
X170434500Y-66929500D03*
X212344500Y-131699500D03*
X194945000Y-102870000D03*
X168148500Y-99695500D03*
X123190500Y-98933500D03*
X101854500Y-100457500D03*
X213106500Y-80645500D03*
X144526500Y-100457500D03*
X179578500Y-100457500D03*
X177292500Y-67691500D03*
X182499500Y-75565500D03*
X103378500Y-92837500D03*
X153289000Y-101600000D03*
X98044500Y-114935500D03*
X97282500Y-121793500D03*
X213868500Y-96647500D03*
X152146500Y-132461500D03*
X106426500Y-100457500D03*
X97282500Y-117221500D03*
X118618500Y-66929500D03*
X194945500Y-70866500D03*
X91186500Y-121793500D03*
X121666500Y-66929500D03*
X98044500Y-116459500D03*
X101854500Y-103505500D03*
X120142500Y-132461500D03*
X101854500Y-89789500D03*
X131572500Y-131699500D03*
X154488500Y-92585500D03*
X161290500Y-100457500D03*
X174244500Y-131699500D03*
X118618500Y-132461500D03*
X185674500Y-130937500D03*
X100330500Y-97409500D03*
X213868500Y-108839500D03*
X198247500Y-77216500D03*
X209296500Y-67691500D03*
X210058500Y-98933500D03*
X214630500Y-85217500D03*
X101854500Y-105029500D03*
X109474500Y-100457500D03*
X153670500Y-66929500D03*
X187960500Y-131699500D03*
X99568500Y-96647500D03*
X103378500Y-121793500D03*
X98806500Y-88265500D03*
X149098500Y-98933500D03*
X136906500Y-68453500D03*
X203962500Y-98933500D03*
X89662500Y-114173500D03*
X101854500Y-108077500D03*
X179578500Y-66929500D03*
X114046500Y-98933500D03*
X178054500Y-68453500D03*
X113284500Y-131699500D03*
X150622500Y-132461500D03*
X154940000Y-117094000D03*
X96520500Y-104267500D03*
X159766500Y-130937500D03*
X132334500Y-132461500D03*
X164338500Y-68453500D03*
X181102500Y-130937500D03*
X120904500Y-99695500D03*
X210058500Y-100457500D03*
X213106500Y-68453500D03*
X116459000Y-102108000D03*
X200914500Y-132461500D03*
X130810500Y-98933500D03*
X158242500Y-66929500D03*
X104140500Y-67691500D03*
X149098500Y-66929500D03*
X200914500Y-130937500D03*
X183444500Y-93728500D03*
X103378500Y-100457500D03*
X143764500Y-67691500D03*
X176530500Y-68453500D03*
X158242500Y-130937500D03*
X120142500Y-130937500D03*
X133096500Y-131699500D03*
X102616500Y-87503500D03*
X106426500Y-66929500D03*
X174244500Y-67691500D03*
X213868500Y-102743500D03*
X214630500Y-115697500D03*
X213106500Y-77597500D03*
X167315000Y-108460000D03*
X131572500Y-67691500D03*
X89662500Y-120269500D03*
X152908500Y-67691500D03*
X99568500Y-79883500D03*
X127762500Y-132461500D03*
X127437500Y-82425500D03*
X114991500Y-89537500D03*
X110998500Y-130937500D03*
X191770500Y-98933500D03*
X92710500Y-114173500D03*
X210058500Y-68453500D03*
X141478500Y-100457500D03*
X115697500Y-78486500D03*
X213106500Y-127889500D03*
X97282500Y-120269500D03*
X99568500Y-89027500D03*
X101854500Y-80645500D03*
X102616500Y-131699500D03*
X185674500Y-98933500D03*
X187960500Y-99695500D03*
X168910500Y-98933500D03*
X214630500Y-77597500D03*
X98806500Y-89789500D03*
X123190500Y-100457500D03*
X118618500Y-98933500D03*
X197104500Y-70866500D03*
X186309500Y-86868500D03*
X213106500Y-123317500D03*
X161290500Y-66929500D03*
X178054500Y-66929500D03*
X127762500Y-98933500D03*
X189484500Y-131699500D03*
X127000500Y-99695500D03*
X145288500Y-99695500D03*
X214630500Y-86741500D03*
X108712500Y-67691500D03*
X99568500Y-110363500D03*
X103378500Y-83693500D03*
X100330500Y-92837500D03*
X95758500Y-109601500D03*
X205486500Y-68453500D03*
X95758500Y-118745500D03*
X139192500Y-131699500D03*
X213106500Y-98933500D03*
X159766500Y-66929500D03*
X90043500Y-118237500D03*
X165100500Y-131699500D03*
X164338500Y-66929500D03*
X139954500Y-130937500D03*
X95758500Y-120269500D03*
X175189500Y-90172500D03*
X175768500Y-67691500D03*
X143566500Y-93728500D03*
X147574500Y-100457500D03*
X182626500Y-68453500D03*
X117094500Y-98933500D03*
X211582500Y-130937500D03*
X102616500Y-111887500D03*
X213106500Y-69977500D03*
X124008000Y-120779000D03*
X117856500Y-131699500D03*
X133858500Y-100457500D03*
X207772500Y-67691500D03*
X103378500Y-97409500D03*
X213106500Y-100457500D03*
X175006500Y-100457500D03*
X192405500Y-70866500D03*
X214630500Y-95885500D03*
X99568500Y-116459500D03*
X102616500Y-92075500D03*
X195580500Y-99695500D03*
X213868500Y-92075500D03*
X139954500Y-100457500D03*
X213106500Y-115697500D03*
X101854500Y-77597500D03*
X117094500Y-132461500D03*
X92710500Y-120269500D03*
X124714500Y-130937500D03*
X116332500Y-131699500D03*
X135382500Y-132461500D03*
X208534500Y-100457500D03*
X165862500Y-98933500D03*
X131247500Y-70487500D03*
X113213500Y-91061500D03*
X203962500Y-132461500D03*
X127762500Y-100457500D03*
X104140500Y-131699500D03*
X100330500Y-89789500D03*
X134620500Y-99695500D03*
X104902500Y-66929500D03*
X81788500Y-107569500D03*
X103378500Y-115697500D03*
X123190500Y-132461500D03*
X114046500Y-66929500D03*
X187198500Y-68453500D03*
X155194500Y-68453500D03*
X101854500Y-112649500D03*
X103378500Y-101981500D03*
X159004500Y-67691500D03*
X162814500Y-98933500D03*
X197866500Y-68453500D03*
X122428500Y-67691500D03*
X100330500Y-100457500D03*
X158242500Y-132461500D03*
X121666500Y-132461500D03*
X213106500Y-79121500D03*
X167386500Y-68453500D03*
X166624500Y-99695500D03*
X99568500Y-121031500D03*
X182499000Y-105283000D03*
X164338500Y-132461500D03*
X160528500Y-99695500D03*
X124714500Y-66929500D03*
X151384500Y-131699500D03*
X86995500Y-131699500D03*
X98806500Y-105029500D03*
X159004500Y-99695500D03*
X213868500Y-111887500D03*
X196342500Y-68453500D03*
X148336000Y-101600000D03*
X182499000Y-102870000D03*
X187198500Y-130937500D03*
X213868500Y-93599500D03*
X213106500Y-114173500D03*
X103378500Y-105029500D03*
X198247000Y-106680000D03*
X196342500Y-130937500D03*
X206248500Y-99695500D03*
X114681500Y-97164500D03*
X98806500Y-83693500D03*
X213868500Y-95123500D03*
X117094500Y-100457500D03*
X91948500Y-114935500D03*
X139954500Y-66929500D03*
X107188500Y-99695500D03*
X144526500Y-98933500D03*
X81407500Y-124587500D03*
X126238500Y-132461500D03*
X170434500Y-100457500D03*
X155194500Y-98933500D03*
X95758500Y-108077500D03*
X183388500Y-99695500D03*
X186436500Y-99695500D03*
X107950500Y-130937500D03*
X101854500Y-118745500D03*
X101854500Y-97409500D03*
X109474500Y-66929500D03*
X182372500Y-85344500D03*
X116332500Y-67691500D03*
X103378500Y-118745500D03*
X202438500Y-98933500D03*
X100330500Y-117221500D03*
X147574500Y-98933500D03*
X111760500Y-99695500D03*
X213106500Y-121793500D03*
X184912500Y-67691500D03*
X103378500Y-88265500D03*
X149098500Y-68453500D03*
X102616500Y-130175500D03*
X93091500Y-101346500D03*
X99568500Y-95123500D03*
X120142500Y-98933500D03*
X126238500Y-100457500D03*
X129286500Y-68453500D03*
X104902500Y-68453500D03*
X198247000Y-109220000D03*
X115570500Y-100457500D03*
X101854500Y-109601500D03*
X193294500Y-100457500D03*
X146050500Y-98933500D03*
X155194500Y-132461500D03*
X200716000Y-108333000D03*
X175006500Y-66929500D03*
X100330500Y-86741500D03*
X188722500Y-130937500D03*
X212344500Y-99695500D03*
X124714500Y-132461500D03*
X142240500Y-99695500D03*
X117094500Y-68453500D03*
X108204500Y-82423500D03*
X107950500Y-132461500D03*
X187198500Y-66929500D03*
X213106500Y-108077500D03*
X153218500Y-89918500D03*
X103378500Y-123317500D03*
X105664500Y-99695500D03*
X200914500Y-98933500D03*
X93472500Y-113411500D03*
X143002500Y-98933500D03*
X193294500Y-68453500D03*
X138430500Y-132461500D03*
X205486500Y-98933500D03*
X184150500Y-66929500D03*
X166624500Y-67691500D03*
X101854500Y-106553500D03*
X98806500Y-97409500D03*
X90424500Y-121031500D03*
X201224500Y-85219500D03*
X117094500Y-66929500D03*
X203200500Y-131699500D03*
X173482500Y-98933500D03*
X98806500Y-85217500D03*
X165100500Y-99695500D03*
X98806500Y-101981500D03*
X213868500Y-114935500D03*
X123952500Y-67691500D03*
X103378500Y-117221500D03*
X161290500Y-68453500D03*
X186436500Y-67691500D03*
X214630500Y-109601500D03*
X98806500Y-115697500D03*
X214630500Y-127889500D03*
X115697000Y-110490000D03*
X211582500Y-68453500D03*
X138430500Y-100457500D03*
X167315000Y-114810000D03*
X192532500Y-67691500D03*
X214630500Y-91313500D03*
X117856500Y-67691500D03*
X98806500Y-118745500D03*
X114808500Y-99695500D03*
X96520500Y-113411500D03*
X99568500Y-73787500D03*
X101854500Y-85217500D03*
X168910500Y-130937500D03*
X182499500Y-73279500D03*
X115570500Y-68453500D03*
X141859500Y-74041500D03*
X141478500Y-66929500D03*
X164338500Y-100457500D03*
X205486500Y-100457500D03*
X210058500Y-66929500D03*
X123190500Y-66929500D03*
X192532500Y-99695500D03*
X185674500Y-100457500D03*
X118618500Y-68453500D03*
X175006500Y-98933500D03*
X159766500Y-98933500D03*
X99568500Y-87503500D03*
X187325000Y-102870000D03*
X99568500Y-90551500D03*
X101854500Y-126365500D03*
X213868500Y-110363500D03*
X213868500Y-81407500D03*
X110998500Y-100457500D03*
X128524500Y-67691500D03*
X148336500Y-69596500D03*
X100330500Y-103505500D03*
X143002500Y-132461500D03*
X102616500Y-102743500D03*
X188722500Y-132461500D03*
X94996500Y-113411500D03*
X213106500Y-129413500D03*
X99568500Y-114935500D03*
X96520500Y-107315500D03*
X168910500Y-68453500D03*
X155194500Y-66929500D03*
X99568500Y-101219500D03*
X187198500Y-100457500D03*
X169672500Y-67691500D03*
X137470500Y-89156500D03*
X213868500Y-113411500D03*
X131572500Y-99695500D03*
X177292500Y-131699500D03*
X156718500Y-98933500D03*
X202438500Y-68453500D03*
X133858500Y-68453500D03*
X181864500Y-99695500D03*
X213106500Y-109601500D03*
X98806500Y-114173500D03*
X95758500Y-105029500D03*
X103378500Y-86741500D03*
X132334500Y-68453500D03*
X153670500Y-68453500D03*
X144526500Y-130937500D03*
X162814500Y-130937500D03*
X148336500Y-67691500D03*
X101854500Y-129413500D03*
X167315500Y-76456500D03*
X199390500Y-66929500D03*
X101854500Y-132461500D03*
X213868500Y-116459500D03*
X207772500Y-99695500D03*
X171958500Y-130937500D03*
X171958500Y-132461500D03*
X153670500Y-130937500D03*
X154432500Y-99695500D03*
X157607000Y-107569000D03*
X189865000Y-102870000D03*
X204724500Y-99695500D03*
X213106500Y-106553500D03*
X139954500Y-68453500D03*
X124008500Y-88775500D03*
X141859500Y-80899500D03*
X172720500Y-67691500D03*
X191770500Y-66929500D03*
X171196500Y-131699500D03*
X94234500Y-118745500D03*
X125151000Y-110365000D03*
X99568500Y-84455500D03*
X214630500Y-101981500D03*
X204724500Y-131699500D03*
X145979000Y-117096000D03*
X150622500Y-130937500D03*
X103378500Y-112649500D03*
X175189000Y-122176000D03*
X146050500Y-66929500D03*
X144526500Y-132461500D03*
X101854500Y-92837500D03*
X179578500Y-132461500D03*
X146050500Y-132461500D03*
X161290500Y-98933500D03*
X212344500Y-67691500D03*
X143002500Y-130937500D03*
X162814500Y-66929500D03*
X214630500Y-121793500D03*
X118618500Y-130937500D03*
X213106500Y-126365500D03*
X197866500Y-100457500D03*
X183444000Y-125732000D03*
X195580500Y-131699500D03*
X102616500Y-78359500D03*
X145288500Y-67691500D03*
X110236500Y-67691500D03*
X102616500Y-82931500D03*
X214630500Y-76073500D03*
X136906500Y-98933500D03*
X135382500Y-130937500D03*
X214630500Y-106553500D03*
X214630500Y-105029500D03*
X103378500Y-132461500D03*
X194818500Y-132461500D03*
X121666500Y-98933500D03*
X107950500Y-66929500D03*
X191770500Y-130937500D03*
X112522500Y-98933500D03*
X143383500Y-85090500D03*
X167315500Y-82806500D03*
X185674500Y-132461500D03*
X165862500Y-130937500D03*
X102616500Y-76835500D03*
X109982000Y-102108000D03*
X96520500Y-108839500D03*
X183388500Y-131699500D03*
X98806500Y-106553500D03*
X164338500Y-98933500D03*
X102616500Y-99695500D03*
X200152500Y-99695500D03*
X200914500Y-100457500D03*
X103378500Y-106553500D03*
X152146500Y-130937500D03*
X170434500Y-68453500D03*
X103378500Y-69977500D03*
X103378500Y-71501500D03*
X103378500Y-73025500D03*
X175768500Y-99695500D03*
X210820500Y-99695500D03*
X174244500Y-99695500D03*
X154432500Y-67691500D03*
X100330500Y-98933500D03*
X95758500Y-115697500D03*
X200914500Y-68453500D03*
X97282500Y-106553500D03*
X157480500Y-99695500D03*
X148336500Y-99695500D03*
X190246500Y-98933500D03*
X102616500Y-124079500D03*
X99568500Y-111887500D03*
X95758500Y-106553500D03*
X213868500Y-67691500D03*
X213106500Y-124841500D03*
X175768500Y-131699500D03*
X140716500Y-99695500D03*
X102616500Y-121031500D03*
X213868500Y-125603500D03*
X91186500Y-114173500D03*
X213106500Y-132461500D03*
X130048500Y-99695500D03*
X203200500Y-67691500D03*
X153670500Y-132461500D03*
X173482500Y-68453500D03*
X124714500Y-68453500D03*
X136144500Y-67691500D03*
X214630500Y-129413500D03*
X213106500Y-71501500D03*
X190246500Y-130937500D03*
X208534500Y-66929500D03*
X165862500Y-66929500D03*
X98806500Y-98933500D03*
X149098500Y-100457500D03*
X209296500Y-99695500D03*
X183515500Y-86868500D03*
X95758500Y-112649500D03*
X213868500Y-84455500D03*
X189484500Y-67691500D03*
X98806500Y-92837500D03*
X135382500Y-68453500D03*
X177292500Y-99695500D03*
X120142500Y-100457500D03*
X207010500Y-100457500D03*
X157607500Y-75565500D03*
X182499500Y-70866500D03*
X213106500Y-74549500D03*
X100330500Y-76073500D03*
X213106500Y-95885500D03*
X214630500Y-124841500D03*
X147574500Y-66929500D03*
X181102500Y-98933500D03*
X91186500Y-112649500D03*
X103378500Y-120269500D03*
X213106500Y-105029500D03*
X139954500Y-98933500D03*
X213106500Y-92837500D03*
X101854500Y-120269500D03*
X199390500Y-132461500D03*
X177094500Y-75567500D03*
X199390500Y-100457500D03*
X146812500Y-131699500D03*
X99568500Y-113411500D03*
X106863000Y-115826000D03*
X101854500Y-111125500D03*
X101854500Y-69977500D03*
X137470000Y-121160000D03*
X107950500Y-98933500D03*
X95758500Y-103505500D03*
X101854500Y-95885500D03*
X170561000Y-126619000D03*
X171196500Y-67691500D03*
X106426500Y-98933500D03*
X133096500Y-67691500D03*
X214630500Y-69977500D03*
X201676500Y-67691500D03*
X106426500Y-68453500D03*
X110236500Y-131699500D03*
X150622500Y-98933500D03*
X163576500Y-99695500D03*
X171196500Y-99695500D03*
X137668500Y-67691500D03*
X168148500Y-131699500D03*
X100330500Y-105029500D03*
X102616500Y-84455500D03*
X152146500Y-98933500D03*
X185674500Y-66929500D03*
X98806500Y-95885500D03*
X161290500Y-130937500D03*
X103378500Y-85217500D03*
X101854500Y-130937500D03*
X173482500Y-132461500D03*
X201676500Y-99695500D03*
X102616500Y-122555500D03*
X102616500Y-95123500D03*
X114173500Y-77470500D03*
X103378500Y-66929500D03*
X153218000Y-121922000D03*
X167386500Y-66929500D03*
X99568500Y-82931500D03*
X156718500Y-130937500D03*
X165862500Y-132461500D03*
X178054500Y-130937500D03*
X199390500Y-68453500D03*
X102616500Y-101219500D03*
X141859000Y-106045000D03*
X103378500Y-77597500D03*
X206248500Y-131699500D03*
X109474500Y-132461500D03*
X119761500Y-74676500D03*
X182372000Y-113030000D03*
X99568500Y-92075500D03*
X125476500Y-131699500D03*
X165862500Y-100457500D03*
X114046500Y-100457500D03*
X194818500Y-68453500D03*
X165100500Y-67691500D03*
X141478500Y-130937500D03*
X103378500Y-109601500D03*
X136906500Y-66929500D03*
X98044500Y-117983500D03*
X125151500Y-78361500D03*
X188722500Y-98933500D03*
X213106500Y-88265500D03*
X196342500Y-100457500D03*
X180340500Y-99695500D03*
X100330500Y-121793500D03*
X213106500Y-103505500D03*
X173482500Y-130937500D03*
X98044500Y-121031500D03*
X178816500Y-99695500D03*
X171958500Y-68453500D03*
X147574500Y-130937500D03*
X142240500Y-67691500D03*
X99568500Y-117983500D03*
X129286500Y-66929500D03*
X214630500Y-120269500D03*
X103378500Y-68453500D03*
X179578500Y-98933500D03*
X185674500Y-68453500D03*
X94996500Y-121031500D03*
X213868500Y-130175500D03*
X151384500Y-67691500D03*
X213106500Y-91313500D03*
X120142500Y-66929500D03*
X96520500Y-116459500D03*
X189865500Y-70866500D03*
X155194500Y-100457500D03*
X213106500Y-85217500D03*
X213868500Y-90551500D03*
X94234500Y-120269500D03*
X207010500Y-66929500D03*
X135311500Y-82552500D03*
X167386500Y-100457500D03*
X213106500Y-82169500D03*
X99568500Y-99695500D03*
X202438500Y-66929500D03*
X138430500Y-98933500D03*
X182626500Y-132461500D03*
X121666500Y-100457500D03*
X214630500Y-108077500D03*
X145669000Y-101600000D03*
X176530500Y-130937500D03*
X110998500Y-66929500D03*
X101854500Y-127889500D03*
X209296500Y-131699500D03*
X188722500Y-68453500D03*
X133858500Y-66929500D03*
X214630500Y-117221500D03*
X178816500Y-131699500D03*
X102616500Y-125603500D03*
X95758500Y-117221500D03*
X208534500Y-98933500D03*
X210820500Y-67691500D03*
X214630500Y-103505500D03*
X208534500Y-132461500D03*
X150622500Y-68453500D03*
X104902500Y-130937500D03*
X137668500Y-131699500D03*
X100330500Y-73025500D03*
X152908500Y-131699500D03*
X163576500Y-131699500D03*
X184150500Y-68453500D03*
X166624500Y-131699500D03*
X146812500Y-99695500D03*
X99568500Y-78359500D03*
X213868500Y-98171500D03*
X96520500Y-111887500D03*
X103378500Y-79121500D03*
X156718500Y-66929500D03*
X213868500Y-73787500D03*
X203962500Y-130937500D03*
X116840500Y-75184500D03*
X127437000Y-114429000D03*
X90424500Y-114935500D03*
X97282500Y-105029500D03*
X98044500Y-99695500D03*
X203962500Y-68453500D03*
X160528500Y-131699500D03*
X214630500Y-112649500D03*
X194056500Y-131699500D03*
X127762500Y-68453500D03*
X176530500Y-132461500D03*
X197104500Y-131699500D03*
X102616500Y-67691500D03*
X207010500Y-98933500D03*
X191770500Y-68453500D03*
X103378500Y-108077500D03*
X97282500Y-111125500D03*
X114046500Y-130937500D03*
X101854500Y-79121500D03*
X203962500Y-66929500D03*
X102616500Y-73787500D03*
X193294500Y-98933500D03*
X175570500Y-75567500D03*
X150622500Y-100457500D03*
X114046500Y-68453500D03*
X112522500Y-132461500D03*
X157480500Y-67691500D03*
X133858500Y-132461500D03*
X197866500Y-130937500D03*
X113284500Y-67691500D03*
X108712500Y-131699500D03*
X127000500Y-67691500D03*
X137470000Y-110365000D03*
X97282500Y-103505500D03*
X112522500Y-100457500D03*
X101854500Y-86741500D03*
X101854500Y-66929500D03*
X99568500Y-105791500D03*
X213868500Y-104267500D03*
X178816500Y-67691500D03*
X141478500Y-132461500D03*
X152583500Y-85092500D03*
X101854500Y-91313500D03*
X94996500Y-111887500D03*
X132334500Y-98933500D03*
X102616500Y-108839500D03*
X109474500Y-68453500D03*
X183388500Y-67691500D03*
X214630500Y-74549500D03*
X136906500Y-132461500D03*
X101854500Y-83693500D03*
X182372000Y-117348000D03*
X112522500Y-68453500D03*
X213868500Y-69215500D03*
X162814500Y-68453500D03*
X102616500Y-128651500D03*
X198247500Y-82042500D03*
X184150500Y-132461500D03*
X123952500Y-131699500D03*
X127000500Y-131699500D03*
X102616500Y-113411500D03*
X213868500Y-101219500D03*
X92710500Y-117221500D03*
X121666500Y-130937500D03*
X99568500Y-93599500D03*
X210058500Y-132461500D03*
X204724500Y-67691500D03*
X179578500Y-68453500D03*
X130810500Y-66929500D03*
X213868500Y-107315500D03*
X184150500Y-130937500D03*
X211582500Y-98933500D03*
X198247000Y-114046000D03*
X213106500Y-83693500D03*
X98806500Y-109601500D03*
X181864500Y-67691500D03*
X114681000Y-129168000D03*
X122428500Y-99695500D03*
X170561500Y-94615500D03*
X95758500Y-121793500D03*
X86614500Y-116459500D03*
X180340500Y-67691500D03*
X121285500Y-74549500D03*
X96520500Y-105791500D03*
X134620500Y-67691500D03*
X101092500Y-119507500D03*
X98806500Y-121793500D03*
X121285000Y-106553000D03*
X103378500Y-91313500D03*
X98806500Y-111125500D03*
X129286500Y-98933500D03*
X97282500Y-131445500D03*
X145669500Y-69596500D03*
X184785500Y-70866500D03*
X141859000Y-112903000D03*
X146050500Y-100457500D03*
X96520500Y-102743500D03*
X130048500Y-67691500D03*
X136144500Y-99695500D03*
X213868500Y-85979500D03*
X132334500Y-100457500D03*
X213106500Y-97409500D03*
X213868500Y-70739500D03*
X202438500Y-130937500D03*
X100330500Y-120269500D03*
X130810500Y-68453500D03*
X200716500Y-76329500D03*
X194818500Y-100457500D03*
X144526500Y-66929500D03*
X153670500Y-100457500D03*
X146812500Y-67691500D03*
X95758500Y-101981500D03*
X184150500Y-100457500D03*
X103378500Y-114173500D03*
X101854500Y-68453500D03*
X175006500Y-130937500D03*
X196342500Y-66929500D03*
X152146500Y-100457500D03*
X100330500Y-83693500D03*
X104902500Y-132461500D03*
X165862500Y-68453500D03*
X149860500Y-131699500D03*
X138430500Y-130937500D03*
X214630500Y-82169500D03*
X213868500Y-76835500D03*
X168910500Y-132461500D03*
X103378500Y-127889500D03*
X86741500Y-99441500D03*
X187198000Y-127762000D03*
X117094500Y-130937500D03*
X101854500Y-124841500D03*
X153289500Y-69596500D03*
X123190500Y-68453500D03*
X103378500Y-74549500D03*
X139954500Y-132461500D03*
X213106500Y-117221500D03*
X121666500Y-68453500D03*
X133858500Y-98933500D03*
X194056500Y-99695500D03*
X122428500Y-131699500D03*
X211582500Y-132461500D03*
X187198500Y-132461500D03*
X214630500Y-88265500D03*
X125024500Y-74424500D03*
X188722500Y-100457500D03*
X101854500Y-71501500D03*
X98806500Y-112649500D03*
X115570500Y-130937500D03*
X114808500Y-67691500D03*
X162814500Y-132461500D03*
X213106500Y-89789500D03*
X175006500Y-68453500D03*
X96520500Y-110363500D03*
X213868500Y-119507500D03*
X102616500Y-72263500D03*
X162052500Y-67691500D03*
X193294500Y-130937500D03*
X86741500Y-70739500D03*
X177094000Y-107571000D03*
X213106500Y-120269500D03*
X163576000Y-114935000D03*
X181102500Y-100457500D03*
X137216000Y-106428000D03*
X102616500Y-90551500D03*
X213106500Y-112649500D03*
X145288500Y-131699500D03*
X198247500Y-74676500D03*
X145979500Y-85092500D03*
X149098500Y-132461500D03*
X200914500Y-66929500D03*
X213868500Y-105791500D03*
X195580500Y-67691500D03*
X137470500Y-78361500D03*
X197104500Y-67691500D03*
X130810500Y-100457500D03*
X210241500Y-76202500D03*
X96520500Y-117983500D03*
X160782500Y-90043500D03*
X211582500Y-100457500D03*
X190246500Y-132461500D03*
X128524500Y-99695500D03*
X114991000Y-121541000D03*
X170434500Y-98933500D03*
X99568500Y-81407500D03*
X127762500Y-66929500D03*
X152908500Y-99695500D03*
X106426500Y-130937500D03*
X186436500Y-131699500D03*
X103378500Y-111125500D03*
X144526500Y-68453500D03*
X102616500Y-117983500D03*
X180340500Y-131699500D03*
X178054500Y-132461500D03*
X196342500Y-98933500D03*
X102616500Y-85979500D03*
X199390500Y-98933500D03*
X90043500Y-116967500D03*
X214630500Y-100457500D03*
X164338500Y-130937500D03*
X115570500Y-98933500D03*
X98806500Y-94361500D03*
X213868500Y-89027500D03*
X214630500Y-94361500D03*
X143002500Y-68453500D03*
X98806500Y-76073500D03*
X110998500Y-98933500D03*
X102616500Y-96647500D03*
X194818500Y-66929500D03*
X126238500Y-66929500D03*
X86614500Y-118110500D03*
X102616500Y-69215500D03*
X213868500Y-82931500D03*
X187198500Y-95758500D03*
X213868500Y-87503500D03*
X102616500Y-104267500D03*
X119380500Y-67691500D03*
X123190500Y-130937500D03*
X96520500Y-101219500D03*
X214630500Y-118745500D03*
X119560790Y-106960895D03*
X141859000Y-110617000D03*
X213868500Y-117983500D03*
X129286500Y-100457500D03*
X100330500Y-91313500D03*
X103378500Y-124841500D03*
X103378500Y-130937500D03*
X110236500Y-99695500D03*
X102616500Y-81407500D03*
X213868500Y-75311500D03*
X125024000Y-106428000D03*
X198247500Y-72644500D03*
X92710500Y-112649500D03*
X205486500Y-132461500D03*
X94234500Y-121793500D03*
X199390500Y-130937500D03*
X142240500Y-131699500D03*
X198247000Y-104648000D03*
X186309000Y-118872000D03*
X152146500Y-66929500D03*
X171958500Y-98933500D03*
X214630500Y-98933500D03*
X155194500Y-130937500D03*
X152146500Y-68453500D03*
X190754500Y-86868500D03*
X91948500Y-113411500D03*
X178054500Y-98933500D03*
X214630500Y-89789500D03*
X103378500Y-129413500D03*
X182626500Y-130937500D03*
X133858500Y-130937500D03*
X97282500Y-109601500D03*
X214630500Y-66929500D03*
X101092500Y-73787500D03*
X213106500Y-76073500D03*
X197104500Y-99695500D03*
X119380500Y-99695500D03*
X162814500Y-100457500D03*
X98806500Y-82169500D03*
X109982500Y-70104500D03*
X109474500Y-98933500D03*
X129286500Y-132461500D03*
X182626500Y-100457500D03*
X101854500Y-123317500D03*
X184150500Y-98933500D03*
X102616500Y-127127500D03*
X160528500Y-67691500D03*
X104902500Y-98933500D03*
X90424500Y-113411500D03*
X116388500Y-73154500D03*
X193294500Y-66929500D03*
X91186500Y-120269500D03*
X136906500Y-130937500D03*
X176530500Y-100457500D03*
X103378500Y-80645500D03*
X100330500Y-114173500D03*
X157607000Y-112649000D03*
X191008500Y-99695500D03*
X138430500Y-68453500D03*
X100330500Y-112649500D03*
X97282500Y-100457500D03*
X175006500Y-132461500D03*
X98806500Y-74549500D03*
X214630500Y-97409500D03*
X103378500Y-98933500D03*
X156718500Y-68453500D03*
X101092500Y-104267500D03*
X101854500Y-117221500D03*
X214630500Y-92837500D03*
X116388000Y-105158000D03*
X159766500Y-68453500D03*
X131247000Y-102491000D03*
X167386500Y-130937500D03*
X182626500Y-66929500D03*
X198628500Y-67691500D03*
X103378500Y-76073500D03*
X114808500Y-131699500D03*
X210241000Y-108206000D03*
X200152500Y-67691500D03*
X94234500Y-115697500D03*
X160782000Y-122047000D03*
X170434500Y-130937500D03*
X116332500Y-99695500D03*
X102616500Y-110363500D03*
X102616500Y-98171500D03*
X100330500Y-74549500D03*
X156718500Y-132461500D03*
X207010500Y-132461500D03*
X124714500Y-100457500D03*
X98044500Y-102743500D03*
X213868500Y-128651500D03*
X125476500Y-99695500D03*
X198628500Y-99695500D03*
X100330500Y-80645500D03*
X101092500Y-75311500D03*
X97282500Y-108077500D03*
X168910500Y-66929500D03*
X98806500Y-86741500D03*
X167386500Y-132461500D03*
X213868500Y-78359500D03*
X179578500Y-130937500D03*
X213868500Y-122555500D03*
X190246500Y-100457500D03*
X176530500Y-66929500D03*
X132334500Y-130937500D03*
X99568500Y-104267500D03*
X194818500Y-130937500D03*
X118618500Y-100457500D03*
X123952500Y-99695500D03*
X214630500Y-130937500D03*
X101092500Y-121031500D03*
X176530500Y-98933500D03*
X94234500Y-117221500D03*
X182372500Y-83185500D03*
X154940500Y-85090500D03*
X155956500Y-131699500D03*
X120904500Y-67691500D03*
X214630500Y-83693500D03*
X172720500Y-131699500D03*
X191008500Y-67691500D03*
X89662500Y-112649500D03*
X205486500Y-66929500D03*
X94234500Y-114173500D03*
X98806500Y-108077500D03*
X178054500Y-100457500D03*
X149860500Y-67691500D03*
X124714500Y-98933500D03*
X99568500Y-75311500D03*
X167386500Y-98933500D03*
X119380500Y-131699500D03*
X175570000Y-107571000D03*
X97282500Y-115697500D03*
X203962500Y-100457500D03*
X205486500Y-130937500D03*
X137216500Y-74424500D03*
X99568500Y-107315500D03*
X113213000Y-123065000D03*
X102616500Y-70739500D03*
X181864500Y-131699500D03*
X158242500Y-100457500D03*
X103378500Y-103505500D03*
X147574500Y-132461500D03*
X202438500Y-132461500D03*
X149098500Y-130937500D03*
X134620500Y-131699500D03*
X103378500Y-82169500D03*
X202438500Y-100457500D03*
X100330500Y-79121500D03*
X109474500Y-130937500D03*
X194818500Y-98933500D03*
X103378500Y-95885500D03*
X116459500Y-70104500D03*
X162052500Y-131699500D03*
X190246500Y-66929500D03*
X173482500Y-100457500D03*
X101092500Y-102743500D03*
X198247500Y-84582500D03*
X102616500Y-79883500D03*
X151384500Y-99695500D03*
X213106500Y-111125500D03*
X121595500Y-83822500D03*
X187198500Y-98933500D03*
X100330500Y-109601500D03*
X150622500Y-66929500D03*
X103378500Y-94361500D03*
X158242500Y-68453500D03*
X98806500Y-120269500D03*
X192532500Y-131699500D03*
X192405000Y-102870000D03*
X163576500Y-82931500D03*
X157480500Y-131699500D03*
X188722500Y-66929500D03*
X213868500Y-99695500D03*
X120904500Y-131699500D03*
X213868500Y-72263500D03*
X208534500Y-130937500D03*
X115570500Y-66929500D03*
X101854500Y-74549500D03*
X184912500Y-131699500D03*
X194056500Y-67691500D03*
X100330500Y-88265500D03*
X113284500Y-99695500D03*
X214630500Y-123317500D03*
X104140500Y-99695500D03*
X210058500Y-130937500D03*
X94996500Y-116459500D03*
X125476500Y-67691500D03*
X141859500Y-78613500D03*
X101854500Y-94361500D03*
X143002500Y-100457500D03*
X93472500Y-116459500D03*
X98806500Y-79121500D03*
X137668500Y-99695500D03*
X102616500Y-114935500D03*
X213106500Y-130937500D03*
X214630500Y-80645500D03*
X93472500Y-121031500D03*
X100330500Y-77597500D03*
X187325500Y-70866500D03*
X95758500Y-111125500D03*
X141478500Y-98933500D03*
X128524500Y-131699500D03*
X183515000Y-118872000D03*
X116840500Y-76454500D03*
X159766500Y-100457500D03*
X213868500Y-124079500D03*
X214630500Y-79121500D03*
X201676500Y-131699500D03*
X146050500Y-68453500D03*
X98806500Y-100457500D03*
X192969500Y-90045500D03*
X121595000Y-115826000D03*
X147574500Y-68453500D03*
X140716500Y-131699500D03*
X184785000Y-102870000D03*
X171958500Y-100457500D03*
X182626500Y-98933500D03*
X154488000Y-124589000D03*
X214630500Y-73025500D03*
X102616500Y-119507500D03*
X104902500Y-100457500D03*
X112522500Y-130937500D03*
X103378500Y-126365500D03*
X97282500Y-118745500D03*
X208534500Y-68453500D03*
X132334500Y-66929500D03*
X136144500Y-131699500D03*
X97282500Y-112649500D03*
X126238500Y-130937500D03*
X182372500Y-81026500D03*
X143566000Y-125732000D03*
X110998500Y-68453500D03*
X152583000Y-117096000D03*
X213868500Y-121031500D03*
X100330500Y-94361500D03*
X203200500Y-99695500D03*
X146050500Y-130937500D03*
X100330500Y-115697500D03*
X198628500Y-131699500D03*
X169672500Y-99695500D03*
X143764500Y-99695500D03*
X171958500Y-66929500D03*
X157607500Y-83058500D03*
X99568500Y-85979500D03*
X173482500Y-66929500D03*
X190246500Y-68453500D03*
X191008500Y-131699500D03*
X98806500Y-80645500D03*
X181102500Y-68453500D03*
X213106500Y-73025500D03*
X182372000Y-115189000D03*
X100330500Y-85217500D03*
X101854500Y-98933500D03*
X157607000Y-105029000D03*
X135382500Y-98933500D03*
X100330500Y-108077500D03*
X136906500Y-100457500D03*
X163576500Y-67691500D03*
X189484500Y-99695500D03*
X211582500Y-66929500D03*
X101854500Y-73025500D03*
X101854500Y-115697500D03*
X213106500Y-94361500D03*
X213868500Y-79883500D03*
X141859000Y-115316000D03*
X158242500Y-98933500D03*
X155956500Y-99695500D03*
X130048500Y-131699500D03*
X190754000Y-118872000D03*
X143002500Y-66929500D03*
X168910500Y-100457500D03*
X193675000Y-118872000D03*
X198247000Y-116586000D03*
X155956500Y-67691500D03*
X161290500Y-132461500D03*
X192969000Y-122049000D03*
X114046500Y-132461500D03*
X89662500Y-121793500D03*
X117856500Y-99695500D03*
X197866500Y-132461500D03*
X214630500Y-126365500D03*
X100330500Y-106553500D03*
X213106500Y-101981500D03*
X99568500Y-76835500D03*
X153670500Y-98933500D03*
X101854500Y-121793500D03*
X130810500Y-130937500D03*
X135382500Y-100457500D03*
X98806500Y-117221500D03*
X168148500Y-67691500D03*
X197866500Y-98933500D03*
X214630500Y-111125500D03*
X94234500Y-112649500D03*
X102616500Y-89027500D03*
X200152500Y-131699500D03*
X96520500Y-121031500D03*
X206248500Y-67691500D03*
X210820500Y-131699500D03*
%TO.N,Net-(C12-Pad1)*%
X190810500Y-97284500D03*
X151130500Y-97409500D03*
X167132500Y-96012500D03*
X208788500Y-82042500D03*
%TO.N,/F1/+5V*%
X123952500Y-90932500D03*
X108585500Y-73533500D03*
%TO.N,VEE*%
X105664500Y-65659500D03*
X105410500Y-93345500D03*
X107188500Y-125603000D03*
X90446000Y-134493500D03*
%TO.N,/F1/VVA_TUNE*%
X168656500Y-86868500D03*
X150750500Y-69596500D03*
%TO.N,/+5V_SW*%
X83820500Y-115951500D03*
X83820500Y-118745500D03*
%TO.N,/F2/+5V*%
X108585000Y-105537000D03*
X116078500Y-112268500D03*
%TO.N,/F2/VVA_TUNE*%
X150750000Y-101600000D03*
X168656000Y-118872000D03*
%TO.N,SW*%
X77978500Y-106807500D03*
X119888000Y-107950000D03*
X82042500Y-112649500D03*
X82677500Y-105283500D03*
X119888500Y-75819500D03*
X94996500Y-117983500D03*
%TO.N,Net-(C27-Pad1)*%
X190810000Y-129288000D03*
X208280000Y-114046000D03*
X167132000Y-128016000D03*
X151130000Y-129413000D03*
%TD*%
D15*
%TO.N,/F1/VVA_TUNE*%
X150750500Y-69596500D02*
X150749500Y-69597500D01*
%TO.N,/F2/VVA_TUNE*%
X150750000Y-101600000D02*
X150749000Y-101601000D01*
%TD*%
%TA.AperFunction,Conductor*%
%TO.N,GND*%
G36*
X228856149Y-61896072D02*
G01*
X229267779Y-61914043D01*
X229274299Y-61914613D01*
X229681223Y-61968186D01*
X229687649Y-61969320D01*
X230088326Y-62058148D01*
X230094646Y-62059842D01*
X230486054Y-62183253D01*
X230492219Y-62185496D01*
X230623841Y-62240015D01*
X230871382Y-62342550D01*
X230877310Y-62345315D01*
X231241338Y-62534816D01*
X231247019Y-62538096D01*
X231593140Y-62758599D01*
X231598514Y-62762362D01*
X231924101Y-63012195D01*
X231929126Y-63016412D01*
X232099765Y-63172773D01*
X232231702Y-63293670D01*
X232236335Y-63298303D01*
X232513587Y-63600873D01*
X232517804Y-63605898D01*
X232767637Y-63931485D01*
X232771400Y-63936859D01*
X232991903Y-64282980D01*
X232995183Y-64288661D01*
X233184680Y-64652680D01*
X233187453Y-64658626D01*
X233344503Y-65037780D01*
X233346746Y-65043945D01*
X233470157Y-65435353D01*
X233471855Y-65441690D01*
X233560676Y-65842333D01*
X233561816Y-65848793D01*
X233615385Y-66255692D01*
X233615956Y-66262228D01*
X233633928Y-66673850D01*
X233634000Y-66677130D01*
X233634000Y-132713869D01*
X233633928Y-132717149D01*
X233615956Y-133128771D01*
X233615385Y-133135307D01*
X233561816Y-133542206D01*
X233560676Y-133548666D01*
X233471855Y-133949309D01*
X233470157Y-133955646D01*
X233346746Y-134347054D01*
X233344503Y-134353219D01*
X233187453Y-134732373D01*
X233184680Y-134738319D01*
X232995183Y-135102338D01*
X232991903Y-135108019D01*
X232771400Y-135454140D01*
X232767637Y-135459514D01*
X232517804Y-135785101D01*
X232513587Y-135790126D01*
X232236335Y-136092696D01*
X232231696Y-136097335D01*
X231929126Y-136374587D01*
X231924101Y-136378804D01*
X231598514Y-136628637D01*
X231593140Y-136632400D01*
X231247019Y-136852903D01*
X231241338Y-136856183D01*
X230877319Y-137045680D01*
X230871373Y-137048453D01*
X230492219Y-137205503D01*
X230486054Y-137207746D01*
X230094646Y-137331157D01*
X230088309Y-137332855D01*
X229687666Y-137421676D01*
X229681206Y-137422816D01*
X229274307Y-137476385D01*
X229267771Y-137476956D01*
X228856149Y-137494928D01*
X228852869Y-137495000D01*
X73916131Y-137495000D01*
X73912851Y-137494928D01*
X73501228Y-137476956D01*
X73494692Y-137476385D01*
X73087793Y-137422816D01*
X73081333Y-137421676D01*
X72680690Y-137332855D01*
X72674353Y-137331157D01*
X72282945Y-137207746D01*
X72276780Y-137205503D01*
X71897626Y-137048453D01*
X71891680Y-137045680D01*
X71527661Y-136856183D01*
X71521980Y-136852903D01*
X71175859Y-136632400D01*
X71170485Y-136628637D01*
X70844898Y-136378804D01*
X70839873Y-136374587D01*
X70644853Y-136195886D01*
X70537297Y-136097329D01*
X70532670Y-136092702D01*
X70305380Y-135844657D01*
X70255412Y-135790126D01*
X70251195Y-135785101D01*
X70001362Y-135459514D01*
X69997599Y-135454140D01*
X69777096Y-135108019D01*
X69773816Y-135102338D01*
X69708285Y-134976454D01*
X69584315Y-134738310D01*
X69581550Y-134732382D01*
X69482602Y-134493500D01*
X89888329Y-134493500D01*
X89907331Y-134637836D01*
X89963043Y-134772336D01*
X89963044Y-134772338D01*
X89963045Y-134772339D01*
X90051666Y-134887833D01*
X90167160Y-134976454D01*
X90167164Y-134976457D01*
X90301664Y-135032169D01*
X90446000Y-135051171D01*
X90590336Y-135032169D01*
X90724836Y-134976457D01*
X90840333Y-134887833D01*
X90928957Y-134772336D01*
X90984669Y-134637836D01*
X91003671Y-134493500D01*
X90984669Y-134349164D01*
X90928957Y-134214665D01*
X90928955Y-134214662D01*
X90840333Y-134099166D01*
X90724839Y-134010545D01*
X90724838Y-134010544D01*
X90724836Y-134010543D01*
X90637891Y-133974529D01*
X90590337Y-133954831D01*
X90446000Y-133935829D01*
X90301662Y-133954831D01*
X90167163Y-134010544D01*
X90167162Y-134010544D01*
X90051666Y-134099166D01*
X89963044Y-134214662D01*
X89963044Y-134214663D01*
X89907331Y-134349162D01*
X89906797Y-134353219D01*
X89888329Y-134493500D01*
X69482602Y-134493500D01*
X69424496Y-134353219D01*
X69422253Y-134347054D01*
X69298842Y-133955646D01*
X69297148Y-133949326D01*
X69208320Y-133548649D01*
X69207186Y-133542223D01*
X69153613Y-133135299D01*
X69153043Y-133128771D01*
X69145536Y-132956836D01*
X69135072Y-132717149D01*
X69135000Y-132713869D01*
X69135000Y-130860282D01*
X73284287Y-130860282D01*
X73294183Y-131168851D01*
X73294185Y-131168870D01*
X73343460Y-131473655D01*
X73431305Y-131769634D01*
X73431307Y-131769641D01*
X73556282Y-132051962D01*
X73716332Y-132315980D01*
X73716338Y-132315988D01*
X73908837Y-132557376D01*
X74130622Y-132772163D01*
X74378051Y-132956824D01*
X74378069Y-132956836D01*
X74647073Y-133108336D01*
X74647075Y-133108336D01*
X74647079Y-133108339D01*
X74801512Y-133170862D01*
X74933260Y-133224201D01*
X74933261Y-133224201D01*
X74933263Y-133224202D01*
X75231913Y-133302518D01*
X75538126Y-133342000D01*
X75538128Y-133342000D01*
X75769592Y-133342000D01*
X75769599Y-133342000D01*
X75809149Y-133339460D01*
X76000604Y-133327169D01*
X76000607Y-133327168D01*
X76000614Y-133327168D01*
X76303668Y-133268149D01*
X76596687Y-133170860D01*
X76874859Y-133036899D01*
X77133617Y-132868466D01*
X77368712Y-132668327D01*
X77576284Y-132439768D01*
X77752924Y-132186541D01*
X77895731Y-131912805D01*
X78002362Y-131623055D01*
X78071065Y-131322048D01*
X78100712Y-131014727D01*
X78095759Y-130860282D01*
X223271287Y-130860282D01*
X223281183Y-131168851D01*
X223281185Y-131168870D01*
X223330460Y-131473655D01*
X223418305Y-131769634D01*
X223418307Y-131769641D01*
X223543282Y-132051962D01*
X223703332Y-132315980D01*
X223703338Y-132315988D01*
X223895837Y-132557376D01*
X224117622Y-132772163D01*
X224365051Y-132956824D01*
X224365069Y-132956836D01*
X224634073Y-133108336D01*
X224634075Y-133108336D01*
X224634079Y-133108339D01*
X224788512Y-133170862D01*
X224920260Y-133224201D01*
X224920261Y-133224201D01*
X224920263Y-133224202D01*
X225218913Y-133302518D01*
X225525126Y-133342000D01*
X225525128Y-133342000D01*
X225756592Y-133342000D01*
X225756599Y-133342000D01*
X225796149Y-133339460D01*
X225987604Y-133327169D01*
X225987607Y-133327168D01*
X225987614Y-133327168D01*
X226290668Y-133268149D01*
X226583687Y-133170860D01*
X226861859Y-133036899D01*
X227120617Y-132868466D01*
X227355712Y-132668327D01*
X227563284Y-132439768D01*
X227739924Y-132186541D01*
X227882731Y-131912805D01*
X227989362Y-131623055D01*
X228058065Y-131322048D01*
X228087712Y-131014727D01*
X228077816Y-130706137D01*
X228028540Y-130401347D01*
X227940693Y-130105360D01*
X227815717Y-129823037D01*
X227655664Y-129559014D01*
X227463334Y-129317839D01*
X227463162Y-129317623D01*
X227241377Y-129102836D01*
X226993948Y-128918175D01*
X226993930Y-128918163D01*
X226724926Y-128766663D01*
X226438739Y-128650798D01*
X226271153Y-128606852D01*
X226140087Y-128572482D01*
X225833874Y-128533000D01*
X225602401Y-128533000D01*
X225602396Y-128533000D01*
X225602370Y-128533001D01*
X225371395Y-128547830D01*
X225371384Y-128547832D01*
X225068336Y-128606850D01*
X225068327Y-128606852D01*
X224775321Y-128704137D01*
X224775310Y-128704141D01*
X224497145Y-128838098D01*
X224497136Y-128838103D01*
X224238385Y-129006531D01*
X224003287Y-129206673D01*
X223795719Y-129435228D01*
X223795714Y-129435234D01*
X223619077Y-129688456D01*
X223619073Y-129688463D01*
X223476271Y-129962189D01*
X223369638Y-130251943D01*
X223300935Y-130552952D01*
X223271287Y-130860282D01*
X78095759Y-130860282D01*
X78090816Y-130706137D01*
X78041540Y-130401347D01*
X77953693Y-130105360D01*
X77828717Y-129823037D01*
X77668664Y-129559014D01*
X77476334Y-129317839D01*
X77476162Y-129317623D01*
X77254377Y-129102836D01*
X77168843Y-129039000D01*
X105360829Y-129039000D01*
X105379831Y-129183337D01*
X105399529Y-129230891D01*
X105435543Y-129317836D01*
X105435544Y-129317838D01*
X105435545Y-129317839D01*
X105524166Y-129433333D01*
X105639660Y-129521954D01*
X105639664Y-129521957D01*
X105774164Y-129577669D01*
X105918500Y-129596671D01*
X106062836Y-129577669D01*
X106197336Y-129521957D01*
X106312833Y-129433333D01*
X106328435Y-129413000D01*
X150572329Y-129413000D01*
X150591331Y-129557337D01*
X150592026Y-129559014D01*
X150647043Y-129691836D01*
X150647044Y-129691838D01*
X150647045Y-129691839D01*
X150735666Y-129807333D01*
X150851160Y-129895954D01*
X150851164Y-129895957D01*
X150985664Y-129951669D01*
X151130000Y-129970671D01*
X151274336Y-129951669D01*
X151408836Y-129895957D01*
X151524333Y-129807333D01*
X151612957Y-129691836D01*
X151668669Y-129557336D01*
X151687671Y-129413000D01*
X151671215Y-129288000D01*
X190252329Y-129288000D01*
X190271331Y-129432337D01*
X190272531Y-129435234D01*
X190327043Y-129566836D01*
X190327044Y-129566838D01*
X190327045Y-129566839D01*
X190415666Y-129682333D01*
X190428055Y-129691839D01*
X190531164Y-129770957D01*
X190665664Y-129826669D01*
X190810000Y-129845671D01*
X190954336Y-129826669D01*
X191088836Y-129770957D01*
X191204333Y-129682333D01*
X191292957Y-129566836D01*
X191348669Y-129432336D01*
X191367671Y-129288000D01*
X191348669Y-129143664D01*
X191292957Y-129009165D01*
X191232246Y-128930044D01*
X191204333Y-128893666D01*
X191088839Y-128805045D01*
X191088838Y-128805044D01*
X191088836Y-128805043D01*
X190996174Y-128766661D01*
X190954337Y-128749331D01*
X190810000Y-128730329D01*
X190665662Y-128749331D01*
X190531163Y-128805044D01*
X190531162Y-128805044D01*
X190415666Y-128893666D01*
X190327044Y-129009162D01*
X190327044Y-129009163D01*
X190271331Y-129143662D01*
X190252329Y-129288000D01*
X151671215Y-129288000D01*
X151668669Y-129268664D01*
X151612957Y-129134165D01*
X151588918Y-129102836D01*
X151524333Y-129018666D01*
X151408839Y-128930045D01*
X151408838Y-128930044D01*
X151408836Y-128930043D01*
X151321015Y-128893666D01*
X151274337Y-128874331D01*
X151130000Y-128855329D01*
X150985662Y-128874331D01*
X150851163Y-128930044D01*
X150851162Y-128930044D01*
X150735666Y-129018666D01*
X150647044Y-129134162D01*
X150647044Y-129134163D01*
X150591331Y-129268662D01*
X150572329Y-129413000D01*
X106328435Y-129413000D01*
X106401457Y-129317836D01*
X106457169Y-129183336D01*
X106476171Y-129039000D01*
X106457169Y-128894664D01*
X106401457Y-128760165D01*
X106393144Y-128749331D01*
X106312833Y-128644666D01*
X106197339Y-128556045D01*
X106197338Y-128556044D01*
X106197336Y-128556043D01*
X106110391Y-128520029D01*
X106062837Y-128500331D01*
X105918500Y-128481329D01*
X105774162Y-128500331D01*
X105639663Y-128556044D01*
X105639662Y-128556044D01*
X105524166Y-128644666D01*
X105435544Y-128760162D01*
X105435544Y-128760163D01*
X105435543Y-128760164D01*
X105435543Y-128760165D01*
X105425985Y-128783238D01*
X105379831Y-128894662D01*
X105360829Y-129039000D01*
X77168843Y-129039000D01*
X77006948Y-128918175D01*
X77006930Y-128918163D01*
X76737926Y-128766663D01*
X76451739Y-128650798D01*
X76284153Y-128606852D01*
X76153087Y-128572482D01*
X75846874Y-128533000D01*
X75615401Y-128533000D01*
X75615396Y-128533000D01*
X75615370Y-128533001D01*
X75384395Y-128547830D01*
X75384384Y-128547832D01*
X75081336Y-128606850D01*
X75081327Y-128606852D01*
X74788321Y-128704137D01*
X74788310Y-128704141D01*
X74510145Y-128838098D01*
X74510136Y-128838103D01*
X74251385Y-129006531D01*
X74016287Y-129206673D01*
X73808719Y-129435228D01*
X73808714Y-129435234D01*
X73632077Y-129688456D01*
X73632073Y-129688463D01*
X73489271Y-129962189D01*
X73382638Y-130251943D01*
X73313935Y-130552952D01*
X73284287Y-130860282D01*
X69135000Y-130860282D01*
X69135000Y-128016000D01*
X166574329Y-128016000D01*
X166593331Y-128160336D01*
X166649043Y-128294836D01*
X166649044Y-128294838D01*
X166649045Y-128294839D01*
X166737666Y-128410333D01*
X166853160Y-128498954D01*
X166853164Y-128498957D01*
X166987664Y-128554669D01*
X167132000Y-128573671D01*
X167276336Y-128554669D01*
X167410836Y-128498957D01*
X167526333Y-128410333D01*
X167614957Y-128294836D01*
X167670669Y-128160336D01*
X167689671Y-128016000D01*
X167670669Y-127871664D01*
X167614957Y-127737165D01*
X167614955Y-127737162D01*
X167526333Y-127621666D01*
X167410839Y-127533045D01*
X167410838Y-127533044D01*
X167410836Y-127533043D01*
X167323891Y-127497029D01*
X167276337Y-127477331D01*
X167132000Y-127458329D01*
X166987662Y-127477331D01*
X166853163Y-127533044D01*
X166853162Y-127533044D01*
X166737666Y-127621666D01*
X166649044Y-127737162D01*
X166649044Y-127737163D01*
X166593331Y-127871662D01*
X166593331Y-127871664D01*
X166574329Y-128016000D01*
X69135000Y-128016000D01*
X69135000Y-126365000D01*
X162063292Y-126365000D01*
X162082472Y-126547487D01*
X162139171Y-126721991D01*
X162139174Y-126721998D01*
X162230916Y-126880900D01*
X162230917Y-126880902D01*
X162353700Y-127017266D01*
X162502142Y-127125115D01*
X162502145Y-127125116D01*
X162502146Y-127125117D01*
X162669773Y-127199750D01*
X162849255Y-127237900D01*
X162849257Y-127237900D01*
X163032743Y-127237900D01*
X163032745Y-127237900D01*
X163212227Y-127199750D01*
X163379854Y-127125117D01*
X163379857Y-127125115D01*
X163528299Y-127017266D01*
X163528301Y-127017264D01*
X163651081Y-126880904D01*
X163742826Y-126721996D01*
X163799528Y-126547486D01*
X163818708Y-126365000D01*
X163799528Y-126182514D01*
X163768154Y-126085954D01*
X163742828Y-126008008D01*
X163742825Y-126008001D01*
X163651083Y-125849099D01*
X163651082Y-125849097D01*
X163528299Y-125712733D01*
X163379857Y-125604884D01*
X163212228Y-125530250D01*
X163152399Y-125517533D01*
X163032745Y-125492100D01*
X162849255Y-125492100D01*
X162759514Y-125511175D01*
X162669771Y-125530250D01*
X162502142Y-125604884D01*
X162353700Y-125712733D01*
X162230917Y-125849097D01*
X162230916Y-125849099D01*
X162139174Y-126008001D01*
X162139171Y-126008008D01*
X162082472Y-126182512D01*
X162063292Y-126365000D01*
X69135000Y-126365000D01*
X69135000Y-125603000D01*
X106630829Y-125603000D01*
X106649831Y-125747336D01*
X106705543Y-125881836D01*
X106705544Y-125881838D01*
X106705545Y-125881839D01*
X106794166Y-125997333D01*
X106909660Y-126085954D01*
X106909664Y-126085957D01*
X107044164Y-126141669D01*
X107188500Y-126160671D01*
X107332836Y-126141669D01*
X107467336Y-126085957D01*
X107582833Y-125997333D01*
X107671457Y-125881836D01*
X107727169Y-125747336D01*
X107746171Y-125603000D01*
X107727169Y-125458664D01*
X107671457Y-125324165D01*
X107671455Y-125324162D01*
X107582833Y-125208666D01*
X107467339Y-125120045D01*
X107467338Y-125120044D01*
X107467336Y-125120043D01*
X107380391Y-125084029D01*
X107332837Y-125064331D01*
X107188500Y-125045329D01*
X107044162Y-125064331D01*
X106909663Y-125120044D01*
X106909662Y-125120044D01*
X106794166Y-125208666D01*
X106705544Y-125324162D01*
X106705544Y-125324163D01*
X106649831Y-125458662D01*
X106630829Y-125603000D01*
X69135000Y-125603000D01*
X69135000Y-118745500D01*
X83262829Y-118745500D01*
X83281831Y-118889836D01*
X83337543Y-119024336D01*
X83337544Y-119024338D01*
X83337545Y-119024339D01*
X83426166Y-119139833D01*
X83541660Y-119228454D01*
X83541664Y-119228457D01*
X83676164Y-119284169D01*
X83820500Y-119303171D01*
X83964836Y-119284169D01*
X84099336Y-119228457D01*
X84214833Y-119139833D01*
X84303457Y-119024336D01*
X84359169Y-118889836D01*
X84361517Y-118872000D01*
X168098329Y-118872000D01*
X168117331Y-119016337D01*
X168120646Y-119024339D01*
X168173043Y-119150836D01*
X168173044Y-119150838D01*
X168173045Y-119150839D01*
X168261666Y-119266333D01*
X168309675Y-119303171D01*
X168377164Y-119354957D01*
X168511664Y-119410669D01*
X168656000Y-119429671D01*
X168800336Y-119410669D01*
X168934836Y-119354957D01*
X169050333Y-119266333D01*
X169138957Y-119150836D01*
X169194669Y-119016336D01*
X169213671Y-118872000D01*
X169194669Y-118727664D01*
X169138957Y-118593165D01*
X169099061Y-118541171D01*
X169050333Y-118477666D01*
X168934839Y-118389045D01*
X168934838Y-118389044D01*
X168934836Y-118389043D01*
X168843393Y-118351166D01*
X168800337Y-118333331D01*
X168656000Y-118314329D01*
X168511662Y-118333331D01*
X168377163Y-118389044D01*
X168377162Y-118389044D01*
X168261666Y-118477666D01*
X168173044Y-118593162D01*
X168173044Y-118593163D01*
X168173043Y-118593164D01*
X168173043Y-118593165D01*
X168169730Y-118601164D01*
X168117331Y-118727662D01*
X168098329Y-118872000D01*
X84361517Y-118872000D01*
X84378171Y-118745500D01*
X84359169Y-118601164D01*
X84303457Y-118466665D01*
X84303455Y-118466662D01*
X84214833Y-118351166D01*
X84099339Y-118262545D01*
X84099338Y-118262544D01*
X84099336Y-118262543D01*
X84012391Y-118226529D01*
X83964837Y-118206831D01*
X83820500Y-118187829D01*
X83676162Y-118206831D01*
X83564738Y-118252985D01*
X83542158Y-118262339D01*
X83541663Y-118262544D01*
X83541662Y-118262544D01*
X83426166Y-118351166D01*
X83337544Y-118466662D01*
X83337544Y-118466663D01*
X83281831Y-118601162D01*
X83281831Y-118601164D01*
X83262829Y-118745500D01*
X69135000Y-118745500D01*
X69135000Y-117983500D01*
X94438829Y-117983500D01*
X94457831Y-118127836D01*
X94513543Y-118262336D01*
X94513544Y-118262338D01*
X94513545Y-118262339D01*
X94602166Y-118377833D01*
X94717660Y-118466454D01*
X94717664Y-118466457D01*
X94852164Y-118522169D01*
X94996500Y-118541171D01*
X95140836Y-118522169D01*
X95275336Y-118466457D01*
X95390833Y-118377833D01*
X95479457Y-118262336D01*
X95535169Y-118127836D01*
X95554171Y-117983500D01*
X95535169Y-117839164D01*
X95479457Y-117704665D01*
X95479455Y-117704662D01*
X95390833Y-117589166D01*
X95275339Y-117500545D01*
X95275338Y-117500544D01*
X95275336Y-117500543D01*
X95188391Y-117464529D01*
X95140837Y-117444831D01*
X94996500Y-117425829D01*
X94852162Y-117444831D01*
X94717663Y-117500544D01*
X94717662Y-117500544D01*
X94602166Y-117589166D01*
X94513544Y-117704662D01*
X94513544Y-117704663D01*
X94457831Y-117839162D01*
X94455862Y-117854117D01*
X94438829Y-117983500D01*
X69135000Y-117983500D01*
X69135000Y-117094000D01*
X204735292Y-117094000D01*
X204754472Y-117276487D01*
X204811171Y-117450991D01*
X204811174Y-117450998D01*
X204902916Y-117609900D01*
X204902917Y-117609902D01*
X205025700Y-117746266D01*
X205174142Y-117854115D01*
X205174145Y-117854116D01*
X205174146Y-117854117D01*
X205341773Y-117928750D01*
X205521255Y-117966900D01*
X205521257Y-117966900D01*
X205704743Y-117966900D01*
X205704745Y-117966900D01*
X205884227Y-117928750D01*
X206051854Y-117854117D01*
X206072438Y-117839162D01*
X206200299Y-117746266D01*
X206237760Y-117704662D01*
X206323081Y-117609904D01*
X206414826Y-117450996D01*
X206423004Y-117425829D01*
X206435089Y-117388630D01*
X206471528Y-117276486D01*
X206490708Y-117094000D01*
X206471528Y-116911514D01*
X206452627Y-116853344D01*
X206414828Y-116737008D01*
X206414825Y-116737001D01*
X206323083Y-116578099D01*
X206323082Y-116578097D01*
X206200299Y-116441733D01*
X206051857Y-116333884D01*
X205884228Y-116259250D01*
X205824399Y-116246533D01*
X205704745Y-116221100D01*
X205521255Y-116221100D01*
X205431514Y-116240175D01*
X205341771Y-116259250D01*
X205174142Y-116333884D01*
X205025700Y-116441733D01*
X204902917Y-116578097D01*
X204902916Y-116578099D01*
X204811174Y-116737001D01*
X204811171Y-116737008D01*
X204754472Y-116911512D01*
X204735292Y-117094000D01*
X69135000Y-117094000D01*
X69135000Y-115951500D01*
X83262829Y-115951500D01*
X83281831Y-116095836D01*
X83337543Y-116230336D01*
X83337544Y-116230338D01*
X83337545Y-116230339D01*
X83426166Y-116345833D01*
X83541660Y-116434454D01*
X83541664Y-116434457D01*
X83676164Y-116490169D01*
X83820500Y-116509171D01*
X83964836Y-116490169D01*
X84099336Y-116434457D01*
X84214833Y-116345833D01*
X84303457Y-116230336D01*
X84359169Y-116095836D01*
X84378171Y-115951500D01*
X84359169Y-115807164D01*
X84303457Y-115672665D01*
X84303455Y-115672662D01*
X84214833Y-115557166D01*
X84099339Y-115468545D01*
X84099338Y-115468544D01*
X84099336Y-115468543D01*
X84012391Y-115432529D01*
X83964837Y-115412831D01*
X83820500Y-115393829D01*
X83676162Y-115412831D01*
X83541663Y-115468544D01*
X83541662Y-115468544D01*
X83426166Y-115557166D01*
X83337544Y-115672662D01*
X83337544Y-115672663D01*
X83281831Y-115807162D01*
X83281831Y-115807164D01*
X83262829Y-115951500D01*
X69135000Y-115951500D01*
X69135000Y-114046000D01*
X207722329Y-114046000D01*
X207741331Y-114190336D01*
X207797043Y-114324836D01*
X207797044Y-114324838D01*
X207797045Y-114324839D01*
X207885666Y-114440333D01*
X208001160Y-114528954D01*
X208001164Y-114528957D01*
X208135664Y-114584669D01*
X208280000Y-114603671D01*
X208424336Y-114584669D01*
X208558836Y-114528957D01*
X208674333Y-114440333D01*
X208762957Y-114324836D01*
X208818669Y-114190336D01*
X208837671Y-114046000D01*
X208818669Y-113901664D01*
X208762957Y-113767165D01*
X208762955Y-113767162D01*
X208674333Y-113651666D01*
X208558839Y-113563045D01*
X208558838Y-113563044D01*
X208558836Y-113563043D01*
X208471891Y-113527029D01*
X208424337Y-113507331D01*
X208280000Y-113488329D01*
X208135662Y-113507331D01*
X208001163Y-113563044D01*
X208001162Y-113563044D01*
X207885666Y-113651666D01*
X207797044Y-113767162D01*
X207797044Y-113767163D01*
X207741331Y-113901662D01*
X207741331Y-113901664D01*
X207722329Y-114046000D01*
X69135000Y-114046000D01*
X69135000Y-112649500D01*
X81484829Y-112649500D01*
X81503831Y-112793837D01*
X81517224Y-112826170D01*
X81559543Y-112928336D01*
X81559544Y-112928338D01*
X81559545Y-112928339D01*
X81648166Y-113043833D01*
X81763660Y-113132454D01*
X81763664Y-113132457D01*
X81898164Y-113188169D01*
X82042500Y-113207171D01*
X82186836Y-113188169D01*
X82321336Y-113132457D01*
X82436833Y-113043833D01*
X82525457Y-112928336D01*
X82581169Y-112793836D01*
X82600171Y-112649500D01*
X82581169Y-112505164D01*
X82525457Y-112370665D01*
X82447064Y-112268500D01*
X115520829Y-112268500D01*
X115539831Y-112412836D01*
X115595543Y-112547336D01*
X115595544Y-112547338D01*
X115595545Y-112547339D01*
X115684166Y-112662833D01*
X115799660Y-112751454D01*
X115799664Y-112751457D01*
X115934164Y-112807169D01*
X116078500Y-112826171D01*
X116222836Y-112807169D01*
X116357336Y-112751457D01*
X116472833Y-112662833D01*
X116561457Y-112547336D01*
X116617169Y-112412836D01*
X116636171Y-112268500D01*
X116617169Y-112124164D01*
X116561457Y-111989665D01*
X116561455Y-111989662D01*
X116472833Y-111874166D01*
X116357339Y-111785545D01*
X116357338Y-111785544D01*
X116357336Y-111785543D01*
X116270391Y-111749529D01*
X116222837Y-111729831D01*
X116078500Y-111710829D01*
X115934162Y-111729831D01*
X115799663Y-111785544D01*
X115799662Y-111785544D01*
X115684166Y-111874166D01*
X115595544Y-111989662D01*
X115595544Y-111989663D01*
X115539831Y-112124162D01*
X115534251Y-112166545D01*
X115520829Y-112268500D01*
X82447064Y-112268500D01*
X82436833Y-112255166D01*
X82321339Y-112166545D01*
X82321338Y-112166544D01*
X82321336Y-112166543D01*
X82219020Y-112124162D01*
X82186837Y-112110831D01*
X82042500Y-112091829D01*
X81898162Y-112110831D01*
X81763663Y-112166544D01*
X81763662Y-112166544D01*
X81648166Y-112255166D01*
X81559544Y-112370662D01*
X81559544Y-112370663D01*
X81503831Y-112505162D01*
X81484829Y-112649500D01*
X69135000Y-112649500D01*
X69135000Y-107950000D01*
X119330329Y-107950000D01*
X119349331Y-108094336D01*
X119405043Y-108228836D01*
X119405044Y-108228838D01*
X119405045Y-108228839D01*
X119493666Y-108344333D01*
X119609160Y-108432954D01*
X119609164Y-108432957D01*
X119743664Y-108488669D01*
X119888000Y-108507671D01*
X120032336Y-108488669D01*
X120166836Y-108432957D01*
X120282333Y-108344333D01*
X120370957Y-108228836D01*
X120426669Y-108094336D01*
X120445671Y-107950000D01*
X120426669Y-107805664D01*
X120370957Y-107671165D01*
X120370955Y-107671162D01*
X120282333Y-107555666D01*
X120166839Y-107467045D01*
X120166838Y-107467044D01*
X120166836Y-107467043D01*
X120079891Y-107431029D01*
X120032337Y-107411331D01*
X119888000Y-107392329D01*
X119743662Y-107411331D01*
X119609163Y-107467044D01*
X119609162Y-107467044D01*
X119493666Y-107555666D01*
X119405044Y-107671162D01*
X119405044Y-107671163D01*
X119349331Y-107805662D01*
X119349331Y-107805664D01*
X119330329Y-107950000D01*
X69135000Y-107950000D01*
X69135000Y-106807500D01*
X77420829Y-106807500D01*
X77439831Y-106951836D01*
X77495543Y-107086336D01*
X77495544Y-107086338D01*
X77495545Y-107086339D01*
X77584166Y-107201833D01*
X77699660Y-107290454D01*
X77699664Y-107290457D01*
X77834164Y-107346169D01*
X77978500Y-107365171D01*
X78122836Y-107346169D01*
X78257336Y-107290457D01*
X78372833Y-107201833D01*
X78461457Y-107086336D01*
X78517169Y-106951836D01*
X78536171Y-106807500D01*
X78517169Y-106663164D01*
X78461457Y-106528665D01*
X78461455Y-106528662D01*
X78372833Y-106413166D01*
X78257339Y-106324545D01*
X78257338Y-106324544D01*
X78257336Y-106324543D01*
X78170391Y-106288529D01*
X78122837Y-106268831D01*
X77978500Y-106249829D01*
X77834162Y-106268831D01*
X77699663Y-106324544D01*
X77699662Y-106324544D01*
X77584166Y-106413166D01*
X77495544Y-106528662D01*
X77495544Y-106528663D01*
X77439831Y-106663162D01*
X77439831Y-106663164D01*
X77420829Y-106807500D01*
X69135000Y-106807500D01*
X69135000Y-105283500D01*
X82119829Y-105283500D01*
X82134200Y-105392664D01*
X82138831Y-105427836D01*
X82194543Y-105562336D01*
X82194544Y-105562338D01*
X82194545Y-105562339D01*
X82283166Y-105677833D01*
X82287733Y-105681337D01*
X82398664Y-105766457D01*
X82533164Y-105822169D01*
X82677500Y-105841171D01*
X82821836Y-105822169D01*
X82956336Y-105766457D01*
X83071833Y-105677833D01*
X83160457Y-105562336D01*
X83170952Y-105537000D01*
X108027329Y-105537000D01*
X108030664Y-105562336D01*
X108046331Y-105681336D01*
X108102043Y-105815836D01*
X108102044Y-105815838D01*
X108102045Y-105815839D01*
X108190666Y-105931333D01*
X108306160Y-106019954D01*
X108306164Y-106019957D01*
X108440664Y-106075669D01*
X108585000Y-106094671D01*
X108729336Y-106075669D01*
X108863836Y-106019957D01*
X108979333Y-105931333D01*
X109067957Y-105815836D01*
X109123669Y-105681336D01*
X109142671Y-105537000D01*
X109123669Y-105392664D01*
X109067957Y-105258165D01*
X109067955Y-105258162D01*
X108979333Y-105142666D01*
X108863839Y-105054045D01*
X108863838Y-105054044D01*
X108863836Y-105054043D01*
X108744623Y-105004663D01*
X108729337Y-104998331D01*
X108585000Y-104979329D01*
X108440662Y-104998331D01*
X108306163Y-105054044D01*
X108306162Y-105054044D01*
X108190666Y-105142666D01*
X108102044Y-105258162D01*
X108102044Y-105258163D01*
X108046331Y-105392662D01*
X108027329Y-105537000D01*
X83170952Y-105537000D01*
X83216169Y-105427836D01*
X83235171Y-105283500D01*
X83216169Y-105139164D01*
X83160457Y-105004665D01*
X83155597Y-104998331D01*
X83071833Y-104889166D01*
X82956339Y-104800545D01*
X82956338Y-104800544D01*
X82956336Y-104800543D01*
X82869391Y-104764529D01*
X82821837Y-104744831D01*
X82677500Y-104725829D01*
X82533162Y-104744831D01*
X82398663Y-104800544D01*
X82398662Y-104800544D01*
X82283166Y-104889166D01*
X82194544Y-105004662D01*
X82194544Y-105004663D01*
X82138831Y-105139162D01*
X82119829Y-105283500D01*
X69135000Y-105283500D01*
X69135000Y-101600000D01*
X150192329Y-101600000D01*
X150211331Y-101744336D01*
X150267043Y-101878836D01*
X150267044Y-101878838D01*
X150267045Y-101878839D01*
X150355666Y-101994333D01*
X150471160Y-102082954D01*
X150471164Y-102082957D01*
X150605664Y-102138669D01*
X150750000Y-102157671D01*
X150894336Y-102138669D01*
X151028836Y-102082957D01*
X151144333Y-101994333D01*
X151232957Y-101878836D01*
X151288669Y-101744336D01*
X151307671Y-101600000D01*
X151288669Y-101455664D01*
X151232957Y-101321165D01*
X151232955Y-101321162D01*
X151144333Y-101205666D01*
X151028839Y-101117045D01*
X151028838Y-101117044D01*
X151028836Y-101117043D01*
X150941891Y-101081029D01*
X150894337Y-101061331D01*
X150750000Y-101042329D01*
X150605662Y-101061331D01*
X150471163Y-101117044D01*
X150471162Y-101117044D01*
X150355666Y-101205666D01*
X150267044Y-101321162D01*
X150267044Y-101321163D01*
X150211331Y-101455662D01*
X150211331Y-101455664D01*
X150192329Y-101600000D01*
X69135000Y-101600000D01*
X69135000Y-97033500D01*
X104796829Y-97033500D01*
X104815831Y-97177836D01*
X104871543Y-97312336D01*
X104871544Y-97312338D01*
X104871545Y-97312339D01*
X104960166Y-97427833D01*
X105075660Y-97516454D01*
X105075664Y-97516457D01*
X105210164Y-97572169D01*
X105354500Y-97591171D01*
X105498836Y-97572169D01*
X105633336Y-97516457D01*
X105748833Y-97427833D01*
X105762900Y-97409500D01*
X150572829Y-97409500D01*
X150591831Y-97553836D01*
X150647543Y-97688336D01*
X150647544Y-97688338D01*
X150647545Y-97688339D01*
X150736166Y-97803833D01*
X150851660Y-97892454D01*
X150851664Y-97892457D01*
X150986164Y-97948169D01*
X151130500Y-97967171D01*
X151274836Y-97948169D01*
X151409336Y-97892457D01*
X151524833Y-97803833D01*
X151613457Y-97688336D01*
X151669169Y-97553836D01*
X151688171Y-97409500D01*
X151671715Y-97284500D01*
X190252829Y-97284500D01*
X190271831Y-97428836D01*
X190327543Y-97563336D01*
X190327544Y-97563338D01*
X190327545Y-97563339D01*
X190416166Y-97678833D01*
X190428555Y-97688339D01*
X190531664Y-97767457D01*
X190666164Y-97823169D01*
X190810500Y-97842171D01*
X190954836Y-97823169D01*
X191089336Y-97767457D01*
X191204833Y-97678833D01*
X191293457Y-97563336D01*
X191349169Y-97428836D01*
X191368171Y-97284500D01*
X191349169Y-97140164D01*
X191293457Y-97005665D01*
X191232746Y-96926544D01*
X191204833Y-96890166D01*
X191089339Y-96801545D01*
X191089338Y-96801544D01*
X191089336Y-96801543D01*
X191002391Y-96765529D01*
X190954837Y-96745831D01*
X190810500Y-96726829D01*
X190666162Y-96745831D01*
X190531663Y-96801544D01*
X190531662Y-96801544D01*
X190416166Y-96890166D01*
X190327544Y-97005662D01*
X190327544Y-97005663D01*
X190271831Y-97140162D01*
X190271831Y-97140164D01*
X190252829Y-97284500D01*
X151671715Y-97284500D01*
X151669169Y-97265164D01*
X151613457Y-97130665D01*
X151613455Y-97130662D01*
X151524833Y-97015166D01*
X151409339Y-96926545D01*
X151409338Y-96926544D01*
X151409336Y-96926543D01*
X151319091Y-96889162D01*
X151274837Y-96870831D01*
X151130500Y-96851829D01*
X150986162Y-96870831D01*
X150851663Y-96926544D01*
X150851662Y-96926544D01*
X150736166Y-97015166D01*
X150647544Y-97130662D01*
X150647544Y-97130663D01*
X150591831Y-97265162D01*
X150591831Y-97265164D01*
X150572829Y-97409500D01*
X105762900Y-97409500D01*
X105837457Y-97312336D01*
X105893169Y-97177836D01*
X105912171Y-97033500D01*
X105893169Y-96889164D01*
X105837457Y-96754665D01*
X105837455Y-96754662D01*
X105748833Y-96639166D01*
X105633339Y-96550545D01*
X105633338Y-96550544D01*
X105633336Y-96550543D01*
X105546391Y-96514529D01*
X105498837Y-96494831D01*
X105354500Y-96475829D01*
X105210162Y-96494831D01*
X105075663Y-96550544D01*
X105075662Y-96550544D01*
X104960166Y-96639166D01*
X104871544Y-96754662D01*
X104871544Y-96754663D01*
X104815831Y-96889162D01*
X104799243Y-97015166D01*
X104796829Y-97033500D01*
X69135000Y-97033500D01*
X69135000Y-96012500D01*
X166574829Y-96012500D01*
X166593831Y-96156836D01*
X166649543Y-96291336D01*
X166649544Y-96291338D01*
X166649545Y-96291339D01*
X166738166Y-96406833D01*
X166828084Y-96475829D01*
X166853664Y-96495457D01*
X166988164Y-96551169D01*
X167132500Y-96570171D01*
X167276836Y-96551169D01*
X167411336Y-96495457D01*
X167526833Y-96406833D01*
X167615457Y-96291336D01*
X167671169Y-96156836D01*
X167690171Y-96012500D01*
X167671169Y-95868164D01*
X167615457Y-95733665D01*
X167615455Y-95733662D01*
X167526833Y-95618166D01*
X167411339Y-95529545D01*
X167411338Y-95529544D01*
X167411336Y-95529543D01*
X167324391Y-95493529D01*
X167276837Y-95473831D01*
X167132500Y-95454829D01*
X166988162Y-95473831D01*
X166853663Y-95529544D01*
X166853662Y-95529544D01*
X166738166Y-95618166D01*
X166649544Y-95733662D01*
X166649544Y-95733663D01*
X166593831Y-95868162D01*
X166593831Y-95868164D01*
X166574829Y-96012500D01*
X69135000Y-96012500D01*
X69135000Y-94361500D01*
X162063792Y-94361500D01*
X162082972Y-94543987D01*
X162139671Y-94718491D01*
X162139674Y-94718498D01*
X162231416Y-94877400D01*
X162231417Y-94877402D01*
X162354200Y-95013766D01*
X162502642Y-95121615D01*
X162502645Y-95121616D01*
X162502646Y-95121617D01*
X162670273Y-95196250D01*
X162849755Y-95234400D01*
X162849757Y-95234400D01*
X163033243Y-95234400D01*
X163033245Y-95234400D01*
X163212727Y-95196250D01*
X163380354Y-95121617D01*
X163380357Y-95121615D01*
X163528799Y-95013766D01*
X163528801Y-95013764D01*
X163651581Y-94877404D01*
X163743326Y-94718496D01*
X163800028Y-94543986D01*
X163819208Y-94361500D01*
X163800028Y-94179014D01*
X163781127Y-94120844D01*
X163743328Y-94004508D01*
X163743325Y-94004501D01*
X163651583Y-93845599D01*
X163651582Y-93845597D01*
X163528799Y-93709233D01*
X163380357Y-93601384D01*
X163212728Y-93526750D01*
X163152899Y-93514033D01*
X163033245Y-93488600D01*
X162849755Y-93488600D01*
X162760014Y-93507675D01*
X162670271Y-93526750D01*
X162502642Y-93601384D01*
X162354200Y-93709233D01*
X162231417Y-93845597D01*
X162231416Y-93845599D01*
X162139674Y-94004501D01*
X162139671Y-94004508D01*
X162082972Y-94179012D01*
X162063792Y-94361500D01*
X69135000Y-94361500D01*
X69135000Y-93345500D01*
X104852829Y-93345500D01*
X104871831Y-93489836D01*
X104927543Y-93624336D01*
X104927544Y-93624338D01*
X104927545Y-93624339D01*
X105016166Y-93739833D01*
X105131660Y-93828454D01*
X105131664Y-93828457D01*
X105266164Y-93884169D01*
X105410500Y-93903171D01*
X105554836Y-93884169D01*
X105689336Y-93828457D01*
X105804833Y-93739833D01*
X105893457Y-93624336D01*
X105949169Y-93489836D01*
X105968171Y-93345500D01*
X105949169Y-93201164D01*
X105893457Y-93066665D01*
X105893455Y-93066662D01*
X105804833Y-92951166D01*
X105689339Y-92862545D01*
X105689338Y-92862544D01*
X105689336Y-92862543D01*
X105602391Y-92826529D01*
X105554837Y-92806831D01*
X105410500Y-92787829D01*
X105266162Y-92806831D01*
X105131663Y-92862544D01*
X105131662Y-92862544D01*
X105016166Y-92951166D01*
X104927544Y-93066662D01*
X104927544Y-93066663D01*
X104871831Y-93201162D01*
X104871831Y-93201164D01*
X104852829Y-93345500D01*
X69135000Y-93345500D01*
X69135000Y-90281039D01*
X77041600Y-90281039D01*
X77062684Y-90393831D01*
X77082222Y-90498352D01*
X77097647Y-90538167D01*
X77142390Y-90653662D01*
X77162087Y-90704503D01*
X77278464Y-90892458D01*
X77278464Y-90892459D01*
X77278465Y-90892460D01*
X77278467Y-90892463D01*
X77427405Y-91055841D01*
X77427409Y-91055844D01*
X77427410Y-91055845D01*
X77603831Y-91189071D01*
X77801727Y-91287611D01*
X77801730Y-91287613D01*
X78014362Y-91348112D01*
X78014363Y-91348112D01*
X78014366Y-91348113D01*
X78095392Y-91355621D01*
X78179336Y-91363400D01*
X78179342Y-91363400D01*
X79809664Y-91363400D01*
X79887044Y-91356229D01*
X79974634Y-91348113D01*
X79974638Y-91348112D01*
X80187269Y-91287613D01*
X80187271Y-91287612D01*
X80385172Y-91189069D01*
X80561595Y-91055841D01*
X80674035Y-90932500D01*
X123394829Y-90932500D01*
X123411067Y-91055845D01*
X123413831Y-91076836D01*
X123469543Y-91211336D01*
X123469544Y-91211338D01*
X123469545Y-91211339D01*
X123558166Y-91326833D01*
X123673660Y-91415454D01*
X123673664Y-91415457D01*
X123808164Y-91471169D01*
X123952500Y-91490171D01*
X124096836Y-91471169D01*
X124231336Y-91415457D01*
X124346833Y-91326833D01*
X124435457Y-91211336D01*
X124491169Y-91076836D01*
X124510171Y-90932500D01*
X124491169Y-90788164D01*
X124435457Y-90653665D01*
X124435455Y-90653662D01*
X124346833Y-90538166D01*
X124231339Y-90449545D01*
X124231338Y-90449544D01*
X124231336Y-90449543D01*
X124144391Y-90413529D01*
X124096837Y-90393831D01*
X123952500Y-90374829D01*
X123808162Y-90393831D01*
X123673663Y-90449544D01*
X123673662Y-90449544D01*
X123558166Y-90538166D01*
X123469544Y-90653662D01*
X123469544Y-90653663D01*
X123413831Y-90788162D01*
X123394829Y-90932500D01*
X80674035Y-90932500D01*
X80710533Y-90892463D01*
X80826915Y-90704499D01*
X80906778Y-90498351D01*
X80947400Y-90281039D01*
X80947400Y-90059961D01*
X80906778Y-89842649D01*
X80836987Y-89662500D01*
X91771829Y-89662500D01*
X91790831Y-89806836D01*
X91846543Y-89941336D01*
X91846544Y-89941338D01*
X91846545Y-89941339D01*
X91935166Y-90056833D01*
X92050660Y-90145454D01*
X92050664Y-90145457D01*
X92185164Y-90201169D01*
X92329500Y-90220171D01*
X92473836Y-90201169D01*
X92608336Y-90145457D01*
X92723833Y-90056833D01*
X92812457Y-89941336D01*
X92868169Y-89806836D01*
X92887171Y-89662500D01*
X92868169Y-89518164D01*
X92812457Y-89383665D01*
X92812455Y-89383662D01*
X92723833Y-89268166D01*
X92608339Y-89179545D01*
X92608338Y-89179544D01*
X92608336Y-89179543D01*
X92521391Y-89143529D01*
X92473837Y-89123831D01*
X92329500Y-89104829D01*
X92185162Y-89123831D01*
X92050663Y-89179544D01*
X92050662Y-89179544D01*
X91935166Y-89268166D01*
X91846544Y-89383662D01*
X91846544Y-89383663D01*
X91790831Y-89518162D01*
X91790831Y-89518164D01*
X91771829Y-89662500D01*
X80836987Y-89662500D01*
X80826915Y-89636501D01*
X80710533Y-89448537D01*
X80561595Y-89285159D01*
X80561590Y-89285155D01*
X80561589Y-89285154D01*
X80385168Y-89151928D01*
X80187272Y-89053388D01*
X80187269Y-89053386D01*
X79974637Y-88992887D01*
X79974638Y-88992887D01*
X79809664Y-88977600D01*
X79809658Y-88977600D01*
X78179342Y-88977600D01*
X78179336Y-88977600D01*
X78014361Y-88992887D01*
X77801730Y-89053386D01*
X77801727Y-89053388D01*
X77603831Y-89151928D01*
X77427410Y-89285154D01*
X77278464Y-89448540D01*
X77278464Y-89448541D01*
X77162087Y-89636496D01*
X77082222Y-89842647D01*
X77082222Y-89842649D01*
X77041600Y-90059961D01*
X77041600Y-90281039D01*
X69135000Y-90281039D01*
X69135000Y-86868500D01*
X168098829Y-86868500D01*
X168117831Y-87012836D01*
X168173543Y-87147336D01*
X168173544Y-87147338D01*
X168173545Y-87147339D01*
X168262166Y-87262833D01*
X168377660Y-87351454D01*
X168377664Y-87351457D01*
X168512164Y-87407169D01*
X168656500Y-87426171D01*
X168800836Y-87407169D01*
X168935336Y-87351457D01*
X169050833Y-87262833D01*
X169139457Y-87147336D01*
X169195169Y-87012836D01*
X169214171Y-86868500D01*
X169195169Y-86724164D01*
X169139457Y-86589665D01*
X169139455Y-86589662D01*
X169050833Y-86474166D01*
X168935339Y-86385545D01*
X168935338Y-86385544D01*
X168935336Y-86385543D01*
X168848391Y-86349529D01*
X168800837Y-86329831D01*
X168656500Y-86310829D01*
X168512162Y-86329831D01*
X168377663Y-86385544D01*
X168377662Y-86385544D01*
X168262166Y-86474166D01*
X168173544Y-86589662D01*
X168173544Y-86589663D01*
X168117831Y-86724162D01*
X168117831Y-86724164D01*
X168098829Y-86868500D01*
X69135000Y-86868500D01*
X69135000Y-85852500D01*
X87834829Y-85852500D01*
X87853831Y-85996836D01*
X87909543Y-86131336D01*
X87909544Y-86131338D01*
X87909545Y-86131339D01*
X87998166Y-86246833D01*
X88081568Y-86310829D01*
X88113664Y-86335457D01*
X88248164Y-86391169D01*
X88392500Y-86410171D01*
X88536836Y-86391169D01*
X88671336Y-86335457D01*
X88786833Y-86246833D01*
X88875457Y-86131336D01*
X88931169Y-85996836D01*
X88950171Y-85852500D01*
X88931169Y-85708164D01*
X88875457Y-85573665D01*
X88875455Y-85573662D01*
X88786833Y-85458166D01*
X88671339Y-85369545D01*
X88671338Y-85369544D01*
X88671336Y-85369543D01*
X88584391Y-85333529D01*
X88536837Y-85313831D01*
X88392500Y-85294829D01*
X88248162Y-85313831D01*
X88113663Y-85369544D01*
X88113662Y-85369544D01*
X87998166Y-85458166D01*
X87909544Y-85573662D01*
X87909544Y-85573663D01*
X87853831Y-85708162D01*
X87835077Y-85850615D01*
X87834829Y-85852500D01*
X69135000Y-85852500D01*
X69135000Y-85090500D01*
X204735792Y-85090500D01*
X204754972Y-85272987D01*
X204811671Y-85447491D01*
X204811674Y-85447498D01*
X204903416Y-85606400D01*
X204903417Y-85606402D01*
X205026200Y-85742766D01*
X205174642Y-85850615D01*
X205174645Y-85850616D01*
X205174646Y-85850617D01*
X205342273Y-85925250D01*
X205521755Y-85963400D01*
X205521757Y-85963400D01*
X205705243Y-85963400D01*
X205705245Y-85963400D01*
X205884727Y-85925250D01*
X206052354Y-85850617D01*
X206052357Y-85850615D01*
X206200799Y-85742766D01*
X206231957Y-85708162D01*
X206323581Y-85606404D01*
X206415326Y-85447496D01*
X206472028Y-85272986D01*
X206491208Y-85090500D01*
X206472028Y-84908014D01*
X206453127Y-84849844D01*
X206415328Y-84733508D01*
X206415325Y-84733501D01*
X206323583Y-84574599D01*
X206323582Y-84574597D01*
X206200799Y-84438233D01*
X206052357Y-84330384D01*
X205884728Y-84255750D01*
X205824899Y-84243033D01*
X205705245Y-84217600D01*
X205521755Y-84217600D01*
X205432014Y-84236675D01*
X205342271Y-84255750D01*
X205174642Y-84330384D01*
X205026200Y-84438233D01*
X204903417Y-84574597D01*
X204903416Y-84574599D01*
X204811674Y-84733501D01*
X204811671Y-84733508D01*
X204754972Y-84908012D01*
X204735792Y-85090500D01*
X69135000Y-85090500D01*
X69135000Y-82042500D01*
X208230829Y-82042500D01*
X208249831Y-82186836D01*
X208305543Y-82321336D01*
X208305544Y-82321338D01*
X208305545Y-82321339D01*
X208394166Y-82436833D01*
X208509660Y-82525454D01*
X208509664Y-82525457D01*
X208644164Y-82581169D01*
X208788500Y-82600171D01*
X208932836Y-82581169D01*
X209067336Y-82525457D01*
X209182833Y-82436833D01*
X209271457Y-82321336D01*
X209327169Y-82186836D01*
X209346171Y-82042500D01*
X209327169Y-81898164D01*
X209271457Y-81763665D01*
X209271455Y-81763662D01*
X209182833Y-81648166D01*
X209067339Y-81559545D01*
X209067338Y-81559544D01*
X209067336Y-81559543D01*
X208980391Y-81523529D01*
X208932837Y-81503831D01*
X208788500Y-81484829D01*
X208644162Y-81503831D01*
X208509663Y-81559544D01*
X208509662Y-81559544D01*
X208394166Y-81648166D01*
X208305544Y-81763662D01*
X208305544Y-81763663D01*
X208249831Y-81898162D01*
X208249831Y-81898164D01*
X208230829Y-82042500D01*
X69135000Y-82042500D01*
X69135000Y-80832202D01*
X77041600Y-80832202D01*
X77041601Y-80832214D01*
X77056541Y-80926553D01*
X77114485Y-81040273D01*
X77204726Y-81130514D01*
X77204728Y-81130515D01*
X77204729Y-81130516D01*
X77318442Y-81188456D01*
X77318444Y-81188457D01*
X77412791Y-81203400D01*
X80576208Y-81203399D01*
X80584385Y-81202103D01*
X80670553Y-81188458D01*
X80670554Y-81188457D01*
X80670556Y-81188457D01*
X80784271Y-81130516D01*
X80874516Y-81040271D01*
X80932457Y-80926556D01*
X80947400Y-80832209D01*
X80947399Y-79188792D01*
X80947398Y-79188785D01*
X80932458Y-79094446D01*
X80874514Y-78980726D01*
X80784273Y-78890485D01*
X80670556Y-78832543D01*
X80670558Y-78832543D01*
X80623382Y-78825071D01*
X80576209Y-78817600D01*
X80576207Y-78817600D01*
X77412797Y-78817600D01*
X77412785Y-78817601D01*
X77318446Y-78832541D01*
X77204726Y-78890485D01*
X77114485Y-78980726D01*
X77056543Y-79094442D01*
X77041600Y-79188788D01*
X77041600Y-80832202D01*
X69135000Y-80832202D01*
X69135000Y-75819500D01*
X119330829Y-75819500D01*
X119349831Y-75963836D01*
X119405543Y-76098336D01*
X119405544Y-76098338D01*
X119405545Y-76098339D01*
X119494166Y-76213833D01*
X119609660Y-76302454D01*
X119609664Y-76302457D01*
X119744164Y-76358169D01*
X119888500Y-76377171D01*
X120032836Y-76358169D01*
X120167336Y-76302457D01*
X120282833Y-76213833D01*
X120371457Y-76098336D01*
X120427169Y-75963836D01*
X120446171Y-75819500D01*
X120427169Y-75675164D01*
X120371457Y-75540665D01*
X120371455Y-75540662D01*
X120282833Y-75425166D01*
X120167339Y-75336545D01*
X120167338Y-75336544D01*
X120167336Y-75336543D01*
X120080391Y-75300529D01*
X120032837Y-75280831D01*
X119888500Y-75261829D01*
X119744162Y-75280831D01*
X119609663Y-75336544D01*
X119609662Y-75336544D01*
X119494166Y-75425166D01*
X119405544Y-75540662D01*
X119405544Y-75540663D01*
X119349831Y-75675162D01*
X119349831Y-75675164D01*
X119330829Y-75819500D01*
X69135000Y-75819500D01*
X69135000Y-73533500D01*
X108027829Y-73533500D01*
X108046831Y-73677836D01*
X108102543Y-73812336D01*
X108102544Y-73812338D01*
X108102545Y-73812339D01*
X108191166Y-73927833D01*
X108306660Y-74016454D01*
X108306664Y-74016457D01*
X108441164Y-74072169D01*
X108585500Y-74091171D01*
X108729836Y-74072169D01*
X108864336Y-74016457D01*
X108979833Y-73927833D01*
X109068457Y-73812336D01*
X109124169Y-73677836D01*
X109143171Y-73533500D01*
X109124169Y-73389164D01*
X109068457Y-73254665D01*
X109068455Y-73254662D01*
X108979833Y-73139166D01*
X108864339Y-73050545D01*
X108864338Y-73050544D01*
X108864336Y-73050543D01*
X108777391Y-73014529D01*
X108729837Y-72994831D01*
X108585500Y-72975829D01*
X108441162Y-72994831D01*
X108306663Y-73050544D01*
X108306662Y-73050544D01*
X108191166Y-73139166D01*
X108102544Y-73254662D01*
X108102544Y-73254663D01*
X108046831Y-73389162D01*
X108046831Y-73389164D01*
X108027829Y-73533500D01*
X69135000Y-73533500D01*
X69135000Y-68376282D01*
X73284287Y-68376282D01*
X73294183Y-68684851D01*
X73294185Y-68684870D01*
X73343460Y-68989655D01*
X73431305Y-69285634D01*
X73431307Y-69285641D01*
X73556282Y-69567962D01*
X73716332Y-69831980D01*
X73716336Y-69831986D01*
X73750909Y-69875339D01*
X73908837Y-70073376D01*
X74130622Y-70288163D01*
X74378051Y-70472824D01*
X74378069Y-70472836D01*
X74647073Y-70624336D01*
X74647075Y-70624336D01*
X74647079Y-70624339D01*
X74801512Y-70686862D01*
X74933260Y-70740201D01*
X74933261Y-70740201D01*
X74933263Y-70740202D01*
X75231913Y-70818518D01*
X75538126Y-70858000D01*
X75538128Y-70858000D01*
X75769592Y-70858000D01*
X75769599Y-70858000D01*
X75809149Y-70855460D01*
X76000604Y-70843169D01*
X76000607Y-70843168D01*
X76000614Y-70843168D01*
X76303668Y-70784149D01*
X76596687Y-70686860D01*
X76874859Y-70552899D01*
X77133617Y-70384466D01*
X77368712Y-70184327D01*
X77576284Y-69955768D01*
X77752924Y-69702541D01*
X77808245Y-69596500D01*
X150192829Y-69596500D01*
X150211831Y-69740836D01*
X150267543Y-69875336D01*
X150267544Y-69875338D01*
X150267545Y-69875339D01*
X150356166Y-69990833D01*
X150463738Y-70073375D01*
X150471664Y-70079457D01*
X150606164Y-70135169D01*
X150750500Y-70154171D01*
X150894836Y-70135169D01*
X151029336Y-70079457D01*
X151144833Y-69990833D01*
X151233457Y-69875336D01*
X151289169Y-69740836D01*
X151308171Y-69596500D01*
X151289169Y-69452164D01*
X151233457Y-69317665D01*
X151233455Y-69317662D01*
X151144833Y-69202166D01*
X151029339Y-69113545D01*
X151029338Y-69113544D01*
X151029336Y-69113543D01*
X150942391Y-69077529D01*
X150894837Y-69057831D01*
X150750500Y-69038829D01*
X150606162Y-69057831D01*
X150471663Y-69113544D01*
X150471662Y-69113544D01*
X150356166Y-69202166D01*
X150267544Y-69317662D01*
X150267544Y-69317663D01*
X150211831Y-69452162D01*
X150211831Y-69452164D01*
X150192829Y-69596500D01*
X77808245Y-69596500D01*
X77895731Y-69428805D01*
X78002362Y-69139055D01*
X78071065Y-68838048D01*
X78100712Y-68530727D01*
X78095759Y-68376282D01*
X223271287Y-68376282D01*
X223281183Y-68684851D01*
X223281185Y-68684870D01*
X223330460Y-68989655D01*
X223418305Y-69285634D01*
X223418307Y-69285641D01*
X223543282Y-69567962D01*
X223703332Y-69831980D01*
X223703336Y-69831986D01*
X223737909Y-69875339D01*
X223895837Y-70073376D01*
X224117622Y-70288163D01*
X224365051Y-70472824D01*
X224365069Y-70472836D01*
X224634073Y-70624336D01*
X224634075Y-70624336D01*
X224634079Y-70624339D01*
X224788512Y-70686862D01*
X224920260Y-70740201D01*
X224920261Y-70740201D01*
X224920263Y-70740202D01*
X225218913Y-70818518D01*
X225525126Y-70858000D01*
X225525128Y-70858000D01*
X225756592Y-70858000D01*
X225756599Y-70858000D01*
X225796149Y-70855460D01*
X225987604Y-70843169D01*
X225987607Y-70843168D01*
X225987614Y-70843168D01*
X226290668Y-70784149D01*
X226583687Y-70686860D01*
X226861859Y-70552899D01*
X227120617Y-70384466D01*
X227355712Y-70184327D01*
X227563284Y-69955768D01*
X227739924Y-69702541D01*
X227882731Y-69428805D01*
X227989362Y-69139055D01*
X228058065Y-68838048D01*
X228087712Y-68530727D01*
X228077816Y-68222137D01*
X228028540Y-67917347D01*
X227940693Y-67621360D01*
X227815717Y-67339037D01*
X227655664Y-67075014D01*
X227556948Y-66951228D01*
X227463162Y-66833623D01*
X227241377Y-66618836D01*
X226993948Y-66434175D01*
X226993930Y-66434163D01*
X226724926Y-66282663D01*
X226438739Y-66166798D01*
X226271153Y-66122852D01*
X226140087Y-66088482D01*
X225833874Y-66049000D01*
X225602401Y-66049000D01*
X225602396Y-66049000D01*
X225602370Y-66049001D01*
X225371395Y-66063830D01*
X225371384Y-66063832D01*
X225068336Y-66122850D01*
X225068327Y-66122852D01*
X224775321Y-66220137D01*
X224775310Y-66220141D01*
X224497145Y-66354098D01*
X224497136Y-66354103D01*
X224238385Y-66522531D01*
X224003287Y-66722673D01*
X223795719Y-66951228D01*
X223795714Y-66951234D01*
X223619077Y-67204456D01*
X223619073Y-67204463D01*
X223476271Y-67478189D01*
X223369638Y-67767943D01*
X223300935Y-68068952D01*
X223271287Y-68376282D01*
X78095759Y-68376282D01*
X78090816Y-68222137D01*
X78041540Y-67917347D01*
X77953693Y-67621360D01*
X77828717Y-67339037D01*
X77668664Y-67075014D01*
X77569948Y-66951228D01*
X77476162Y-66833623D01*
X77254377Y-66618836D01*
X77006948Y-66434175D01*
X77006930Y-66434163D01*
X76737926Y-66282663D01*
X76451739Y-66166798D01*
X76284153Y-66122852D01*
X76153087Y-66088482D01*
X75846874Y-66049000D01*
X75615401Y-66049000D01*
X75615396Y-66049000D01*
X75615370Y-66049001D01*
X75384395Y-66063830D01*
X75384384Y-66063832D01*
X75081336Y-66122850D01*
X75081327Y-66122852D01*
X74788321Y-66220137D01*
X74788310Y-66220141D01*
X74510145Y-66354098D01*
X74510136Y-66354103D01*
X74251385Y-66522531D01*
X74016287Y-66722673D01*
X73808719Y-66951228D01*
X73808714Y-66951234D01*
X73632077Y-67204456D01*
X73632073Y-67204463D01*
X73489271Y-67478189D01*
X73382638Y-67767943D01*
X73313935Y-68068952D01*
X73284287Y-68376282D01*
X69135000Y-68376282D01*
X69135000Y-66677130D01*
X69135072Y-66673850D01*
X69136216Y-66647656D01*
X69153043Y-66262218D01*
X69153614Y-66255692D01*
X69207186Y-65848772D01*
X69208319Y-65842354D01*
X69248857Y-65659500D01*
X105106829Y-65659500D01*
X105125831Y-65803836D01*
X105181543Y-65938336D01*
X105181544Y-65938338D01*
X105181545Y-65938339D01*
X105270166Y-66053833D01*
X105360113Y-66122851D01*
X105385664Y-66142457D01*
X105520164Y-66198169D01*
X105664500Y-66217171D01*
X105808836Y-66198169D01*
X105943336Y-66142457D01*
X106058833Y-66053833D01*
X106147457Y-65938336D01*
X106203169Y-65803836D01*
X106222171Y-65659500D01*
X106203169Y-65515164D01*
X106147457Y-65380665D01*
X106147455Y-65380662D01*
X106058833Y-65265166D01*
X105943339Y-65176545D01*
X105943338Y-65176544D01*
X105943336Y-65176543D01*
X105852545Y-65138936D01*
X105808837Y-65120831D01*
X105664500Y-65101829D01*
X105520162Y-65120831D01*
X105385663Y-65176544D01*
X105385662Y-65176544D01*
X105270166Y-65265166D01*
X105181544Y-65380662D01*
X105181544Y-65380663D01*
X105125831Y-65515162D01*
X105125831Y-65515164D01*
X105106829Y-65659500D01*
X69248857Y-65659500D01*
X69297149Y-65441667D01*
X69298842Y-65435353D01*
X69422253Y-65043945D01*
X69424496Y-65037780D01*
X69472313Y-64922339D01*
X69581554Y-64658608D01*
X69584310Y-64652698D01*
X69589098Y-64643500D01*
X106630829Y-64643500D01*
X106649831Y-64787836D01*
X106705543Y-64922336D01*
X106705544Y-64922338D01*
X106705545Y-64922339D01*
X106794166Y-65037833D01*
X106877568Y-65101829D01*
X106909664Y-65126457D01*
X107044164Y-65182169D01*
X107188500Y-65201171D01*
X107332836Y-65182169D01*
X107467336Y-65126457D01*
X107582833Y-65037833D01*
X107671457Y-64922336D01*
X107727169Y-64787836D01*
X107746171Y-64643500D01*
X107727169Y-64499164D01*
X107671457Y-64364665D01*
X107613138Y-64288661D01*
X107582833Y-64249166D01*
X107467339Y-64160545D01*
X107467338Y-64160544D01*
X107467336Y-64160543D01*
X107380391Y-64124529D01*
X107332837Y-64104831D01*
X107188500Y-64085829D01*
X107044162Y-64104831D01*
X106909663Y-64160544D01*
X106909662Y-64160544D01*
X106794166Y-64249166D01*
X106705544Y-64364662D01*
X106705544Y-64364663D01*
X106649831Y-64499162D01*
X106649831Y-64499164D01*
X106630829Y-64643500D01*
X69589098Y-64643500D01*
X69773822Y-64288649D01*
X69777089Y-64282991D01*
X69997605Y-63936849D01*
X70001355Y-63931494D01*
X70251197Y-63605895D01*
X70255412Y-63600873D01*
X70532681Y-63298285D01*
X70537285Y-63293681D01*
X70839875Y-63016410D01*
X70844898Y-63012195D01*
X71170494Y-62762355D01*
X71175849Y-62758605D01*
X71521991Y-62538089D01*
X71527649Y-62534822D01*
X71891698Y-62345310D01*
X71897608Y-62342554D01*
X72276782Y-62185494D01*
X72282945Y-62183253D01*
X72674353Y-62059842D01*
X72680667Y-62058149D01*
X73081354Y-61969319D01*
X73087772Y-61968186D01*
X73494702Y-61914613D01*
X73501218Y-61914043D01*
X73912851Y-61896072D01*
X73916131Y-61896000D01*
X73962095Y-61896000D01*
X228806905Y-61896000D01*
X228852869Y-61896000D01*
X228856149Y-61896072D01*
G37*
%TD.AperFunction*%
%TD*%
M02*
