%TF.GenerationSoftware,KiCad,Pcbnew,7.0.10-7.0.10~ubuntu22.04.1*%
%TF.CreationDate,2024-02-25T13:06:28-06:00*%
%TF.ProjectId,aom_driver,616f6d5f-6472-4697-9665-722e6b696361,v1*%
%TF.SameCoordinates,Original*%
%TF.FileFunction,Paste,Top*%
%TF.FilePolarity,Positive*%
%FSLAX46Y46*%
G04 Gerber Fmt 4.6, Leading zero omitted, Abs format (unit mm)*
G04 Created by KiCad (PCBNEW 7.0.10-7.0.10~ubuntu22.04.1) date 2024-02-25 13:06:28*
%MOMM*%
%LPD*%
G01*
G04 APERTURE LIST*
G04 Aperture macros list*
%AMRoundRect*
0 Rectangle with rounded corners*
0 $1 Rounding radius*
0 $2 $3 $4 $5 $6 $7 $8 $9 X,Y pos of 4 corners*
0 Add a 4 corners polygon primitive as box body*
4,1,4,$2,$3,$4,$5,$6,$7,$8,$9,$2,$3,0*
0 Add four circle primitives for the rounded corners*
1,1,$1+$1,$2,$3*
1,1,$1+$1,$4,$5*
1,1,$1+$1,$6,$7*
1,1,$1+$1,$8,$9*
0 Add four rect primitives between the rounded corners*
20,1,$1+$1,$2,$3,$4,$5,0*
20,1,$1+$1,$4,$5,$6,$7,0*
20,1,$1+$1,$6,$7,$8,$9,0*
20,1,$1+$1,$8,$9,$2,$3,0*%
%AMFreePoly0*
4,1,9,3.862500,-0.866500,0.737500,-0.866500,0.737500,-0.450000,-0.737500,-0.450000,-0.737500,0.450000,0.737500,0.450000,0.737500,0.866500,3.862500,0.866500,3.862500,-0.866500,3.862500,-0.866500,$1*%
G04 Aperture macros list end*
%ADD10RoundRect,0.250000X-0.350000X-0.450000X0.350000X-0.450000X0.350000X0.450000X-0.350000X0.450000X0*%
%ADD11RoundRect,0.250000X0.337500X0.475000X-0.337500X0.475000X-0.337500X-0.475000X0.337500X-0.475000X0*%
%ADD12R,1.000000X0.640000*%
%ADD13R,0.250000X0.700000*%
%ADD14RoundRect,0.250000X0.350000X0.450000X-0.350000X0.450000X-0.350000X-0.450000X0.350000X-0.450000X0*%
%ADD15RoundRect,0.250000X-0.337500X-0.475000X0.337500X-0.475000X0.337500X0.475000X-0.337500X0.475000X0*%
%ADD16R,3.600000X1.270000*%
%ADD17R,4.200000X1.350000*%
%ADD18RoundRect,0.237500X-0.287500X-0.237500X0.287500X-0.237500X0.287500X0.237500X-0.287500X0.237500X0*%
%ADD19RoundRect,0.250000X-0.450000X0.350000X-0.450000X-0.350000X0.450000X-0.350000X0.450000X0.350000X0*%
%ADD20RoundRect,0.250000X-0.475000X0.337500X-0.475000X-0.337500X0.475000X-0.337500X0.475000X0.337500X0*%
%ADD21RoundRect,0.237500X0.287500X0.237500X-0.287500X0.237500X-0.287500X-0.237500X0.287500X-0.237500X0*%
%ADD22R,0.800000X0.700000*%
%ADD23R,2.300000X0.700000*%
%ADD24R,0.760000X0.330000*%
%ADD25R,0.510000X0.940000*%
%ADD26R,1.220000X2.130000*%
%ADD27RoundRect,0.250000X0.475000X-0.337500X0.475000X0.337500X-0.475000X0.337500X-0.475000X-0.337500X0*%
%ADD28RoundRect,0.250000X0.350000X-0.275000X0.350000X0.275000X-0.350000X0.275000X-0.350000X-0.275000X0*%
%ADD29RoundRect,0.250000X0.450000X-0.350000X0.450000X0.350000X-0.450000X0.350000X-0.450000X-0.350000X0*%
%ADD30RoundRect,0.150000X0.150000X-0.512500X0.150000X0.512500X-0.150000X0.512500X-0.150000X-0.512500X0*%
%ADD31R,1.524000X1.524000*%
%ADD32R,1.520000X1.520000*%
%ADD33RoundRect,0.228000X0.597000X0.532000X-0.597000X0.532000X-0.597000X-0.532000X0.597000X-0.532000X0*%
%ADD34RoundRect,0.228000X0.532000X0.597000X-0.532000X0.597000X-0.532000X-0.597000X0.532000X-0.597000X0*%
%ADD35RoundRect,0.237500X0.237500X-0.287500X0.237500X0.287500X-0.237500X0.287500X-0.237500X-0.287500X0*%
%ADD36R,0.900000X1.300000*%
%ADD37FreePoly0,270.000000*%
%ADD38R,1.778000X1.016000*%
%ADD39R,1.016000X1.778000*%
%ADD40R,0.640000X1.000000*%
%ADD41R,0.700000X0.250000*%
G04 APERTURE END LIST*
D10*
%TO.C,R54*%
X83201000Y-99618000D03*
X85201000Y-99618000D03*
%TD*%
D11*
%TO.C,C38*%
X125878500Y-90424000D03*
X123803500Y-90424000D03*
%TD*%
D12*
%TO.C,U1*%
X191261500Y-125188000D03*
X190071500Y-125188000D03*
X191261500Y-126018000D03*
X190071500Y-126018000D03*
D13*
X191416500Y-124203000D03*
X190916500Y-124203000D03*
X190416500Y-124203000D03*
X189916500Y-124203000D03*
X189916500Y-127003000D03*
X190416500Y-127003000D03*
X190916500Y-127003000D03*
X191416500Y-127003000D03*
%TD*%
D14*
%TO.C,R3*%
X195603000Y-129285500D03*
X193603000Y-129285500D03*
%TD*%
D11*
%TO.C,C39*%
X140737500Y-108458000D03*
X138662500Y-108458000D03*
%TD*%
D10*
%TO.C,R16*%
X191277500Y-88010500D03*
X193277500Y-88010500D03*
%TD*%
D15*
%TO.C,C35*%
X117961000Y-122554500D03*
X120036000Y-122554500D03*
%TD*%
D11*
%TO.C,C17*%
X169185000Y-128015500D03*
X167110000Y-128015500D03*
%TD*%
D16*
%TO.C,J2*%
X70739500Y-106807500D03*
D17*
X70939500Y-103982500D03*
X70939500Y-109632500D03*
%TD*%
D15*
%TO.C,C53*%
X87394500Y-99618000D03*
X89469500Y-99618000D03*
%TD*%
D11*
%TO.C,C6*%
X191069500Y-97282500D03*
X188994500Y-97282500D03*
%TD*%
D18*
%TO.C,D1*%
X176671000Y-122174000D03*
X178421000Y-122174000D03*
%TD*%
D19*
%TO.C,R6*%
X200406000Y-115332000D03*
X200406000Y-117332000D03*
%TD*%
D11*
%TO.C,C26*%
X165756500Y-90297000D03*
X163681500Y-90297000D03*
%TD*%
D14*
%TO.C,R38*%
X125841000Y-87884000D03*
X123841000Y-87884000D03*
%TD*%
D11*
%TO.C,C40*%
X140738000Y-76454500D03*
X138663000Y-76454500D03*
%TD*%
D20*
%TO.C,C8*%
X205613000Y-83290500D03*
X205613000Y-85365500D03*
%TD*%
D19*
%TO.C,R10*%
X185166000Y-91964000D03*
X185166000Y-93964000D03*
%TD*%
D18*
%TO.C,D3*%
X139039000Y-121192000D03*
X140789000Y-121192000D03*
%TD*%
D21*
%TO.C,D5*%
X113142500Y-115315500D03*
X111392500Y-115315500D03*
%TD*%
D22*
%TO.C,U8*%
X177026500Y-78070500D03*
X175526500Y-78070500D03*
D23*
X176276500Y-76870500D03*
%TD*%
D14*
%TO.C,R23*%
X165718500Y-120268500D03*
X163718500Y-120268500D03*
%TD*%
D15*
%TO.C,C24*%
X151743500Y-89789000D03*
X153818500Y-89789000D03*
%TD*%
D24*
%TO.C,U17*%
X118465000Y-108813000D03*
X118465000Y-108153000D03*
X118465000Y-107493000D03*
X118465000Y-106833000D03*
X115215000Y-106833000D03*
X115215000Y-107493000D03*
X115215000Y-108153000D03*
X115215000Y-108813000D03*
D25*
X116840000Y-109358000D03*
D26*
X116840000Y-107823000D03*
D25*
X116840000Y-106288000D03*
%TD*%
D10*
%TO.C,R42*%
X108727500Y-104266500D03*
X110727500Y-104266500D03*
%TD*%
D19*
%TO.C,R9*%
X185165500Y-123967500D03*
X185165500Y-125967500D03*
%TD*%
D27*
%TO.C,C4*%
X210312500Y-79778000D03*
X210312500Y-77703000D03*
%TD*%
D21*
%TO.C,D8*%
X84695000Y-109363000D03*
X82945000Y-109363000D03*
%TD*%
D27*
%TO.C,C51*%
X91440000Y-105320500D03*
X91440000Y-103245500D03*
%TD*%
D24*
%TO.C,U19*%
X91668500Y-118592500D03*
X91668500Y-117932500D03*
X91668500Y-117272500D03*
X91668500Y-116612500D03*
X88418500Y-116612500D03*
X88418500Y-117272500D03*
X88418500Y-117932500D03*
X88418500Y-118592500D03*
D25*
X90043500Y-119137500D03*
D26*
X90043500Y-117602500D03*
D25*
X90043500Y-116067500D03*
%TD*%
D14*
%TO.C,R12*%
X182483500Y-90170500D03*
X180483500Y-90170500D03*
%TD*%
D11*
%TO.C,C48*%
X107591000Y-75438500D03*
X105516000Y-75438500D03*
%TD*%
D15*
%TO.C,C13*%
X191240500Y-90170000D03*
X193315500Y-90170000D03*
%TD*%
D28*
%TO.C,L2*%
X161473500Y-82557500D03*
X161473500Y-80257500D03*
%TD*%
D11*
%TO.C,C34*%
X161439000Y-78105500D03*
X159364000Y-78105500D03*
%TD*%
D12*
%TO.C,U5*%
X151724500Y-125060500D03*
X150534500Y-125060500D03*
X151724500Y-125890500D03*
X150534500Y-125890500D03*
D13*
X151879500Y-124075500D03*
X151379500Y-124075500D03*
X150879500Y-124075500D03*
X150379500Y-124075500D03*
X150379500Y-126875500D03*
X150879500Y-126875500D03*
X151379500Y-126875500D03*
X151879500Y-126875500D03*
%TD*%
D27*
%TO.C,C14*%
X202184000Y-79777500D03*
X202184000Y-77702500D03*
%TD*%
%TO.C,C12*%
X202183500Y-111781000D03*
X202183500Y-109706000D03*
%TD*%
D18*
%TO.C,D2*%
X176671500Y-90170500D03*
X178421500Y-90170500D03*
%TD*%
D11*
%TO.C,C41*%
X123338000Y-115315500D03*
X121263000Y-115315500D03*
%TD*%
D10*
%TO.C,R45*%
X87431500Y-109396500D03*
X89431500Y-109396500D03*
%TD*%
D15*
%TO.C,C50*%
X87394500Y-107238000D03*
X89469500Y-107238000D03*
%TD*%
%TO.C,C16*%
X151870500Y-97282000D03*
X153945500Y-97282000D03*
%TD*%
D14*
%TO.C,R25*%
X144851000Y-121192000D03*
X142851000Y-121192000D03*
%TD*%
D19*
%TO.C,R49*%
X88011000Y-92345500D03*
X88011000Y-94345500D03*
%TD*%
D11*
%TO.C,C47*%
X107336500Y-107315000D03*
X105261500Y-107315000D03*
%TD*%
D10*
%TO.C,R32*%
X168799000Y-86487000D03*
X170799000Y-86487000D03*
%TD*%
D11*
%TO.C,C44*%
X124354500Y-76454000D03*
X122279500Y-76454000D03*
%TD*%
D20*
%TO.C,C9*%
X187451500Y-123930000D03*
X187451500Y-126005000D03*
%TD*%
D12*
%TO.C,U10*%
X169632000Y-91914500D03*
X168442000Y-91914500D03*
X169632000Y-92744500D03*
X168442000Y-92744500D03*
D13*
X169787000Y-90929500D03*
X169287000Y-90929500D03*
X168787000Y-90929500D03*
X168287000Y-90929500D03*
X168287000Y-93729500D03*
X168787000Y-93729500D03*
X169287000Y-93729500D03*
X169787000Y-93729500D03*
%TD*%
D16*
%TO.C,J1*%
X70739500Y-120269500D03*
D17*
X70939500Y-117444500D03*
X70939500Y-123094500D03*
%TD*%
D14*
%TO.C,R19*%
X173211500Y-128015500D03*
X171211500Y-128015500D03*
%TD*%
%TO.C,R36*%
X125841000Y-85725000D03*
X123841000Y-85725000D03*
%TD*%
D21*
%TO.C,D6*%
X113143000Y-83312000D03*
X111393000Y-83312000D03*
%TD*%
D14*
%TO.C,R53*%
X96631000Y-134747000D03*
X94631000Y-134747000D03*
%TD*%
D22*
%TO.C,U7*%
X177026000Y-110074000D03*
X175526000Y-110074000D03*
D23*
X176276000Y-108874000D03*
%TD*%
D14*
%TO.C,R35*%
X125840500Y-117728500D03*
X123840500Y-117728500D03*
%TD*%
D10*
%TO.C,R46*%
X86503500Y-124587500D03*
X88503500Y-124587500D03*
%TD*%
D27*
%TO.C,C45*%
X113537500Y-105177000D03*
X113537500Y-103102000D03*
%TD*%
D29*
%TO.C,R30*%
X161473500Y-86344500D03*
X161473500Y-84344500D03*
%TD*%
D20*
%TO.C,C10*%
X187452000Y-91926500D03*
X187452000Y-94001500D03*
%TD*%
D19*
%TO.C,R5*%
X202946000Y-115332000D03*
X202946000Y-117332000D03*
%TD*%
D11*
%TO.C,C42*%
X123338500Y-83312000D03*
X121263500Y-83312000D03*
%TD*%
D10*
%TO.C,R15*%
X191277000Y-120014000D03*
X193277000Y-120014000D03*
%TD*%
D11*
%TO.C,C37*%
X125878000Y-122427500D03*
X123803000Y-122427500D03*
%TD*%
D14*
%TO.C,R24*%
X165719000Y-88265000D03*
X163719000Y-88265000D03*
%TD*%
D27*
%TO.C,C29*%
X163576000Y-118385500D03*
X163576000Y-116310500D03*
%TD*%
D10*
%TO.C,R40*%
X115967000Y-83312000D03*
X117967000Y-83312000D03*
%TD*%
D30*
%TO.C,U20*%
X90871500Y-129154000D03*
X91821500Y-129154000D03*
X92771500Y-129154000D03*
X92771500Y-126879000D03*
X90871500Y-126879000D03*
%TD*%
D29*
%TO.C,R14*%
X199644000Y-79740000D03*
X199644000Y-77740000D03*
%TD*%
D31*
%TO.C,X2*%
X196342500Y-82296500D03*
X196342500Y-79756500D03*
X196342500Y-77216500D03*
X196342500Y-74676500D03*
X193675500Y-72771500D03*
X191135500Y-72771500D03*
X188595500Y-72771500D03*
X186055500Y-72771500D03*
X184150500Y-75565500D03*
X184150500Y-78105500D03*
X184150500Y-80645500D03*
X184150500Y-83185500D03*
X186055500Y-84963500D03*
X188595500Y-84963500D03*
X191135500Y-84963500D03*
X193675500Y-84963500D03*
%TD*%
D27*
%TO.C,C3*%
X210312000Y-111781500D03*
X210312000Y-109706500D03*
%TD*%
D31*
%TO.C,X1*%
X196342000Y-114300000D03*
X196342000Y-111760000D03*
X196342000Y-109220000D03*
X196342000Y-106680000D03*
X193675000Y-104775000D03*
X191135000Y-104775000D03*
X188595000Y-104775000D03*
X186055000Y-104775000D03*
X184150000Y-107569000D03*
X184150000Y-110109000D03*
X184150000Y-112649000D03*
X184150000Y-115189000D03*
X186055000Y-116967000D03*
X188595000Y-116967000D03*
X191135000Y-116967000D03*
X193675000Y-116967000D03*
%TD*%
D27*
%TO.C,C30*%
X163576500Y-86382000D03*
X163576500Y-84307000D03*
%TD*%
D10*
%TO.C,R17*%
X147843500Y-129285500D03*
X149843500Y-129285500D03*
%TD*%
D11*
%TO.C,C18*%
X169185500Y-96012000D03*
X167110500Y-96012000D03*
%TD*%
D19*
%TO.C,R7*%
X203200000Y-83328000D03*
X203200000Y-85328000D03*
%TD*%
D14*
%TO.C,R4*%
X195603500Y-97282000D03*
X193603500Y-97282000D03*
%TD*%
D15*
%TO.C,C32*%
X168761500Y-88519000D03*
X170836500Y-88519000D03*
%TD*%
D14*
%TO.C,R55*%
X91551000Y-133223000D03*
X89551000Y-133223000D03*
%TD*%
D15*
%TO.C,C15*%
X151870000Y-129285500D03*
X153945000Y-129285500D03*
%TD*%
D11*
%TO.C,C27*%
X173503500Y-110109000D03*
X171428500Y-110109000D03*
%TD*%
D30*
%TO.C,U15*%
X119572500Y-120009000D03*
X120522500Y-120009000D03*
X121472500Y-120009000D03*
X121472500Y-117734000D03*
X119572500Y-117734000D03*
%TD*%
D32*
%TO.C,U13*%
X155960000Y-112650000D03*
D33*
X155890000Y-110110000D03*
D32*
X155960000Y-107570000D03*
X155960000Y-105030000D03*
X153290000Y-103120000D03*
D34*
X150750000Y-103190000D03*
D32*
X148210000Y-103120000D03*
X145670000Y-103120000D03*
X143760000Y-105920000D03*
D33*
X143830000Y-108460000D03*
D32*
X143760000Y-111000000D03*
X143760000Y-113540000D03*
X145670000Y-115320000D03*
D34*
X148210000Y-115250000D03*
D32*
X150750000Y-115320000D03*
X153290000Y-115320000D03*
%TD*%
D35*
%TO.C,D10*%
X91186000Y-94347000D03*
X91186000Y-92597000D03*
%TD*%
D29*
%TO.C,R29*%
X161473000Y-118348000D03*
X161473000Y-116348000D03*
%TD*%
D11*
%TO.C,C55*%
X82063500Y-117348000D03*
X79988500Y-117348000D03*
%TD*%
D15*
%TO.C,C54*%
X89513500Y-131191000D03*
X91588500Y-131191000D03*
%TD*%
D29*
%TO.C,R8*%
X200660000Y-85328000D03*
X200660000Y-83328000D03*
%TD*%
%TO.C,R43*%
X119506500Y-104631500D03*
X119506500Y-102631500D03*
%TD*%
D14*
%TO.C,R47*%
X85241000Y-107238000D03*
X83241000Y-107238000D03*
%TD*%
D36*
%TO.C,U12*%
X168759500Y-78060500D03*
D37*
X167259500Y-78148000D03*
D36*
X165759500Y-78060500D03*
%TD*%
D29*
%TO.C,R27*%
X155828500Y-124316500D03*
X155828500Y-122316500D03*
%TD*%
D35*
%TO.C,D9*%
X90551000Y-77710000D03*
X90551000Y-75960000D03*
%TD*%
D12*
%TO.C,U21*%
X87329000Y-103589000D03*
X88519000Y-103589000D03*
X87329000Y-102759000D03*
X88519000Y-102759000D03*
D13*
X87174000Y-104574000D03*
X87674000Y-104574000D03*
X88174000Y-104574000D03*
X88674000Y-104574000D03*
X88674000Y-101774000D03*
X88174000Y-101774000D03*
X87674000Y-101774000D03*
X87174000Y-101774000D03*
%TD*%
D11*
%TO.C,C28*%
X173504000Y-78105500D03*
X171429000Y-78105500D03*
%TD*%
D10*
%TO.C,R44*%
X108728000Y-72263000D03*
X110728000Y-72263000D03*
%TD*%
D12*
%TO.C,U3*%
X191262000Y-93184500D03*
X190072000Y-93184500D03*
X191262000Y-94014500D03*
X190072000Y-94014500D03*
D13*
X191417000Y-92199500D03*
X190917000Y-92199500D03*
X190417000Y-92199500D03*
X189917000Y-92199500D03*
X189917000Y-94999500D03*
X190417000Y-94999500D03*
X190917000Y-94999500D03*
X191417000Y-94999500D03*
%TD*%
D10*
%TO.C,R1*%
X208423000Y-115443000D03*
X210423000Y-115443000D03*
%TD*%
D29*
%TO.C,R28*%
X155829000Y-92313000D03*
X155829000Y-90313000D03*
%TD*%
D11*
%TO.C,C5*%
X191069000Y-129286000D03*
X188994000Y-129286000D03*
%TD*%
%TO.C,C43*%
X123846500Y-108458000D03*
X121771500Y-108458000D03*
%TD*%
D15*
%TO.C,C2*%
X136249500Y-97282000D03*
X138324500Y-97282000D03*
%TD*%
D27*
%TO.C,C46*%
X113538000Y-73173500D03*
X113538000Y-71098500D03*
%TD*%
D29*
%TO.C,R48*%
X87503000Y-77962000D03*
X87503000Y-75962000D03*
%TD*%
D15*
%TO.C,C31*%
X168761000Y-120522500D03*
X170836000Y-120522500D03*
%TD*%
D14*
%TO.C,R26*%
X144851500Y-89188500D03*
X142851500Y-89188500D03*
%TD*%
D11*
%TO.C,C49*%
X92986000Y-124587500D03*
X90911000Y-124587500D03*
%TD*%
D10*
%TO.C,R2*%
X208296000Y-83312000D03*
X210296000Y-83312000D03*
%TD*%
D18*
%TO.C,D4*%
X139039500Y-89188500D03*
X140789500Y-89188500D03*
%TD*%
D14*
%TO.C,R34*%
X119999000Y-92837000D03*
X117999000Y-92837000D03*
%TD*%
D11*
%TO.C,C22*%
X181124000Y-78105500D03*
X179049000Y-78105500D03*
%TD*%
D14*
%TO.C,R20*%
X173212000Y-96012000D03*
X171212000Y-96012000D03*
%TD*%
D19*
%TO.C,R22*%
X145669000Y-91617500D03*
X145669000Y-93617500D03*
%TD*%
D38*
%TO.C,FL2*%
X135255500Y-78359500D03*
X135255500Y-76454500D03*
X135255500Y-74549500D03*
D39*
X131191500Y-72390500D03*
D38*
X127127500Y-74549500D03*
X127127500Y-76454500D03*
X127127500Y-78359500D03*
D39*
X131191500Y-80518500D03*
%TD*%
D21*
%TO.C,D7*%
X84441500Y-124587500D03*
X82691500Y-124587500D03*
%TD*%
D12*
%TO.C,U9*%
X169631500Y-123918000D03*
X168441500Y-123918000D03*
X169631500Y-124748000D03*
X168441500Y-124748000D03*
D13*
X169786500Y-122933000D03*
X169286500Y-122933000D03*
X168786500Y-122933000D03*
X168286500Y-122933000D03*
X168286500Y-125733000D03*
X168786500Y-125733000D03*
X169286500Y-125733000D03*
X169786500Y-125733000D03*
%TD*%
D15*
%TO.C,C36*%
X117961500Y-90551000D03*
X120036500Y-90551000D03*
%TD*%
D14*
%TO.C,R11*%
X182483000Y-122174000D03*
X180483000Y-122174000D03*
%TD*%
D15*
%TO.C,C11*%
X191240000Y-122173500D03*
X193315000Y-122173500D03*
%TD*%
D30*
%TO.C,U16*%
X119573000Y-88005500D03*
X120523000Y-88005500D03*
X121473000Y-88005500D03*
X121473000Y-85730500D03*
X119573000Y-85730500D03*
%TD*%
D36*
%TO.C,U11*%
X168759000Y-110064000D03*
D37*
X167259000Y-110151500D03*
D36*
X165759000Y-110064000D03*
%TD*%
D15*
%TO.C,C1*%
X136249000Y-129285500D03*
X138324000Y-129285500D03*
%TD*%
D20*
%TO.C,C21*%
X147828000Y-91580000D03*
X147828000Y-93655000D03*
%TD*%
D15*
%TO.C,C23*%
X151743000Y-121792500D03*
X153818000Y-121792500D03*
%TD*%
D28*
%TO.C,L1*%
X161473000Y-114561000D03*
X161473000Y-112261000D03*
%TD*%
D20*
%TO.C,C7*%
X205486000Y-115294000D03*
X205486000Y-117369000D03*
%TD*%
D14*
%TO.C,R52*%
X96631000Y-132842000D03*
X94631000Y-132842000D03*
%TD*%
D10*
%TO.C,R18*%
X147844000Y-97282000D03*
X149844000Y-97282000D03*
%TD*%
D38*
%TO.C,FL1*%
X135255000Y-110363000D03*
X135255000Y-108458000D03*
X135255000Y-106553000D03*
D39*
X131191000Y-104394000D03*
D38*
X127127000Y-106553000D03*
X127127000Y-108458000D03*
X127127000Y-110363000D03*
D39*
X131191000Y-112522000D03*
%TD*%
D10*
%TO.C,R31*%
X168798500Y-118490500D03*
X170798500Y-118490500D03*
%TD*%
D12*
%TO.C,U6*%
X151725000Y-93057000D03*
X150535000Y-93057000D03*
X151725000Y-93887000D03*
X150535000Y-93887000D03*
D13*
X151880000Y-92072000D03*
X151380000Y-92072000D03*
X150880000Y-92072000D03*
X150380000Y-92072000D03*
X150380000Y-94872000D03*
X150880000Y-94872000D03*
X151380000Y-94872000D03*
X151880000Y-94872000D03*
%TD*%
D11*
%TO.C,C25*%
X165756000Y-122300500D03*
X163681000Y-122300500D03*
%TD*%
D40*
%TO.C,U4*%
X205579500Y-79669500D03*
X205579500Y-80859500D03*
X206409500Y-79669500D03*
X206409500Y-80859500D03*
D41*
X204594500Y-79514500D03*
X204594500Y-80014500D03*
X204594500Y-80514500D03*
X204594500Y-81014500D03*
X207394500Y-81014500D03*
X207394500Y-80514500D03*
X207394500Y-80014500D03*
X207394500Y-79514500D03*
%TD*%
D14*
%TO.C,R33*%
X119998500Y-124840500D03*
X117998500Y-124840500D03*
%TD*%
D24*
%TO.C,U18*%
X118465500Y-76809500D03*
X118465500Y-76149500D03*
X118465500Y-75489500D03*
X118465500Y-74829500D03*
X115215500Y-74829500D03*
X115215500Y-75489500D03*
X115215500Y-76149500D03*
X115215500Y-76809500D03*
D25*
X116840500Y-77354500D03*
D26*
X116840500Y-75819500D03*
D25*
X116840500Y-74284500D03*
%TD*%
D10*
%TO.C,R41*%
X120031000Y-78867000D03*
X122031000Y-78867000D03*
%TD*%
D29*
%TO.C,R51*%
X94234000Y-105283000D03*
X94234000Y-103283000D03*
%TD*%
D19*
%TO.C,R21*%
X145668500Y-123621000D03*
X145668500Y-125621000D03*
%TD*%
D40*
%TO.C,U2*%
X205579000Y-111673000D03*
X205579000Y-112863000D03*
X206409000Y-111673000D03*
X206409000Y-112863000D03*
D41*
X204594000Y-111518000D03*
X204594000Y-112018000D03*
X204594000Y-112518000D03*
X204594000Y-113018000D03*
X207394000Y-113018000D03*
X207394000Y-112518000D03*
X207394000Y-112018000D03*
X207394000Y-111518000D03*
%TD*%
D20*
%TO.C,C19*%
X147827500Y-123583500D03*
X147827500Y-125658500D03*
%TD*%
D32*
%TO.C,U14*%
X155960500Y-80646500D03*
D33*
X155890500Y-78106500D03*
D32*
X155960500Y-75566500D03*
X155960500Y-73026500D03*
X153290500Y-71116500D03*
D34*
X150750500Y-71186500D03*
D32*
X148210500Y-71116500D03*
X145670500Y-71116500D03*
X143760500Y-73916500D03*
D33*
X143830500Y-76456500D03*
D32*
X143760500Y-78996500D03*
X143760500Y-81536500D03*
X145670500Y-83316500D03*
D34*
X148210500Y-83246500D03*
D32*
X150750500Y-83316500D03*
X153290500Y-83316500D03*
%TD*%
D11*
%TO.C,C20*%
X181123500Y-110109000D03*
X179048500Y-110109000D03*
%TD*%
D14*
%TO.C,R37*%
X125840500Y-119887500D03*
X123840500Y-119887500D03*
%TD*%
D10*
%TO.C,R39*%
X115966500Y-115315500D03*
X117966500Y-115315500D03*
%TD*%
D29*
%TO.C,R50*%
X75946500Y-106791500D03*
X75946500Y-104791500D03*
%TD*%
D11*
%TO.C,C33*%
X161438500Y-110109000D03*
X159363500Y-110109000D03*
%TD*%
%TO.C,C52*%
X96668500Y-130810000D03*
X94593500Y-130810000D03*
%TD*%
D29*
%TO.C,R13*%
X199643500Y-111743500D03*
X199643500Y-109743500D03*
%TD*%
M02*
