%TF.GenerationSoftware,KiCad,Pcbnew,7.0.10-7.0.10~ubuntu22.04.1*%
%TF.CreationDate,2024-01-03T15:26:10-06:00*%
%TF.ProjectId,aom_driver,616f6d5f-6472-4697-9665-722e6b696361,v1*%
%TF.SameCoordinates,Original*%
%TF.FileFunction,Paste,Top*%
%TF.FilePolarity,Positive*%
%FSLAX46Y46*%
G04 Gerber Fmt 4.6, Leading zero omitted, Abs format (unit mm)*
G04 Created by KiCad (PCBNEW 7.0.10-7.0.10~ubuntu22.04.1) date 2024-01-03 15:26:10*
%MOMM*%
%LPD*%
G01*
G04 APERTURE LIST*
G04 Aperture macros list*
%AMRoundRect*
0 Rectangle with rounded corners*
0 $1 Rounding radius*
0 $2 $3 $4 $5 $6 $7 $8 $9 X,Y pos of 4 corners*
0 Add a 4 corners polygon primitive as box body*
4,1,4,$2,$3,$4,$5,$6,$7,$8,$9,$2,$3,0*
0 Add four circle primitives for the rounded corners*
1,1,$1+$1,$2,$3*
1,1,$1+$1,$4,$5*
1,1,$1+$1,$6,$7*
1,1,$1+$1,$8,$9*
0 Add four rect primitives between the rounded corners*
20,1,$1+$1,$2,$3,$4,$5,0*
20,1,$1+$1,$4,$5,$6,$7,0*
20,1,$1+$1,$6,$7,$8,$9,0*
20,1,$1+$1,$8,$9,$2,$3,0*%
%AMFreePoly0*
4,1,9,3.862500,-0.866500,0.737500,-0.866500,0.737500,-0.450000,-0.737500,-0.450000,-0.737500,0.450000,0.737500,0.450000,0.737500,0.866500,3.862500,0.866500,3.862500,-0.866500,3.862500,-0.866500,$1*%
G04 Aperture macros list end*
%ADD10R,1.000000X0.640000*%
%ADD11R,0.250000X0.700000*%
%ADD12RoundRect,0.250000X0.337500X0.475000X-0.337500X0.475000X-0.337500X-0.475000X0.337500X-0.475000X0*%
%ADD13RoundRect,0.250000X-0.337500X-0.475000X0.337500X-0.475000X0.337500X0.475000X-0.337500X0.475000X0*%
%ADD14R,3.600000X1.270000*%
%ADD15R,4.200000X1.350000*%
%ADD16RoundRect,0.237500X-0.287500X-0.237500X0.287500X-0.237500X0.287500X0.237500X-0.287500X0.237500X0*%
%ADD17RoundRect,0.250000X0.350000X-0.275000X0.350000X0.275000X-0.350000X0.275000X-0.350000X-0.275000X0*%
%ADD18RoundRect,0.250000X0.350000X0.450000X-0.350000X0.450000X-0.350000X-0.450000X0.350000X-0.450000X0*%
%ADD19RoundRect,0.250000X-0.450000X0.350000X-0.450000X-0.350000X0.450000X-0.350000X0.450000X0.350000X0*%
%ADD20RoundRect,0.237500X0.287500X0.237500X-0.287500X0.237500X-0.287500X-0.237500X0.287500X-0.237500X0*%
%ADD21R,0.800000X0.700000*%
%ADD22R,2.300000X0.700000*%
%ADD23R,0.760000X0.330000*%
%ADD24R,0.510000X0.940000*%
%ADD25R,1.220000X2.130000*%
%ADD26RoundRect,0.250000X0.475000X-0.337500X0.475000X0.337500X-0.475000X0.337500X-0.475000X-0.337500X0*%
%ADD27RoundRect,0.250000X-0.350000X-0.450000X0.350000X-0.450000X0.350000X0.450000X-0.350000X0.450000X0*%
%ADD28RoundRect,0.250000X0.450000X-0.350000X0.450000X0.350000X-0.450000X0.350000X-0.450000X-0.350000X0*%
%ADD29RoundRect,0.150000X0.150000X-0.512500X0.150000X0.512500X-0.150000X0.512500X-0.150000X-0.512500X0*%
%ADD30R,1.524000X1.524000*%
%ADD31RoundRect,0.250000X-0.275000X-0.350000X0.275000X-0.350000X0.275000X0.350000X-0.275000X0.350000X0*%
%ADD32R,1.520000X1.520000*%
%ADD33RoundRect,0.228000X0.597000X0.532000X-0.597000X0.532000X-0.597000X-0.532000X0.597000X-0.532000X0*%
%ADD34RoundRect,0.228000X0.532000X0.597000X-0.532000X0.597000X-0.532000X-0.597000X0.532000X-0.597000X0*%
%ADD35RoundRect,0.237500X-0.237500X0.287500X-0.237500X-0.287500X0.237500X-0.287500X0.237500X0.287500X0*%
%ADD36R,0.900000X1.300000*%
%ADD37FreePoly0,270.000000*%
%ADD38R,1.778000X1.016000*%
%ADD39R,1.016000X1.778000*%
%ADD40R,0.640000X1.000000*%
%ADD41R,0.700000X0.250000*%
G04 APERTURE END LIST*
D10*
%TO.C,U13*%
X189444000Y-125188000D03*
X188254000Y-125188000D03*
X189444000Y-126018000D03*
X188254000Y-126018000D03*
D11*
X189599000Y-124203000D03*
X189099000Y-124203000D03*
X188599000Y-124203000D03*
X188099000Y-124203000D03*
X188099000Y-127003000D03*
X188599000Y-127003000D03*
X189099000Y-127003000D03*
X189599000Y-127003000D03*
%TD*%
D12*
%TO.C,C40*%
X140737500Y-108458000D03*
X138662500Y-108458000D03*
%TD*%
D13*
%TO.C,C39*%
X114786500Y-123063000D03*
X116861500Y-123063000D03*
%TD*%
%TO.C,C33*%
X168507500Y-128016000D03*
X170582500Y-128016000D03*
%TD*%
D14*
%TO.C,J2*%
X70739500Y-106807500D03*
D15*
X70939500Y-103982500D03*
X70939500Y-109632500D03*
%TD*%
D13*
%TO.C,C2*%
X89641000Y-101346500D03*
X91716000Y-101346500D03*
%TD*%
D12*
%TO.C,C9*%
X189252000Y-97282500D03*
X187177000Y-97282500D03*
%TD*%
D16*
%TO.C,D8*%
X176671000Y-122174000D03*
X178421000Y-122174000D03*
%TD*%
D17*
%TO.C,L4*%
X108712000Y-129039000D03*
X108712000Y-126739000D03*
%TD*%
D18*
%TO.C,R17*%
X122539500Y-90932500D03*
X120539500Y-90932500D03*
%TD*%
D12*
%TO.C,C21*%
X140738000Y-76454500D03*
X138663000Y-76454500D03*
%TD*%
D19*
%TO.C,R10*%
X185039500Y-91710500D03*
X185039500Y-93710500D03*
%TD*%
D16*
%TO.C,D9*%
X139039000Y-121192000D03*
X140789000Y-121192000D03*
%TD*%
D20*
%TO.C,D10*%
X109968000Y-115824000D03*
X108218000Y-115824000D03*
%TD*%
D21*
%TO.C,U7*%
X177026500Y-78070500D03*
X175526500Y-78070500D03*
D22*
X176276500Y-76870500D03*
%TD*%
D18*
%TO.C,R25*%
X164322000Y-122047000D03*
X162322000Y-122047000D03*
%TD*%
D13*
%TO.C,C15*%
X149799000Y-89950500D03*
X151874000Y-89950500D03*
%TD*%
D23*
%TO.C,U21*%
X118465000Y-108813000D03*
X118465000Y-108153000D03*
X118465000Y-107493000D03*
X118465000Y-106833000D03*
X115215000Y-106833000D03*
X115215000Y-107493000D03*
X115215000Y-108153000D03*
X115215000Y-108813000D03*
D24*
X116840000Y-109358000D03*
D25*
X116840000Y-107823000D03*
D24*
X116840000Y-106288000D03*
%TD*%
D19*
%TO.C,R21*%
X185039000Y-123714000D03*
X185039000Y-125714000D03*
%TD*%
D26*
%TO.C,C8*%
X210312500Y-79778000D03*
X210312500Y-77703000D03*
%TD*%
D16*
%TO.C,D1*%
X81802500Y-108966500D03*
X83552500Y-108966500D03*
%TD*%
D23*
%TO.C,U3*%
X91668500Y-118592500D03*
X91668500Y-117932500D03*
X91668500Y-117272500D03*
X91668500Y-116612500D03*
X88418500Y-116612500D03*
X88418500Y-117272500D03*
X88418500Y-117932500D03*
X88418500Y-118592500D03*
D24*
X90043500Y-119137500D03*
D25*
X90043500Y-117602500D03*
D24*
X90043500Y-116067500D03*
%TD*%
D18*
%TO.C,R11*%
X182483500Y-90170500D03*
X180483500Y-90170500D03*
%TD*%
D12*
%TO.C,C4*%
X107591000Y-75438500D03*
X105516000Y-75438500D03*
%TD*%
D13*
%TO.C,C10*%
X189463000Y-90043500D03*
X191538000Y-90043500D03*
%TD*%
D17*
%TO.C,L2*%
X161473500Y-82557500D03*
X161473500Y-80257500D03*
%TD*%
D12*
%TO.C,C19*%
X161439000Y-78105500D03*
X159364000Y-78105500D03*
%TD*%
D10*
%TO.C,U15*%
X149780000Y-125222000D03*
X148590000Y-125222000D03*
X149780000Y-126052000D03*
X148590000Y-126052000D03*
D11*
X149935000Y-124237000D03*
X149435000Y-124237000D03*
X148935000Y-124237000D03*
X148435000Y-124237000D03*
X148435000Y-127037000D03*
X148935000Y-127037000D03*
X149435000Y-127037000D03*
X149935000Y-127037000D03*
%TD*%
D26*
%TO.C,C11*%
X200660500Y-79778000D03*
X200660500Y-77703000D03*
%TD*%
%TO.C,C30*%
X200660000Y-111781500D03*
X200660000Y-109706500D03*
%TD*%
D16*
%TO.C,D5*%
X176671500Y-90170500D03*
X178421500Y-90170500D03*
%TD*%
D12*
%TO.C,C41*%
X120163500Y-115824000D03*
X118088500Y-115824000D03*
%TD*%
D13*
%TO.C,C5*%
X89641000Y-108966500D03*
X91716000Y-108966500D03*
%TD*%
D26*
%TO.C,C12*%
X152908500Y-94578000D03*
X152908500Y-92503000D03*
%TD*%
D18*
%TO.C,R24*%
X144851000Y-121192000D03*
X142851000Y-121192000D03*
%TD*%
D19*
%TO.C,R8*%
X86741500Y-92345500D03*
X86741500Y-94345500D03*
%TD*%
D12*
%TO.C,C3*%
X107336500Y-107315000D03*
X105261500Y-107315000D03*
%TD*%
%TO.C,C23*%
X123847000Y-76454500D03*
X121772000Y-76454500D03*
%TD*%
D10*
%TO.C,U8*%
X168616500Y-91914500D03*
X167426500Y-91914500D03*
X168616500Y-92744500D03*
X167426500Y-92744500D03*
D11*
X168771500Y-90929500D03*
X168271500Y-90929500D03*
X167771500Y-90929500D03*
X167271500Y-90929500D03*
X167271500Y-93729500D03*
X167771500Y-93729500D03*
X168271500Y-93729500D03*
X168771500Y-93729500D03*
%TD*%
D14*
%TO.C,J1*%
X70739500Y-120269500D03*
D15*
X70939500Y-117444500D03*
X70939500Y-123094500D03*
%TD*%
D18*
%TO.C,R16*%
X122539500Y-88773500D03*
X120539500Y-88773500D03*
%TD*%
D26*
%TO.C,C43*%
X108585000Y-104161500D03*
X108585000Y-102086500D03*
%TD*%
D20*
%TO.C,D7*%
X109968500Y-83820500D03*
X108218500Y-83820500D03*
%TD*%
D18*
%TO.C,R1*%
X95869500Y-133477500D03*
X93869500Y-133477500D03*
%TD*%
D21*
%TO.C,U16*%
X177026000Y-110074000D03*
X175526000Y-110074000D03*
D22*
X176276000Y-108874000D03*
%TD*%
D18*
%TO.C,R27*%
X122539000Y-120777000D03*
X120539000Y-120777000D03*
%TD*%
D27*
%TO.C,R5*%
X86503500Y-124587500D03*
X88503500Y-124587500D03*
%TD*%
D26*
%TO.C,C44*%
X114935000Y-104161500D03*
X114935000Y-102086500D03*
%TD*%
D28*
%TO.C,R15*%
X161473500Y-86344500D03*
X161473500Y-84344500D03*
%TD*%
D19*
%TO.C,R20*%
X202875000Y-115207000D03*
X202875000Y-117207000D03*
%TD*%
D12*
%TO.C,C22*%
X120164000Y-83820500D03*
X118089000Y-83820500D03*
%TD*%
D18*
%TO.C,R14*%
X164322500Y-90043500D03*
X162322500Y-90043500D03*
%TD*%
D26*
%TO.C,C36*%
X163576000Y-118385500D03*
X163576000Y-116310500D03*
%TD*%
D27*
%TO.C,R18*%
X112792500Y-83820500D03*
X114792500Y-83820500D03*
%TD*%
D29*
%TO.C,U2*%
X90871500Y-129154000D03*
X91821500Y-129154000D03*
X92771500Y-129154000D03*
X92771500Y-126879000D03*
X90871500Y-126879000D03*
%TD*%
D30*
%TO.C,X1*%
X196342500Y-82296500D03*
X196342500Y-79756500D03*
X196342500Y-77216500D03*
X196342500Y-74676500D03*
X193675500Y-72771500D03*
X191135500Y-72771500D03*
X188595500Y-72771500D03*
X186055500Y-72771500D03*
X184150500Y-75565500D03*
X184150500Y-78105500D03*
X184150500Y-80645500D03*
X184150500Y-83185500D03*
X186055500Y-84963500D03*
X188595500Y-84963500D03*
X191135500Y-84963500D03*
X193675500Y-84963500D03*
%TD*%
D26*
%TO.C,C27*%
X210312000Y-111781500D03*
X210312000Y-109706500D03*
%TD*%
D31*
%TO.C,L6*%
X110610000Y-104140000D03*
X112910000Y-104140000D03*
%TD*%
D26*
%TO.C,C24*%
X108585500Y-72158000D03*
X108585500Y-70083000D03*
%TD*%
D30*
%TO.C,X2*%
X196342000Y-114300000D03*
X196342000Y-111760000D03*
X196342000Y-109220000D03*
X196342000Y-106680000D03*
X193675000Y-104775000D03*
X191135000Y-104775000D03*
X188595000Y-104775000D03*
X186055000Y-104775000D03*
X184150000Y-107569000D03*
X184150000Y-110109000D03*
X184150000Y-112649000D03*
X184150000Y-115189000D03*
X186055000Y-116967000D03*
X188595000Y-116967000D03*
X191135000Y-116967000D03*
X193675000Y-116967000D03*
%TD*%
D26*
%TO.C,C17*%
X163576500Y-86382000D03*
X163576500Y-84307000D03*
%TD*%
D13*
%TO.C,C14*%
X168508000Y-96012500D03*
X170583000Y-96012500D03*
%TD*%
D19*
%TO.C,R9*%
X202875500Y-83203500D03*
X202875500Y-85203500D03*
%TD*%
D12*
%TO.C,C18*%
X168551000Y-88773500D03*
X166476000Y-88773500D03*
%TD*%
D26*
%TO.C,C31*%
X152908000Y-126581500D03*
X152908000Y-124506500D03*
%TD*%
D12*
%TO.C,C35*%
X173503500Y-110109000D03*
X171428500Y-110109000D03*
%TD*%
D29*
%TO.C,U20*%
X116398000Y-120517500D03*
X117348000Y-120517500D03*
X118298000Y-120517500D03*
X118298000Y-118242500D03*
X116398000Y-118242500D03*
%TD*%
D17*
%TO.C,L1*%
X108712500Y-97035500D03*
X108712500Y-94735500D03*
%TD*%
D32*
%TO.C,U19*%
X155960000Y-112650000D03*
D33*
X155890000Y-110110000D03*
D32*
X155960000Y-107570000D03*
X155960000Y-105030000D03*
X153290000Y-103120000D03*
D34*
X150750000Y-103190000D03*
D32*
X148210000Y-103120000D03*
X145670000Y-103120000D03*
X143760000Y-105920000D03*
D33*
X143830000Y-108460000D03*
D32*
X143760000Y-111000000D03*
X143760000Y-113540000D03*
X145670000Y-115320000D03*
D34*
X148210000Y-115250000D03*
D32*
X150750000Y-115320000D03*
X153290000Y-115320000D03*
%TD*%
D35*
%TO.C,D4*%
X86741500Y-96407500D03*
X86741500Y-98157500D03*
%TD*%
D28*
%TO.C,R26*%
X161473000Y-118348000D03*
X161473000Y-116348000D03*
%TD*%
D13*
%TO.C,C1*%
X88371000Y-131699500D03*
X90446000Y-131699500D03*
%TD*%
D28*
%TO.C,R30*%
X117983000Y-104124000D03*
X117983000Y-102124000D03*
%TD*%
D18*
%TO.C,R4*%
X87487500Y-108966500D03*
X85487500Y-108966500D03*
%TD*%
D36*
%TO.C,U9*%
X168759500Y-78060500D03*
D37*
X167259500Y-78148000D03*
D36*
X165759500Y-78060500D03*
%TD*%
D35*
%TO.C,D3*%
X86741500Y-72277500D03*
X86741500Y-74027500D03*
%TD*%
D10*
%TO.C,U1*%
X89575500Y-105317500D03*
X90765500Y-105317500D03*
X89575500Y-104487500D03*
X90765500Y-104487500D03*
D11*
X89420500Y-106302500D03*
X89920500Y-106302500D03*
X90420500Y-106302500D03*
X90920500Y-106302500D03*
X90920500Y-103502500D03*
X90420500Y-103502500D03*
X89920500Y-103502500D03*
X89420500Y-103502500D03*
%TD*%
D12*
%TO.C,C16*%
X173504000Y-78105500D03*
X171429000Y-78105500D03*
%TD*%
D10*
%TO.C,U4*%
X189444500Y-93184500D03*
X188254500Y-93184500D03*
X189444500Y-94014500D03*
X188254500Y-94014500D03*
D11*
X189599500Y-92199500D03*
X189099500Y-92199500D03*
X188599500Y-92199500D03*
X188099500Y-92199500D03*
X188099500Y-94999500D03*
X188599500Y-94999500D03*
X189099500Y-94999500D03*
X189599500Y-94999500D03*
%TD*%
D12*
%TO.C,C28*%
X189251500Y-129286000D03*
X187176500Y-129286000D03*
%TD*%
D31*
%TO.C,L3*%
X110610500Y-72136500D03*
X112910500Y-72136500D03*
%TD*%
D12*
%TO.C,C42*%
X123846500Y-108458000D03*
X121771500Y-108458000D03*
%TD*%
D13*
%TO.C,C7*%
X111104000Y-97155500D03*
X113179000Y-97155500D03*
%TD*%
D26*
%TO.C,C25*%
X114935500Y-72158000D03*
X114935500Y-70083000D03*
%TD*%
D28*
%TO.C,R7*%
X86741500Y-77962500D03*
X86741500Y-75962500D03*
%TD*%
D12*
%TO.C,C37*%
X168550500Y-120777000D03*
X166475500Y-120777000D03*
%TD*%
D18*
%TO.C,R13*%
X144851500Y-89188500D03*
X142851500Y-89188500D03*
%TD*%
D12*
%TO.C,C6*%
X92986000Y-124587500D03*
X90911000Y-124587500D03*
%TD*%
D16*
%TO.C,D6*%
X139039500Y-89188500D03*
X140789500Y-89188500D03*
%TD*%
D12*
%TO.C,C13*%
X181124000Y-78105500D03*
X179049000Y-78105500D03*
%TD*%
D19*
%TO.C,R12*%
X145248500Y-91617500D03*
X145248500Y-93617500D03*
%TD*%
D38*
%TO.C,FL1*%
X135255500Y-78359500D03*
X135255500Y-76454500D03*
X135255500Y-74549500D03*
D39*
X131191500Y-72390500D03*
D38*
X127127500Y-74549500D03*
X127127500Y-76454500D03*
X127127500Y-78359500D03*
D39*
X131191500Y-80518500D03*
%TD*%
D20*
%TO.C,D2*%
X84441500Y-124587500D03*
X82691500Y-124587500D03*
%TD*%
D10*
%TO.C,U17*%
X168616000Y-123918000D03*
X167426000Y-123918000D03*
X168616000Y-124748000D03*
X167426000Y-124748000D03*
D11*
X168771000Y-122933000D03*
X168271000Y-122933000D03*
X167771000Y-122933000D03*
X167271000Y-122933000D03*
X167271000Y-125733000D03*
X167771000Y-125733000D03*
X168271000Y-125733000D03*
X168771000Y-125733000D03*
%TD*%
D13*
%TO.C,C20*%
X114787000Y-91059500D03*
X116862000Y-91059500D03*
%TD*%
D18*
%TO.C,R22*%
X182483000Y-122174000D03*
X180483000Y-122174000D03*
%TD*%
D13*
%TO.C,C29*%
X189462500Y-122047000D03*
X191537500Y-122047000D03*
%TD*%
D29*
%TO.C,U11*%
X116398500Y-88514000D03*
X117348500Y-88514000D03*
X118298500Y-88514000D03*
X118298500Y-86239000D03*
X116398500Y-86239000D03*
%TD*%
D36*
%TO.C,U18*%
X168759000Y-110064000D03*
D37*
X167259000Y-110151500D03*
D36*
X165759000Y-110064000D03*
%TD*%
D13*
%TO.C,C26*%
X111103500Y-129166000D03*
X113178500Y-129166000D03*
%TD*%
%TO.C,C34*%
X149798500Y-121954000D03*
X151873500Y-121954000D03*
%TD*%
D17*
%TO.C,L5*%
X161473000Y-114561000D03*
X161473000Y-112261000D03*
%TD*%
D18*
%TO.C,R3*%
X95869500Y-131445500D03*
X93869500Y-131445500D03*
%TD*%
D38*
%TO.C,FL2*%
X135255000Y-110363000D03*
X135255000Y-108458000D03*
X135255000Y-106553000D03*
D39*
X131191000Y-104394000D03*
D38*
X127127000Y-106553000D03*
X127127000Y-108458000D03*
X127127000Y-110363000D03*
D39*
X131191000Y-112522000D03*
%TD*%
D10*
%TO.C,U6*%
X149780500Y-93218500D03*
X148590500Y-93218500D03*
X149780500Y-94048500D03*
X148590500Y-94048500D03*
D11*
X149935500Y-92233500D03*
X149435500Y-92233500D03*
X148935500Y-92233500D03*
X148435500Y-92233500D03*
X148435500Y-95033500D03*
X148935500Y-95033500D03*
X149435500Y-95033500D03*
X149935500Y-95033500D03*
%TD*%
D40*
%TO.C,U5*%
X205579500Y-79669500D03*
X205579500Y-80859500D03*
X206409500Y-79669500D03*
X206409500Y-80859500D03*
D41*
X204594500Y-79514500D03*
X204594500Y-80014500D03*
X204594500Y-80514500D03*
X204594500Y-81014500D03*
X207394500Y-81014500D03*
X207394500Y-80514500D03*
X207394500Y-80014500D03*
X207394500Y-79514500D03*
%TD*%
D23*
%TO.C,U12*%
X118465500Y-76809500D03*
X118465500Y-76149500D03*
X118465500Y-75489500D03*
X118465500Y-74829500D03*
X115215500Y-74829500D03*
X115215500Y-75489500D03*
X115215500Y-76149500D03*
X115215500Y-76809500D03*
D24*
X116840500Y-77354500D03*
D25*
X116840500Y-75819500D03*
D24*
X116840500Y-74284500D03*
%TD*%
D28*
%TO.C,R19*%
X117983500Y-72120500D03*
X117983500Y-70120500D03*
%TD*%
%TO.C,R2*%
X93472500Y-107045500D03*
X93472500Y-105045500D03*
%TD*%
D19*
%TO.C,R23*%
X145248000Y-123621000D03*
X145248000Y-125621000D03*
%TD*%
D40*
%TO.C,U14*%
X205579000Y-111673000D03*
X205579000Y-112863000D03*
X206409000Y-111673000D03*
X206409000Y-112863000D03*
D41*
X204594000Y-111518000D03*
X204594000Y-112018000D03*
X204594000Y-112518000D03*
X204594000Y-113018000D03*
X207394000Y-113018000D03*
X207394000Y-112518000D03*
X207394000Y-112018000D03*
X207394000Y-111518000D03*
%TD*%
D32*
%TO.C,U10*%
X155960500Y-80646500D03*
D33*
X155890500Y-78106500D03*
D32*
X155960500Y-75566500D03*
X155960500Y-73026500D03*
X153290500Y-71116500D03*
D34*
X150750500Y-71186500D03*
D32*
X148210500Y-71116500D03*
X145670500Y-71116500D03*
X143760500Y-73916500D03*
D33*
X143830500Y-76456500D03*
D32*
X143760500Y-78996500D03*
X143760500Y-81536500D03*
X145670500Y-83316500D03*
D34*
X148210500Y-83246500D03*
D32*
X150750500Y-83316500D03*
X153290500Y-83316500D03*
%TD*%
D12*
%TO.C,C32*%
X181123500Y-110109000D03*
X179048500Y-110109000D03*
%TD*%
D18*
%TO.C,R28*%
X122539000Y-122936000D03*
X120539000Y-122936000D03*
%TD*%
D27*
%TO.C,R29*%
X112792000Y-115824000D03*
X114792000Y-115824000D03*
%TD*%
D28*
%TO.C,R6*%
X75946500Y-106791500D03*
X75946500Y-104791500D03*
%TD*%
D12*
%TO.C,C38*%
X161438500Y-110109000D03*
X159363500Y-110109000D03*
%TD*%
M02*
