%TF.GenerationSoftware,KiCad,Pcbnew,7.0.10-7.0.10~ubuntu22.04.1*%
%TF.CreationDate,2024-01-03T15:26:10-06:00*%
%TF.ProjectId,aom_driver,616f6d5f-6472-4697-9665-722e6b696361,v1*%
%TF.SameCoordinates,Original*%
%TF.FileFunction,Soldermask,Bot*%
%TF.FilePolarity,Negative*%
%FSLAX46Y46*%
G04 Gerber Fmt 4.6, Leading zero omitted, Abs format (unit mm)*
G04 Created by KiCad (PCBNEW 7.0.10-7.0.10~ubuntu22.04.1) date 2024-01-03 15:26:10*
%MOMM*%
%LPD*%
G01*
G04 APERTURE LIST*
G04 Aperture macros list*
%AMRoundRect*
0 Rectangle with rounded corners*
0 $1 Rounding radius*
0 $2 $3 $4 $5 $6 $7 $8 $9 X,Y pos of 4 corners*
0 Add a 4 corners polygon primitive as box body*
4,1,4,$2,$3,$4,$5,$6,$7,$8,$9,$2,$3,0*
0 Add four circle primitives for the rounded corners*
1,1,$1+$1,$2,$3*
1,1,$1+$1,$4,$5*
1,1,$1+$1,$6,$7*
1,1,$1+$1,$8,$9*
0 Add four rect primitives between the rounded corners*
20,1,$1+$1,$2,$3,$4,$5,0*
20,1,$1+$1,$4,$5,$6,$7,0*
20,1,$1+$1,$6,$7,$8,$9,0*
20,1,$1+$1,$8,$9,$2,$3,0*%
G04 Aperture macros list end*
%ADD10C,4.300000*%
%ADD11R,4.200000X1.350000*%
%ADD12C,1.440000*%
%ADD13RoundRect,0.249999X-1.550001X0.790001X-1.550001X-0.790001X1.550001X-0.790001X1.550001X0.790001X0*%
%ADD14O,3.600000X2.080000*%
%ADD15C,0.800000*%
G04 APERTURE END LIST*
D10*
%TO.C,H4*%
X225679500Y-130937500D03*
%TD*%
D11*
%TO.C,J2*%
X70939500Y-103982500D03*
X70939500Y-109632500D03*
%TD*%
D12*
%TO.C,RV4*%
X162941000Y-126365000D03*
X160401000Y-128905000D03*
X157861000Y-126365000D03*
%TD*%
D10*
%TO.C,H3*%
X225679500Y-68453500D03*
%TD*%
D11*
%TO.C,J1*%
X70939500Y-117444500D03*
X70939500Y-123094500D03*
%TD*%
D12*
%TO.C,RV1*%
X205613500Y-85090500D03*
X208153500Y-87630500D03*
X205613500Y-90170500D03*
%TD*%
D10*
%TO.C,H2*%
X75692500Y-130937500D03*
%TD*%
D12*
%TO.C,RV3*%
X205613000Y-117094000D03*
X208153000Y-119634000D03*
X205613000Y-122174000D03*
%TD*%
D10*
%TO.C,H1*%
X75692500Y-68453500D03*
%TD*%
D12*
%TO.C,RV2*%
X162941500Y-94361500D03*
X160401500Y-96901500D03*
X157861500Y-94361500D03*
%TD*%
D13*
%TO.C,J3*%
X78994500Y-80010500D03*
D14*
X78994500Y-85090500D03*
X78994500Y-90170500D03*
%TD*%
D15*
X105918500Y-129039000D03*
X107188500Y-64643500D03*
X105354500Y-97033500D03*
X88392500Y-85852500D03*
X92329500Y-89662500D03*
X201224000Y-117223000D03*
X98806500Y-91313500D03*
X106426500Y-132461500D03*
X129286500Y-130937500D03*
X98806500Y-77597500D03*
X193675500Y-86868500D03*
X169672500Y-131699500D03*
X135311000Y-114556000D03*
X101854500Y-101981500D03*
X213868500Y-131699500D03*
X157607500Y-73025500D03*
X141859500Y-83312500D03*
X172720500Y-99695500D03*
X100330500Y-95885500D03*
X214630500Y-71501500D03*
X140716500Y-67691500D03*
X213106500Y-118745500D03*
X100330500Y-82169500D03*
X107950500Y-100457500D03*
X157607500Y-80645500D03*
X101092500Y-105791500D03*
X120142500Y-68453500D03*
X143383000Y-117094000D03*
X141478500Y-68453500D03*
X110998500Y-132461500D03*
X108712500Y-99695500D03*
X116840500Y-107188500D03*
X91948500Y-121031500D03*
X191770500Y-132461500D03*
X162052500Y-99695500D03*
X130810500Y-132461500D03*
X102616500Y-93599500D03*
X187960500Y-67691500D03*
X139192500Y-67691500D03*
X207010500Y-68453500D03*
X181102500Y-132461500D03*
X182499000Y-107569000D03*
X191770500Y-100457500D03*
X135382500Y-66929500D03*
X139192500Y-99695500D03*
X103378500Y-89789500D03*
X101854500Y-82169500D03*
X99568500Y-98171500D03*
X184912500Y-99695500D03*
X107950500Y-68453500D03*
X133096500Y-99695500D03*
X112522500Y-66929500D03*
X149860500Y-99695500D03*
X213868500Y-127127500D03*
X116840500Y-108458500D03*
X101854500Y-88265500D03*
X143764500Y-131699500D03*
X154432500Y-131699500D03*
X114173000Y-109474000D03*
X126238500Y-98933500D03*
X138430500Y-66929500D03*
X101854500Y-114173500D03*
X207772500Y-131699500D03*
X197104000Y-102870000D03*
X156718500Y-100457500D03*
X98044500Y-101219500D03*
X214630500Y-68453500D03*
X213106500Y-86741500D03*
X214630500Y-114173500D03*
X181102500Y-66929500D03*
X99568500Y-108839500D03*
X102616500Y-105791500D03*
X197866500Y-66929500D03*
X97282500Y-101981500D03*
X170434500Y-132461500D03*
X159004500Y-131699500D03*
X102616500Y-116459500D03*
X100330500Y-111125500D03*
X126238500Y-68453500D03*
X196342500Y-132461500D03*
X127762500Y-130937500D03*
X115570500Y-132461500D03*
X92710500Y-121793500D03*
X207010500Y-130937500D03*
X159766500Y-132461500D03*
X157607000Y-115062000D03*
X214630500Y-132461500D03*
X95758500Y-114173500D03*
X148336500Y-131699500D03*
X193294500Y-132461500D03*
X213106500Y-66929500D03*
X170434500Y-66929500D03*
X212344500Y-131699500D03*
X194945000Y-102870000D03*
X168148500Y-99695500D03*
X123190500Y-98933500D03*
X101854500Y-100457500D03*
X213106500Y-80645500D03*
X144526500Y-100457500D03*
X179578500Y-100457500D03*
X177292500Y-67691500D03*
X182499500Y-75565500D03*
X103378500Y-92837500D03*
X153289000Y-101600000D03*
X98044500Y-114935500D03*
X97282500Y-121793500D03*
X213868500Y-96647500D03*
X152146500Y-132461500D03*
X106426500Y-100457500D03*
X97282500Y-117221500D03*
X118618500Y-66929500D03*
X194945500Y-70866500D03*
X91186500Y-121793500D03*
X121666500Y-66929500D03*
X98044500Y-116459500D03*
X101854500Y-103505500D03*
X120142500Y-132461500D03*
X101854500Y-89789500D03*
X131572500Y-131699500D03*
X154488500Y-92585500D03*
X161290500Y-100457500D03*
X174244500Y-131699500D03*
X118618500Y-132461500D03*
X185674500Y-130937500D03*
X100330500Y-97409500D03*
X213868500Y-108839500D03*
X198247500Y-77216500D03*
X209296500Y-67691500D03*
X210058500Y-98933500D03*
X214630500Y-85217500D03*
X101854500Y-105029500D03*
X109474500Y-100457500D03*
X153670500Y-66929500D03*
X187960500Y-131699500D03*
X99568500Y-96647500D03*
X103378500Y-121793500D03*
X98806500Y-88265500D03*
X149098500Y-98933500D03*
X136906500Y-68453500D03*
X203962500Y-98933500D03*
X89662500Y-114173500D03*
X101854500Y-108077500D03*
X179578500Y-66929500D03*
X114046500Y-98933500D03*
X178054500Y-68453500D03*
X113284500Y-131699500D03*
X150622500Y-132461500D03*
X154940000Y-117094000D03*
X96520500Y-104267500D03*
X159766500Y-130937500D03*
X132334500Y-132461500D03*
X164338500Y-68453500D03*
X181102500Y-130937500D03*
X120904500Y-99695500D03*
X210058500Y-100457500D03*
X213106500Y-68453500D03*
X116459000Y-102108000D03*
X200914500Y-132461500D03*
X130810500Y-98933500D03*
X158242500Y-66929500D03*
X104140500Y-67691500D03*
X149098500Y-66929500D03*
X200914500Y-130937500D03*
X183444500Y-93728500D03*
X103378500Y-100457500D03*
X143764500Y-67691500D03*
X176530500Y-68453500D03*
X158242500Y-130937500D03*
X120142500Y-130937500D03*
X133096500Y-131699500D03*
X102616500Y-87503500D03*
X106426500Y-66929500D03*
X174244500Y-67691500D03*
X213868500Y-102743500D03*
X214630500Y-115697500D03*
X213106500Y-77597500D03*
X167315000Y-108460000D03*
X131572500Y-67691500D03*
X89662500Y-120269500D03*
X152908500Y-67691500D03*
X99568500Y-79883500D03*
X127762500Y-132461500D03*
X127437500Y-82425500D03*
X114991500Y-89537500D03*
X110998500Y-130937500D03*
X191770500Y-98933500D03*
X92710500Y-114173500D03*
X210058500Y-68453500D03*
X141478500Y-100457500D03*
X115697500Y-78486500D03*
X213106500Y-127889500D03*
X97282500Y-120269500D03*
X99568500Y-89027500D03*
X101854500Y-80645500D03*
X102616500Y-131699500D03*
X185674500Y-98933500D03*
X187960500Y-99695500D03*
X168910500Y-98933500D03*
X214630500Y-77597500D03*
X98806500Y-89789500D03*
X123190500Y-100457500D03*
X118618500Y-98933500D03*
X197104500Y-70866500D03*
X186309500Y-86868500D03*
X213106500Y-123317500D03*
X161290500Y-66929500D03*
X178054500Y-66929500D03*
X127762500Y-98933500D03*
X189484500Y-131699500D03*
X127000500Y-99695500D03*
X145288500Y-99695500D03*
X214630500Y-86741500D03*
X108712500Y-67691500D03*
X99568500Y-110363500D03*
X103378500Y-83693500D03*
X100330500Y-92837500D03*
X95758500Y-109601500D03*
X205486500Y-68453500D03*
X95758500Y-118745500D03*
X139192500Y-131699500D03*
X213106500Y-98933500D03*
X159766500Y-66929500D03*
X90043500Y-118237500D03*
X165100500Y-131699500D03*
X164338500Y-66929500D03*
X139954500Y-130937500D03*
X95758500Y-120269500D03*
X175189500Y-90172500D03*
X175768500Y-67691500D03*
X143566500Y-93728500D03*
X147574500Y-100457500D03*
X182626500Y-68453500D03*
X117094500Y-98933500D03*
X211582500Y-130937500D03*
X102616500Y-111887500D03*
X213106500Y-69977500D03*
X124008000Y-120779000D03*
X117856500Y-131699500D03*
X133858500Y-100457500D03*
X207772500Y-67691500D03*
X103378500Y-97409500D03*
X213106500Y-100457500D03*
X175006500Y-100457500D03*
X192405500Y-70866500D03*
X214630500Y-95885500D03*
X99568500Y-116459500D03*
X102616500Y-92075500D03*
X195580500Y-99695500D03*
X213868500Y-92075500D03*
X139954500Y-100457500D03*
X213106500Y-115697500D03*
X101854500Y-77597500D03*
X117094500Y-132461500D03*
X92710500Y-120269500D03*
X124714500Y-130937500D03*
X116332500Y-131699500D03*
X135382500Y-132461500D03*
X208534500Y-100457500D03*
X165862500Y-98933500D03*
X131247500Y-70487500D03*
X113213500Y-91061500D03*
X203962500Y-132461500D03*
X127762500Y-100457500D03*
X104140500Y-131699500D03*
X100330500Y-89789500D03*
X134620500Y-99695500D03*
X104902500Y-66929500D03*
X81788500Y-107569500D03*
X103378500Y-115697500D03*
X123190500Y-132461500D03*
X114046500Y-66929500D03*
X187198500Y-68453500D03*
X155194500Y-68453500D03*
X101854500Y-112649500D03*
X103378500Y-101981500D03*
X159004500Y-67691500D03*
X162814500Y-98933500D03*
X197866500Y-68453500D03*
X122428500Y-67691500D03*
X100330500Y-100457500D03*
X158242500Y-132461500D03*
X121666500Y-132461500D03*
X213106500Y-79121500D03*
X167386500Y-68453500D03*
X166624500Y-99695500D03*
X99568500Y-121031500D03*
X182499000Y-105283000D03*
X164338500Y-132461500D03*
X160528500Y-99695500D03*
X124714500Y-66929500D03*
X151384500Y-131699500D03*
X86995500Y-131699500D03*
X98806500Y-105029500D03*
X159004500Y-99695500D03*
X213868500Y-111887500D03*
X196342500Y-68453500D03*
X148336000Y-101600000D03*
X182499000Y-102870000D03*
X187198500Y-130937500D03*
X213868500Y-93599500D03*
X213106500Y-114173500D03*
X103378500Y-105029500D03*
X198247000Y-106680000D03*
X196342500Y-130937500D03*
X206248500Y-99695500D03*
X114681500Y-97164500D03*
X98806500Y-83693500D03*
X213868500Y-95123500D03*
X117094500Y-100457500D03*
X91948500Y-114935500D03*
X139954500Y-66929500D03*
X107188500Y-99695500D03*
X144526500Y-98933500D03*
X81407500Y-124587500D03*
X126238500Y-132461500D03*
X170434500Y-100457500D03*
X155194500Y-98933500D03*
X95758500Y-108077500D03*
X183388500Y-99695500D03*
X186436500Y-99695500D03*
X107950500Y-130937500D03*
X101854500Y-118745500D03*
X101854500Y-97409500D03*
X109474500Y-66929500D03*
X182372500Y-85344500D03*
X116332500Y-67691500D03*
X103378500Y-118745500D03*
X202438500Y-98933500D03*
X100330500Y-117221500D03*
X147574500Y-98933500D03*
X111760500Y-99695500D03*
X213106500Y-121793500D03*
X184912500Y-67691500D03*
X103378500Y-88265500D03*
X149098500Y-68453500D03*
X102616500Y-130175500D03*
X93091500Y-101346500D03*
X99568500Y-95123500D03*
X120142500Y-98933500D03*
X126238500Y-100457500D03*
X129286500Y-68453500D03*
X104902500Y-68453500D03*
X198247000Y-109220000D03*
X115570500Y-100457500D03*
X101854500Y-109601500D03*
X193294500Y-100457500D03*
X146050500Y-98933500D03*
X155194500Y-132461500D03*
X200716000Y-108333000D03*
X175006500Y-66929500D03*
X100330500Y-86741500D03*
X188722500Y-130937500D03*
X212344500Y-99695500D03*
X124714500Y-132461500D03*
X142240500Y-99695500D03*
X117094500Y-68453500D03*
X108204500Y-82423500D03*
X107950500Y-132461500D03*
X187198500Y-66929500D03*
X213106500Y-108077500D03*
X153218500Y-89918500D03*
X103378500Y-123317500D03*
X105664500Y-99695500D03*
X200914500Y-98933500D03*
X93472500Y-113411500D03*
X143002500Y-98933500D03*
X193294500Y-68453500D03*
X138430500Y-132461500D03*
X205486500Y-98933500D03*
X184150500Y-66929500D03*
X166624500Y-67691500D03*
X101854500Y-106553500D03*
X98806500Y-97409500D03*
X90424500Y-121031500D03*
X201224500Y-85219500D03*
X117094500Y-66929500D03*
X203200500Y-131699500D03*
X173482500Y-98933500D03*
X98806500Y-85217500D03*
X165100500Y-99695500D03*
X98806500Y-101981500D03*
X213868500Y-114935500D03*
X123952500Y-67691500D03*
X103378500Y-117221500D03*
X161290500Y-68453500D03*
X186436500Y-67691500D03*
X214630500Y-109601500D03*
X98806500Y-115697500D03*
X214630500Y-127889500D03*
X115697000Y-110490000D03*
X211582500Y-68453500D03*
X138430500Y-100457500D03*
X167315000Y-114810000D03*
X192532500Y-67691500D03*
X214630500Y-91313500D03*
X117856500Y-67691500D03*
X98806500Y-118745500D03*
X114808500Y-99695500D03*
X96520500Y-113411500D03*
X99568500Y-73787500D03*
X101854500Y-85217500D03*
X168910500Y-130937500D03*
X182499500Y-73279500D03*
X115570500Y-68453500D03*
X141859500Y-74041500D03*
X141478500Y-66929500D03*
X164338500Y-100457500D03*
X205486500Y-100457500D03*
X210058500Y-66929500D03*
X123190500Y-66929500D03*
X192532500Y-99695500D03*
X185674500Y-100457500D03*
X118618500Y-68453500D03*
X175006500Y-98933500D03*
X159766500Y-98933500D03*
X99568500Y-87503500D03*
X187325000Y-102870000D03*
X99568500Y-90551500D03*
X101854500Y-126365500D03*
X213868500Y-110363500D03*
X213868500Y-81407500D03*
X110998500Y-100457500D03*
X128524500Y-67691500D03*
X148336500Y-69596500D03*
X100330500Y-103505500D03*
X143002500Y-132461500D03*
X102616500Y-102743500D03*
X188722500Y-132461500D03*
X94996500Y-113411500D03*
X213106500Y-129413500D03*
X99568500Y-114935500D03*
X96520500Y-107315500D03*
X168910500Y-68453500D03*
X155194500Y-66929500D03*
X99568500Y-101219500D03*
X187198500Y-100457500D03*
X169672500Y-67691500D03*
X137470500Y-89156500D03*
X213868500Y-113411500D03*
X131572500Y-99695500D03*
X177292500Y-131699500D03*
X156718500Y-98933500D03*
X202438500Y-68453500D03*
X133858500Y-68453500D03*
X181864500Y-99695500D03*
X213106500Y-109601500D03*
X98806500Y-114173500D03*
X95758500Y-105029500D03*
X103378500Y-86741500D03*
X132334500Y-68453500D03*
X153670500Y-68453500D03*
X144526500Y-130937500D03*
X162814500Y-130937500D03*
X148336500Y-67691500D03*
X101854500Y-129413500D03*
X167315500Y-76456500D03*
X199390500Y-66929500D03*
X101854500Y-132461500D03*
X213868500Y-116459500D03*
X207772500Y-99695500D03*
X171958500Y-130937500D03*
X171958500Y-132461500D03*
X153670500Y-130937500D03*
X154432500Y-99695500D03*
X157607000Y-107569000D03*
X189865000Y-102870000D03*
X204724500Y-99695500D03*
X213106500Y-106553500D03*
X139954500Y-68453500D03*
X124008500Y-88775500D03*
X141859500Y-80899500D03*
X172720500Y-67691500D03*
X191770500Y-66929500D03*
X171196500Y-131699500D03*
X94234500Y-118745500D03*
X125151000Y-110365000D03*
X99568500Y-84455500D03*
X214630500Y-101981500D03*
X204724500Y-131699500D03*
X145979000Y-117096000D03*
X150622500Y-130937500D03*
X103378500Y-112649500D03*
X175189000Y-122176000D03*
X146050500Y-66929500D03*
X144526500Y-132461500D03*
X101854500Y-92837500D03*
X179578500Y-132461500D03*
X146050500Y-132461500D03*
X161290500Y-98933500D03*
X212344500Y-67691500D03*
X143002500Y-130937500D03*
X162814500Y-66929500D03*
X214630500Y-121793500D03*
X118618500Y-130937500D03*
X213106500Y-126365500D03*
X197866500Y-100457500D03*
X183444000Y-125732000D03*
X195580500Y-131699500D03*
X102616500Y-78359500D03*
X145288500Y-67691500D03*
X110236500Y-67691500D03*
X102616500Y-82931500D03*
X214630500Y-76073500D03*
X136906500Y-98933500D03*
X135382500Y-130937500D03*
X214630500Y-106553500D03*
X214630500Y-105029500D03*
X103378500Y-132461500D03*
X194818500Y-132461500D03*
X121666500Y-98933500D03*
X107950500Y-66929500D03*
X191770500Y-130937500D03*
X112522500Y-98933500D03*
X143383500Y-85090500D03*
X167315500Y-82806500D03*
X185674500Y-132461500D03*
X165862500Y-130937500D03*
X102616500Y-76835500D03*
X109982000Y-102108000D03*
X96520500Y-108839500D03*
X183388500Y-131699500D03*
X98806500Y-106553500D03*
X164338500Y-98933500D03*
X102616500Y-99695500D03*
X200152500Y-99695500D03*
X200914500Y-100457500D03*
X103378500Y-106553500D03*
X152146500Y-130937500D03*
X170434500Y-68453500D03*
X103378500Y-69977500D03*
X103378500Y-71501500D03*
X103378500Y-73025500D03*
X175768500Y-99695500D03*
X210820500Y-99695500D03*
X174244500Y-99695500D03*
X154432500Y-67691500D03*
X100330500Y-98933500D03*
X95758500Y-115697500D03*
X200914500Y-68453500D03*
X97282500Y-106553500D03*
X157480500Y-99695500D03*
X148336500Y-99695500D03*
X190246500Y-98933500D03*
X102616500Y-124079500D03*
X99568500Y-111887500D03*
X95758500Y-106553500D03*
X213868500Y-67691500D03*
X213106500Y-124841500D03*
X175768500Y-131699500D03*
X140716500Y-99695500D03*
X102616500Y-121031500D03*
X213868500Y-125603500D03*
X91186500Y-114173500D03*
X213106500Y-132461500D03*
X130048500Y-99695500D03*
X203200500Y-67691500D03*
X153670500Y-132461500D03*
X173482500Y-68453500D03*
X124714500Y-68453500D03*
X136144500Y-67691500D03*
X214630500Y-129413500D03*
X213106500Y-71501500D03*
X190246500Y-130937500D03*
X208534500Y-66929500D03*
X165862500Y-66929500D03*
X98806500Y-98933500D03*
X149098500Y-100457500D03*
X209296500Y-99695500D03*
X183515500Y-86868500D03*
X95758500Y-112649500D03*
X213868500Y-84455500D03*
X189484500Y-67691500D03*
X98806500Y-92837500D03*
X135382500Y-68453500D03*
X177292500Y-99695500D03*
X120142500Y-100457500D03*
X207010500Y-100457500D03*
X157607500Y-75565500D03*
X182499500Y-70866500D03*
X213106500Y-74549500D03*
X100330500Y-76073500D03*
X213106500Y-95885500D03*
X214630500Y-124841500D03*
X147574500Y-66929500D03*
X181102500Y-98933500D03*
X91186500Y-112649500D03*
X103378500Y-120269500D03*
X213106500Y-105029500D03*
X139954500Y-98933500D03*
X213106500Y-92837500D03*
X101854500Y-120269500D03*
X199390500Y-132461500D03*
X177094500Y-75567500D03*
X199390500Y-100457500D03*
X146812500Y-131699500D03*
X99568500Y-113411500D03*
X106863000Y-115826000D03*
X101854500Y-111125500D03*
X101854500Y-69977500D03*
X137470000Y-121160000D03*
X107950500Y-98933500D03*
X95758500Y-103505500D03*
X101854500Y-95885500D03*
X170561000Y-126619000D03*
X171196500Y-67691500D03*
X106426500Y-98933500D03*
X133096500Y-67691500D03*
X214630500Y-69977500D03*
X201676500Y-67691500D03*
X106426500Y-68453500D03*
X110236500Y-131699500D03*
X150622500Y-98933500D03*
X163576500Y-99695500D03*
X171196500Y-99695500D03*
X137668500Y-67691500D03*
X168148500Y-131699500D03*
X100330500Y-105029500D03*
X102616500Y-84455500D03*
X152146500Y-98933500D03*
X185674500Y-66929500D03*
X98806500Y-95885500D03*
X161290500Y-130937500D03*
X103378500Y-85217500D03*
X101854500Y-130937500D03*
X173482500Y-132461500D03*
X201676500Y-99695500D03*
X102616500Y-122555500D03*
X102616500Y-95123500D03*
X114173500Y-77470500D03*
X103378500Y-66929500D03*
X153218000Y-121922000D03*
X167386500Y-66929500D03*
X99568500Y-82931500D03*
X156718500Y-130937500D03*
X165862500Y-132461500D03*
X178054500Y-130937500D03*
X199390500Y-68453500D03*
X102616500Y-101219500D03*
X141859000Y-106045000D03*
X103378500Y-77597500D03*
X206248500Y-131699500D03*
X109474500Y-132461500D03*
X119761500Y-74676500D03*
X182372000Y-113030000D03*
X99568500Y-92075500D03*
X125476500Y-131699500D03*
X165862500Y-100457500D03*
X114046500Y-100457500D03*
X194818500Y-68453500D03*
X165100500Y-67691500D03*
X141478500Y-130937500D03*
X103378500Y-109601500D03*
X136906500Y-66929500D03*
X98044500Y-117983500D03*
X125151500Y-78361500D03*
X188722500Y-98933500D03*
X213106500Y-88265500D03*
X196342500Y-100457500D03*
X180340500Y-99695500D03*
X100330500Y-121793500D03*
X213106500Y-103505500D03*
X173482500Y-130937500D03*
X98044500Y-121031500D03*
X178816500Y-99695500D03*
X171958500Y-68453500D03*
X147574500Y-130937500D03*
X142240500Y-67691500D03*
X99568500Y-117983500D03*
X129286500Y-66929500D03*
X214630500Y-120269500D03*
X103378500Y-68453500D03*
X179578500Y-98933500D03*
X185674500Y-68453500D03*
X94996500Y-121031500D03*
X213868500Y-130175500D03*
X151384500Y-67691500D03*
X213106500Y-91313500D03*
X120142500Y-66929500D03*
X96520500Y-116459500D03*
X189865500Y-70866500D03*
X155194500Y-100457500D03*
X213106500Y-85217500D03*
X213868500Y-90551500D03*
X94234500Y-120269500D03*
X207010500Y-66929500D03*
X135311500Y-82552500D03*
X167386500Y-100457500D03*
X213106500Y-82169500D03*
X99568500Y-99695500D03*
X202438500Y-66929500D03*
X138430500Y-98933500D03*
X182626500Y-132461500D03*
X121666500Y-100457500D03*
X214630500Y-108077500D03*
X145669000Y-101600000D03*
X176530500Y-130937500D03*
X110998500Y-66929500D03*
X101854500Y-127889500D03*
X209296500Y-131699500D03*
X188722500Y-68453500D03*
X133858500Y-66929500D03*
X214630500Y-117221500D03*
X178816500Y-131699500D03*
X102616500Y-125603500D03*
X95758500Y-117221500D03*
X208534500Y-98933500D03*
X210820500Y-67691500D03*
X214630500Y-103505500D03*
X208534500Y-132461500D03*
X150622500Y-68453500D03*
X104902500Y-130937500D03*
X137668500Y-131699500D03*
X100330500Y-73025500D03*
X152908500Y-131699500D03*
X163576500Y-131699500D03*
X184150500Y-68453500D03*
X166624500Y-131699500D03*
X146812500Y-99695500D03*
X99568500Y-78359500D03*
X213868500Y-98171500D03*
X96520500Y-111887500D03*
X103378500Y-79121500D03*
X156718500Y-66929500D03*
X213868500Y-73787500D03*
X203962500Y-130937500D03*
X116840500Y-75184500D03*
X127437000Y-114429000D03*
X90424500Y-114935500D03*
X97282500Y-105029500D03*
X98044500Y-99695500D03*
X203962500Y-68453500D03*
X160528500Y-131699500D03*
X214630500Y-112649500D03*
X194056500Y-131699500D03*
X127762500Y-68453500D03*
X176530500Y-132461500D03*
X197104500Y-131699500D03*
X102616500Y-67691500D03*
X207010500Y-98933500D03*
X191770500Y-68453500D03*
X103378500Y-108077500D03*
X97282500Y-111125500D03*
X114046500Y-130937500D03*
X101854500Y-79121500D03*
X203962500Y-66929500D03*
X102616500Y-73787500D03*
X193294500Y-98933500D03*
X175570500Y-75567500D03*
X150622500Y-100457500D03*
X114046500Y-68453500D03*
X112522500Y-132461500D03*
X157480500Y-67691500D03*
X133858500Y-132461500D03*
X197866500Y-130937500D03*
X113284500Y-67691500D03*
X108712500Y-131699500D03*
X127000500Y-67691500D03*
X137470000Y-110365000D03*
X97282500Y-103505500D03*
X112522500Y-100457500D03*
X101854500Y-86741500D03*
X101854500Y-66929500D03*
X99568500Y-105791500D03*
X213868500Y-104267500D03*
X178816500Y-67691500D03*
X141478500Y-132461500D03*
X152583500Y-85092500D03*
X101854500Y-91313500D03*
X94996500Y-111887500D03*
X132334500Y-98933500D03*
X102616500Y-108839500D03*
X109474500Y-68453500D03*
X183388500Y-67691500D03*
X214630500Y-74549500D03*
X136906500Y-132461500D03*
X101854500Y-83693500D03*
X182372000Y-117348000D03*
X112522500Y-68453500D03*
X213868500Y-69215500D03*
X162814500Y-68453500D03*
X102616500Y-128651500D03*
X198247500Y-82042500D03*
X184150500Y-132461500D03*
X123952500Y-131699500D03*
X127000500Y-131699500D03*
X102616500Y-113411500D03*
X213868500Y-101219500D03*
X92710500Y-117221500D03*
X121666500Y-130937500D03*
X99568500Y-93599500D03*
X210058500Y-132461500D03*
X204724500Y-67691500D03*
X179578500Y-68453500D03*
X130810500Y-66929500D03*
X213868500Y-107315500D03*
X184150500Y-130937500D03*
X211582500Y-98933500D03*
X198247000Y-114046000D03*
X213106500Y-83693500D03*
X98806500Y-109601500D03*
X181864500Y-67691500D03*
X114681000Y-129168000D03*
X122428500Y-99695500D03*
X170561500Y-94615500D03*
X95758500Y-121793500D03*
X86614500Y-116459500D03*
X180340500Y-67691500D03*
X121285500Y-74549500D03*
X96520500Y-105791500D03*
X134620500Y-67691500D03*
X101092500Y-119507500D03*
X98806500Y-121793500D03*
X121285000Y-106553000D03*
X103378500Y-91313500D03*
X98806500Y-111125500D03*
X129286500Y-98933500D03*
X97282500Y-131445500D03*
X145669500Y-69596500D03*
X184785500Y-70866500D03*
X141859000Y-112903000D03*
X146050500Y-100457500D03*
X96520500Y-102743500D03*
X130048500Y-67691500D03*
X136144500Y-99695500D03*
X213868500Y-85979500D03*
X132334500Y-100457500D03*
X213106500Y-97409500D03*
X213868500Y-70739500D03*
X202438500Y-130937500D03*
X100330500Y-120269500D03*
X130810500Y-68453500D03*
X200716500Y-76329500D03*
X194818500Y-100457500D03*
X144526500Y-66929500D03*
X153670500Y-100457500D03*
X146812500Y-67691500D03*
X95758500Y-101981500D03*
X184150500Y-100457500D03*
X103378500Y-114173500D03*
X101854500Y-68453500D03*
X175006500Y-130937500D03*
X196342500Y-66929500D03*
X152146500Y-100457500D03*
X100330500Y-83693500D03*
X104902500Y-132461500D03*
X165862500Y-68453500D03*
X149860500Y-131699500D03*
X138430500Y-130937500D03*
X214630500Y-82169500D03*
X213868500Y-76835500D03*
X168910500Y-132461500D03*
X103378500Y-127889500D03*
X86741500Y-99441500D03*
X187198000Y-127762000D03*
X117094500Y-130937500D03*
X101854500Y-124841500D03*
X153289500Y-69596500D03*
X123190500Y-68453500D03*
X103378500Y-74549500D03*
X139954500Y-132461500D03*
X213106500Y-117221500D03*
X121666500Y-68453500D03*
X133858500Y-98933500D03*
X194056500Y-99695500D03*
X122428500Y-131699500D03*
X211582500Y-132461500D03*
X187198500Y-132461500D03*
X214630500Y-88265500D03*
X125024500Y-74424500D03*
X188722500Y-100457500D03*
X101854500Y-71501500D03*
X98806500Y-112649500D03*
X115570500Y-130937500D03*
X114808500Y-67691500D03*
X162814500Y-132461500D03*
X213106500Y-89789500D03*
X175006500Y-68453500D03*
X96520500Y-110363500D03*
X213868500Y-119507500D03*
X102616500Y-72263500D03*
X162052500Y-67691500D03*
X193294500Y-130937500D03*
X86741500Y-70739500D03*
X177094000Y-107571000D03*
X213106500Y-120269500D03*
X163576000Y-114935000D03*
X181102500Y-100457500D03*
X137216000Y-106428000D03*
X102616500Y-90551500D03*
X213106500Y-112649500D03*
X145288500Y-131699500D03*
X198247500Y-74676500D03*
X145979500Y-85092500D03*
X149098500Y-132461500D03*
X200914500Y-66929500D03*
X213868500Y-105791500D03*
X195580500Y-67691500D03*
X137470500Y-78361500D03*
X197104500Y-67691500D03*
X130810500Y-100457500D03*
X210241500Y-76202500D03*
X96520500Y-117983500D03*
X160782500Y-90043500D03*
X211582500Y-100457500D03*
X190246500Y-132461500D03*
X128524500Y-99695500D03*
X114991000Y-121541000D03*
X170434500Y-98933500D03*
X99568500Y-81407500D03*
X127762500Y-66929500D03*
X152908500Y-99695500D03*
X106426500Y-130937500D03*
X186436500Y-131699500D03*
X103378500Y-111125500D03*
X144526500Y-68453500D03*
X102616500Y-117983500D03*
X180340500Y-131699500D03*
X178054500Y-132461500D03*
X196342500Y-98933500D03*
X102616500Y-85979500D03*
X199390500Y-98933500D03*
X90043500Y-116967500D03*
X214630500Y-100457500D03*
X164338500Y-130937500D03*
X115570500Y-98933500D03*
X98806500Y-94361500D03*
X213868500Y-89027500D03*
X214630500Y-94361500D03*
X143002500Y-68453500D03*
X98806500Y-76073500D03*
X110998500Y-98933500D03*
X102616500Y-96647500D03*
X194818500Y-66929500D03*
X126238500Y-66929500D03*
X86614500Y-118110500D03*
X102616500Y-69215500D03*
X213868500Y-82931500D03*
X187198500Y-95758500D03*
X213868500Y-87503500D03*
X102616500Y-104267500D03*
X119380500Y-67691500D03*
X123190500Y-130937500D03*
X96520500Y-101219500D03*
X214630500Y-118745500D03*
X119560790Y-106960895D03*
X141859000Y-110617000D03*
X213868500Y-117983500D03*
X129286500Y-100457500D03*
X100330500Y-91313500D03*
X103378500Y-124841500D03*
X103378500Y-130937500D03*
X110236500Y-99695500D03*
X102616500Y-81407500D03*
X213868500Y-75311500D03*
X125024000Y-106428000D03*
X198247500Y-72644500D03*
X92710500Y-112649500D03*
X205486500Y-132461500D03*
X94234500Y-121793500D03*
X199390500Y-130937500D03*
X142240500Y-131699500D03*
X198247000Y-104648000D03*
X186309000Y-118872000D03*
X152146500Y-66929500D03*
X171958500Y-98933500D03*
X214630500Y-98933500D03*
X155194500Y-130937500D03*
X152146500Y-68453500D03*
X190754500Y-86868500D03*
X91948500Y-113411500D03*
X178054500Y-98933500D03*
X214630500Y-89789500D03*
X103378500Y-129413500D03*
X182626500Y-130937500D03*
X133858500Y-130937500D03*
X97282500Y-109601500D03*
X214630500Y-66929500D03*
X101092500Y-73787500D03*
X213106500Y-76073500D03*
X197104500Y-99695500D03*
X119380500Y-99695500D03*
X162814500Y-100457500D03*
X98806500Y-82169500D03*
X109982500Y-70104500D03*
X109474500Y-98933500D03*
X129286500Y-132461500D03*
X182626500Y-100457500D03*
X101854500Y-123317500D03*
X184150500Y-98933500D03*
X102616500Y-127127500D03*
X160528500Y-67691500D03*
X104902500Y-98933500D03*
X90424500Y-113411500D03*
X116388500Y-73154500D03*
X193294500Y-66929500D03*
X91186500Y-120269500D03*
X136906500Y-130937500D03*
X176530500Y-100457500D03*
X103378500Y-80645500D03*
X100330500Y-114173500D03*
X157607000Y-112649000D03*
X191008500Y-99695500D03*
X138430500Y-68453500D03*
X100330500Y-112649500D03*
X97282500Y-100457500D03*
X175006500Y-132461500D03*
X98806500Y-74549500D03*
X214630500Y-97409500D03*
X103378500Y-98933500D03*
X156718500Y-68453500D03*
X101092500Y-104267500D03*
X101854500Y-117221500D03*
X214630500Y-92837500D03*
X116388000Y-105158000D03*
X159766500Y-68453500D03*
X131247000Y-102491000D03*
X167386500Y-130937500D03*
X182626500Y-66929500D03*
X198628500Y-67691500D03*
X103378500Y-76073500D03*
X114808500Y-131699500D03*
X210241000Y-108206000D03*
X200152500Y-67691500D03*
X94234500Y-115697500D03*
X160782000Y-122047000D03*
X170434500Y-130937500D03*
X116332500Y-99695500D03*
X102616500Y-110363500D03*
X102616500Y-98171500D03*
X100330500Y-74549500D03*
X156718500Y-132461500D03*
X207010500Y-132461500D03*
X124714500Y-100457500D03*
X98044500Y-102743500D03*
X213868500Y-128651500D03*
X125476500Y-99695500D03*
X198628500Y-99695500D03*
X100330500Y-80645500D03*
X101092500Y-75311500D03*
X97282500Y-108077500D03*
X168910500Y-66929500D03*
X98806500Y-86741500D03*
X167386500Y-132461500D03*
X213868500Y-78359500D03*
X179578500Y-130937500D03*
X213868500Y-122555500D03*
X190246500Y-100457500D03*
X176530500Y-66929500D03*
X132334500Y-130937500D03*
X99568500Y-104267500D03*
X194818500Y-130937500D03*
X118618500Y-100457500D03*
X123952500Y-99695500D03*
X214630500Y-130937500D03*
X101092500Y-121031500D03*
X176530500Y-98933500D03*
X94234500Y-117221500D03*
X182372500Y-83185500D03*
X154940500Y-85090500D03*
X155956500Y-131699500D03*
X120904500Y-67691500D03*
X214630500Y-83693500D03*
X172720500Y-131699500D03*
X191008500Y-67691500D03*
X89662500Y-112649500D03*
X205486500Y-66929500D03*
X94234500Y-114173500D03*
X98806500Y-108077500D03*
X178054500Y-100457500D03*
X149860500Y-67691500D03*
X124714500Y-98933500D03*
X99568500Y-75311500D03*
X167386500Y-98933500D03*
X119380500Y-131699500D03*
X175570000Y-107571000D03*
X97282500Y-115697500D03*
X203962500Y-100457500D03*
X205486500Y-130937500D03*
X137216500Y-74424500D03*
X99568500Y-107315500D03*
X113213000Y-123065000D03*
X102616500Y-70739500D03*
X181864500Y-131699500D03*
X158242500Y-100457500D03*
X103378500Y-103505500D03*
X147574500Y-132461500D03*
X202438500Y-132461500D03*
X149098500Y-130937500D03*
X134620500Y-131699500D03*
X103378500Y-82169500D03*
X202438500Y-100457500D03*
X100330500Y-79121500D03*
X109474500Y-130937500D03*
X194818500Y-98933500D03*
X103378500Y-95885500D03*
X116459500Y-70104500D03*
X162052500Y-131699500D03*
X190246500Y-66929500D03*
X173482500Y-100457500D03*
X101092500Y-102743500D03*
X198247500Y-84582500D03*
X102616500Y-79883500D03*
X151384500Y-99695500D03*
X213106500Y-111125500D03*
X121595500Y-83822500D03*
X187198500Y-98933500D03*
X100330500Y-109601500D03*
X150622500Y-66929500D03*
X103378500Y-94361500D03*
X158242500Y-68453500D03*
X98806500Y-120269500D03*
X192532500Y-131699500D03*
X192405000Y-102870000D03*
X163576500Y-82931500D03*
X157480500Y-131699500D03*
X188722500Y-66929500D03*
X213868500Y-99695500D03*
X120904500Y-131699500D03*
X213868500Y-72263500D03*
X208534500Y-130937500D03*
X115570500Y-66929500D03*
X101854500Y-74549500D03*
X184912500Y-131699500D03*
X194056500Y-67691500D03*
X100330500Y-88265500D03*
X113284500Y-99695500D03*
X214630500Y-123317500D03*
X104140500Y-99695500D03*
X210058500Y-130937500D03*
X94996500Y-116459500D03*
X125476500Y-67691500D03*
X141859500Y-78613500D03*
X101854500Y-94361500D03*
X143002500Y-100457500D03*
X93472500Y-116459500D03*
X98806500Y-79121500D03*
X137668500Y-99695500D03*
X102616500Y-114935500D03*
X213106500Y-130937500D03*
X214630500Y-80645500D03*
X93472500Y-121031500D03*
X100330500Y-77597500D03*
X187325500Y-70866500D03*
X95758500Y-111125500D03*
X141478500Y-98933500D03*
X128524500Y-131699500D03*
X183515000Y-118872000D03*
X116840500Y-76454500D03*
X159766500Y-100457500D03*
X213868500Y-124079500D03*
X214630500Y-79121500D03*
X201676500Y-131699500D03*
X146050500Y-68453500D03*
X98806500Y-100457500D03*
X192969500Y-90045500D03*
X121595000Y-115826000D03*
X147574500Y-68453500D03*
X140716500Y-131699500D03*
X184785000Y-102870000D03*
X171958500Y-100457500D03*
X182626500Y-98933500D03*
X154488000Y-124589000D03*
X214630500Y-73025500D03*
X102616500Y-119507500D03*
X104902500Y-100457500D03*
X112522500Y-130937500D03*
X103378500Y-126365500D03*
X97282500Y-118745500D03*
X208534500Y-68453500D03*
X132334500Y-66929500D03*
X136144500Y-131699500D03*
X97282500Y-112649500D03*
X126238500Y-130937500D03*
X182372500Y-81026500D03*
X143566000Y-125732000D03*
X110998500Y-68453500D03*
X152583000Y-117096000D03*
X213868500Y-121031500D03*
X100330500Y-94361500D03*
X203200500Y-99695500D03*
X146050500Y-130937500D03*
X100330500Y-115697500D03*
X198628500Y-131699500D03*
X169672500Y-99695500D03*
X143764500Y-99695500D03*
X171958500Y-66929500D03*
X157607500Y-83058500D03*
X99568500Y-85979500D03*
X173482500Y-66929500D03*
X190246500Y-68453500D03*
X191008500Y-131699500D03*
X98806500Y-80645500D03*
X181102500Y-68453500D03*
X213106500Y-73025500D03*
X182372000Y-115189000D03*
X100330500Y-85217500D03*
X101854500Y-98933500D03*
X157607000Y-105029000D03*
X135382500Y-98933500D03*
X100330500Y-108077500D03*
X136906500Y-100457500D03*
X163576500Y-67691500D03*
X189484500Y-99695500D03*
X211582500Y-66929500D03*
X101854500Y-73025500D03*
X101854500Y-115697500D03*
X213106500Y-94361500D03*
X213868500Y-79883500D03*
X141859000Y-115316000D03*
X158242500Y-98933500D03*
X155956500Y-99695500D03*
X130048500Y-131699500D03*
X190754000Y-118872000D03*
X143002500Y-66929500D03*
X168910500Y-100457500D03*
X193675000Y-118872000D03*
X198247000Y-116586000D03*
X155956500Y-67691500D03*
X161290500Y-132461500D03*
X192969000Y-122049000D03*
X114046500Y-132461500D03*
X89662500Y-121793500D03*
X117856500Y-99695500D03*
X197866500Y-132461500D03*
X214630500Y-126365500D03*
X100330500Y-106553500D03*
X213106500Y-101981500D03*
X99568500Y-76835500D03*
X153670500Y-98933500D03*
X101854500Y-121793500D03*
X130810500Y-130937500D03*
X135382500Y-100457500D03*
X98806500Y-117221500D03*
X168148500Y-67691500D03*
X197866500Y-98933500D03*
X214630500Y-111125500D03*
X94234500Y-112649500D03*
X102616500Y-89027500D03*
X200152500Y-131699500D03*
X96520500Y-121031500D03*
X206248500Y-67691500D03*
X210820500Y-131699500D03*
X190810500Y-97284500D03*
X151130500Y-97409500D03*
X167132500Y-96012500D03*
X208788500Y-82042500D03*
X123952500Y-90932500D03*
X108585500Y-73533500D03*
X105664500Y-65659500D03*
X105410500Y-93345500D03*
X107188500Y-125603000D03*
X90446000Y-134493500D03*
X168656500Y-86868500D03*
X150750500Y-69596500D03*
X83820500Y-115951500D03*
X83820500Y-118745500D03*
X108585000Y-105537000D03*
X116078500Y-112268500D03*
X150750000Y-101600000D03*
X168656000Y-118872000D03*
X77978500Y-106807500D03*
X119888000Y-107950000D03*
X82042500Y-112649500D03*
X82677500Y-105283500D03*
X119888500Y-75819500D03*
X94996500Y-117983500D03*
X190810000Y-129288000D03*
X208280000Y-114046000D03*
X167132000Y-128016000D03*
X151130000Y-129413000D03*
M02*
